<svg height="423" viewBox="0 0 488 423" width="488" xmlns="http://www.w3.org/2000/svg" xmlns:xlink="http://www.w3.org/1999/xlink" className="w-full h-auto rounded-3xl"><mask id="a" fill="#fff"><path d="m95.835257 47.8939675c0 26.4495354-21.4537697 47.8923493-47.918438 47.8923493-26.4630493 0-47.916819-21.4428139-47.916819-47.8923493 0-26.4511536 21.4537697-47.8939675 47.916819-47.8939675 26.4646683 0 47.918438 21.4428139 47.918438 47.8939675" fill="#fff" fill-rule="evenodd"/></mask><mask id="b" fill="#fff"><path d="m95.833638 47.8923493c0 26.4511536-21.4537697 47.8923493-47.916819 47.8923493-26.4646683 0-47.916819-21.4411957-47.916819-47.8923493 0-26.4495354 21.4521507-47.8923493 47.916819-47.8923493 26.4630493 0 47.916819 21.4428139 47.916819 47.8923493" fill="#fff" fill-rule="evenodd"/></mask><mask id="c" fill="#fff"><path d="m95.833638 47.8923493c0 26.4511536-21.4537697 47.8939675-47.916819 47.8939675-26.4646683 0-47.916819-21.4428139-47.916819-47.8939675 0-26.4495354 21.4521507-47.8923493 47.916819-47.8923493 26.4630493 0 47.916819 21.4428139 47.916819 47.8923493" fill="#fff" fill-rule="evenodd"/></mask><mask id="d" fill="#fff"><path d="m17.9916171.28140262c8.8480003-.48222463 17.7300002-.34467733 26.5585721.41264188 1.2969297 5.18610271 2.0991483 10.4737342 2.7089518 15.7892528-6.3241724 3.0749161-13.4254452 4.7991497-20.9295182 4.7991497-9.7254192 0-18.77391477-2.8957798-26.3296228-7.8717313l.61304156-1.1089973 1.12513095-1.9874544c1.82302805-3.18138797 3.82900652-5.95175228 6.81449829-8.13470873 2.2176088-1.62174809 4.8596166-1.74401235 7.5429526-1.82703976l.9481521-.03005235" fill="#fff" fill-rule="evenodd"/></mask><mask id="e" fill="#fff"><path d="m95.833638 47.8923493c0 26.4511536-21.4537697 47.8939675-47.916819 47.8939675-26.4646683 0-47.916819-21.4428139-47.916819-47.8939675 0-26.4495354 21.4521507-47.8923493 47.916819-47.8923493 26.4630493 0 47.916819 21.4428139 47.916819 47.8923493" fill="#fff" fill-rule="evenodd"/></mask><mask id="f" fill="#fff"><path d="m95.833638 47.8923493c0 26.4511536-21.4537697 47.8923493-47.916819 47.8923493-26.4646683 0-47.916819-21.4411957-47.916819-47.8923493s21.4521507-47.8923493 47.916819-47.8923493c26.4630493 0 47.916819 21.4411957 47.916819 47.8923493" fill="#fff" fill-rule="evenodd"/></mask><mask id="g" fill="#fff"><path d="m95.833638 47.8923493c0 26.4511536-21.4521507 47.8923493-47.916819 47.8923493-26.4630493 0-47.916819-21.4411957-47.916819-47.8923493 0-26.4495354 21.4537697-47.8923493 47.916819-47.8923493 26.4646683 0 47.916819 21.4428139 47.916819 47.8923493" fill="#fff" fill-rule="evenodd"/></mask><mask id="h" fill="#fff"><path d="m6.19975991 0c.17161721 1.85446115-.70589718 3.81734194-1.08960735 5.62163878-.24416708 1.14560474-.48412583 2.29211081-.72156002 3.43912983-1.49230219-.38856316-2.95651543-.84937257-4.38859254-1.37658993" fill="#fff" fill-rule="evenodd"/></mask><mask id="i" fill="#fff"><path d="m95.833638 47.8923493c0 26.4511536-21.4521507 47.8923493-47.916819 47.8923493-26.4630493 0-47.916819-21.4411957-47.916819-47.8923493 0-26.4495354 21.4537697-47.8923493 47.916819-47.8923493 26.4646683 0 47.916819 21.4428139 47.916819 47.8923493" fill="#fff" fill-rule="evenodd"/></mask><mask id="j" fill="#fff"><path d="m27.4838419.01164659c2.2812136-.24111231 5.1290878 3.32217169 5.9499361 5.05850399.5133851 1.08904345.8102164 2.25192228.9989149 3.44231723-5.1228027 1.86908039-10.6539969 2.88809469-16.423416 2.88809469-6.3697678 0-12.44930529-1.2422713-18.0092769-3.4976629l.12061177-.25171452c1.54617388-3.03089506 4.02652821-5.7235856 7.24030324-6.84500059 3.69786509 3.41764568 9.29970969 4.28662094 14.01918289 2.76389149 1.1397972-.36733218 2.2374998-.87544807 3.2445366-1.52434765" fill="#fff" fill-rule="evenodd"/></mask><mask id="k" fill="#fff"><path d="m95.833638 47.8923493c0 26.4511536-21.4521507 47.8923493-47.916819 47.8923493-26.4630493 0-47.916819-21.4411957-47.916819-47.8923493 0-26.4495354 21.4537697-47.8923493 47.916819-47.8923493 26.4646683 0 47.916819 21.4428139 47.916819 47.8923493" fill="#fff" fill-rule="evenodd"/></mask><mask id="l" fill="#fff"><path d="m95.833638 47.8923493c0 26.4511536-21.4521507 47.8939675-47.916819 47.8939675-26.4630493 0-47.916819-21.4428139-47.916819-47.8939675 0-26.4495354 21.4537697-47.8923493 47.916819-47.8923493 26.4646683 0 47.916819 21.4428139 47.916819 47.8923493" fill="#fff" fill-rule="evenodd"/></mask><mask id="m" fill="#fff"><path d="m32.4615115.13574726c.427424-.92723058 3.2008228 3.17329696 3.8079592 3.89663391 1.7251874 2.05861071 3.259316 4.25108755 4.6625577 6.52834503-6.0433669 2.7533797-12.760591 4.2861086-19.8361091 4.2861086-7.5702306 0-14.73052737-1.75477-21.0959193-4.87957361 1.96622982-4.01280611 4.87803188-7.52541548 9.0519533-8.81042755 2.3054991 4.71868126 7.2160178 8.33374776 12.4681519 8.17516382 3.5294859-.10518322 8.2133404-3.05516811 10.0056069-6.08768137" fill="#fff" fill-rule="evenodd"/></mask><mask id="n" fill="#fff"><path d="m95.833638 47.8923493c0 26.4511536-21.4521507 47.8939675-47.916819 47.8939675-26.4630493 0-47.916819-21.4428139-47.916819-47.8939675 0-26.4495354 21.4537697-47.8923493 47.916819-47.8923493 26.4646683 0 47.916819 21.4428139 47.916819 47.8923493" fill="#fff" fill-rule="evenodd"/></mask><g fill="none" fill-rule="evenodd"><path d="m469.31801 423h-450.6376391c-10.31646068 0-18.6803709-8.359639-18.6803709-18.67245v-385.6567186c0-10.31119238 8.36391022-18.6708314 18.6803709-18.6708314h450.6376391c10.31808 0 18.68199 8.35963902 18.68199 18.6708314v385.6567186c0 10.312811-8.36391 18.67245-18.68199 18.67245" fill="#e9e0d7"/><g fill="#fffffe"><path d="m86.327 139.599-1.645-4.568 3.806-1.367 1.645 4.568z"/><path d="m103.774981 133.328637-1.644934-4.568188 7.57868-2.725055 1.644935 4.568188zm-10.6095048 3.812487-1.6433157-4.568188 7.5770615-2.723437 1.644935 4.568189zm137.9187098-49.5704261-1.644934-4.5698065 7.57868-2.7234365 1.643316 4.5698066zm-10.609505 3.8124873-1.644935-4.5681883 7.578681-2.7234364 1.644935 4.5681883zm-10.609505 3.8141056-1.643316-4.5698066 7.577062-2.7234364 1.644934 4.5681883zm-10.607886 3.8124873-1.644935-4.5681884 7.578681-2.7234364 1.643315 4.5681884zm-10.609505 3.8124869-1.644935-4.5681879 7.57868-2.7234364 1.643316 4.5681883zm-10.609506 3.814106-1.644934-4.568188 7.57868-2.7234368 1.644935 4.5681888zm-10.609505 3.812487-1.643315-4.568188 7.577061-2.723436 1.644935 4.568188zm-10.607886 3.814106-1.644935-4.568189 7.578681-2.725054 1.643316 4.569806zm-10.609505 3.812487-1.644935-4.568188 7.578681-2.723437 1.644935 4.568189zm-10.609505 3.814106-1.643316-4.569807 7.577062-2.723436 1.644934 4.569806zm-10.609505 3.812487-1.643316-4.568188 7.577061-2.723437 1.644935 4.568189zm-10.607886 3.814106-1.644935-4.569807 7.57868-2.723436 1.643316 4.568188z"/><path d="m241.692 83.757-1.643-4.569 3.808-1.369 1.645 4.569z"/><path d="m222.568 241.12-3.28-2.367 2.841-3.937 3.282 2.367z"/><path d="m231.709132 247.716202-6.529549-4.712208 2.843017-3.935471 6.529549 4.71059zm9.142664 6.594179-6.529549-4.71059 2.843017-3.937089 6.529549 4.71059zm9.141044 6.595798-6.529549-4.710591 2.843018-3.937089 6.529549 4.710591zm9.142664 6.595797-6.529549-4.712209 2.843017-3.93547 6.529549 4.71059zm9.141045 6.594179-6.529549-4.71059 2.843017-3.937089 6.529549 4.71059zm9.142664 6.594179-6.529549-4.71059 2.843017-3.935471 6.529549 4.71059zm9.139425 6.595797-6.52793-4.71059 2.843018-3.937089 6.52793 4.712208zm9.142664 6.595798-6.529549-4.710591 2.843017-3.937089 6.529549 4.710591zm9.141045 6.594179-6.529549-4.710591 2.843017-3.937089 6.529549 4.710591zm9.142664 6.595797-6.529549-4.71059 2.841398-3.937089 6.531168 4.71059zm9.141044 6.594179-6.529549-4.71059 2.843018-3.935471 6.529549 4.71059zm9.142664 6.595797-6.529549-4.71059 2.841398-3.937089 6.531168 4.71059zm9.141045 6.594179-6.529549-4.71059 2.843017-3.935471 6.529549 4.71059zm9.142664 6.595797-6.529549-4.71059 2.841398-3.937089 6.531168 4.71059z"/><path d="m356.444 337.703-3.28-2.368 2.843-3.935 3.28 2.369z"/><path d="m367.852 338.086-4.6-1.556 1.297-3.832 4.601 1.556z"/><path d="m373.795226 320.528885-4.601284-1.555094 2.580734-7.623356 4.601284 1.555093zm-3.612057 10.675288-4.601284-1.555094 2.580735-7.624974 4.601284 1.555093zm46.961592-138.767419-4.601284-1.555093 2.580734-7.623357 4.599665 1.553476zm-3.613676 10.675288-4.601284-1.555093 2.580734-7.624975 4.601284 1.555094zm-3.612056 10.67367-4.601284-1.555093 2.580734-7.624975 4.599665 1.555094zm-3.613676 10.67367-4.599665-1.553475 2.579115-7.624975 4.601284 1.555094zm-3.610437 10.675288-4.601284-1.555093 2.580734-7.624975 4.601284 1.555094zm-3.613676 10.67367-4.599665-1.555093 2.579115-7.624975 4.601284 1.555094zm-3.612056 10.675289-4.601284-1.555094 2.580734-7.624975 4.601284 1.555094zm-3.613676 10.67367-4.599665-1.555094 2.579115-7.624975 4.601284 1.555094zm-3.612056 10.67367-4.601284-1.555094 2.580734-7.623356 4.601284 1.555093zm-3.610438 10.675288-4.601284-1.555094 2.580735-7.624975 4.599664 1.555094zm-3.613675 10.67367-4.601284-1.555094 2.580734-7.623356 4.601284 1.555093zm-3.612057 10.675288-4.601284-1.555094 2.580735-7.624974 4.599664 1.555093z"/><path d="m420.755 181.763-4.601-1.557 1.298-3.832 4.602 1.557z"/><path d="m260.094 81.905-3.651-1.746 2.097-4.379 3.651 1.747z"/><path d="m270.264718 86.768069-7.264589-3.4742828 2.096645-4.3788586 7.264588 3.4742828zm10.169129 4.8627013-7.26297-3.4742828 2.096645-4.3788585 7.262969 3.4742828zm10.170748 4.8627014-7.264589-3.4742828 2.096644-4.3788585 7.264589 3.4742828zm10.170748 4.8627013-7.264589-3.4742827 2.096644-4.3788586 7.264589 3.4742828zm10.170748 4.862701-7.264589-3.472664 2.096644-4.3788587 7.264589 3.4726647zm10.169129 4.862702-7.26297-3.474283 2.096644-4.378859 7.26297 3.474283zm10.170748 4.862701-7.264589-3.472664 2.096644-4.378859 7.264589 3.472665zm10.172367 4.862702-7.266208-3.472665 2.096644-4.378859 7.266208 3.472665zm10.169129 4.864319-7.264589-3.474283 2.095025-4.378858 7.266208 3.474283zm10.170748 4.861083-7.264589-3.472664 2.096644-4.378859 7.264589 3.472665zm10.169129 4.862702-7.26297-3.472665 2.096644-4.378858 7.26297 3.472664zm10.172367 4.864319-7.266208-3.474283 2.096644-4.378858 7.264589 3.474283zm10.169129 4.862702-7.264589-3.474283 2.096644-4.378859 7.264589 3.474283zm10.170748 4.862701-7.264589-3.474283 2.096644-4.378858 7.264589 3.474282z"/><path d="m409.037 153.119-3.651-1.746 2.096-4.379 3.651 1.746z"/><path d="m77.231 141.203-3.337-2.29 2.748-4.002 3.338 2.29z"/><path d="m86.5258332 147.581773-6.6396431-4.555243 2.7474944-4.003435 6.639643 4.555242zm9.2932335 6.378958-6.639643-4.555243 2.7474943-4.003435 6.6396431 4.555242zm9.2948523 6.378958-6.6396427-4.556861 2.7491137-4.001817 6.638024 4.555242zm9.293234 6.378958-6.638024-4.556861 2.747494-4.001817 6.638024 4.555242zm9.293234 6.37734-6.638024-4.555243 2.750732-4.001817 6.638024 4.556861zm9.296471 6.380576-6.639643-4.556861 2.747494-4.001817 6.639643 4.555242zm9.291615 6.37734-6.639643-4.556861 2.752351-4.001817 6.638024 4.55686zm9.293233 6.378958-6.636405-4.556861 2.750733-4.001817 6.636405 4.55686zm9.296472 6.378958-6.638024-4.556861 2.747494-4.001817 6.639643 4.555242zm9.294853 6.378958-6.639643-4.556861 2.747494-4.001817 6.639643 4.555242zm9.293233 6.378958-6.639643-4.556861 2.749113-4.001817 6.638024 4.555242zm9.291615 6.377339-6.636405-4.555242 2.750732-4.001817 6.636405 4.555242zm9.294852 6.378958-6.638024-4.55686 2.750733-4.001818 6.639643 4.556861zm9.294853 6.378958-6.639643-4.55686 2.750732-4.001818 6.639643 4.556861z"/><path d="m213.341 234.617-3.338-2.29 2.747-4.002 3.339 2.29z"/><path d="m247.126 228.57-1.645-4.569 3.809-1.369 1.643 4.569z"/><path d="m264.573827 222.297463-1.643316-4.568189 7.577062-2.723436 1.644934 4.568188zm-10.607886 3.812487-1.644935-4.568188 7.57868-2.723437 1.643316 4.568188zm137.917091-49.570426-1.644935-4.568189 7.578681-2.725054 1.644934 4.569806zm-10.609505 3.814105-1.643316-4.569806 7.577061-2.723437 1.644935 4.568188zm-10.607887 3.812487-1.644934-4.569806 7.57868-2.723437 1.643316 4.568189zm-10.609505 3.812488-1.644934-4.568189 7.57868-2.723436 1.644935 4.568188zm-10.609505 3.812487-1.643316-4.568188 7.577062-2.723437 1.644935 4.568189zm-10.609505 3.814106-1.643316-4.568189 7.577062-2.723436 1.644934 4.568188zm-10.607886 3.812487-1.644935-4.568188 7.578681-2.723437 1.643315 4.568189zm-10.609505 3.814105-1.644935-4.568188 7.57868-2.725054 1.644935 4.569806zm-10.609506 3.812488-1.643315-4.568189 7.577061-2.723436 1.644935 4.568188zm-10.609505 3.814105-1.643315-4.569806 7.57868-2.723437 1.643316 4.569807zm-10.607886 3.812488-1.644935-4.568189 7.578681-2.723436 1.643316 4.568188zm-10.609505 3.814105-1.644935-4.569806 7.578681-2.723437 1.644935 4.568189z"/><path d="m402.494 172.725-1.645-4.568 3.81-1.369 1.643 4.57z"/><path d="m222.557 234.211-4.797-.753.628-3.997 4.797.753z"/><path d="m225.43539 215.902322-4.795568-.754082 1.248272-7.950234 4.797187.752465zm-1.750172 11.131622-4.795568-.752465 1.248273-7.951851 4.797186.754082zm22.752232-144.7143163-4.797187-.7540828 1.251511-7.9502336 4.797186.7524646zm-1.750172 11.1316215-4.797186-.7524646 1.25151-7.9518517 4.797187.7540828zm-1.750171 11.1316218-4.797187-.752465 1.25151-7.9518516 4.795568.7540828zm-1.750172 11.133239-4.797187-.754082 1.251511-7.951852 4.795567.754083zm-1.750172 11.131622-4.797186-.754083 1.249891-7.951852 4.797187.754083zm-1.750171 11.131622-4.797187-.754083 1.249891-7.950234 4.797187.752465zm-1.750172 11.131621-4.797187-.754083 1.249892-7.950233 4.797186.752464zm-1.750172 11.131622-4.797186-.752465 1.249891-7.951852 4.797187.754083zm-1.750171 11.131621-4.797187-.754083 1.249891-7.950233 4.797187.754083zm-1.750172 11.13324-4.797187-.754083 1.249892-7.951852 4.797186.754083zm-1.750172 11.131621-4.797186-.754082 1.249891-7.951852 4.797186.754083zm-1.750172 11.131622-4.797186-.754083 1.249891-7.950233 4.797187.752464z"/><path d="m248.188 71.186-4.798-.752.629-3.995 4.797.75z"/><path d="m101.379 346.342-4.046-.176.212-4.85 4.044.177z"/><path d="m113.011549 346.845727-8.308863-.359241.208855-4.849755 8.308863.359241zm11.631113.501644-8.308863-.359242.208855-4.849755 8.308863.359241zm11.629494.503261-8.308863-.359241.208855-4.849756 8.308863.359241zm11.631114.503261-8.308864-.359241.208855-4.849756 8.308863.359241zm11.629494.503261-8.305625-.359241.207236-4.849756 8.307244.359242zm11.631113.503262-8.307244-.359242.208855-4.849755 8.307244.359241zm11.632732.503261-8.308863-.359241.208855-4.849756 8.307244.359241zm11.629495.503261-8.307245-.359241.208855-4.849756 8.307244.359241zm11.631113.503261-8.307244-.359241.208855-4.849755 8.307244.359241zm11.631113.503262-8.308863-.359241.208855-4.851374 8.308863.360859zm11.631113.503261-8.307244-.359241.208855-4.851374 8.307244.360859zm11.629495.503261-8.305626-.359241.208855-4.849756 8.305625.359242zm11.632732.503262-8.308863-.359242.208854-4.849755 8.308864.359241zm11.631113.501643-8.307244-.357623.208855-4.849756 8.307244.357623zm11.629494.503261-8.307244-.359241.208855-4.849756 8.307244.359241zm11.632733.503261-8.308864-.359241.208855-4.849756 8.308863.359241zm11.629494.503261-8.305625-.359241.207235-4.849755 8.307245.359241zm11.631113.503262-8.307244-.359241.208855-4.849756 8.307244.359241zm11.632732.503261-8.308863-.359241.208855-4.849756 8.307244.359241zm11.629495.503261-8.307245-.359241.208855-4.849756 8.307244.359241z"/><path d="m341.366 356.723-4.044-.175.209-4.849 4.044.174z"/><path d="m85.006 321.584-.337-4.031 4.841-.405.336 4.031z"/><path d="m83.4626279 303.115397-.6702785-8.021434 4.8409004-.404551.6702786 8.021435zm.9374185 11.228714-.6702785-8.019816 4.8409004-.404551.6702786 8.019816zm-12.2026309-145.981369-.6702785-8.021435 4.8409004-.404551.6702785 8.021435zm.9390376 11.228713-.6702786-8.019816 4.8409005-.404551.6702785 8.019816zm.9374185 11.230332-.6702785-8.021434 4.8409004-.404551.6702785 8.021434zm.9390375 11.228714-.6702785-8.021435 4.8409004-.40455.6702785 8.021434zm.9390376 11.230332-.6702786-8.021435 4.8425195-.40455.6702785 8.021434zm.9390375 11.228714-.6718976-8.021435 4.8425195-.404551.6718975 8.021435zm.9390375 11.228713-.6702785-8.019816 4.8409004-.404551.6702786 8.019817zm.9390376 11.230332-.6702785-8.021434 4.8409004-.404551.6702785 8.021434zm.9390375 11.228714-.6702785-8.019816 4.8409004-.404551.6702785 8.019816zm.9390375 11.230332-.6718975-8.021435 4.8409004-.40455.6718976 8.021434zm.9374186 11.228714-.6702786-8.021435 4.8409005-.404551.6702785 8.021435zm.9390375 11.228713-.6702785-8.019816 4.8409004-.404551.6702785 8.019817z"/><path d="m71.258 157.132-.336-4.031 4.841-.404.336 4.031z"/><path d="m80.168 346.593-2.963-3.848 3.207-2.468 2.963 3.849z"/><path d="m94.8638389 335.2869-2.9628253-3.846469 6.3805981-4.90963 2.9628253 3.84647zm-8.9338089 6.87251-2.9644443-3.846469 6.3822172-4.908011 2.9628253 3.846469zm116.142753-89.35234-2.962825-3.846469 6.380598-4.90963 2.962826 3.84647zm-8.935428 6.87251-2.962825-3.846469 6.382217-4.909629 2.962826 3.846469zm-8.933808 6.874129-2.962826-3.84647 6.382217-4.909629 2.962826 3.846469zm-8.933809 6.87251-2.962826-3.84647 6.380599-4.909629 2.962825 3.846469zm-8.933809 6.874128-2.964445-3.84647 6.382218-4.909629 2.962825 3.84647zm-8.933809 6.87251-2.962825-3.84647 6.380598-4.909629 2.962825 3.84647zm-8.935428 6.87251-2.962825-3.84647 6.382217-4.908011 2.962825 3.84647zm-8.933809 6.875747-2.962825-3.849706 6.382217-4.908012 2.962825 3.848088zm-8.933809 6.87251-2.962825-3.84647 6.382217-4.909629 2.962826 3.846469zm-8.933809 6.87251-2.962825-3.84647 6.380598-4.909629 2.962826 3.846469zm-8.933808 6.874128-2.962826-3.84647 6.380598-4.909629 2.964445 3.84647zm-8.933809 6.87251-2.962826-3.84647 6.380599-4.909629 2.962825 3.84647z"/><path d="m211.005 245.933-2.963-3.847 3.209-2.467 2.963 3.848z"/></g><path d="m119.866523 136.692882c0 26.449535-21.4537698 47.892349-47.9168191 47.892349-26.4646683 0-47.916819-21.442814-47.916819-47.892349 0-26.451154 21.4521507-47.8939677 47.916819-47.8939677 26.4630493 0 47.9168191 21.4428137 47.9168191 47.8939677" fill="#63bc9f"/><g transform="translate(23.763 88.799)"><path d="m67.2043263 30.2037674c.4549475.9871041.8726573 1.9920084 1.2531294 3.0114766.3140918.8447022.6038982 1.7120593.6557072 2.6117804.051809.8738298-.1214273 1.7411869-.1926646 2.6133986-.1343795 1.6618949.1100941 3.3351173.4970423 4.9581753.2396165 1.0065226.53428 2.0049541.6848498 3.0292769.3610437 2.4434872-.1343795 5.003485-1.3794138 7.134659-2.0691206-3.1328419-2.7426372-6.9469474-3.5634855-10.61056-.8078961-3.6102119-1.7987426-7.1783505-2.9693015-10.6866156-.055047-.1650568-.1100941-.3446773-.0485709-.5064977.0922847-.2492033.3999005-.3284953.6621834-.373805.8726573-.1456383 1.7453146-.2912766 2.6163528-.4369149" fill="#7d563b" mask="url(#a)"/><path d="m61.0682016 82.7209422c.5925651.7152459 1.282272 1.4013641 1.5720784 2.2622484.3416154 1.0162317.0728564 2.1182283-.2218071 3.1522603-1.2579865 4.4209318-3.0988239 8.9211556-6.7691655 12.0200151-.7139923.601972-1.5283645 1.160252-2.4771162 1.320454-1.6708392.281568-3.2364415-.710391-4.5802366-1.6521856-3.2202511-2.2557756-6.6606904-4.8190099-7.4880148-8.471295-.6038983-2.6651811.3157108-5.4047996.9714181-8.0699806.9940846-4.0438905 1.390747-8.2075279 1.1737969-12.3388014.0307616.5728441 6.4048837 1.304272 7.1237331 1.3819458 1.8456945.2006572 4.5883317-.2281667 6.2802183.5404799 1.7032198.7735013 1.4182705 2.1926657 1.659506 3.7283408.3480915 2.2153205 1.2806529 4.3481127 2.7555894 6.1265183" fill="#e1ae93" mask="url(#a)"/><path d="m58.6914653 78.4909583c-.1149512-.4320603-.2250452-.8657388-.2946635-1.3058901-.2412356-1.5356751.0453328-2.9548395-1.657887-3.7283408-1.6935056-.7686466-4.4361429-.3382045-6.2818373-.5404799-.7188495-.0776738-7.0929715-.8091018-7.1221141-1.3819458.1230463 2.3641952.0226664 4.7348633-.2509497 7.0909675 5.0610886 1.5809848 10.9138829 1.4272555 15.6074516-.1343109" fill="#bc937d" mask="url(#a)"/><path d="m32.7351724 65.3738012c2.9757776 4.4112226 6.6509763 8.6395882 11.882063 10.8193082 5.2310867 2.1813383 12.3256772 1.8285699 16.9010567-2.0583548 1.55265-1.3188358 2.731304-2.9532212 3.7318647-4.6329164 2.8365409-4.7607546 4.3713816-10.0587527 4.4167145-15.2402401.0323806-3.857797-.7415159-7.6104108-1.6303635-11.3047693-1.3826518-5.7559497-3.2072989-11.6931381-7.7794403-15.6836279-4.1139558-3.5891752-10.1869383-5.1895784-16.2162069-4.6733715-6.0276496.5178251-11.9630144 3.0600227-16.758582 6.7559994-6.1280295 4.7219177-5.4723222 9.9681332-3.8646252 15.7871928 1.9865501 7.1864416 5.1290878 14.0217329 9.317519 20.2307796" fill="#e1ae93" mask="url(#a)"/><path d="m33.2063102 69.6555675c.746373.3462955 1.5785545.5906443 2.3880696.4482424 4.8862333-.8608843 2.7539705-10.9277279.2817113-13.4246159-1.4279847-1.4418192-3.9925286-2.1263193-5.9823167-1.7201502-3.2332034.660227-2.8397791 4.891829-2.2374998 7.3838623.7398968 3.0600227 2.626067 5.9582251 5.5500356 7.3126614" fill="#e1ae93" mask="url(#a)"/><path d="m45.2648475 48.1480254c.4047575 1.2201254 1.3777947 1.9952449 2.1711195 1.7314777.7933248-.2621489 1.1074167-1.4644741.7026591-2.6845995-.4047575-1.2201254-1.3777947-1.996863-2.1711195-1.7330959-.7933248.2637672-1.1074167 1.4660923-.7026591 2.6862177m12.3305343-2.8528926c.3383773 1.2994173 1.2175107 2.1942838 1.9622646 2.0017176.7447539-.1941844 1.0734171-1.4046006.7350398-2.7040179-.3383774-1.2994174-1.2175108-2.1959021-1.9622647-2.0017177s-1.073417 1.4046006-.7350397 2.704018" fill="#343534" mask="url(#a)"/><path d="m52.2023921 44.1656268c1.3616044 2.4353961 2.305499 4.9840666 4.0848132 6.6912712.7544681.8527932 2.2779756 1.4677106 2.9126355 3.1474057.3059967.7573192.21695 1.8285699-.427424 2.4289234-.6265647.5776986-1.3583664.7039185-2.0464543.7799741 3.3934874-2.0648276.6119935-3.3852816-1.5720783-5.2009059-2.0804539-2.1101373-2.8203507-5.0099579-2.9514921-7.8466685" fill="#bc937d" mask="url(#a)"/><path d="m58.8549873 64.7475564c-2.1144535.6974457-4.3244298 1.1100876-6.5489773 1.2233618-.3820912.0194185-.8111342.0517826-1.0637029.3382046-.2541877.2912766-.2185691.755701-.0113332 1.0809599.2072359.3268771.5504703.5404799.8937047.7184823 2.0545494 1.0663961 4.7907105 1.0065225 6.9262114.1165107.9260853-.3867507 2.5823532-1.5939304 2.2941658-3.4208821-.2396165-1.5081657-1.766362-.2945131-2.4900685-.0566372" fill="#fffffe" mask="url(#a)"/><path d="m47.4424431 40.9114196c.1797124-.0647281.3691389-.1796206.4177098-.365714.0582851-.215221-.110094-.4223511-.2833302-.5631348-1.1414164-.9304669-2.9093974-.7524646-4.1090988.1003287-1.1997014.8544114-1.9153128 2.2363571-2.3751174 3.6344849-.2396164.7249551.2558068 1.3317814.9681801.8560296.5666606-.3786596 2.3880696-2.5794163 5.3816565-3.6619944m8.1453412-1.1521608c-.1521889.0501643-.3399964.0695827-.480852-.0323641-.1635221-.1197471-.1780933-.3543866-.1521888-.5453346.1748552-1.2605805 1.4004611-2.0810096 2.6649237-2.1263193 1.2628436-.0453097 2.5321633.5372435 3.6492942 1.2686715.5779938.3802778.6217076 1.0680143-.1100941 1.1181786-.5828508.0388369-3.0356817-.5275343-5.571083.3171679" fill="#7d563b" mask="url(#a)"/><path d="m32.0325133 23.6759347c3.1490138-1.1731975 6.5538344-1.6764588 9.5409452-3.2153703 2.3734984-1.2233618 4.4118574-3.0875322 5.8430802-5.3416896.2509496-.398078.5099945-.8301383.9390375-1.0210863.6589453-.2928949 1.4571272.135929 1.8246471.755701.3659008.6197719.4096146 1.3722365.4436143 2.092337 1.9606456-.6310993 3.9585289-1.2783807 5.622892-2.4887969s2.9725395-3.1004778 2.9482541-5.15883258c3.4112967 2.86260188 4.7631869 7.93243328 3.2299653 12.11063458 1.8375993-.41426 3.7221505-.6262447 5.6050827-.6294811.3610437 0 .747992.016182 1.0345603.2330213.2347594.1780024.3610438.4595698.4565665.7362826.7269446 2.1344103-.1036179 4.6992628-1.9444553 6.0035348.5941841.4595697 1.1899872.9207577 1.7841713 1.3819457-.5148516 1.5599481-.3999004 3.9516528-4.0427185 4.8627014-6.3627888-3.5584294-11.7557785-4.4403503-18.6463713-2.0615912 1.0523697.7686466 2.2650234.6537542 2.9547302 1.7573689-3.482534-.7120095-7.4475391 1.105233-10.7147421 2.5065972-3.265584 1.4029824-3.0696813 2.6473808-5.9887929 4.6782261 8.0983893 13.4569799 3.7512931 17.7063822 5.567845 22.2583885-.8823714.5097341-1.8732179.3106951-2.7555894.8204291-.7868487-2.2363571-1.5364597-4.5131694-3.1150142-5.8789331s-4.2515734-1.113324-5.3654662 1.5178749c-1.4036992-2.7218183-4.2871921-6.1750644-6.4081217-8.3839121-2.299023-2.3933229-5.2019442-4.9840666-4.8668049-8.2835835.1149511-1.1424516.6265647-2.2007567 1.1317021-3.2315523 3.3789161-6.9113469 7.0929715-13.4116702 14.9209827-16.0202141m27.573704 35.0438139c1.1657018-.0857648 2.4139741.1699113 3.2558699.9256124.3707579.3317317.6557072.8657388.3950433 1.2783807-.106856.1715295-.2898064.2880402-.4759949.3835142-1.8958844.9725403-4.2969062.1877116-6.3870743.7103913-.7075162.1763842-1.3616044.4984067-2.0189307.7993925-.856467.3916053-1.7307433.7492282-2.6212099 1.0728689-.908276.3301135-2.0577875.5841715-2.7653037-.0388369-.4792329-.4223511-.5585654-1.1392152-.3189489-1.710441.2379974-.572844.7415158-1.01785 1.288748-1.3609091 1.5801736-.9951951 3.3967255-1.1537791 5.245658-1.2573441 1.5235075-.087383 2.88835-.6893547 4.4021432-.8026289" fill="#7d563b" mask="url(#a)"/><g fill="#b4c2d9"><path d="m53.1220012 85.185466c3.2736792-.2815674 5.5694641-1.2071798 7.5382048-3.8367604 4.65795 2.226648 4.225669 6.4695774 5.2958479 9.8823685 5.9110795 18.8455969 11.2457841 38.0666179 20.7090159 55.4056679.6152314 1.129506 1.2628435 2.291376 1.3810327 3.572993.263902 2.841565-2.0772157 5.207379-4.3616674 6.919438-13.6451869 10.227046-32.2915582 13.016829-48.6534778 8.20591-.4209478-.122984-.858086-.262149-1.1721779-.566371-.430662-.419115-.5439941-1.058305-.6330408-1.652186-2.0011214-13.414907-3.0389198-26.954415-4.0750991-40.479359-.3497105-4.582753-.7010401-9.186541-.3497105-13.770912.5634225-7.361207 2.9887298-14.5800128 6.9553539-20.8068597 1.5996018-2.5130699 2.839779-4.064927 5.9386029-3.7493774 3.8889106.3980781 7.4653484 1.2185072 11.4271154.8754481" mask="url(#a)"/><path d="m83.519294 111.269287c2.2294046 3.490465 4.4523332 6.989021 6.8970688 10.333848 2.9628254 4.055217 6.2462187 7.877414 9.8080852 11.418043.429043.425588.892086.917522.885677 1.521111-.006544.419115-.242922.797775-.476062 1.147307-1.4425563 2.145737-3.0955861 4.15231-4.9267094 5.977643-16.7958197-11.626792-30.8311928-26.816867-43.4709619-42.8597364-.1959027-.2492033-.3982815-.5113522-.4500904-.8236655-.0712374-.4174965.1392366-.8252838.3416154-1.1958524 2.5434965-4.6490985 7.6742033-16.5979127 9.2414246-15.3179138 7.766488 6.3482121 16.1741121 21.7826371 22.1499527 29.7992161m-41.7709802-28.0903933c-9.2300914 2.9257119-13.6646152 12.5378404-17.935617 21.0366453-3.744817 7.450208-6.8420218 12.361456-10.9333112 19.628807-1.3454142 2.390087-3.35301166 5.959844-3.23967955 8.70108.0696183 1.636004 1.41503245 6.021335 2.03997815 7.534356 3.7415788 9.057084 8.7686677 17.58178 14.885364 25.239119.3189489.399696.6751356.818811 1.1705589.946649.6071363.155347 1.2223678-.174766 1.7517907-.509734 1.8262661-1.157016 3.5165337-2.529252 5.0238508-4.079491.4727568-.485461.9519898-1.037269 1.0313223-1.712059.0582851-.496789-.1100941-.991959-.2768542-1.464474-3.3335833-9.401763-10.5366488-25.098336-9.8339897-25.75209 4.5365228-4.212184 9.0795216-11.324188 13.0671931-16.055815.6913259-.820429 1.3972231-1.663513 1.7485527-2.676508.3464724-.996814.323806-2.079392.2930444-3.132842-.2574258-8.801409 2.1743576-18.6400857 1.392366-27.4091302" mask="url(#a)"/></g></g><path d="m293.68561 73.4648184c0 26.4511536-21.45377 47.8923496-47.916819 47.8923496-26.464669 0-47.916819-21.441196-47.916819-47.8923496 0-26.4495354 21.45215-47.8923493 47.916819-47.8923493 26.463049 0 47.916819 21.4428139 47.916819 47.8923493" fill="#e5746f"/><g transform="translate(197.718 25.572)"><path d="m25.6130584 23.1888554c-.9795133 1.9466988-1.8699799 3.9387072-2.6665428 5.9679344-.48409 1.2298346-.9406566 2.537343-.7609442 3.8480878.0906657.668318.3464725 1.3058901.4581855 1.97259.26714 1.6004032-.3059967 3.2121338-.3934243 4.8319555-.1100941 2.0567366.5731367 4.0956729 1.5947448 5.8854059 1.0216081 1.7881148 2.3734983 3.364245 3.7172934 4.9274295-1.3826518-7.2317512-.2201881-14.9246904 3.2364415-21.4250137.6006602-1.129506 1.2822719-2.4596692.7318016-3.6134483-.3804721-.7961561-1.2369391-1.2298346-2.03674-1.606876-.2752351-.1294563-.747992-.1456383-.7415159.158584" fill="#b4b5b4" mask="url(#b)"/><path d="m57.770237 75.9261059c.051809.3479137.1003799.7281915-.0971418 1.0097589-.1959026.2767128-.6540882.2200757-.9277043.453097-5.0788979 4.3238396-11.9112055 5.5925111-16.9981985 1.5648027-.8224674-3.2687709.4533285-7.2770609-.2412355-11.3338969-.0712373-.4174965 1.5024601-.9693039 1.6449347-1.3528181.1440937-.3899871.5229468-.644045.8839905-.8754481 2.3038801-1.4806561 12.9587181-10.1817361 14.9161256-7.2916247 1.1155119 1.6473311-.0485709 6.4129402-.0064761 8.3321295.0696183 3.1619696.3448535 6.3352665.8257054 9.4939997" fill="#f5c8b6" mask="url(#b)"/><path d="m56.107493 57.3766397c-1.7016008-2.7752189-11.8237779 6.1621188-13.9997545 7.699412-.3399964.2411124-.6994211.5032613-.8451338.8932483-.1440937.3835143-2.2812136.5469528-2.2002621.9482673.3399964 1.70235.8694193 2.7218182.7949439 4.4565323 7.1253521-1.6586586 12.68834-5.6588575 16.5270607-10.5458319.1408556-1.4191644.1538078-2.7493277-.2768542-3.451628" fill="#e1afa4" mask="url(#b)"/><path d="m31.3525206 23.7633177c-.1699982.2961312-.3383773.5954988-.5018994.8948665-3.267203 6.0197168-4.9720418 12.8598628-5.0238508 19.701627-.0485709 6.5116507 1.1446544 14.1673712 5.3298476 19.3990229 1.8019806 2.2541574 4.4150954 3.9969625 7.2969692 4.1765831 2.0772158.1294563 4.120432-.5469527 6.0244116-1.3868003 4.9024235-2.1667744 9.2835194-5.50351 12.6737687-9.65582 1.8926463 2.2687212 5.6649868 2.2525392 8.0077236.453097 2.3427367-1.7994423 3.3789161-4.8999201 3.387059-7.8531414.0064284-2.3285948-.6444218-4.8109188-2.420498-6.3190845-1.7760762-1.5081656-4.8570907-1.5518571-6.2057429.3462956 1.766362-2.7072544 1.9509314-6.1912464 1.3259858-9.3629252-1.2936052-6.5440147-5.9726026-12.3242375-12.1054891-14.9521999-6.1345056-2.6279624-13.5496641-2.0308453-19.1838894 1.5453843.103618-.4417695.2072359-.883539.3108538-1.3253086" fill="#f5c8b6" mask="url(#b)"/><path d="m33.6272581 57.6662981c3.7059602 1.5502389 8.1615314.2718582 11.3834016-1.8576975-1.4652223 4.0260902-8.890095 5.7090218-11.3834016 1.8576975" fill="#e1afa4" mask="url(#b)"/><path d="m51.5483038 11.366261c-2.4528308-.0631099-4.9072806-.1262198-7.3601114-.1877116-4.2677638-.1084196-8.6359073-.2038936-12.68834 1.1359789-4.0524327 1.3398724-7.7988687 4.4193136-8.7168589 8.5861875.8791335-.4352968 1.8958845-.5938807 2.8673026-.4433878-1.5283645.7136277-1.7291243 2.974258-.8095151 4.3885678s2.5548297 2.1667744 4.122051 2.7946373c2.0286449.8139564 4.2871921 1.6732224 6.5133586 1.5470025.4954233-.0275094 5.6682249-1.7945876 5.1663255-2.3431586 2.9887299 3.2622982 6.4680258 6.4226495 10.8005508 7.3288435.6718975.1407837 1.3891279.2378759 1.928265.6650816.3982814.3155496.6524692.7783558.856467 1.2460166 1.2142727 2.7849282.9859894 6.0100076 2.3734983 8.7302076.2379975.4676608.7350397 1.5712756 1.3357 1.6667496.7253255.1165106 1.2077965-.8657389 1.5931257-1.3236904.8710383-1.0388866 1.980074-2.1651562 3.4501535-2.0988099 2.6956853.1229835 4.0281472 1.3641455 4.7049018 3.9743077.6783737 2.6101621-.1764743 5.4792369-1.8910273 7.5618647-2.2860707 2.7768371-7.2063036 3.5357745-8.888476 1.4143098-.5197087 1.5890758-1.3470332 4.0503632-.8062771 5.6329662.5423752 1.582603.8791335 2.8528927.6589453 4.2429295 5.6261301-3.284953 13.1028118-9.3888165 15.8875438-15.2774588 2.197024-4.6474803 3.2607269-9.7464394 4.0346234-14.8275982.2881873-1.8900616.537518-3.833524.1165701-5.6976944-.856467-3.786596-4.2677637-6.4355951-7.7227742-8.2091461-.373996-.1925662-1.6125541-4.2591114-2.2666423-5.0164307-1.0458936-1.2120343-2.4366406-2.3965593-3.8047211-3.2088974-3.3902493-2.0146633-7.6175373-2.1845747-11.454639-2.2816669" fill="#b4b5b4" mask="url(#b)"/><path d="m45.3700844 41.8969055c-.0064761 1.208798-.6476121 2.1861929-1.4344608 2.1813563-.7868487-.0032544-1.4182704-.9855039-1.4134412-2.1959201.006504-1.208798.649259-2.1845747 1.4344886-2.1813463.7868487.0048626 1.4198896.9871121 1.4134134 2.1959101m-11.0563575.3268771c.0760944 1.2605805-.4468523 2.3172674-1.1689398 2.3625771-.7220875.0436914-1.3696996-.9434127-1.447413-2.2023749-.0760945-1.2605805.4468523-2.3188856 1.1689398-2.3625771s1.3713186.9417944 1.447413 2.2023749" fill="#343534" mask="url(#b)"/><path d="m38.4260637 40.6929622c.7512301 2.5745616.9438947 5.3918538-.3043777 7.898451-1.4215085 2.250921-3.5084385 4.21542.0712374 5.0843952-1.5461739.5097341-3.2995837-.3090768-3.1862515-2.1505924.0744754-1.7088228 1.2612245-2.7088725 1.6789343-3.6814128 1.0863693-2.0292271 1.1980824-4.5746612 1.7404575-7.150841" fill="#e1afa4" mask="url(#b)"/><path d="m42.030025 36.3917774c-.1797123-.0048546-.3820911-.0534007-.4808519-.2055119-.1133321-.1747659-.0242855-.4094054.0890466-.5857896.747992-1.1651065 2.3815935-1.5211112 3.7043412-1.1084694 1.3211287.4126419 2.3637842 1.4385829 3.1830135 2.5551433.4258049.5793168.160284 1.2654351-.6152315 1.0485958-.6184696-.1731478-2.88835-1.6101124-5.8803179-1.7039682m-7.7373455.024273.3642818-.1553475-.0129522-.4725154c-.4355191-.9482672-1.5801735-1.2654351-2.569401-.9579764-.9876084.3074586-1.8295042 1.1133239-2.517592 1.9936266-.3578057.4579516-.2266643 1.0129954.3513295.8527932.4598046-.1262198 2.2213095-1.2395438 4.3843339-1.2605805" fill="#9e9f9e" mask="url(#b)"/><path d="m41.1266062 129.511295c3.319012 4.99863 27.0102815-9.561964 28.7620722-3.823815.212093.690973.4630426 1.454765 1.0928454 1.809152.6605644.372186 1.4830317.155347 2.2067382-.071201 2.5548298-.796156 5.1096595-1.593931 7.6644892-2.391705-.3901863-3.687886-.7787536-7.375771-1.1689398-11.065275-1.1041787-10.44874-1.2515104-21.5463792-7.387635-30.5241719-1.9638837-2.8755475-4.3843339-5.4371636-7.1302092-7.579665-1.4198895-1.1068511-6.3984075-5.2834342-8.1858169-3.9904897-3.7318647 2.6975452-7.4103014 5.4695277-11.0336911 8.3127112-2.0092165-2.2476846-4.016814-4.4953692-6.0260306-6.744672-2.5872103.8916301-4.7712821 2.4127413-7.2208748 3.5972662-1.60284.7735013-3.2396795 1.5712756-4.4830948 2.8448017-1.1559876 1.1829067-1.8975034 2.7023998-2.5418774 4.2251292-2.2035002 5.2138515-3.4825341 10.7659076-4.5138564 16.3309093-.8920856 4.812537-1.607697 9.657438-2.3216893 14.500721-.4678998 3.17977-.9374185 6.357921-1.4053183 9.537691-.0226664.150493-.0388567.325259.0679993.436915l.2768542.116511c7.0751621 1.419164 14.1487052 2.838329 21.2238674 4.259111" fill="#be99b8" mask="url(#b)"/></g><path d="m274.025725 233.383774c0 26.451154-21.45215 47.89235-47.916819 47.89235-26.463049 0-47.916819-21.441196-47.916819-47.89235 0-26.451153 21.45377-47.892349 47.916819-47.892349 26.464669 0 47.916819 21.441196 47.916819 47.892349" fill="#f5c8b6"/><g transform="translate(178.283 185.257)"><path d="m38.2139708 13.4051974c-3.8451969.580935-7.0492577 3.4451551-8.9629514 6.8288185-1.9136938 3.3852817-2.726447 7.2657335-3.4177729 11.0911665-2.2132143 12.2546547-3.4307251 24.68893-3.6363419 37.1410056-.0210474 1.2767625-.0291425 2.5745617.320568 3.8027781.6022792 2.1214647 2.3734983 10.2141001 10.8539787 13.3081051 3.1813944-3.6571398 8.7978103-6.7754178 13.5933779-6.0536991 8.3315296 1.2524895 15.4908814 1.9110983 23.8936483 2.5195428.4419953.0307459.9179902.0469279 1.2968432-.1844752.5439942-.3333499.696183-1.0437412.7836107-1.6748406.7139923-5.1653054.535899-10.4066663.3578057-15.6172815-.2962826-8.6687158-.5941841-17.3406681-1.3567474-25.9818745-.3675198-4.1701103-.8467528-8.3547845-1.983312-12.384111-.5958032-2.1101373-1.3972231-4.21542-2.8171126-5.885406-2.3297846-2.736382-5.9887929-3.928998-9.524755-4.5746611-5.465846-.9968134-11.1146426-.9806313-16.5740125.0501643.1797123-.1456383.3610437-.2912767.5407561-.436915z" fill="#be99b8" mask="url(#c)"/><path d="m29.9633927 76.8776095c-.854848-1.7330959-1.5688403-3.5373927-2.1274058-5.3886175-2.0415971-6.7592358-2.0011213-13.9505319-1.7825523-21.0075172.2250452-7.2997157.6217076-14.6075225 1.6821725-21.8328009l1.5364597 2.1020463c-.2218072.2200756-.2282833.5696076-.2218072.8819208.2007598 8.5473507.6767546 17.1270654 2.3832125 25.5061228 1.2547485 6.1605005 3.1975847 12.2303817 6.0778395 17.8067108-2.6341622.0841466-5.2213725.2297849-7.3989682 1.8220971-.0501899.0356004-.0987608.0728191-.1489507.1100378" fill="#b18ab1" mask="url(#c)"/><path d="m29.4355888 56.0400037c1.1317021 4.9484661 2.9644444 9.958424 6.9456397 13.6301276 3.9795764 3.6700855 10.5609343 5.6637121 16.11097 3.650667 1.8845512-.6845 3.5392001-1.773551 5.0497553-2.9629305 4.2807159-3.3690996 7.5689664-7.6460113 9.4616127-12.304819 1.4069373-3.46781 2.0432162-7.1039132 2.5548297-10.7238343.7981819-5.6426754 1.2579865-11.5911913-1.4765555-16.678823-2.460926-4.5762793-7.4151586-8.0003978-13.0833834-9.497236-5.6698439-1.4984564-11.9775857-1.1392152-17.6603819.6310993-7.2629696 2.2622485-8.5387655 7.20586-9.153997 12.9763735-.7593252 7.1281862-.3432344 14.3162459 1.2515104 21.2793754" fill="#bc937d" mask="url(#c)"/><path d="m40.9954647 40.2738475c.4063766 2.7056361.2282833 5.5844201-1.3648425 7.9550881-1.7404575 2.0923371-4.1139558 3.8351422-.5828509 5.1750147-1.6287444.3009858-3.2914884-.7508464-2.9336828-2.5955984.2995206-1.7152956 1.6336016-2.5697071 2.1889289-3.5034104 1.3696996-1.9208075 1.8149329-4.4905146 2.6924473-7.031094" fill="#947564" mask="url(#c)"/><path d="m46.3803593 34.9192122c-.1829504-.0291276-.3804721-.1051832-.4598046-.2718581-.0939037-.1925662.0291426-.4174965.1667601-.5809351.9115141-1.0825781 2.6147339-1.2298346 3.9002439-.6375721 1.28551.5922624 2.2083572 1.7703145 2.891588 3.0082402.3545676.644045-.0048571 1.304272-.7625633.9822495-.6038982-.2556762-2.7167327-2.0114269-5.7362241-2.5001244m-8.4982897-.0016182c.1538078.0210367.3351392.0064729.4484713-.1165106.1327605-.1407837.106856-.365714.0469519-.54048-.3885672-1.1602518-1.6935056-1.7169138-2.8964451-1.5340568-1.2013204.182857-2.2957849.9579764-3.2202511 1.8479883-.479233.4628062-.3982815 1.1197968.3011396 1.0356502.5585654-.0663463 2.7750178-1.0372684 5.3201334-.6925911m11.3461639 6.5634332c-.215331 1.216889-1.0313223 2.0907189-1.8230281 1.9499352-.7917057-.1407837-1.2579864-1.2411621-1.0426554-2.458051.21695-1.2152708 1.0329413-2.0891007 1.8246471-1.948317.7917057.1407837 1.2579865 1.2395438 1.0410364 2.4564328m-12.4050097-1.1521608c.0275235 1.2913263-.5472322 2.3512496-1.287129 2.3674316-.7398969.0161821-1.3632235-1.0162317-1.3923661-2.3075581-.0291425-1.2897081.5472323-2.3496314 1.2871291-2.3658134.7398968-.0161821 1.3632235 1.0162317 1.392366 2.3059399" fill="#343534" mask="url(#c)"/><path d="m47.6950119 58.6857663c-2.6584477 3.5001741-10.3569365 3.3027533-12.9959558-.119747 4.0734801 1.3058901 8.9014283 1.5097838 12.9959558.119747" fill="#947564" mask="url(#c)"/><path d="m8.3736244 117.661191c.28009224-2.119846 1.07179802-4.132892 1.8845512-6.110336 3.7626263-9.152559 8.1210557-18.0607689 13.0396696-26.6485746 1.823028-3.181388 3.8290065-5.9517523 6.8144982-8.1347087 2.7393992-2.0033359 6.1264105-1.7169139 9.4389464-1.8981527 8.8480002-.4822246 17.7300001-.3446773 26.558572.4126419 2.031883 8.1266177 2.8494932 16.4992024 3.6152945 24.8394231 1.5656023 17.067192 2.9369209 34.152184 4.1123369 51.250121-14.7428894 6.495469-32.0017518 7.013294-47.1283513 1.483893-.2930445-.927231-.586089-1.854461-.8791334-2.78331 1.0539886-14.688433-3.4712009-29.993401 1.4846507-43.848459-3.7691024 6.90002-7.6482989 14.248281-7.3099215 22.103041.163522 3.804396 1.3211286 7.487427 2.467402 11.118676.6751357 2.136028 1.3502713 4.273675 2.0254069 6.409704-.5504703.812338-1.1009406 1.566421-1.6514109 2.29623-1.3000813 1.427256-2.783113 2.670036-3.8921487 4.285003-4.1430984-8.570005-7.7227742-17.411869-9.84208481-26.672847-.60875537-2.658709-1.0977025-5.399945-.73827779-8.102345" fill="#f8cf72" mask="url(#c)"/><path d="m27.8942543 26.6000283c1.3907647-6.6200703 5.4367213-12.4650212 12.0715072-13.8032754 6.6347859-1.3382543 14.3332747-.4158783 20.5940647 2.1522106 1.2013204.493552 3.8209113 2.744473 4.6935686 3.7056859 1.6999818 1.8754978 2.7377802 6.7624722 2.3832125 9.2286142-.3399963 2.3641953-3.9245293 1.9030073-5.7491763 2.0891007-7.3066835.7508464-14.6716521.0647281-21.8973841-1.0987601-1.0086558-.1618204-12.1119652-2.1942839-12.0957926-2.2735759" fill="#be99b8" mask="url(#c)"/></g><g transform="translate(199.87 259.76)"><path d="m47.2248271 16.5006558c-.3561866-3.085914-.7755155-6.1621187-1.3195096-9.21405044.0129522 0 .0275235.0016182.0420948.0032364.5407561 3.04545894.9584659 6.11519084 1.3114145 9.19301384-.0097142.0064728-.0242855.0129456-.0339997.0178002" fill="#f0a86f" mask="url(#d)"/><path d="m45.9474123 7.28984176c-.0145713-.0016182-.0291426-.0032364-.0420948-.0032364-.3901863-2.18295646-.8435148-4.35458549-1.3826518-6.50841428-.6621834-.05663712-1.3276048-.11003783-1.9914072-.16020214.001619-.02912766.003238-.05825532.004857-.08576478.6718976.0501643 1.3437951.10356502 2.0140737.16182034.5456132 2.18295646 1.0037987 4.38209494 1.3972231 6.59579726" fill="#d89d79" mask="url(#d)"/><path d="m44.2409544 17.822728c-.1473318-3.0130948-.3545676-6.0229532-.6217076-9.02957523-.2072359-2.33830399-1.1980824-5.62487519-1.0879883-8.17516383.6638024.05016431 1.3292238.10356502 1.9914072.16020214.539137 2.15382879.9924655 4.32545782 1.3826518 6.50841428.5439941 3.05193174.963323 6.12813644 1.3195096 9.21405044-.9762752.4741336-1.9719788.9142849-2.9838727 1.3220722m-35.82104408.0016182c-.23152133-.0938558-.46304265-.1893298-.69456398-.286422.3691389-.5226797.73989682-1.0453594 1.11065475-1.5664209-.14247466.6149173-.28009223 1.233071-.41609077 1.8528429" fill="#f1ad4d" mask="url(#d)"/></g><g transform="translate(178.283 185.257)"><path d="m83.1533932 113.623773c.3432344.847939.7058971 1.72986 1.393985 2.331832.6362789.556662 1.4781746.807483 2.2925468 1.03565 8.5047659 2.396559 17.435337 2.354486 26.210481 3.388518.186188 1.729859-.132761 5.255925-.475995 6.963129-8.205246 2.085865-16.5222039 3.731577-24.9023044 4.92743-2.299023.328495-4.7502348.601971-6.850117-.388369-1.606078-.758937-2.7944462-2.163538-3.9326244-3.527684-7.2888742-8.738298-14.5777483-17.478215-21.8666225-26.216514-.2849493-.343059-.5812318-.705536-.6621833-1.142451-.0858086-.466043.0858086-.938558.2541877-1.381946 1.6708392-4.3998952 3.3416784-8.7981722 5.0125176-13.1964492.8483719-2.2363571 2.4107361-9.9535694 5.781557-9.8742774 2.5515917.0598735 5.0708027 8.2253281 6.0584112 10.3192834 1.9509314 4.1458372 3.8468158 8.3159475 5.6876532 12.5119491 2.0707397 4.7202991 4.070242 9.4713451 5.9985071 14.2498991" fill="#f8cf72" mask="url(#e)"/><path d="m57.8479505 53.402332c-.8629431 3.0033857-1.8829322 5.9954438-3.5230098 8.6557703s-3.9552909 4.9905394-6.8468789 6.1815372c-3.6347229 1.4968382-9.100569 1.1117058-12.7352919-1.3107448-2.6843521-1.789733-5.0513743-10.6833792-5.9224126-13.7887116-2.1533102 18.56403 6.5263109 27.5741868 12.7223396 35.6474038 2.1533103 2.807583 4.7421396 5.5617652 8.1582934 6.4889958 3.051872.826902 6.3320273.0566371 9.2139011-1.2427802 4.6692832-2.1069009 8.6002887-5.5245466 12.4568187-8.8952644.8305625-.7265733 1.6902676-1.4887472 2.1225486-2.5049789.8159913-1.9208075-.0987608-4.0843455-.7933248-6.0520809-2.465783-6.9906389-2.1128344-14.6059044-2.0286449-22.0172762.0712374-6.2656837-.0728563-12.5329857-.432281-18.7889602-.1359986-2.3706681-.3043777-4.7494272-.799801-7.0715491-.1570459-.7379008-.4063766-1.5486207-1.0669409-1.9110983-.6281837-.3462955-1.4036992-.1650567-2.0950251.0258913-1.5073172.4158783-3.0130153.8301383-4.5235705 1.2476348-.1748553.0485461-.2995206.1294563-.373996.2945131.8920856 1.0065225.1003799 4.501842-.0113332 5.8449508-.1813314 2.1813383-.4355192 4.3578219-.7609442 6.5245963-.642755 4.2769118-1.5639833 8.5149866-2.7604466 12.6721512" fill="#be99b8" mask="url(#e)"/></g><path d="m461.388 157.679362c0 26.449536-21.45377 47.89235-47.916819 47.89235-26.464668 0-47.918438-21.442814-47.918438-47.89235 0-26.451153 21.45377-47.893967 47.918438-47.893967 26.463049 0 47.916819 21.442814 47.916819 47.893967" fill="#f6bd48"/><g transform="translate(365.509 109.876)"><path d="m78.539157 36.5843436c.4581855.461188.9309424 1.0599233.7755155 1.6894044-.3059968 1.233071-2.3135943.8641206-3.1894896 1.7832602 1.8958844 2.147356 3.6881509 4.4630051 4.6692832 7.1540775.9811323 2.6910723 1.0604648 5.830387-.3675199 8.3127111-1.4279846 2.4839423-4.5705223 4.0455086-7.2904931 3.1441693.2833303 2.4726148.5650415 4.9452297.8483718 7.4178446.2169501 1.8997708.4322811 3.8432332-.0064761 5.7041672-.4387572 1.8609339-1.6676012 3.6522851-3.4938673 4.2251292-1.8246471.5712258-4.1511935-.524298-4.4345238-2.4143596-1.5413168 1.8997709-3.1473948 3.8529424-5.3217524 4.9759756s-5.0902311 1.1974706-6.8646882-.4870792c-2.464164 1.6311491-6.0778395 1.22498-8.1161986-.914285-3.212156 2.250921-7.3083025 3.2008065-11.1826419 2.592362-1.1721779-.1844752-2.355689-.5210616-3.2882504-1.2524895-.9341805-.731428-1.5753164-1.9208075-1.390747-3.0923868-2.1484531.0469279-4.4264287-.0906194-6.2025048-1.2994174-1.7760762-1.2071797-2.7458753-3.8270511-1.5073172-5.5811837-1.8375993.2006573-3.7383408-.2492033-5.2926099-1.2508712-.804658-.5178251-1.5299835-1.1974706-1.9574075-2.0535002-1.3599854-2.7250546.6589453-5.8546601 2.572639-8.22371-1.8375993 1.5340569-4.9169948-.0372186-5.5905114-2.3334493s.3448535-4.7461907 1.6352206-6.7624722c1.5396977-2.4078868 3.5003433-4.5439153 5.7669857-6.2851022-2.0739778-.0809102-3.1862515-2.6489991-2.8592074-4.6960265.6265647-3.9160523 4.3487152-6.5181234 7.9283911-8.2285645-1.0556078-.0841466-1.9136938-.9984315-2.192167-2.0195179-.2800922-1.0210864-.0777134-2.1166101.2736161-3.1134234.9859894-2.8027284 3.1943467-5.1523598 5.9321268-6.3109935 2.7361611-1.1602519 5.9596503-1.113324 8.6618118.1278381 1.0523697.4822246 2.0286449 1.1359788 3.1263474 1.5049292 2.2698804.7621738 4.7389015.2216939 7.1285902.0598735 6.3822172-.4304421 12.8583381 2.1522106 17.3203855 6.7074533 1.716172 1.7508961 2.8171126 3.9613621 5.0108986 5.1653054 3.2267272 1.7686964 6.2445996 3.0810594 8.8981902 5.7543315" fill="#2d2118" mask="url(#f)"/><path d="m57.7896654 79.3825884c.4938042.7298098 1.0766551 1.4337283 1.2919861 2.2881397.2558068 1.0081408-.0404757 2.0664458-.3561866 3.0584045-1.3470332 4.2348385-3.2170131 8.518223-6.6558333 11.3355152-.6686595.5469528-1.4247466 1.0469776-2.2828327 1.1505427-1.5089362.1844751-2.8592074-.8689753-4.0135759-1.8576976-2.7669227-2.3706681-5.7167958-5.0552676-6.2737422-8.6573885-.4079956-2.6263442.5520893-5.2445973 1.2725578-7.8045952 1.0912263-3.8836883 1.6546489-7.9162513 1.6676011-11.9504325-.001619.5582802 5.6633678 1.6165853 6.3028847 1.7330959 1.6400777.2961312 4.1155749.0275095 5.5921305.8689753 1.4846507.8447022 1.1576066 2.2104659 1.2968432 3.7186315.2007598 2.1781018.9277043 4.3044212 2.1581673 6.116809" fill="#675e50" mask="url(#f)"/><path d="m55.8743526 75.1331862c-.0809515-.4255875-.1570459-.8544114-.1975217-1.2864718-.1392366-1.5081656.1878076-2.8755475-1.2968432-3.7202497-1.4749365-.8414658-3.9504338-.572844-5.5921304-.8689752-.6378979-.1148925-6.3028848-1.1748158-6.3012657-1.7330959-.0080952 2.3075581-.215331 4.6118798-.5796128 6.8903102 4.4490951 1.8156243 9.691515 1.9839175 13.9673738.7184824" fill="#4f433b" mask="url(#f)"/><path d="m66.7769023 56.0092578c-1.0912264 4.9581754-2.781494 9.9810789-6.2656471 13.6754374-3.482534 3.6959766-9.1361876 5.7252038-13.8103279 3.7396681-1.5882687-.6747908-2.9693015-1.7557507-4.2240499-2.9370392-3.5586285-3.348063-6.2494567-7.6104109-7.7405836-12.2627458-1.1090357-3.4629554-1.5575071-7.0990585-1.8991225-10.7189796-.5342799-5.6410572-.7738964-11.5928095 1.6854105-16.6982414 2.2132144-4.5924614 6.5182158-8.0457076 11.3850207-9.5732916 4.8651858-1.5292023 10.225795-1.2039434 15.0197435.5372435 6.1247914 2.2250298 7.0848764 7.1654049 7.4604914 12.9375366.4630426 7.1281862-.0760945 14.3227187-1.6109351 21.300412" fill="#675e50" mask="url(#f)"/><path d="m69.60211 14.0751336c1.1997015.0744374 2.5855913.5420982 2.9223496 1.6958772.1505698.5129705.0550471 1.0631597-.0760944 1.5809848-.4468523 1.7751692-1.2936052 3.4483915-2.460926 4.859465 2.6244481.5922624 5.0691837 1.9596443 6.9456398 3.8869246 1.4603653 1.4984564 2.6163528 3.7251044 1.7598858 5.6329662-.6654214 1.4822744-2.3832125 2.2638667-4.0070998 2.2962307-1.6238873.0323641-3.1927276-.5404799-4.7162351-1.1068511.8321816 1.4936018-.5326609 3.4581008-2.2018811 3.8254329-1.6708392.3673322-3.3756781-.3754232-4.8522336-1.2379256-2.9693015-1.7363323-5.6034637-4.040654-7.7195362-6.7511448-.5666606 1.8059151-2.1176916 3.3367355-3.9909096 3.6231575-1.8715989.286422-3.9342435-.8641206-4.447476-2.6862177-1.282272 3.19757-3.7788166 5.8902606-6.8695454 7.41299-1.0151319.5000249-2.1695005.8819209-3.265584.6035899-1.0960834-.278331-2.0189307-1.4499103-1.664363-2.5227792-1.5396978 1.2443985-3.1684422 2.3755227-4.8732811 3.3836634-.9811323.5809351-2.0270258 1.1327424-3.1652041 1.2104162-1.1381782.0809102-2.3913077-.4320603-2.8494932-1.4774197-.2946635-.6666999-.2266642-1.4321101-.1117131-2.1522106.8273245-5.1151411 3.9698622-9.8111675 8.3865766-12.5265129-1.4085563-.9757767-.9940845-3.1862426-.0874276-4.6377711 2.9871108-4.7834094 8.8512383-6.2333197 14.0418493-4.5422971 2.2536901.7346644 4.285573 1.8819706 6.6525953 2.3172673 2.7831129.5097341 5.4027039-.0663463 8.0579135-.8883937 2.7928271-.8657388 5.6115588-1.9839174 8.5921934-1.7994422" fill="#2d2118" mask="url(#f)"/><path d="m57.5840486 83.8051385c-1.4409369 4.446823-4.1819551 8.463204-7.7988687 11.4261345-.3140919.2572944-.6573263.5162069-1.0604648.5582802-.5278039.0550189-1.0118939-.2734764-1.4312227-.6003535-3.6071994-2.815674-6.3368844-6.7414355-7.7211553-11.1024938-2.734542 1.1392152-5.354133 2.5551432-7.8053447 4.2186564-.6557073.4450059-1.3211287.9288487-1.7177911 1.6165852-.3982815.6925911-.4840901 1.5146384-.5537084 2.3107945-2.2213095 25.096717 1.8456945 50.85528-4.285573 75.295007-.1311415.522679-.26714 1.069632-.1359986 1.592312.1295225.519443.5051375.93694.8791335 1.318836 3.3934873 3.448391 7.9316291 5.752713 12.7174825 6.456631 5.1112785.752465 10.3569364-.28804 15.1686943-2.165156 4.8117579-1.878734 9.2559959-4.568188 13.6727104-7.244697.7431349-.44986 1.5251265-.940176 1.9136938-1.718532.3140918-.623008.3302821-1.347963.3399963-2.043791.1003799-6.891928.2007598-13.783857.3027587-20.674167.1521888-10.411521.3027586-20.845697-.6573263-31.211908-.7010401-7.574811-1.9962643-15.0929837-3.8678633-22.4671369-.5099945-2.0081905-.8726573-6.3368847-2.4884494-7.8660869-2.1209297-2.0049541-4.7486157.0744373-5.4707032 2.3010853" fill="#e5746f" mask="url(#f)"/><path d="m66.2231939 92.1647775c-.0048571-.0210367-.0097141-.0420733-.0145712-.0647282.2007597-.0825283.4031385-.1682931.6038982-.2524397.0064762.0194185.0129523.0404551.0194284.0614917-.2023788.087383-.4047576.1715296-.6087554.2556762" fill="#b1afaa" mask="url(#f)"/><path d="m66.2086227 92.1000493c-.213712-.9110485-.4355192-1.822097-.6654215-2.7299092-.0955228-.3770414-.1861884-.8382294-.2817112-1.3463452.0485709.095474.0955228.1893298.1424746.2848038.5650416 1.1424516 1.0248462 2.3269765 1.4085563 3.5390109-.2007597.0841466-.4031385.1699114-.6038982.2524397m-7.1496376-10.5183224c-.0453328-.1537293-.1003799-.3042222-.1651411-.4498605l.4047576.2556761c-.0825705.0614917-.161903.1278381-.2396165.1941844" fill="#b89b5e" mask="url(#f)"/><path d="m58.5651809 82.0801336c-.0906657-.4498606-.1894265-.8981029-.2962825-1.3447271l.6249456.3964599c.0647612.1456383.1198083.2961312.1651411.4498605-.1748552.1521111-.3399963.3187861-.4938042.4984067" fill="#615c52" mask="url(#f)"/><path d="m59.6547882 94.3380247c.0016191-4.1264188-.2655209-8.2301827-1.0896073-12.2578911.1538079-.1796206.318949-.3462956.4938042-.4984067.0777135-.0663463.157046-.1326927.2396165-.1941844l2.193786 1.3932732c1.5089362 1.5470025 2.783113 3.3205535 3.7691024 5.2429792.0955228.5081158.1861884.9693038.2817112 1.3463452.2299023.9078122.4517095 1.8188607.6654215 2.7299092.0048571.0226549.0097141.0436915.0145712.0647282-2.1176915.8770663-4.3114775 1.6052578-6.5684057 2.1732472" fill="#b1756f" mask="url(#f)"/><path d="m72.7802664 88.9348434c.6508502 1.7476597 1.2077966 3.5373927 1.5024601 5.3772901.2898064 1.8042968.3254251 3.6377213.3675198 5.4630548.7366588 30.8526667 4.0362424 61.6438427 9.8534181 91.9544107.7398968 3.84647 1.5186503 7.807832.749611 11.647829-.7366588 3.666849-2.83816 6.924292-5.245658 9.786894-4.4717615 5.31418-10.1577957 9.599183-16.4995372 12.435894-1.6999817-37.598957-1.8926463-75.265879-.5779938-112.8794.2379975-6.823964.4905662-13.7288382-.6071363-20.4977832-.5520893-3.396609-1.7258863-6.403231-2.7555895-9.647729-1.126845-3.5487201 11.9856809 3.0567864 13.2129058 6.3595396m-43.8870527 3.1279873c-.1359986.6505178-1.4328418 82.9911823-12.9247184 124.2132963 4.2450973 3.451628 8.9386659 6.288339 13.5529021 9.231851 2.6519715 1.691023 7.3633495 1.691023 7.3633495 1.691023s.5067565-3.873979.5974222-5.514838c2.2682614-41.181659 3.3271071-82.429665 3.1749183-123.6744347-.0145713-3.9823986.8758954-9.9648968-.6605643-13.6980922-1.6319825-3.9629802-9.846942 1.7428052-11.1033094 7.7511946" fill="#fffffe" mask="url(#f)"/><path d="m65.4865352 75.0668398c-.4921852 2.3609589-.8483719 6.6459616-3.3400594 7.8757962-2.8478742 1.4046006-4.2094786-2.2994671-5.0238508-4.4419684 1.2919861-.5016431 8.0417232-1.8916799 8.3639102-3.4338278m-25.9044839 5.519692c-2.9725395.4628062-5.946698.9239942-8.9192376 1.3868004.3999005-.0614918 2.9126354 2.5858891 3.3999635 2.9467484.9908465.731428 2.6309242 2.2072295 3.8840536 2.3658135 3.6233897.4563334 1.8278851-4.4921328 1.6352205-6.6993623" fill="#fffffe" mask="url(#f)"/><path d="m52.8597183 44.6996339c.586089 2.7072544.7415159 5.3983267 1.9298841 7.5359735.4662807 1.0275592 1.7323623 2.0535001 1.8440754 3.8351421.158665 1.9224257-1.6578869 2.807583-3.2866314 2.3253584 3.798245-.9498854 1.5656023-3.0470771.0194284-5.3902357-1.3599854-2.608544-1.2142727-5.5779473-.5067565-8.3062383" fill="#4f433b" mask="url(#f)"/><path d="m45.8962693 39.2964526c.1878075.0388369.4063766.0388369.5439941-.0906194.160284-.1521111.1262844-.4158783.053428-.6230083-.4792329-1.3803276-2.0675016-2.1505924-3.5262478-2.051882-1.4571273.0970922-2.781494.8932483-3.8986249 1.8350427-.5796128.4903156-.4759949 1.2589623.373996 1.2282164.6767547-.024273 3.3611068-.938558 6.4534546-.2977494m12.0714894-.1472565c-.1570459.0307458-.3448534.0258912-.4695187-.0938558-.1457128-.1375473-.1311415-.3705686-.0809515-.5550438.3302821-1.2185072 1.6416966-1.8722614 2.891588-1.757369 1.2498913.1148925 2.4253073.8495568 3.430725 1.7104411.5229468.4466241.479233 1.129506-.2477116 1.0858145-.5779938-.0356005-2.9223496-.9013393-5.5241312-.389987" fill="#2d2118" mask="url(#f)"/><path d="m68.2486008 49.4053695-13.3553805.0032364c-1.0782741 0-1.9525505-.8738298-1.9525505-1.9515533l-.001619-4.7575182c0-1.0777235.8742763-1.9515533 1.9525505-1.9531715l13.3537614-.0032364c1.0798932 0 1.9541695.8738298 1.9541695 1.9515533l.001619 4.7575182c0 1.0793417-.8742763 1.9531715-1.9525504 1.9531715" fill="#f2f1f0" mask="url(#f)"/><path d="m55.8630194 41.654175c-1.1106547 0-2.0156926.9045757-2.0140758 2.0162815v2.8172922c0 1.1100876.9050401 2.0130451 2.0156949 2.0130451l11.4125441-.0032364c1.1106548 0 2.0140736-.9045757 2.0140736-2.0130451l-.001619-2.8189104c0-1.1117058-.9034189-2.0146633-2.0140736-2.0146633zm11.4141632 8.6606249-11.4125441.0016193c-2.1128345.0016171-3.8322446-1.7152968-3.8338637-3.8286705v-2.8172922c0-2.1117555 1.7177911-3.8319058 3.8322446-3.833524l11.4125442-.0016193c2.1112154-.0016171 3.8322446 1.7185332 3.8322446 3.8302887l.001619 2.8172922c0 2.1133737-1.7194101 3.8302876-3.8322446 3.8319058z" fill="#ab2430" mask="url(#f)"/><path d="m46.9373057 49.4102241-13.3537614.0032364c-1.0798932 0-1.9541695-.8738298-1.9541695-1.9515533l-.001619-4.7575182c0-1.0777235.8742763-1.9531715 1.9525504-1.9531715l13.3537614-.0032364c1.0798932 0 1.9541695.8738298 1.9541695 1.9515533l.0016191 4.7575182c0 1.0777235-.8742764 1.9531715-1.9525505 1.9531715" fill="#f2f1f0" mask="url(#f)"/><path d="m34.5517244 41.6606478c-1.1106548 0-2.0140737.9029575-2.0140737 2.0130451v2.8172922c.0016191 1.1100876.905038 2.0130451 2.0156927 2.0130451l11.4141632-.0032364c1.1090357 0 2.0140736-.9045757 2.0124568-2.0130451v-2.8189104c0-1.1084694-.9050401-2.0114269-2.0140758-2.0114269zm11.4157822 8.6573885-11.4141632.0016193c-2.1128345.0016171-3.8322446-1.7152968-3.8322446-3.8286705l-.001619-2.8172922c0-2.1117555 1.7194101-3.8302876 3.8306255-3.8302876l11.4141632-.0032364c2.1128345 0 3.8322446 1.7169139 3.8338636 3.8286694v2.8172922c0 2.1133737-1.717791 3.8302876-3.8306255 3.8319058z" fill="#ab2430" mask="url(#f)"/><path d="m50.4829819 46.3259284c-.4144717 0-.8289434-.0210367-1.2450342-.0614918l.1797123-1.8075332c1.0005607.1019468 1.9995024.0582553 2.9773966-.1213653l.3270442 1.7881148c-.7382778.1359291-1.4878888.2022755-2.2391189.2022755" fill="#ab2430" mask="url(#f)"/><path d="m58.0713767 63.4513755c-3.1214903 3.4613372-11.3963539 2.6376716-13.9625168-1.1602519 2.1371199 1.145688 4.5640462 1.3576727 6.9148781 1.6602767 2.3929267.2184575 4.7049019.3042223 7.0476387-.5000248" fill="#4f433b" mask="url(#f)"/><path d="m62.2743792 82.107643c7.9850571-.0890011 9.4664698 5.3562535 11.2231176 9.7334938 7.7842974 19.3925502 12.3596769 39.9615342 14.9857439 60.6907202-5.4577509 2.771983-11.2344508 4.91772-17.1795299 6.378958-1.7177911-8.927628-.7949438-18.117406-.6864688-27.208473.1198082-10.102444-.7738964-20.188706-1.8829322-30.229658-.3642818-3.3059899-.7544681-6.6168342-1.4846507-9.8613321-.6994211-3.1053324-2.7766369-2.9224754-4.0783372-5.8271506m-28.9595939-1.1909978c-2.9045402 2.2541575-4.6789974 5.6378209-6.2041239 8.9826474-8.8819999 19.4880241-12.1767264 41.0279301-14.1292769 62.3526151 5.4269894 1.199089 10.8976926 2.20723 16.3959193 3.024422 1.8100758-23.627388 2.7458753-46.948936 5.4593699-70.49056" fill="#fffffe" mask="url(#f)"/></g><path d="m413.649274 352.119452c0 26.449536-21.45215 47.89235-47.916819 47.89235-26.463049 0-47.916819-21.442814-47.916819-47.89235 0-26.451153 21.45377-47.892349 47.916819-47.892349 26.464669 0 47.916819 21.441196 47.916819 47.892349" fill="#be99b8"/><g transform="translate(317.995 304.16)"><path d="m25.6745816 32.1601754c-1.1397973 4.916102-2.2828327 10.0150611-1.2757959 14.9586727.4743759 2.3285947 1.4117944 4.5325878 2.3492129 6.7155443.9163711 2.1295557 1.8375993 4.2574932 2.7588275 6.3854308-.75123-7.4761-.9795133-15.1366751.963323-22.3943176.3108538-1.1634882.6783737-2.3237401.746373-3.5260653.0663802-1.2007069-.2072359-2.4790877-1.0280842-3.3593903-.8224674-.8803027-2.2714995-1.2233618-3.2752982-.5598984" fill="#4f433b" mask="url(#g)"/><path d="m37.5517874 85.1951752c-3.9536718 3.0826776-6.4502165 7.7495764-8.4319095 12.2514183-1.8651228 4.2785295-3.3384403 8.7140255-4.7907105 13.1495215-1.9120747 12.346892-7.2548745 24.497982-14.74612741 34.568062 1.09446441 3.084296 2.81387461 3.671704 5.58889241 5.603838.8159912.56799 1.7420765 1.163489 2.7232089 1.006523 1.2515103-.200657 6.0681253-.930467 6.5991672-2.08101 2.6147339-5.662094 2.2828327-9.173595 4.8975665-14.835689.4857091-1.051832-.1780933-4.828719.108475-5.951752.3092348-1.203944.3804721-2.454815.4938042-3.69274.3140919-3.437065.9536089-6.835292 1.606078-10.22381 1.0377984-5.401563 2.1079774-10.796653 3.2072989-16.186889.5439942-2.6635628 1.0879884-5.3271257 1.654649-7.985834.3837101-1.8026786 1.2612245-3.7671776 1.0896073-5.6216388" fill="#e9e0d7" mask="url(#g)"/></g><path d="m-9.80759208 53.378059c-.71075432 2.4968879-1.45712722 5.0374673-2.92558762 7.1767323-1.4700795 2.139265-3.8095782 3.8480878-6.4065027 3.8917793.3059967 1.7589871 1.8230281 3.0130948 3.2380605 4.1037639 1.5105552 1.1634883 3.0858716 2.3577225 4.9477564 2.7671279 2.81225554.6181538 5.78479506-.7362825 7.7567739-2.8350924 1.9703598-2.1004281 3.09720485-4.8449011 3.98281439-7.5829014 2.70539953-8.3628754 3.53272398-17.196648 4.34547716-25.9478923.7868487-8.4907135 1.57531643-16.981427 2.36216513-25.47214049.1716172-1.84637014.33837732-3.69759488.29952059-5.55367424-.02752351-1.38194575.03238061-3.99372611-.88560954-5.10057727-.85808603.67802724-1.23693911 2.97587614-1.60283994 3.98401689-.64923113 1.79135122-1.27903389 3.59079345-1.89102732 5.3967085-1.22560589 3.61021191-2.38159348 7.24307861-3.49224823 10.89050921-2.20511919 7.2430787-4.22728796 14.5379398-6.2478377 21.8344192-1.14951147 4.15231-2.29902294 8.3046201-3.48091502 12.4472209" fill="#beb5ad" mask="url(#h)" transform="translate(349.35 389.322)"/><g transform="translate(317.995 304.16)"><path d="m38.0472107 84.819752c-.5990412.7217188-1.2936052 1.4126916-1.5850306 2.2800487-.3448535 1.0243228-.0728564 2.1344103.2234261 3.1765334 1.2677007 4.4549141 3.1214903 8.9907383 6.8225935 12.1138709.7188494.606826 1.5380787 1.168343 2.4949256 1.330163 1.6854104.284804 3.2623459-.716864 4.6158552-1.663513 3.2461556-2.2735757 6.7124994-4.8578466 7.5462999-8.5376412.6103744-2.6862178-.3173299-5.4468728-.9778942-8.1330906-1.0021798-4.0746363-1.4020802-8.2706378-1.1835111-12.4342753-.0307616.5760805-6.4550736 1.312363-7.1787801 1.391655-1.8602658.2038936-4.6239504-.2297849-6.3304083.5453346-1.716172.779974-1.4279846 2.2088477-1.6708392 3.7574684-.3513295 2.2331207-1.2919861 4.3804767-2.7766368 6.1734461" fill="#f5c8b6" mask="url(#i)"/><path d="m40.4417564 80.5557859c.1149511-.4336785.2266642-.8705934.2962825-1.3155994.2428546-1.5470025-.0453328-2.9758761 1.6708392-3.7558502 1.7064579-.7751194 4.4701425-.3414409 6.3304083-.5453345.7253255-.079292 7.1480185-.8155746 7.1787801-1.391655-.1246654 2.3819955-.0242855 4.7704638.2525687 7.1443682-5.1015643 1.5939304-10.9996915 1.4385829-15.7288788-.1359291" fill="#e1afa4" mask="url(#i)"/><path d="m66.9193769 61.6648789c-1.4312227 5.1685418-3.587771 10.3856297-7.8879153 14.1430981s-11.192356 5.6912215-16.808772 3.4403006c-1.9072176-.7637921-3.5570094-1.948317-5.0513743-3.2331705-4.2353831-3.6409578-7.3989682-8.2123826-9.102188-13.1495213-1.2660817-3.67494-1.7291243-7.5100822-2.0642636-11.3241877-.5213277-5.9420431-.6799927-12.1996358 2.4107361-17.4749791 2.7814939-4.7461907 8.0724847-8.2204735 13.9981354-9.65582 5.9256507-1.4337282 12.4114858-.9045757 18.1784716 1.0922874 7.3682066 2.5519068 8.4221953 7.7754675 8.7492394 13.8502033.4047575 7.5019912-.4079956 15.0395829-2.4220693 22.3117892" fill="#f5c8b6" mask="url(#i)"/><path d="m51.4608762 17.9151304c-2.5046398-.199039-5.0270889.1100378-7.5365858-.0194184-5.7556525-.3009859-11.1777848-2.8917296-16.9140089-3.427355-2.5564487-.2394941-5.5273692.1359291-6.9780203 2.2525392-.9859894 1.4369647-.9859894 3.4144093-.2331404 4.9856849.7544681 1.5712755 2.1743576 2.7558005 3.7577692 3.4872284-2.3621651 1.0696325-4.1414794 3.3367355-4.6174742 5.8837878-.2558068 1.3673819-.0777135 2.9532213.9730371 3.865888.854848.7427554 2.085311.867357 3.2137751.7686466 2.7814939-.2427305 5.2845147-1.6764587 7.8539157-2.7671279 14.2555612-6.0456081 31.8188013 2.0777733 31.6407079 2.4887969-1.5429358 3.5810843-1.3907469 5.9792618-.807896 9.1428495.4598045 2.5017426 1.4053182 5.424218 1.8505515 7.9291969.6751356 3.7930689 1.7032198 5.2300336.372377 8.8451001-.0906657.2427305-.1813314.5129705-.0874277.755701.101999.2653854.3869483.4045509.6476121.5178251 1.2774149.5615166.4225669 1.5049292 1.6999818 2.0648276 1.070179 3.67494 10.6046481-17.8212746 12.6251978-27.2376005.3529486-1.6424765.5731367-3.3707177.106856-4.9856848-.8159912-2.8189104-3.6104374-4.6944082-6.4745019-5.336835-.4662807-.103565-.960085-.1941844-1.3211287-.5048794-.3918053-.3398228-.5439942-.8705935-.803039-1.3188359-.9471327-1.6343854-2.2828326-1.0356502-3.7237696-1.4094552-1.5186503-.3932234-3.1392996-1.7832602-4.5478559-2.5082153-3.3465355-1.7217685-6.908402-3.173297-10.6969328-3.4726646" fill="#4f433b" mask="url(#i)"/><path d="m67.8406051 65.9078083c-.6022792.5712258-1.3178906 1.0696325-2.1387389 1.192616-4.9445184.7411371-6.1312675-9.560346-4.5689033-12.7384976.9034188-1.8350427 3.1344425-3.3092261 5.1647064-3.5568112 3.3012027-.4045509 4.282335 3.7655594 4.5041422 6.3385029.2736161 3.1619696-.6006603 6.5343056-2.9612064 8.7641899" fill="#f5c8b6" mask="url(#i)"/><path d="m37.3396944 85.1741386c-3.213775 1.121415-7.4847768 16.9700994-8.1000083 20.3165444-4.3681435 23.700208-6.3482175 44.291847-10.0039878 68.111801-.0437138.283186-.0841896.590645.051809.843084.1230463.233022.3675198.370569.6006602.493552 12.9862415 6.841765 28.8673092 7.95347 42.6792562 2.983968 1.5623641-.561517 3.1328235-1.218508 4.3616674-2.33345 1.230463-1.113324 2.0755968-2.775219 1.8246471-4.414459-.1424747-.92723-.6152315-1.776787-.7641823-2.7024-.2347594-1.454765.3480915-2.898202.6654215-4.336785.5002803-2.262248.3464724-4.610262.1910455-6.921056-1.3648425-20.292271-2.729685-40.584543-4.0961465-60.8768138-.1570459-2.3528678-.3319012-4.7688456-1.338938-6.9000195-.8192293-1.7363323-3.6671035-5.2996163-5.9483171-5.058504-.9503707.1003286-2.0027404 1.4806561-2.8592074 2.0340817-1.0070368.6488996-2.1047393 1.1553973-3.2461556 1.5243477-4.7178542 1.5211112-10.3213178.652136-14.0175639-2.7638915" fill="#e9e0d7" mask="url(#i)"/></g><path d="m27.1389884 36.6720458c-.6281837 8.9923565-.5941841 18.0300228.103618 27.0175247-8.0028665 1.9515534-20.42568555 8.3628755-28.57426476 9.5732917-.91799014 4.3837131 28.46255166 5.3028527 29.17816296 9.3985256 1.1430354 5.058504.9892275 10.4018118-.4419952 15.3858784 4.1090987-.4822246 8.1858169-1.2314528 12.1961548-2.2412118.7366587-.1860934 1.5251265-.4142601 1.9946452-1.0113771.4063766-.5162069.4921852-1.2055616.5634226-1.8576976 2.0836919-19.0996553 4.1690028-38.3109667 2.9968249-57.4866776-.5132325-8.3968577-1.6659821-16.8196066-4.4588092-24.7552763-1.3518903-3.83999682-3.1765374-7.67352079-6.2947896-10.29339217-1.4733175-1.23630744-4.3163346-4.4549141-6.2510758-2.89982059-1.659506 1.33501785-.7026591 3.20404283-.3059967 4.79311862 1.6724582 6.69288947.6476121 15.93283114.1959027 22.76812254-.2558068 3.8723609-.6314218 7.7366307-.9017999 11.6089916" fill="#beb5ad" mask="url(#j)" transform="translate(347.903 388.543)"/><g transform="translate(317.995 304.16)"><path d="m63.7201732 88.4801282c1.7501717 2.1651562 2.8996831 4.7445725 3.9666241 7.3142796 6.0066022 14.4651202 8.9079044 27.8363362 13.5820447 42.7852992.7641822 2.446724.0582851 4.529351-.370758 4.98083-4.554332 4.786646-10.5139823 8.024671-16.6598211 10.456831-7.6110612 3.011477-15.6657366 4.904775-23.822411 5.600602-.2444736.019419-.5148516.032364-.7042782-.122983-.1732362-.142402-.2250452-.380278-.2655209-.598736-.425805-2.283285-.853229-4.564952-1.2790339-6.848237 8.3282916-5.378908 16.384586-11.180167 24.1251696-17.37465.3157109-.25244-1.2175107-9.536073-1.3567473-11.490863-.2833303-3.982398-.427424-7.972888-.6006603-11.960141-.3367582-7.793268-.7625632-15.641555-2.5418774-23.2616751-.4484714-1.9191893-.9584659-3.4241185-.4484714-3.5260653 1.8861702-.3770414 5.1841348 2.5729435 6.3757411 4.0455086" fill="#e9e0d7" mask="url(#k)"/><path d="m49.5585272 48.3438281c.0032265 1.2945627-.6767662 2.346395-1.5186619 2.3496332-.8418957.0016164-1.5283645-1.0453613-1.5316285-2.3415422-.0048312-1.296181.6751615-2.3480132 1.5186763-2.3496389.8418957-.0032289 1.5283645 1.0453669 1.5316141 2.3415479m-13.514057.5938806c.0922848 1.3511999-.4598045 2.4871787-1.233701 2.5405794-.7738964.0534008-1.4765556-.9984315-1.5688403-2.3480132-.0922847-1.3495816.4598046-2.4871787 1.232082-2.5405794.7738965-.0534007 1.4765556.9984316 1.5704593 2.3480132" fill="#343534" mask="url(#k)"/><path d="m40.8335617 48.6804144c.7771345 2.7525641.9989417 5.7591861-.3124728 8.4405492-.9050379 1.8382791-2.8608265 3.0292768-1.6012209 4.7154448.3934243.3964599 1.0993215.564753 1.771219.7589374-.6816117.1472566-1.4215085.2605308-2.2051191-.0922375-.8046581-.3689504-1.2320821-1.3609092-1.1835112-2.1813383.0696183-1.805915 1.3276048-2.8787839 1.7760762-3.937089 1.1543686-2.2039931 1.2385582-4.9419933 1.7550288-7.7042666" fill="#e1afa4" mask="url(#k)"/><path d="m40.2992817 68.4451513c2.2439759-.0113274 4.4879518-.3236407 6.6493572-.9272306.372377-.103565.7917058-.2119846 1.125226-.016182.3351393.1958026.4500904.6505178.3561867 1.0291774-.0939038.3770414-.3513296.6909729-.6233267.9709221-1.6222683 1.6764587-4.2548114 2.4952697-6.5813579 2.3269765-1.0086558-.0712009-2.9773966-.6958275-3.2866314-2.5341066-.2558067-1.5162566 1.5931258-.8463204 2.3605461-.8495568" fill="#fffffe" mask="url(#k)"/><path d="m45.8379842 42.4131124c-.1926646-.0048546-.4096147-.0550189-.5164707-.2168392-.1246653-.1860934-.0291425-.4385332.0906657-.627863.7917058-1.2541077 2.5386394-1.6505675 3.958529-1.2185072 1.4198895.4304421 2.5467345 1.5227295 3.4339631 2.7104908.4614236.6181537.1813314 1.3544363-.6508502 1.129506-.6638024-.1796206-3.108538-1.7007318-6.3158369-1.7767874m-9.526374.4223511c.1619031 0 .3480915-.0420733.4500904-.1844752.1165702-.1666749.0566661-.3964598-.0291425-.5696076-.5715177-1.1489244-2.0059785-1.5405297-3.2283463-1.1796703-1.2207488.3624776-2.247214 1.3253086-3.0793955 2.3803773-.4322811.5485709-.2525687 1.2201254.4614236 1.0324138.5698986-.1488747 2.732923-1.4741834 5.4253703-1.479038" fill="#4f433b" mask="url(#k)"/></g><path d="m133.325521 332.388698c0 26.449535-21.45215 47.892349-47.9168187 47.892349-26.4630493 0-47.916819-21.442814-47.916819-47.892349 0-26.451154 21.4537697-47.893968 47.916819-47.893968 26.4646687 0 47.9168187 21.442814 47.9168187 47.893968" fill="#b4c2d9"/><g transform="translate(37.358 284.517)"><path d="m72.0662741 38.7802457c.1295224 1.8188607.2590448 3.6393395.3885672 5.4582002.0388568.5501892.0809515 1.1117058.2995206 1.6182035.215331.5032612.5909461.9159031.9115141 1.3592909 1.181892 1.6360036 1.6319824 3.7817414 1.2061775 5.7543314-.1505698.6990639-.4063766 1.3803276-.4533285 2.0939553-.0663802.9790131.265521 1.9353713.5164707 2.8852567.4565665 1.7363323.6492311 3.6037391.0922847 5.3093256-.5569464 1.7055864-1.9930262 3.2072792-3.7739595 3.4386823-.4387572.0566371-.8937047.0388369-1.3081764.1941844-.3659009.1359291-.6718976.3948416-.9827514.6327176-1.7307433 1.3220722-3.8970058 2.0664458-6.0762205 2.0891006-1.390747.016182-2.7669227-.2540579-4.1317652-.5210615-.6168505-.1213653-1.2450342-.2475851-1.7890284-.5598984-.7415158-.4255875-1.2579865-1.1602519-1.606078-1.9386077-1.0782741-2.4111232-.6249457-5.4274544 1.1122738-7.4162264 1.2482723-1.4256373 3.0632052-2.330213 4.0799562-3.9273798 1.9072176-2.9952946.2784732-6.9064923.479233-10.4519761.1262843-2.2363572 1.0054177-4.3578219 1.984931-6.3724852 1.0847503-2.2315025-5.2828956-16.042869-2.3216893-16.042869 8.4221953 0 11.2166415 14.2353358 11.3720684 16.3972556" fill="#343534" mask="url(#l)"/><path d="m58.7497503 80.7936618c.6362789.731428 1.3858899 1.4369647 1.6627441 2.2929943.3270441 1.009759-.053428 2.0696822-.4581856 3.061641-1.7307433 4.2429294-4.1350032 8.534405-8.5549557 11.3565518-.8580861.5469527-1.8311233 1.0469776-2.9320638 1.1521608-1.9395982.1844752-3.6735796-.8705934-5.1582304-1.8609339-3.5570094-2.3755227-7.3455402-5.0649768-8.0627706-8.6719523-.5229467-2.6311988.7107543-5.2526884 1.6352206-7.8175409 1.4036992-3.8901611 2.1274057-7.9291969 2.143596-11.9698509-.001619.5582802 7.27916 1.6198216 8.1000083 1.7347141 2.1079774.2977494 5.2877528.0291276 7.1852562.8705934 1.9072176.8463204 1.4878888 2.2153206 1.6659821 3.7267226.2574259 2.17972 1.1932253 4.3092758 2.7733988 6.1249" fill="#4f433b" mask="url(#l)"/><path d="m56.2904434 76.5377868c-.105237-.4272057-.2023788-.8560297-.2541877-1.2897082-.1780934-1.5097838.2412355-2.8787839-1.6659822-3.7251043-1.8975034-.843084-5.0772788-.572844-7.1868752-.8705935-.8208483-.1148924-8.1000083-1.1764339-8.0983893-1.7347141-.0097141 2.3107946-.2768541 4.6183527-.7431348 6.9000195 5.7167957 1.8188607 12.4535806 1.9871539 17.9485692.7201006" fill="#3a332c" mask="url(#l)"/><path d="m64.7223529 60.0094567c-1.6125541 4.6086435-3.9034819 9.1978684-8.1016273 12.2789278s-10.7001709 4.2801481-15.7887829 1.7589872c-1.7258863-.8544115-3.1911086-2.0745369-4.5073802-3.372336-3.7286267-3.6781765-6.4113598-8.1185267-7.7195362-12.7724799-.9714182-3.4645735-1.1883682-7.0100573-1.2887481-10.523177-.1554269-5.4776187.0437138-11.2109135 3.2040609-15.7791018 2.841398-4.1102368 7.9429623-6.8498552 13.5221405-7.6719026 5.5775592-.8236655 11.5663521.1958026 16.807153 2.4968879 6.6979281 2.9418939 7.3860159 7.8045953 7.3536353 13.3841608-.0388567 6.8935467-1.2094156 13.7158924-3.480915 20.2000336" fill="#4f433b" mask="url(#l)"/><path d="m29.0081648 50.4491108c.2946635.1731477.6314218.3543865.9584659.2589125.3594247-.103565.5472322-.4886974.6848498-.8366112.7058972-1.781642 1.2612246-3.6183029 1.8133139-5.4517274.2379974-.7848287.4743758-1.5696573.7107543-2.3561042.8386576-2.7784553 1.6821724-5.5779473 1.9574075-8.4664405.1538079-1.623058.1861885-3.4160275 1.2790339-4.6248254.7350397-.8139564 1.8311232-1.208798 2.6422574-1.9450806.8451338-.7702648 1.3972231-1.9159529 2.4528308-2.3512496.6929449-.2848038 1.4765556-.2038936 2.2196904-.1068014 3.3125359.4288239 6.6007863 1.058305 9.8388468 1.8835888 1.871599.47737 4.1851932.8981029 5.45937-.5534256 1.126845 1.4725652 3.4096777 1.8997709 4.9930892.9320852 3.5359621 1.4644741 5.3929898 5.273725 6.9440207 8.7706627.1003799-2.7930192.1861885-5.6815123-.8451337-8.2819653-.6006603-1.5178748-1.5591262-2.8658383-2.5515917-4.1620192-3.2089179-4.191147-7.0524957-8.136327-11.9646335-10.0749347-1.4166514-.5582802-2.8964451-.9401762-4.3713816-1.320454-.8386577-.2152211-1.6789344-.4320603-2.517592-.6472814-1.0523697-.2718582-2.1079774-.5420982-3.1878706-.6456632-4.1285271-.3948416-8.3865766 1.9547898-10.2516995 5.6572393-.1780933.3543865-.3432344.7281915-.6362789.9968133-.4662807.4304421-1.1495114.4984067-1.7793142.5744622-2.2520711.2670036-4.8085198 1.200707-5.4545129 3.372336-3.6557703.1246017-7.0023058 2.6538537-8.5517177 5.9646979-1.5477929 3.3108443-1.4279847 7.2560243-.1343795 10.6752882-1.9007415.2459669-3.5667236 1.781642-3.963386 3.6555216-.3982815 1.8754978.5018993 3.953271 2.1403579 4.9484661-.8613241 3.7089223-1.3049383 8.3127112 2.2747375 10.2076274 1.6821724.8900119 2.459307 4.763991 4.3503343 4.5584791-.5925651 2.3431586 1.50246 6.2705384 3.5796758 7.5068458 2.0772158 1.2363075 7.1787801 2.3156492 9.5458023 1.8237153-4.071861-4.7704638-8.1518172-14.6204682-8.516099-20.6142937" fill="#343534" mask="url(#l)"/><path d="m27.784178 48.9279995c-.3642818-.3090768-.799801-.5760804-1.2790339-.5841714-.8791335-.0178003-1.5332217.8107199-1.8958844 1.6117306-1.2175108 2.7056362-.7755155 5.9420431.5731367 8.5829511.7334207 1.4369647 1.7776952 2.791401 3.2348224 3.483992.6573263.3123133 1.4409369.4757518 2.1095964.1860934.6832307-.2961312 1.1074167-1.0227046 1.2288439-1.7573689.1214273-.7362826-.0113332-1.4887472-.1683791-2.2169387-.6022793-2.7849282-1.5251265-7.3676804-3.803102-9.3062881" fill="#4f433b" mask="url(#l)"/><g fill="#f7c364"><path d="m48.2309109 90.2018967c-5.2521341.1569657-10.1626529-3.4564826-12.4681519-8.1751638-5.6293682 1.7314777-8.9629514 7.516555-10.7762653 13.1171571-3.8840535 11.987651-3.3125359 24.879878-4.0961465 37.456555-.5941841 9.518273-1.9881691 18.986381-4.1625268 28.271633-.1133321.485461-.2266642 1.011377-.0323806 1.470947.1942837.456333.6443741.739519 1.0750361.987104 10.2484614 5.901588 22.433283 7.351498 34.2554419 7.743103 11.030453.365714 22.7247084-.27024 31.9564188-6.31423.6621834-.433678 1.3357-.925612 1.6676012-1.642476.3367583-.728192.268759-1.572894.1780933-2.370668-1.2094156-10.696325-5.140421-21.007517-5.624511-31.760479-.1473318-3.249353.0226664-6.52136-.4500904-9.738349-.6848498-4.657189-2.6859712-9.002065-4.6628071-13.274122-3.3983445-7.3434077-6.8744024-14.8243623-12.1103462-21.0722458-.6071364-.7233369-3.3805352-4.8222463-3.8079592-3.8966339-.2979015.644045-.3610437 2.1360285-.9357994 3.110187-1.7922665 3.0325133-6.476121 5.98088-10.0056069 6.0876814" mask="url(#l)"/><path d="m86.248979 98.6311185c.4144717.3754232.859705.7573192 1.4053182.8786844.480852.1068015.9795133-.0048546 1.4587463-.119747 7.7875354-1.877116 15.2496455-5.0924863 21.9621455-9.4632538.576374-.3754232 1.249891-.7767376 1.910455-.5825532.477614.1407837.811135.5615166 1.104179.9644492 1.337319 1.8382791 2.511116 3.7946871 3.503581 5.8384781-6.958592 10.4633038-16.779629 19.0041808-28.1096026 24.4461998-.9471327.454715-1.9914072.899721-3.0162533.668318-.6298028-.142402-1.175416-.525916-1.7016008-.90134-4.5446179-3.241261-9.0876168-6.482523-13.6322346-9.723784-.7042782-.503261-1.4263657-1.022705-1.9088367-1.741187-.3027587-.453097-.4986613-.967686-.6929449-1.479038-1.7436956-4.585989-3.4873912-9.1719772-5.2310867-13.7579657-1.1899873-3.1312237-4.5251896-12.5135673-4.5026381-12.5378404 3.322365-3.6943584 15.8067072 6.2317015 18.0247786 8.3240386 3.1846325 3.0017674 6.3320273 6.0941542 9.4259941 9.186541" mask="url(#l)"/></g></g><path d="m2.97735184 17.9796767c-.00161903 6.6669982 1.30817643 13.2563227 2.01731168 19.884484 1.31303352 12.2562729.56827961 24.6695116-1.34217607 36.8481107-.84513379 5.3902357-1.93474114 10.7982717-4.16900287 15.7758655-3.98605246-1.5631846-7.97048588-3.1263691-11.95653838-4.6911718-.5326609-.2087483-1.1349402-.4935521-1.2709387-1.0485959-.0939037-.381896.0679993-.7735012.213712-1.1392152 1.0361794-2.5939801 1.4085563-5.3983267 1.7275053-8.1751638 2.21159528-19.2630939 2.27473746-38.822319 6.30612276-57.7892816.86132408-4.048745 1.93150307-8.13147235 4.11557487-11.64782845 1.31950964-2.12308292 3.08425261-4.01961737 5.21651543-5.34168958.72856361-.45309697 2.49978269-1.67160417 3.38377321-1.48227436 1.62064927.34629553.22342617 1.62467626-.32704411 2.54219762-2.91587347 4.85461035-3.91157706 10.66881537-3.91481512 16.26456287" fill="#f1a948" mask="url(#m)" transform="translate(64.178 365.457)"/><g transform="translate(37.358 284.517)"><path d="m-3.4048206 127.483686c-.76418227 1.572894-1.5154123 3.236407-1.45065109 4.984067.06314218 1.682931.87427633 3.238025 1.68702951 4.713826 5.23432477 9.490763 11.34940199 18.494447 18.24323278 26.858941 1.9493124-1.726623 3.8986248-3.453246 5.8479372-5.179869-3.4436773-8.848337-6.4615497-17.86173-9.0406649-26.998106 3.908339-3.401464 7.816678-6.80131 11.7266361-10.202773.7091352-.616536 1.4279846-1.246017 1.928265-2.042173.535899-.854411.7884677-1.851225 1.0329413-2.830238 1.7356004-6.956656 3.4728198-13.913313 5.2084203-20.8699697.8224673-3.293044 2.2714994-6.9210562 2.5613058-10.299865.2590448-3.0276586-.3140919-3.7105405-2.893207-2.1651562-9.7465621 5.8384781-18.3646601 17.5882529-24.72906793 26.7586119-3.39996351 4.896684-8.65857373 11.42128-10.12217707 17.272704" fill="#f7c364" mask="url(#n)"/><path d="m55.1619793 43.809622c.589327 2.5227792.7447539 5.0212853 1.8456945 6.9922571.4241859.9450308 1.6109351 1.9094801 1.711315 3.5956481.1424746 1.8075332-1.5753165 2.6538536-3.1069191 2.1683926 3.4954863-.9288488 1.4069373-2.799492-.0275235-4.9937759-1.2709387-2.4451054-1.126845-5.2187061-.4225669-7.7625219" fill="#3a332c" mask="url(#n)"/><path d="m54.4917008 61.6988611c-2.4690211.0145639-4.9623277-.2686217-7.390873-.843084-.4177098-.0970922-.8872286-.199039-1.2369391-.0032364-.3529486.1974209-.4403763.6488996-.3043777 1.0227046.1359985.3721868.4484713.6812637.7690393.95474 1.9298841 1.6392401 4.8943285 2.4208324 7.437825 2.2282662 1.1009405-.0825284 3.212156-.7233369 3.3934873-2.5438158.1489508-1.5049292-1.824647-.8204292-2.6681618-.8155746" fill="#fffffe" mask="url(#n)"/><path d="m49.2395667 38.5488426c.1780933-.008091.375615-.0598735.4695188-.2103665.108475-.1747659.0161903-.4029326-.0971418-.5744622-.7560872-1.1311242-2.3670222-1.4547649-3.6590084-1.0275592-1.2919861.4288239-2.300642 1.4547649-3.0858716 2.5664707-.4096147.5760804-.1359986 1.2460166.6217076 1.0194682.6055173-.1796206 2.8122555-1.6311491 5.7507954-1.773551m8.2279117.5323889c-.1473318.0032364-.318949-.0307458-.4160908-.1585839-.1117131-.1504929-.0615231-.3624776.0145713-.5226797.4970423-1.0663961 1.8035997-1.4596195 2.9320638-1.1553973 1.128464.302604 2.091787 1.1618701 2.8786357 2.1117555.4096147.4935521.2606639 1.113324-.3999004.9579764-.5245658-.1246016-2.5386395-1.2897081-5.0092796-1.233071m-11.6553987 5.432309c.0760944 1.1861431.7625632 2.1085191 1.5332216 2.0583548.7722775-.0485461 1.3357-1.0502141 1.2612246-2.234739-.0760944-1.1861431-.7625633-2.1085191-1.5348407-2.059973-.7706584.0501643-1.3340809 1.0502141-1.2596055 2.2363572m12.5960553-.1148924c-.1667602 1.2298346.270378 2.3043217.9746562 2.3981775.7058972.095474 1.4117943-.8236656 1.5785545-2.0535002.165141-1.2314528-.2719971-2.3043217-.9762753-2.3997957-.7058972-.095474-1.4117944.8252837-1.5769354 2.0551184" fill="#343534" mask="url(#n)"/></g></g></svg>
