<svg xmlns="http://www.w3.org/2000/svg" width="488" height="296" viewBox="0 0 488 296" className="w-full h-auto">
  <g fill="none" fill-rule="evenodd">
    <path fill="#63BC9F" d="M395.249 296H15.454C6.919 296 0 289.084 0 280.552V15.446C0 6.916 6.92 0 15.454 0h379.795c8.534 0 15.453 6.916 15.453 15.446v265.106c0 8.532-6.919 15.448-15.453 15.448"/>
    <path fill="#B4C2D9" d="M452.275 266.471c1.885 1.806 4.053 1.442 6.757 1.225 3.92-.314 7.817-.949 11.629-1.895 1.997-.494 3.98-1.077 6.019-1.355 2.657-.361 10.92-.809 11.123-1.926.755-4.133-.784-9.637-2.526-13.463-3.043.335-6.084.964-8.419 2.885-2.4 1.976-5.17 3.47-8.043 4.76-19.807 8.897-16.731 9.586-16.54 9.77"/>
    <path fill="#4F433B" d="M434.582 153.41a476.786 476.786 0 0 0 11.898 46.937c.938 3.043 1.913 6.091 3.353 8.924 1.495 2.942 3.465 5.6 5.375 8.284 8.033 11.282 13.682 23.496 19.782 35.964 3.309-.449 7.28-2.017 10.268-4.041-2.948-12.833-9.199-24.583-14.817-36.463-1.188-2.512-2.357-5.055-3.047-7.753-.641-2.508-.858-5.105-1.071-7.687l-1.778-21.474c-.816-9.868-1.656-19.852-4.805-29.226-.155-.46-.331-.943-.704-1.249-.505-.412-1.22-.389-1.866-.342a236.513 236.513 0 0 0-24.001 2.985"/>
    <path fill="#F5C8B6" d="M381.939 67.074c-1.66-2.053-3.313-4.179-4.252-6.666-.938-2.49-1.069-5.435.262-7.727.677-1.169 1.684-2.098 2.443-3.212 1.329-1.955 1.827-4.366 2.19-6.72.186-1.197.37-2.462 1.11-3.404.743-.943 2.255-1.361 3.107-.523.383.375.557.917.7 1.44 1.64 5.97.979 12.573-1.81 18.077-.218.431-.457.89-.41 1.373.045.49.374.899.69 1.27 6.65 7.787 14.706 14.306 23.638 19.121 1.543.833-4.312 6.515-5.013 6.898-3.478 1.907-5.128-.407-7.55-2.899a248.417 248.417 0 0 1-15.105-17.028"/>
    <path fill="#B4B5B4" d="M185.21 188.772c-15.71-1.429-27.29-15.32-25.86-31.026 1.43-15.707 15.324-27.281 31.036-25.853 15.71 1.43 27.29 15.32 25.86 31.026-1.429 15.707-15.324 27.281-31.036 25.853Zm56.745-37.331a54.514 54.514 0 0 0-4.535-14.53l6.722-8.352-14.915-17.896-9.431 5.104a54.511 54.511 0 0 0-13.478-7.081l-1.154-10.65-23.205-2.11-3.057 10.267a54.482 54.482 0 0 0-14.532 4.533l-8.356-6.72-17.901 14.91 5.104 9.43a54.573 54.573 0 0 0-7.082 13.473l-10.653 1.152-2.111 23.198 10.27 3.056a54.547 54.547 0 0 0 4.535 14.529l-6.723 8.353 14.917 17.895 9.431-5.103a54.528 54.528 0 0 0 13.476 7.082l1.155 10.65 11.601 1.054 11.603 1.056 3.057-10.268a54.506 54.506 0 0 0 14.534-4.534l8.355 6.72 17.9-14.91-5.104-9.429a54.475 54.475 0 0 0 7.083-13.472l10.653-1.154 2.11-23.197-10.27-3.056Z"/>
    <path fill="#E4E4E3" d="M269.266 244.535c-10.557-.807-18.46-10.018-17.65-20.573.807-10.554 10.02-18.454 20.578-17.645 10.558.807 18.46 10.018 17.651 20.573-.807 10.554-10.021 18.454-20.579 17.645Zm37.722-25.596a36.58 36.58 0 0 0-3.182-9.706l4.432-5.67-10.182-11.866-6.28 3.515a36.63 36.63 0 0 0-9.112-4.623l-.876-7.135-7.796-.598-7.797-.597-1.953 6.92a36.606 36.606 0 0 0-9.71 3.181l-5.672-4.43-11.87 10.178 3.517 6.279a36.611 36.611 0 0 0-4.624 9.109l-7.138.876-1.194 15.588 6.921 1.953a36.58 36.58 0 0 0 3.183 9.706l-4.432 5.67 10.181 11.866 6.28-3.515a36.63 36.63 0 0 0 9.112 4.623l.877 7.135 7.796.597 7.797.598 1.953-6.92a36.606 36.606 0 0 0 9.709-3.181l5.673 4.43 11.869-10.178-3.516-6.279a36.611 36.611 0 0 0 4.624-9.109l7.137-.876 1.195-15.589-6.922-1.952ZM144.808 81.88c-10.031-3.678-15.18-14.79-11.499-24.819 3.68-10.028 14.795-15.175 24.827-11.496 10.031 3.679 15.18 14.791 11.5 24.82-3.68 10.028-14.796 15.176-24.828 11.495Zm43.657-14.516c.345-3.48.187-6.943-.428-10.3l5.859-4.292-6.632-14.315-7.065 1.69a36.977 36.977 0 0 0-7.58-6.986l1.106-7.17-14.816-5.434-3.795 6.184a36.95 36.95 0 0 0-10.303.428l-4.292-5.857-14.321 6.63 1.693 7.063a36.9 36.9 0 0 0-6.99 7.577l-7.173-1.105-5.436 14.811 6.187 3.795a36.918 36.918 0 0 0 .428 10.3l-5.859 4.29 6.634 14.317 7.063-1.693c2.163 2.64 4.703 5.001 7.581 6.987l-1.106 7.172 14.816 5.434 3.794-6.185c3.481.345 6.947.187 10.303-.428l4.293 5.857 14.32-6.631-1.692-7.061a36.947 36.947 0 0 0 6.99-7.58l7.172 1.107 5.436-14.812-6.187-3.793Z"/>
    <path fill="#636463" d="m310.938 191.048 9.073-22.272-10.2-17.27-19.273 5.002-10.806 19.836c-3.336-1.275-5.247-2.452-8.316-4.305 5.208-50.64 36.228-45.597 47.33-39.45 12.475 6.906 37.042 26.125 1.051 63.374-2.953-1.328-5.58-3.167-8.86-4.915"/>
    <path fill="#636463" d="M308.427 138.412c8.967-20.077 24.383-60.268 35.863-83.465 19.459-39.317 28.234-44.145 36.447-40.047 8.215 4.1 13.079 9.758-6.38 49.075-11.392 23.02-33.805 58.424-48.62 84.025"/>
    <path fill="#9E9F9E" d="M123.37 264.481a5.482 5.482 0 0 1-5.482 5.482 5.482 5.482 0 1 1 0-10.963 5.482 5.482 0 0 1 5.483 5.481"/>
    <path fill="#CBCCCB" d="M117.354 265.589c-.283.29-.81.385-1.048.053-.109-.151-.13-.35-.148-.536l-.444-4.682c-.042-.434-.103-.912-.417-1.198-.322-.295-.798-.284-1.224-.259l-4.44.269c-.233.014-.48.026-.683-.092-.244-.14-.37-.429-.453-.705a4.753 4.753 0 0 1-.203-1.523c.003-.107.015-.225.092-.297.064-.062.16-.071.248-.078 2.176-.147 6.345-.942 8.02 1.034.712.84.82 2.056.922 3.122.117 1.248.753 3.894-.222 4.892"/>
    <path fill="#9E9F9E" d="M109.663 276.815a5.482 5.482 0 0 1-5.483 5.481 5.482 5.482 0 1 1 0-10.963 5.482 5.482 0 0 1 5.483 5.482"/>
    <path fill="#CBCCCB" d="M105.017 276.553c-.282.29-.81.383-1.048.051-.108-.15-.13-.347-.147-.536l-.444-4.68c-.042-.434-.104-.912-.417-1.199-.324-.294-.798-.285-1.225-.26l-4.441.27c-.232.015-.48.025-.684-.093-.242-.14-.369-.427-.452-.705a4.785 4.785 0 0 1-.202-1.522c.003-.107.014-.226.09-.298.066-.06.161-.071.25-.076 2.176-.148 6.345-.943 8.02 1.032.712.84.821 2.056.921 3.122.118 1.248.753 3.895-.22 4.894"/>
    <path fill="#B79267" d="M80.191 191.777c-20.072 0-36.4 16.323-36.4 36.39 0 20.065 16.328 36.39 36.4 36.39s36.4-16.325 36.4-36.39c0-20.067-16.328-36.39-36.4-36.39Zm0 75.445c-21.542 0-39.067-17.52-39.067-39.055S58.649 189.11 80.19 189.11s39.067 17.52 39.067 39.056c0 21.535-17.525 39.055-39.067 39.055Z"/>
    <path fill="#343534" d="M81.56 195.913c-17.033 0-30.89 13.855-30.89 30.883 0 17.029 13.857 30.884 30.89 30.884 17.036 0 30.893-13.855 30.893-30.884 0-17.028-13.857-30.883-30.893-30.883Zm0 64.457c-18.516 0-33.582-15.061-33.582-33.574 0-18.512 15.066-33.574 33.582-33.574 18.52 0 33.586 15.062 33.586 33.574 0 18.513-15.066 33.574-33.586 33.574Z"/>
    <path fill="#343534" d="M84.398 265.98c-.512.59-1.04 1.42-.639 2.09.258.434.803.59 1.298.694 3.13.657 6.349.733 9.547.81 5.476.127 10.952.256 16.426.384.524.012 1.07.02 1.547-.196.511-.23.876-.687 1.222-1.127 3.458-4.406 6.918-8.81 10.377-13.214.269-.343.548-.718.565-1.152.034-.919-1.043-1.416-1.932-1.655-6.501-1.744-18.371-5.577-24.442-1.147-2.027 1.481-3.12 3.986-4.846 5.778-2.931 3.042-6.328 5.518-9.123 8.735"/>
    <path fill="#B4B5B4" d="M57.765 158.295c.556-1.18-.168-2.637-1.266-3.353-1.097-.718-2.46-.878-3.766-1.018l-16.249-1.755c-1.254-.135-2.82-.117-3.406.988-.478.9.062 2.066.913 2.634.853.57 1.92.694 2.942.802 4.651.494 9.301.986 13.951 1.478 2.105.223 3.869 1.791 4.875 3.634 1.007 1.843 1.385 3.95 1.75 6.013 2.18 12.382 4.363 24.763 6.545 37.146.342 1.942 2.781 2.595 4.756 2.84l31.703 3.929c1.322.164 1.751 1.821 1.867 3.135 1.174 13.259 2.346 26.518 3.518 39.776.492.618 1.584.34 2.015-.321.432-.662.4-1.508.353-2.294l-2.226-36.79c-.144-2.383-.686-5.303-2.985-6.026a140.012 140.012 0 0 0-27.699-5.715c-1.572-.161-3.18-.305-4.617-.954-1.44-.648-2.7-1.916-2.864-3.471a168.178 168.178 0 0 0-8.517-37.961"/>
    <path fill="#B4B5B4" d="M38.575 169.257c.555-1.179-.17-2.637-1.266-3.353-1.097-.716-2.46-.876-3.766-1.017-5.417-.586-10.833-1.17-16.25-1.754-1.254-.136-2.82-.119-3.407.988-.477.9.063 2.065.915 2.634.852.568 1.919.692 2.941.802l13.952 1.476c2.105.224 3.868 1.793 4.875 3.636 1.006 1.842 1.384 3.948 1.748 6.011l6.547 37.146c.342 1.942 2.78 2.597 4.756 2.841l31.703 3.93c1.322.162 1.752 1.821 1.867 3.134l3.519 39.776c.491.619 1.583.34 2.014-.322.431-.661.399-1.507.352-2.294l-2.226-36.79c-.143-2.383-.686-5.303-2.983-6.025a140.198 140.198 0 0 0-27.701-5.716c-1.571-.16-3.18-.305-4.618-.952-1.438-.648-2.699-1.918-2.862-3.473a168.18 168.18 0 0 0-8.518-37.96"/>
    <path fill="#343534" d="M89.748 222.93c-2.648.725-5.45.411-8.172.073a618.631 618.631 0 0 1-30.273-4.523c-.984-.172-2.018-.368-2.788-1.012-.694-.582-1.081-1.451-1.393-2.308-.637-1.748-1.056-3.568-1.475-5.382l-8.464-36.699c-.126-.545-.25-1.118-.109-1.66.178-.672.731-1.165 1.278-1.587a20.684 20.684 0 0 1 9.148-4.017c1.894 3.445 2.836 7.327 3.758 11.156l6.382 26.52 38.748 8.612c.305.069.64.156.816.418.19.282.123.659.035.988-1.06 3.956-3.347 8.284-7.491 9.421"/>
    <path fill="#465266" d="M100.11 252.236a49.773 49.773 0 0 0 18.55 10.758c.925.294 2.066.853 1.963 1.816-.034.302-.199.575-.391.81-1.356 1.656-3.838 1.685-5.98 1.555-4.852-.292-9.791-.71-14.294-2.565-.759-.312-1.511-.667-2.319-.806-.645-.11-1.305-.08-1.958-.092-1.72-.033-4.643-1.176-6.245-1.809-.672-2.8-.22-5.021.374-7.439.096-.389.255-.374.499-.688.311-.4.87-.486 1.373-.545l6.073-.697c.173-.019.386-.075.416-.246.03-.172-.339-.188-.255-.035"/>
    <path fill="#E1AE93" d="M69.98 138.629c.446.513.963 1.004 1.181 1.622.257.729.054 1.518-.167 2.26-.946 3.169-2.328 6.397-5.086 8.619-.537.43-1.148.831-1.861.946-1.256.202-2.432-.51-3.44-1.184-2.422-1.618-5.006-3.456-5.627-6.075-.455-1.91.236-3.874.728-5.785a29.03 29.03 0 0 0 .883-8.847c.023.41 4.813.935 5.352.991 1.387.144 3.447-.164 4.72.387 1.28.555 1.064 1.572 1.246 2.673a8.904 8.904 0 0 0 2.07 4.393"/>
    <path fill="#BC937D" d="M67.169 134.833c-.081-.29-.16-.578-.207-.872-.17-1.028.03-1.975-1.165-2.491-1.19-.514-3.118-.227-4.415-.363-.504-.052-4.983-.54-5.004-.922a26.821 26.821 0 0 1-.176 4.737c3.556 1.057 7.668.954 10.967-.09"/>
    <path fill="#E1AE93" d="M48.664 125.515c2.153 3.187 4.813 6.24 8.6 7.816 3.785 1.575 8.92 1.32 12.231-1.487 1.125-.953 1.978-2.133 2.701-3.346 2.053-3.439 3.165-7.265 3.196-11.007.026-2.786-.536-5.496-1.179-8.165-1-4.157-2.321-8.445-5.63-11.327-2.977-2.592-7.374-3.748-11.736-3.375-4.363.374-8.66 2.21-12.13 4.88-4.436 3.41-3.96 7.198-2.797 11.402a49.805 49.805 0 0 0 6.744 14.61"/>
    <path fill="#E1AE93" d="M49.577 128.464c.544.248 1.15.423 1.741.321 3.558-.617 2.006-7.83.204-9.618-1.04-1.033-2.909-1.524-4.357-1.232-2.356.472-2.07 3.504-1.63 5.29.538 2.192 1.913 4.268 4.042 5.239"/>
    <path fill="#343534" d="M57.724 112.66c.342.739 1.17 1.21 1.843 1.05.673-.16.942-.89.597-1.628-.344-.741-1.17-1.21-1.843-1.05-.675.158-.942.888-.597 1.627m9.567-3.41c.313 1.12 1.126 1.896 1.815 1.728.69-.167.994-1.213.681-2.336-.314-1.124-1.127-1.897-1.815-1.73-.689.168-.993 1.214-.68 2.337"/>
    <path fill="#BC937D" d="M64.427 109.63c1.088 1.777 1.815 3.633 3.141 4.865.554.616 1.716 1.073 2.203 2.344.545 1.35-.602 2.41-1.925 2.383 2.477-1.537.404-2.43-1.242-3.769-1.586-1.569-2.138-3.716-2.177-5.823"/>
    <path fill="#FFFFFE" d="M69.27 123.916c-1.687.594-3.45.945-5.223 1.04-.305.016-.647.043-.848.288-.202.246-.175.642-.01.918.166.277.44.459.712.61 1.64.905 3.82.855 5.525.098.738-.327 2.06-1.353 1.828-2.904-.19-1.283-1.407-.251-1.984-.05"/>
    <path fill="#7D563B" d="M59.97 106.704c.145-.05.296-.138.335-.28.047-.163-.09-.322-.227-.43-.915-.71-2.332-.575-3.294.077-.962.653-1.535 1.707-1.904 2.775-.19.555.206 1.018.777.655.455-.29 1.913-1.971 4.313-2.797m4.979-1.206c-.124.025-.275.035-.39-.016-.133-.06-.145-.177-.124-.272.142-.628 1.136-1.038 2.161-1.06 1.025-.023 2.054.268 2.96.633.469.19.505.532-.09.556-.472.02-2.461-.262-4.517.159"/>
    <path fill="#E1AE93" d="M119.756 146.168c1.219-1.677 2.064-3.652 3.567-5.075 2.786-2.64 7.03-2.735 10.855-2.674.398.005.827.022 1.144.263.84.64.15 1.968-.565 2.747-3.083 3.348-6.165 6.697-9.246 10.046l4.183-.91c.17-.036.35-.072.511-.007.421.17.327.804.101 1.2-.81 1.43-2.32 2.36-3.905 2.773-1.584.412-3.25.361-4.878.211-1.559-.144-3.285-.264-4.79-.722-1.58-.482-1.802-1.266-1.432-3.015.495-2.35 3.113-2.99 4.455-4.837"/>
    <path fill="#7D563B" d="M47.515 95.417c2.325-.853 4.84-1.218 7.046-2.339a11.17 11.17 0 0 0 4.314-3.883c.186-.288.378-.603.695-.742.485-.213 1.076.098 1.347.55.27.45.302.997.328 1.52 1.447-.458 2.923-.929 4.152-1.809 1.23-.88 2.194-2.255 2.177-3.751 2.52 2.081 3.517 5.767 2.386 8.806a19.285 19.285 0 0 1 4.14-.458c.265 0 .55.012.763.17.172.128.267.333.337.534.537 1.552-.077 3.418-1.437 4.365l1.32 1.005c-.382 1.134-.296 2.873-2.988 3.536-4.697-2.587-8.68-3.228-13.77-1.499.778.559 1.673.475 2.183 1.278-2.572-.519-5.5.803-7.912 1.823-2.413 1.02-2.267 1.924-4.423 3.4 5.98 9.784 2.77 12.876 4.111 16.185-.651.37-1.382.225-2.035.596-.581-1.626-1.134-3.281-2.3-4.274-1.166-.993-3.14-.81-3.963 1.103-1.036-1.98-3.165-4.49-4.733-6.095-1.695-1.74-3.84-3.624-3.593-6.024.085-.83.464-1.6.836-2.35 2.496-5.025 5.238-9.75 11.019-11.647"/>
    <path fill="#465266" d="M108.638 248.125c5.229 4.878 11.516 8.58 18.276 10.757.91.294 2.036.855 1.933 1.816-.033.304-.196.576-.386.812-1.336 1.654-3.78 1.683-5.89 1.554-4.78-.293-9.647-.71-14.084-2.564-.747-.314-1.488-.669-2.284-.807-.636-.112-1.286-.08-1.93-.093a14.125 14.125 0 0 1-4.962-1.01 39.708 39.708 0 0 1-.606-7.782c.01-.4.033-.83.275-1.144.307-.399.857-.487 1.354-.544l5.983-.697c.169-.02.38-.076.41-.248.03-.17-.335-.186-.252-.033"/>
    <path fill="#7D563B" d="M69.875 120.604c.863-.063 1.787.127 2.409.687.274.249.486.645.293.952-.08.128-.215.215-.353.285-1.401.724-3.179.14-4.726.528-.523.132-1.007.372-1.494.596-.633.29-1.28.557-1.939.797-.673.246-1.522.435-2.046-.03-.356-.313-.414-.846-.237-1.27.177-.427.549-.758.953-1.013 1.17-.74 2.515-.858 3.882-.936 1.128-.063 2.138-.511 3.258-.596"/>
    <path fill="#3A332C" d="M60.678 192.778c-.287 2.828-.574 5.692-.146 8.501.427 2.81 1.652 5.607 3.89 7.367 1.936 1.521 4.416 2.131 6.813 2.702l34.818 8.296a399.1 399.1 0 0 1-4.456 30.976 62.72 62.72 0 0 0 11.326 1.528 160.941 160.941 0 0 0 7.636-38.548c.113-1.543.184-3.18-.555-4.542-.61-1.124-1.693-1.904-2.768-2.6-6.805-4.398-25.773-12.476-25.773-12.476-2.089-1.858-2.82-4.618-3.281-6.241-1.04.925-1.647 2.278-2.984 2.674-6.3 1.866-10.338 4.754-16.885 5.332-2.47.217-5.086.315-7.285-.827"/>
    <path fill="#4F433B" d="M52.698 194.397c-.402 2.827-.805 5.69-.502 8.531.301 2.84 1.391 5.703 3.526 7.566 1.843 1.61 4.264 2.33 6.604 3.005l33.996 9.822a407.604 407.604 0 0 1-5.708 30.92 60.771 60.771 0 0 0 11.108 2.018 164.307 164.307 0 0 0 9.166-38.388c.177-1.545.316-3.187-.355-4.586-.554-1.153-1.59-1.985-2.62-2.729-6.528-4.71-14.158-7.547-21.7-10.28-.54-.195-1.109-.41-1.464-.869-.27-.35-.38-.8-.482-1.234l-1.16-4.95c-1.066.885-2.438 1.275-3.772 1.616a95.941 95.941 0 0 1-19.23 2.866c-2.444.114-5.031.099-7.152-1.141"/>
    <path fill="#B4C2D9" d="M63.3 139.84c2.418-.205 4.113-.88 5.567-2.803 3.438 1.627 3.12 4.727 3.91 7.221 4.364 13.77 8.303 27.813 15.29 40.482.454.824.931 1.674 1.02 2.61.193 2.076-1.534 3.805-3.221 5.056-10.074 7.472-23.842 9.511-35.922 5.995-.312-.09-.634-.19-.866-.415-.318-.305-.402-.772-.466-1.205-1.478-9.803-2.244-19.694-3.009-29.577-.26-3.348-.52-6.712-.259-10.06.417-5.379 2.206-10.654 5.134-15.204 1.183-1.835 2.098-2.969 4.387-2.738 2.87.29 5.51.89 8.435.639"/>
    <path fill="#B4C2D9" d="M95.361 143.894c2.882.977 5.766 1.963 8.701 2.752a67.902 67.902 0 0 0 10.857 1.993c.44.044.93.11 1.206.468.193.248.234.584.262.9.18 1.95.173 3.918-.019 5.867-14.914 1.232-29.913-.948-44.52-4.296-.226-.052-.462-.109-.636-.267-.234-.211-.304-.55-.361-.865-.714-3.945-3.35-13.409-1.866-13.409 7.347 0 19.27 5.019 26.376 6.857"/>
    <path fill="#B79267" d="M51.404 208.221c-20.072 0-36.4 16.324-36.4 36.39 0 20.065 16.328 36.39 36.4 36.39 20.073 0 36.401-16.325 36.401-36.39 0-20.066-16.328-36.39-36.401-36.39Zm0 75.446c-21.542 0-39.067-17.52-39.067-39.056 0-21.535 17.525-39.055 39.067-39.055 21.543 0 39.068 17.52 39.068 39.055s-17.525 39.056-39.068 39.056Z"/>
    <path fill="#E1AE93" d="M46.843 194.593c1.929 2.028 4.633 3.186 7.361 3.92 1.546.418 3.213.763 4.35 1.87.677.66 1.094 1.528 1.453 2.394a28.048 28.048 0 0 1 1.556 5.028c.11.52.2 1.07.019 1.57-.17.467-.562.828-.994 1.085-1.383.823-3.187.695-4.671.063-1.483-.632-2.718-1.706-3.924-2.761-1.627-1.423-3.336-2.977-3.845-5.055-.157-.64-.212-1.353-.666-1.842-.25-.27-.595-.434-.927-.6-.924-.463-1.854-1.028-2.367-1.912-.511-.883-.443-2.165.404-2.751"/>
    <path fill="#B4C2D9" d="M54.588 139.778c-6.629 2.121-9.813 9.094-12.88 15.259-2.688 5.404-4.912 8.967-7.85 14.237-.967 1.735-2.408 4.324-2.327 6.313.05 1.186 1.015 4.367 1.465 5.465a75.815 75.815 0 0 0 10.69 18.307c.229.29.484.595.84.686.435.114.877-.126 1.256-.368a19.874 19.874 0 0 0 3.608-2.96c.34-.352.683-.752.741-1.242.042-.36-.079-.719-.2-1.062-2.393-6.82-7.564-18.206-7.059-18.68 3.256-3.055 6.518-8.215 9.383-11.647.495-.594 1.001-1.206 1.255-1.94.247-.724.232-1.508.21-2.273-.184-6.384 1.56-13.52 1-19.882"/>
    <path fill="#343534" d="M52.775 213.728c-17.034 0-30.892 13.855-30.892 30.883 0 17.029 13.858 30.883 30.892 30.883s30.893-13.854 30.893-30.883c0-17.028-13.86-30.883-30.893-30.883Zm0 64.457c-18.519 0-33.584-15.061-33.584-33.574 0-18.512 15.065-33.574 33.584-33.574 18.52 0 33.585 15.062 33.585 33.574 0 18.513-15.066 33.574-33.585 33.574Z"/>
    <path fill="#B4C2D9" d="M368.866 251.883c.88 2.508 2.963 3.153 5.456 4.176a69.823 69.823 0 0 0 11.141 3.52c1.987.448 4 .811 5.93 1.478 2.515.868 10.037 4.194 10.708 3.261 2.476-3.447 3.522-9.189 3.652-13.482-2.846-1.069-5.82-1.867-8.729-1.162-2.993.728-6.102.845-9.216.729-21.456-.796-19.032 1.226-18.942 1.48"/>
    <path fill="#F5C8B6" d="M442.729 85.382c.04.266.076.557-.072.773-.146.214-.429.29-.692.349-3.9.888-8.632 1.073-12.694 1.2-.614-2.507.338-5.583-.18-8.695-.054-.32 1.122-.742 1.228-1.036.108-.3.39-.496.66-.673 1.72-1.135 9.678-7.81 11.139-5.593.833 1.264-.036 4.92-.004 6.391.05 2.426.256 4.86.615 7.284"/>
    <path fill="#E1AFA4" d="M441.105 71.68c-1.339-2.2-9.307 4.884-11.02 6.103-.268.19-.551.4-.666.71-.114.302-1.796.432-1.732.75.268 1.349.614 2.974.556 4.35 4.167-2.888 9.108-6.393 13.081-9.176.111-1.126.12-2.18-.219-2.737"/>
    <path fill="#F5C8B6" d="M420.149 46.885c-3.185 7.333-2.314 15.907.165 23.52.678 2.085 1.491 4.165 2.834 5.883 1.341 1.716 3.288 3.043 5.433 3.181 1.546.098 3.069-.416 4.486-1.057a25.68 25.68 0 0 0 9.438-7.354c1.408 1.727 4.218 1.715 5.962.344 1.744-1.37 2.515-3.732 2.522-5.982.005-1.774-.479-3.666-1.802-4.813-1.323-1.15-3.616-1.183-4.62.264 1.315-2.063 1.452-4.717.985-7.133-.962-4.985-4.446-9.387-9.013-11.39-4.568-2.002-10.088-1.548-14.284 1.177l.232-1.01"/>
    <path fill="#E1AFA4" d="M420.831 72.503c2.741.969 5.82.131 8.225-1.244-.996 2.75-6.467 3.889-8.225 1.244"/>
    <path fill="#B4B5B4" d="m438.528 37.183-5.58-.14c-3.236-.082-6.547-.153-9.62.852-3.072 1.006-5.912 3.318-6.609 6.445a3.713 3.713 0 0 1 2.174-.331c-1.16.535-1.311 2.233-.613 3.293.697 1.063 1.937 1.627 3.125 2.099 1.639.651 3.36 1.238 5.125 1.16.268.902 1.25 1.363 2.13 1.717l5.573 2.24c.46.185.936.379 1.278.736.415.434 2.232 3.194 2.473 3.744 1.04 2.376 3.443 3.493 5.827 4.558.888-1.207 1.942-2.646 3.385-2.58 2.044.091 3.055 1.023 3.569 2.982.514 1.96-.135 4.113-1.436 5.677-1.733 2.085-5.463 2.653-6.74 1.061-.392 1.193-1.02 3.04-.61 4.23.41 1.187.667 2.141.5 3.185 4.267-2.465 9.935-7.049 12.045-11.47 1.667-3.488 2.473-7.315 3.06-11.13.22-1.419.408-2.879.089-4.278-.65-2.842-3.237-4.83-5.856-6.162-.283-.144-1.223-3.196-1.719-3.766-.793-.91-1.847-1.8-2.883-2.408-2.572-1.513-5.778-1.64-8.687-1.714"/>
    <path fill="#343534" d="M429.056 60.3a1.38 1.38 0 0 1-1.382 1.367 1.362 1.362 0 0 1-1.36-1.375 1.377 1.377 0 0 1 1.38-1.366 1.365 1.365 0 0 1 1.362 1.375m-8.228.61c.04 1.134-.233 2.085-.61 2.125-.376.04-.713-.848-.754-1.982-.039-1.135.233-2.087.61-2.127.377-.04.713.848.754 1.984"/>
    <path fill="#E1AFA4" d="M421.77 60.296c.536 1.88.67 3.943-.162 5.785-.94 1.654-2.331 3.008.006 3.686-1.036.403-2.22-.214-2.15-1.572.046-1.273.84-2.007 1.11-2.706.713-1.462.798-3.31 1.195-5.193"/>
    <path fill="#675E50" d="M428.41 152.775a358.72 358.72 0 0 0-9.387 19.139c-3.77 8.3-7.233 16.778-9.422 25.612-1.193 4.81-2.001 9.702-2.954 14.562a250.573 250.573 0 0 1-10.49 37.662c2.378 2.639 5.655 4.476 9.172 5.139 4.54-5.966 7.04-13.16 9.554-20.195a948.807 948.807 0 0 1 8.276-22.263c1.033-2.676 2.087-5.364 3.62-7.795 1.794-2.844 4.195-5.26 6.539-7.685 4.2-4.348 8.292-8.821 11.822-13.716 6.492-8.996 11.016-19.365 13.178-30.2.55-2.758.95-5.561.89-8.372-.017-.72-.123-1.548-.738-1.936-.523-.331-1.207-.202-1.812-.062-7.822 1.82-15.643 3.639-23.465 5.457"/>
    <path fill="#9E9F9E" d="M425.349 54.93c-.138-.004-.29-.039-.365-.148-.087-.125-.019-.294.067-.42.567-.838 1.806-1.095 2.808-.8 1.003.298 1.794 1.037 2.415 1.84.322.416.12.91-.467.754-.469-.124-2.19-1.159-4.458-1.226"/>
    <path fill="#9D679D" d="M429.056 87.393c-4.785-.78-8.77-3.254-13.041-5.527-2.337-1.244-4.76-2.99-7.329-3.65-.308-.08-.636-.154-.942-.062-.256.077-.514.223-.658.447-1.961 3.05-3.752 5.518-5.446 7.572 2.68 2.901 5.329 4.05 8.009 6.949.394.427.803.865 1.33 1.117.544.26 1.167.299 1.772.312 5.097.102 10.214-1.432 14.397-4.315-.299-.06-.598-.123-.898-.185"/>
    <path fill="#9E9F9E" d="M420.509 56.374c.1-.002.215-.034.278-.144.076-.127.042-.302-.01-.433-.335-.87-1.214-1.16-1.972-.878-.759.281-1.405 1.02-1.934 1.828-.274.42-.173.93.27.783.354-.116 1.706-1.137 3.368-1.156"/>
    <path fill="#F5C8B6" d="M371.538 79.412c-2.007-1.704-4.02-3.48-5.387-5.736-1.366-2.258-2.012-5.109-1.092-7.586.469-1.263 1.305-2.351 1.865-3.577.979-2.147 1.05-4.59 1-6.953-.025-1.2-.064-2.467.507-3.52.572-1.055 2-1.738 2.993-1.073.444.298.712.794.946 1.278 2.673 5.529 3.17 12.09 1.364 17.964-.141.46-.298.95-.168 1.414.13.471.53.81.909 1.114a83.132 83.132 0 0 0 26.813 14.381c1.678.533-3.143 7.136-3.772 7.637-3.12 2.49-5.163.53-8.003-1.462a247.118 247.118 0 0 1-17.975-13.881"/>
    <path fill="#BE99B8" d="M421.949 89.374c-6.797.927-13.618-1.034-20.453-1.63-.572-.049-1.174-.085-1.693.16-.54.256-.899.77-1.233 1.261l-5.154 7.59c5.796 6.357 15.945 13.618 25.952 14.925-1.218 4.931-.444 10.106.334 15.125.226 1.454.45 2.908.678 4.364l2.093 13.492c.632 4.069 1.349 8.34 3.926 11.561a213.127 213.127 0 0 0 35.556-10.078c-.187-13.623-9.128-25.377-13.745-38.205-1.4-3.89-2.401-7.906-3.261-11.943-.565-2.655-.479-7.888-2.645-9.841-4.188-3.776-15.593 2.569-20.355 3.219"/>
    <path fill="#F5C8B6" d="m380.679 52.886.396-8.3c.01-.219.01-.466-.13-.616-.144-.155-.377-.135-.568-.067-.902.325-1.397 1.397-1.731 2.395-.718 2.146-1.13 4.407-1.473 6.668-.138.901-.264 1.815-.18 2.724.16 1.7 1.035 3.19 1.884 4.606a15.458 15.458 0 0 0 1.798-2.838"/>
  </g>
</svg>
