<svg xmlns="http://www.w3.org/2000/svg" viewBox="0 0 264 231" className="w-full h-auto">
  <g fill-rule="nonzero" fill="none">
    <rect fill="#D0A9CD" x="68.302" width="195.04" height="175.05" rx="11.54"/>
    <path d="M130.962 166.09c-.07 5 0 15.38.18 15.67.18.29 3.4 1.38 4.95.21 1.13-5.85 1.74-10.1 2.87-16M213.552 183.42c.54 4.94 1.49 15.31 1.34 15.61-.15.3-3.25 1.71-4.91.7-1.69-5.72-2.71-9.9-4.4-15.62M146.672 186.48c-.06 5 0 15.37.18 15.67.18.3 3.4 1.38 5 .21 1.14-5.86 1.74-10.11 2.88-16" fill="#706F6F"/>
    <path d="M193.522 59.99c6.09-2.43 13-1.81 19.33 0 6.33 1.81 12.62 5 15.72 10.74 3.76 7 1.74 15.58-.93 23-2.86 8-6.39 15.7-8.85 23.8-6.49 21.34-5.32 44.31-1.08 66.24a1.59 1.59 0 0 1-1.51 1.89l-69.53 2.19a5.87 5.87 0 0 1-2.67-.33 5.8 5.8 0 0 1-2.06-2l-9.07-12.32a8.72 8.72 0 0 1-1.57-2.8 8.81 8.81 0 0 1 0-3.47l4.14-29.87a371 371 0 0 0 37.87 1.55 220.93 220.93 0 0 1 .08-39.09c.91-10.14 2.86-20.34 8.38-29.11a25.35 25.35 0 0 1 11.75-10.42Z" fill="#6EC1AA"/>
    <path d="M144.732 154.04c5.86-3.94 17.63.21 25.36-2.37-1.16-2.32-.77-10.82-2.79-13.15-10.62-.06-21.25-.56-31.83-1.54l-4.14 29.88a6.56 6.56 0 0 0 1.56 6.26l9.07 12.33a5.91 5.91 0 0 0 2.05 2c-1.95-12.58-1.72-20.95.72-33.41Z" fill="#00A97A" opacity=".5"/>
    <path d="M114.172 186.22c-3.93 3.94-9.39 5.88-14.66 7.66a14.79 14.79 0 0 0-4 1.8 2 2 0 0 0-.74.81 1.58 1.58 0 0 0 .56 1.77 3.7 3.7 0 0 0 1.84.67 24.76 24.76 0 0 0 6.14-.12l4.79-.5c1.21-.12 2.42-.25 3.63-.41a7.34 7.34 0 0 1 1.32-.1 15 15 0 0 1 1.63.29c1.06.2 9 .3 9.31-.78.79-3 .21-5.82-.51-8.87a1.33 1.33 0 0 0-.23-.59 1.37 1.37 0 0 0-.59-.38c-2.23-.89-4.71-.78-7.11-.83-.06 0-.14 0-.16-.07-.02-.07.11-.1.09 0" fill="#A48A7B"/>
    <path d="M117.742 187.57c-3.93 3.94-9.39 5.88-14.66 7.67a14.46 14.46 0 0 0-4 1.79 2.08 2.08 0 0 0-.74.82 1.58 1.58 0 0 0 .56 1.76 3.71 3.71 0 0 0 1.84.68 24.38 24.38 0 0 0 6.15-.13l4.78-.49c1.21-.13 2.43-.25 3.63-.41a6.57 6.57 0 0 1 1.33-.1c.546.063 1.087.16 1.62.29 1.07.19 9 .29 9.31-.78.79-3 .21-5.83-.5-8.88a1.53 1.53 0 0 0-.24-.59 1.47 1.47 0 0 0-.59-.38c-2.23-.88-4.71-.78-7.11-.82-.06 0-.14 0-.16-.08-.02-.08.11-.09.1 0" fill="#CBBBA0"/>
    <path d="M128.572 131.82a15.39 15.39 0 0 0-2.08.8 9.89 9.89 0 0 0-3.91 3.25c-1.09 1.59-1 3-1.25 4.79-.67 4.64-1.5 9.26-2.25 13.89l-4.51 27.77-.76 4.73a20.65 20.65 0 0 0 10.83.66 457.292 457.292 0 0 0 8.5-41 203 203 0 0 0 40-6.75c3.34-.91 6.93-2.11 8.84-5 1.72-2.59 1.67-6 1-9a24.69 24.69 0 0 0-4.22-9.21c-3.85.78-7.77 1.89-11.64 2.44-3.87.55-6.76 1.13-10.11 3.13-3.09 1.84-6 4.05-9.33 5.38a33.11 33.11 0 0 1-5.1 1.48 104.4 104.4 0 0 1-7.66 1.45 43.68 43.68 0 0 0-6.35 1.19Z" fill="#4E5E7A"/>
    <path d="M138.732 133.97c-2 .52-4 1.1-5.43 2.56a11.24 11.24 0 0 0-2.27 4.65l-14.25 46.6a20.61 20.61 0 0 0 10.64 2.12c2.32-11.14 12.24-24.66 16.07-39.43a182.47 182.47 0 0 0 38.45-1.33c3.43-.45 7.15-1.15 9.44-3.75 2-2.33 2.46-5.7 2.19-8.8a24.9 24.9 0 0 0-2.93-9.7l-11.54.75c-3.53.23-7.22.8-10.75.51-2.21-.18-4.18-.69-6.41-.28-3.64.67-7.25 1.87-10.83 2.82-4.12 1.09-8.24 2.24-12.38 3.28Z" fill="#607395"/>
    <path d="m160.242 137.59-26.79 1.49a1 1 0 0 1-.78-.32l-11.62-13.1c-.55-.61-.41-2.89.41-2.93l25-.07a.94.94 0 0 1 .73.27l13.64 11.69c.65.59.27 2.92-.59 2.97Z" fill="#9D9D9C"/>
    <path d="m160.262 136.12-26.79 1.49a1 1 0 0 1-.8-.29l-11.6-13.13a1 1 0 0 1 .67-1.63l24.77-1.37a.94.94 0 0 1 .73.27l13.64 13a1 1 0 0 1-.62 1.66Z" fill="#C6C6C6"/>
    <path d="m156.602 134.39-16.46 1.05a2.74 2.74 0 0 1-1.23-.35l-8.51-9.94a.76.76 0 0 1 .44-1.23l15.5-1c.352.03.693.136 1 .31l10 9.84c.4.45-.17 1.25-.74 1.32Z" fill="#878787"/>
    <path d="m133.272 136.92-11.42-13.25a7.91 7.91 0 0 1-.35-.79l-8.93-24.32c-.23-.65 1.1-1.26 1.61-.8l10.88 10.4a7.56 7.56 0 0 1 1.09 1.76l8.26 26.23c.26.68-.67 1.3-1.14.77Z" fill="#9D9D9C"/>
    <path d="m132.982 137.25-11.82-13.27a7.91 7.91 0 0 1-.35-.79l-8.38-24.4a.67.67 0 0 1 1.07-.73l10.87 10.41a7.71 7.71 0 0 1 1.1 1.76l8.26 26.22c.2.69-.27 1.33-.75.8Z" fill="#C6C6C6"/>
    <path d="M165.982 69.12c2.15 6.77-.29 14.16.74 21.19l4.17-2.72c.23-.128.426-.31.57-.53a1.67 1.67 0 0 0 .16-.62c.2-1.7 12.58-3.91 12.78-5.62.25-2.07-3.34-13.85-3.83-15.89-.49-2.04-10.22 6.17-12.24 5.63" fill="#683C11"/>
    <path d="M144.122 120.67a15.54 15.54 0 0 0-2.61-.64 4.63 4.63 0 0 0-1.66 0 5.19 5.19 0 0 0-1.76.84 29 29 0 0 0-4.19 3.39c-.24.23-.5.56-.36.87a.85.85 0 0 0 .59.36c3.35.9 6.91.48 10.36 0l3.79-.47c-.1 0-1.08-2.94-1.37-3.28-.59-.72-1.95-.78-2.79-1.07Z" fill="#D9B9AC"/>
    <path d="M171.242 93.45a18.1 18.1 0 0 0-2.29-7.45c-.33-.54.76-.67.34-1.15-.42-.48-.51-1.33-1.16-.64-.81.86-1.5.43-3.52 4.16a39.51 39.51 0 0 0-4.23 12.88c-.38 2.32-.66 4.66-.86 7a50.76 50.76 0 0 0 .08 5.65c0 .93.06 1.86 0 2.78 0 .1-7.46 1.89-9.06 2.24-1.2.26-2.41.52-3.62.74a8.28 8.28 0 0 0-1.19 6.25 69.2 69.2 0 0 0 13.64.95 22.55 22.55 0 0 0 8.16-1.43 5 5 0 0 0 2.13-1.48 6.18 6.18 0 0 0 .9-3.29c.474-6.393.77-12.79.89-19.19a61.35 61.35 0 0 0-.21-8.02Z" fill="#EF7875"/>
    <path d="M172.552 93.32a34.8 34.8 0 0 0-1.22-6.79c-.45-1.45-.18-3.27-2.16-2.81-1.98.46-2.94 2.84-3.73 4.4a22.38 22.38 0 0 0-2 6 63.47 63.47 0 0 0-1.1 7.4 193.31 193.31 0 0 0-.35 20 1.72 1.72 0 0 1-.16.93 1.57 1.57 0 0 1-.74.55 12.29 12.29 0 0 1-3.7.84c-3.922.35-7.87.29-11.78-.18a8.14 8.14 0 0 0 1 4.46 44.07 44.07 0 0 0 18.75 0 9.29 9.29 0 0 0 4.65-2.12 9.09 9.09 0 0 0 2.1-4.77 67.7 67.7 0 0 0 1.06-12.31 137 137 0 0 0-.62-15.6Z" fill="#AD5956" opacity=".7"/>
    <path d="M187.522 74.17a18.78 18.78 0 0 1 4.93-4.36 6.38 6.38 0 0 1 6.3-.14 7.93 7.93 0 0 1 2.67 3.37c2.95 6 3.44 12.82 3.21 19.46a98.16 98.16 0 0 1-5.29 28.41 25.29 25.29 0 0 1-3.61 7.35 10.11 10.11 0 0 1-6.87 4.07 6.41 6.41 0 0 1-6.56-3.91" fill="#00A97A" opacity=".5"/>
    <path d="M169.962 75.46a9 9 0 0 1-.43 7.77 8.32 8.32 0 0 0-1.09 1.59 2.43 2.43 0 0 0 0 .76 66.75 66.75 0 0 0 1.42 10.06 35.29 35.29 0 0 0 8.42-4.75 8 8 0 0 0 3.2-4 7.1 7.1 0 0 0-.29-4.39 41.22 41.22 0 0 1-2.76-11.18 10 10 0 0 1-8.3 3.83" fill="#D9B9AC"/>
    <path d="M179.162 76.09c-.31-2-.67-2.72-.84-4.73a9.84 9.84 0 0 1-8.2 3.95l-.16.28a10.22 10.22 0 0 1 .52 5.52 14.15 14.15 0 0 0 8.68-5.02Z" fill="#AA8B82" opacity=".5"/>
    <path d="M162.842 54.62a14.18 14.18 0 0 0-.26 3c0 1.15 0 2.28-.09 3.41-.09 1.13-.39 2.32-.53 3.48a16 16 0 0 0 2.64 10.81 3 3 0 0 0 1 1.07c.403.18.84.272 1.28.27a19.69 19.69 0 0 0 10.79-2.34 7.11 7.11 0 0 0 4.08-5.14 19 19 0 0 0-2.08-14.52 18.58 18.58 0 0 0-7.33-7 9.7 9.7 0 0 0-2.09-.92 4.07 4.07 0 0 0-2.25.64 9.2 9.2 0 0 0-3.56 3.25 11.58 11.58 0 0 0-1.6 3.99Z" fill="#D9B9AC"/>
    <path d="M171.072 93.32a26.13 26.13 0 0 1-1.51-10.23c-3.67 2.26-5.1 7.13-5.75 11.47a76.08 76.08 0 0 0-.64 10.12c-.14 7.72-.103 15.44.11 23.16a44.51 44.51 0 0 0 29.12-.11c-4.7-8.83-5.92-19.18-5.12-29.15.25-3.14.7-6.32 0-9.4-.36-1.65.78-3.68-.33-5-1.11-1.32-4.69-2.46-6.2-3.27a42.4 42.4 0 0 1-4.9 6.24 51.78 51.78 0 0 0-4.78 6.17Z" fill="#EF7875"/>
    <path d="M187.302 98.47c.25-3.13.69-6.32 0-9.4a10.26 10.26 0 0 0-2.19-4.55 6.86 6.86 0 0 0-2.29-1.67c-1.14 7.78-5.22 24.4-3.59 35.49.78-.21.93-2.69 1.69-3-.76.3-1 2.71-1.75 2.93.18 1.22-.13.27.28 1.49a9.27 9.27 0 0 1-.4-2.53c-5 1.35-10.77 4.81-15.91 4 0 3.78 0 2.67.13 6.45a44.42 44.42 0 0 0 29.11-.11c-4.66-8.78-5.89-19.13-5.08-29.1Z" fill="#AD5956" opacity=".7"/>
    <path d="M179.522 60.8a35.19 35.19 0 0 1 1.9 10.19c.63 8.92.24 18-2.27 26.6a12.64 12.64 0 0 1 3.29-.42c.95 0 1.72-.41 2.6-.52 2.46-.3 6.06 1.41 8.48 2a1.65 1.65 0 0 0 1.29 0 1.49 1.49 0 0 0 .5-.66c1.29-2.69 1.22-5.81.81-8.76-.94-6.67-3.52-13.1-3.66-19.83-.16-7.6 1.84-16.58-4.37-22.46-2-1.85-5.93-3.11-8.57-3.66a35 35 0 0 0-8-.54 4.53 4.53 0 0 0-2.1.52c-.85.35-1.58.86-1.67 1.78-1-.14-2.05.85-2.55 1.54-.5.69-.33 2.31-.06 3.15a8.51 8.51 0 0 1 3.86-3c.15-.02 8.99 10.09 10.52 14.07Z" fill="#683C11"/>
    <path d="M228.512 70.91c-2.35-4.35-6.57-7.26-11.21-9.19 4.05 6.83 3.46 17.11-.16 24.36-17.56 31.36-17.71 66.24-14.42 100.24l13.42-.42a1.59 1.59 0 0 0 1.51-1.89c-4.24-21.93-5.41-44.9 1.08-66.24 2.46-8.1 6-15.84 8.85-23.8 2.68-7.48 4.69-16.08.93-23.06Z" fill="#00A97A" opacity=".5"/>
    <path d="M163.042 123.95a16.19 16.19 0 0 0-2.54-.87 4.64 4.64 0 0 0-1.65-.19 5.14 5.14 0 0 0-1.83.68 29.33 29.33 0 0 0-4.47 3c-.27.22-.55.52-.44.84a.85.85 0 0 0 .55.42c3.26 1.19 6.84 1.08 10.31 1l3.83-.14c-.11 0-.82-3-1.07-3.39-.53-.8-1.88-.98-2.69-1.35Z" fill="#D9B9AC"/>
    <path d="M183.672 88.88a4.52 4.52 0 0 1 2.56-.75 4.25 4.25 0 0 1 1.66.3 5.4 5.4 0 0 1 2.2 1.91c2.34 3.16 2.6 7.46 3.05 11.27a334.04 334.04 0 0 1 1.71 19.13 6.1 6.1 0 0 1-.44 3.37 4.92 4.92 0 0 1-1.91 1.76 22.6 22.6 0 0 1-7.89 2.53 69.09 69.09 0 0 1-17.65.66.87.87 0 0 1-1-.88l-.75-3.89a37.87 37.87 0 0 0 9.56-2.56c1.54-.56 8.69-3.36 8.68-3.45-.15-1.7-.93-5.55-1.13-7.64a104.4 104.4 0 0 1-.53-10.61c0-2 .07-4.09.24-6.13.14-1.74 0-3.82 1.56-5l.08-.02Z" fill="#EF7875"/>
    <path d="M167.382 129.32c-4 0-10.7.75-13 4a9.64 9.64 0 0 0-1.42 4.64 25 25 0 0 0 1.83 12 11.24 11.24 0 0 0 2.88 4.26c3 2.54 7.39 2.21 11.28 1.73l29.18-3.63c2.13-.26 4.4-.58 6-2 1.83-1.62 2.33-4.24 2.72-6.65a34 34 0 0 0 .65-8.76c-.26-2.48-1.47-7-4.23-7.76-1.53-.36-27.38 2.33-35.89 2.17Z" fill="#6EC1AA"/>
    <path d="M200.062 145.1a12.92 12.92 0 0 1-4.91 2.46c-8.43 2.67-17.3 3.67-26.12 4.23a36.53 36.53 0 0 1-9.23-.23 13.44 13.44 0 0 1-8-4.35c-.4 3.4 1.79 6.59 4.4 8.79a27.52 27.52 0 0 0 14.68 5.94 52.58 52.58 0 0 0 16-1 87.65 87.65 0 0 0 17.92-5.52c2.71-1.18 5.44-2.56 7.35-4.82a15.24 15.24 0 0 0 3.18-8.78 24.32 24.32 0 0 0-2.6-12.65c-1-2-4-8-6.82-6.49-2.34 1.24-2.18 6.79-2.19 8.94-.05 4.46-.05 10.17-3.66 13.48Z" opacity=".5" fill="#00A97A"/>
    <path fill="#FDC533" d="M22.532 34.85h2.5v3h-2.5zM38.112 37.85h-4.67v-3h4.67v3Zm-6.54 0h-4.67v-3h4.67v3ZM119.302 78.43h-3v-4.67h3v4.67Zm0-6.54h-3v-4.67h3v4.67Zm0-6.54h-3v-4.67h3v4.67Zm0-6.54h-3v-4.68h3v4.68Zm0-6.54h-3v-4.68h3v4.68Zm-3-6.53a8 8 0 0 0-1-3.77l2.63-1.44a11 11 0 0 1 1.35 5.19l-2.98.02Zm-1.86-5.06a8 8 0 0 0-3.16-2.28l1.11-2.79a11 11 0 0 1 4.34 3.14l-2.29 1.93Zm-4.66-2.71a8.51 8.51 0 0 0-1.42-.12h-3v-3h3a10.63 10.63 0 0 1 1.95.17l-.53 2.95Zm-6.27-.12h-4.67v-3h4.67v3Zm-6.54 0h-4.67v-3h4.67v3Zm-6.54 0h-4.67v-3h4.67v3Zm-6.54 0h-4.67v-3h4.67v3Zm-6.54 0h-4.68v-3h4.67l.01 3Zm-6.54 0h-4.67v-3h4.67v3Zm-6.54 0h-4.67v-3h4.67v3Zm-6.54 0h-4.67v-3h4.67v3Zm-6.54 0h-4.67v-3h4.67v3Zm-6.54 0h-4.67v-3h4.69l-.02 3ZM116.302 80.31h3v2.5h-3z"/>
    <path fill="#FDC533" d="m112.712 76.83 5.09 5.09 5.08-5.09v4.32l-5.08 5.08-5.09-5.08z"/>
    <path fill="#B26FAC" d="m53.959 11.815 3-.004.004 2.5-3 .004zM53.982 28.82v-5.18h3v5.18h-3Zm0-7.25v-5.18h3v5.18h-3ZM97.492 123.05h-5.18v-3h5.18v3Zm-7.25 0h-5.18v-3h5.18v3Zm-7.25 0h-5.19v-3h5.19v3Zm-7.26 0h-5.18v-3h5.18v3Zm-7.25 0h-3.43a11.33 11.33 0 0 1-2-.19l.55-2.95a8 8 0 0 0 1.47.14h3.43l-.02 3Zm-7.74-.89a11 11 0 0 1-4.61-3.72l2.45-1.74a8 8 0 0 0 3.34 2.71l-1.18 2.75Zm-5.78-5.84a10.94 10.94 0 0 1-.85-4.23v-1.43h3v1.43a7.87 7.87 0 0 0 .62 3.07l-2.77 1.16Zm-.85-7.73v-5.18h3v5.18h-3Zm0-7.26v-5.18h3v5.17l-3 .01Zm0-7.25v-5.16h3v5.18l-3-.02Zm0-7.25v-5.18h3v5.18h-3Zm0-7.26v-5.16h3v5.18l-3-.02Zm0-7.25v-5.16h3v5.16h-3Zm0-7.25v-5.16h3v5.18l-3-.02Zm0-7.26v-5.16h3v5.18l-3-.02Zm0-7.25V45.4h3v5.18l-3-.02Zm0-7.25v-5.16h3v5.17l-3-.01Zm0-7.25v-5.17h3v5.18l-3-.01ZM99.572 120.05h2.5v3h-2.5z"/>
    <path fill="#B26FAC" d="m96.102 126.63 5.09-5.08-5.09-5.09h4.32l5.08 5.09-5.08 5.08z"/>
    <path fill="#00A97A" d="m0 97.908.016-3 2.5.013-.016 3zM15.952 98h-4.81v-3h4.8l.01 3Zm-6.73 0h-4.8v-3h4.8v3ZM96.672 98.43h-4.8v-3h4.81l-.01 3Zm-6.72 0h-4.81v-3h4.8l.01 3Zm-6.73 0h-4.8v-3h4.8v3Zm-6.72 0h-4.8v-3h4.8v3Zm-6.72 0h-4.81v-3h4.8l.01 3Zm-6.73 0h-4.8v-3h4.8v3Zm-6.72 0h-4.8v-3h4.8v3Zm-6.73 0h-4.8v-3h4.8v3Zm-6.72 0h-4.8v-3h4.81l-.01 3Zm-6.72 0h-4.8v-3h4.8v3Zm-6.73 0h-4.8v-3h4.8v3Zm-6.72 0h-4.8v-3h4.81l-.01 3ZM98.54 98.423l.016-3 2.5.014-.016 3z"/>
    <path fill="#00A97A" d="m95.052 102.01 5.12-5.06-5.06-5.12 4.32.03 5.06 5.11-5.12 5.06z"/>
    <path fill="#F0E9E6" d="M147.402 230.04h1v1h-1z"/>
    <ellipse fill="#3C3C3B" transform="rotate(-78.24 172.62 59.796)" cx="172.619" cy="59.796" rx="1.47" ry="1"/>
    <ellipse fill="#3C3C3B" transform="rotate(-81.6 164.802 58.58)" cx="164.802" cy="58.58" rx="1.53" ry="1"/>
    <path d="M167.612 58.47a7.43 7.43 0 0 1-1.29 5.07c-1.2 1.28-2.88 2.32-.67 3.4a1.49 1.49 0 0 1-1.7-1.87c.22-1 1.08-1.48 1.59-2.15 1-1.2 1.39-2.85 2.07-4.45Z" fill="#AA8B82"/>
    <path d="M165.132 69.78a16.44 16.44 0 0 0 4 .26 1 1 0 0 1 .66.12.48.48 0 0 1 .07.6 1.29 1.29 0 0 1-.51.44 5.65 5.65 0 0 1-4.19.49c-.58-.15-1.65-.71-1.57-1.73.08-.84 1.08-.27 1.54-.18Z" fill="#FFF"/>
    <path d="M172.132 55.75a.36.36 0 0 1-.28-.21.37.37 0 0 1 .14-.37 2.08 2.08 0 0 1 2.5-.19 4.39 4.39 0 0 1 1.66 2.14c.19.44-.08.85-.54.6a9.87 9.87 0 0 0-3.48-1.97ZM166.742 54.99a.33.33 0 0 0 .29 0 .36.36 0 0 0 .06-.35 1.63 1.63 0 0 0-1.74-1.17 3.89 3.89 0 0 0-2.14 1c-.33.28-.32.71.13.7a8.17 8.17 0 0 1 3.4-.18Z" fill="#683C11"/>
  </g>
</svg>