<svg viewBox="0 0 302.76 274.72" xmlns="http://www.w3.org/2000/svg" class="w-full h-auto">  
  <defs>
    <clipPath id="clip-path">
      <path class="cls-1" d="m200.93 106.42 4-7.24c.08-.13.16-.28.28-.31a.45.45 0 0 1 .36.11l2 1.32a3 3 0 0 1 1.31 1.42 4.3 4.3 0 0 1 .17 1.2q.38 8.13 1.32 16.21a24.42 24.42 0 0 1 .26 4.1 49.08 49.08 0 0 1-1.24 6.46c-1.26 6.75.73 13.81.24 20.71a35.68 35.68 0 0 1-27.63 2.23c-.22-12.09-.74-22 1.52-33.8.69-3.58 1.39-9 2.82-12.2 1-2.21 4.62-7.09 8.24-7.42.41 0 1.65 2 2.46 3q1.89 2.19 3.89 4.21Z"/>
    </clipPath>
    <clipPath id="clip-path-2">
      <path class="cls-1" d="M89.88 165.05c1.94 20.21 3.3 40.55 7.54 60.4a2.56 2.56 0 0 1 0 1.5 2.44 2.44 0 0 1-.91 1c-5.78 4.25-13.24 5.7-20.4 5.4s-16.14-.91-20.71-5.4c.17-14.05.16-25.67.08-39.11 0-10.47-.23-20.79 4.16-30.3-.14.3 8.12 1.86 8.84 2a40.09 40.09 0 0 0 9.15.57c3.12-.16 6-1.14 9-1.53s3.02 3.04 3.25 5.47Z"/>
    </clipPath>
    <clipPath id="clip-path-3">
      <path class="cls-1" d="M90.39 118.83a141.73 141.73 0 0 1 8.06 16.47 15.23 15.23 0 0 1 1.16 3.77 14.17 14.17 0 0 1-.46 5c-1.69 7.42-4.89 14.41-8.42 21.15l-2.39-2a1.28 1.28 0 0 1-.48-.58 1.25 1.25 0 0 1 .08-.76l3-9.38a26.85 26.85 0 0 0 1.53-6.88c.21-4.85-2.19-9.39-4.52-13.65 3.23 9-.06 19.05 1 28.57a39.42 39.42 0 0 1-29.78-.67q1.08-15.85 2.54-31.68A100.52 100.52 0 0 1 64 112.88a118.12 118.12 0 0 1 16.4-.25c2.05.11 4.14-.07 5.83 1.17a15.15 15.15 0 0 1 4.16 5.03Z"/>
    </clipPath>
    <clipPath id="clip-path-4">
      <path class="cls-1" d="M244.45 184.21c-.4 9.5-.36 19 .12 28.53a3.78 3.78 0 0 1-.17 1.71 3.16 3.16 0 0 1-.82 1.07 14.13 14.13 0 0 1-7.35 3.44 26.47 26.47 0 0 1-8.19-.11q-1.33-11.4-2.28-22.83a80.67 80.67 0 0 0-3.52 21.86c-4.5.49-9-.4-13.47-1.3a.91.91 0 0 1-.53-.23.94.94 0 0 1-.17-.57c-.3-5.31 1.76-10.42 3.37-15.49 1.11-3.49 2-7 3.17-10.52a147.58 147.58 0 0 1 7.12-16.64 15.69 15.69 0 0 0 16.88 1.76c1.57-.82 5.55-3.65 5.88-.45a67.79 67.79 0 0 1-.04 9.77Z"/>
    </clipPath>
    <clipPath id="clip-path-5">
      <path class="cls-1" d="M235.71 123.06a6.78 6.78 0 0 1-5.56-3.48c-2.26 1.12-5.05.88-7.18 2.22a11 11 0 0 0-3.21 3.73l-8.82 14.06a3.51 3.51 0 0 0-.47.95 3.15 3.15 0 0 0 .1 1.58 25.65 25.65 0 0 0 7.5 12.81 17.88 17.88 0 0 0 3.15-3.52 103 103 0 0 1-.54 23c2.87 1.93 5.87 3.92 9.3 4.44 5 .76 9.86-1.72 14.14-4.38a1.89 1.89 0 0 0 1.14-2.2c-.42-9.75-1-19-.92-18.94a59.14 59.14 0 0 0 12.55-3.78l-2.06-14.35c-.69-4.77-2.5-9.56-6.29-12.53-2-1.56-4.74-3-7.24-2.74a8.1 8.1 0 0 1-1.79 2.09 6.64 6.64 0 0 1-3.8 1.04Z"/>
    </clipPath>
    <clipPath id="clip-path-6">
      <path class="cls-1" d="M235.79 123.14a6.73 6.73 0 0 1-5.55-3.47c-2.26 1.11-5.06.87-7.19 2.21a11.08 11.08 0 0 0-3.21 3.74L211 139.68a3.45 3.45 0 0 0-.47.94 3.27 3.27 0 0 0 .1 1.58 25.57 25.57 0 0 0 7.5 12.81 17.65 17.65 0 0 0 3.16-3.52 103 103 0 0 1-.55 23c2.88 1.94 5.88 3.93 9.3 4.45 5 .75 9.86-1.73 14.15-4.39a2.51 2.51 0 0 0 .95-.85 2.56 2.56 0 0 0 .19-1.35c-.43-9.74-1-19-.93-18.94a57.84 57.84 0 0 0 12.6-3.77l-2.06-14.35c-.68-4.77-2.5-9.55-6.29-12.52-2-1.57-4.74-3-7.23-2.75-.12 0-.78 1.46-1.8 2.1a6.71 6.71 0 0 1-3.83 1.02Z"/>
    </clipPath>
    <clipPath id="clip-path-7">
      <path class="cls-1" d="M217.47 246c2-.07 2 6.27 2 6.78s-2.28 2-3.63 2.27-2.7.81-4.05 1.09a20.39 20.39 0 0 0-3.39 1.26 19.81 19.81 0 0 1-14 .81.52.52 0 0 1-.29-.16.78.78 0 0 1-.13-.37 6 6 0 0 1 2.59-5.39 10.75 10.75 0 0 1 5.56-1.63 34.13 34.13 0 0 0 5.8-.57 1.7 1.7 0 0 0 .78-.36 2.05 2.05 0 0 0 .44-.76 24.68 24.68 0 0 0 .91-2.67 2.14 2.14 0 0 1 .26-.62 1.45 1.45 0 0 1 .49-.36c1-.47 2-.07 3.07 0 .92.34.18 1.89.45 2a2.27 2.27 0 0 0 3.14-1.32Z"/>
    </clipPath>
    <clipPath id="clip-path-8">
      <path class="cls-1" d="M240 247.13c2-.07 2 6.28 2 6.79s-2.28 2-3.63 2.26-2.7.81-4.05 1.1a19.49 19.49 0 0 0-3.39 1.25 19.81 19.81 0 0 1-14 .82.69.69 0 0 1-.3-.17.77.77 0 0 1-.12-.37 5.92 5.92 0 0 1 2.58-5.38 10.86 10.86 0 0 1 5.57-1.64 33.91 33.91 0 0 0 5.79-.57 1.68 1.68 0 0 0 .79-.36 2.09 2.09 0 0 0 .44-.75 28 28 0 0 0 .91-2.67 1.81 1.81 0 0 1 .26-.62 1.33 1.33 0 0 1 .49-.36c1-.48 2-.08 3.07 0 .92.34.17 1.9.45 2a2.27 2.27 0 0 0 3.14-1.33Z"/>
    </clipPath>
    <clipPath id="clip-path-9">
      <path class="cls-1" d="M182.1 165.08a137.23 137.23 0 0 1-15.31 71.21c-.31.6-.81 2.22-1.36 2.62s-1.16.28-1.75.42c-2.25.51-4.3.24-6.55.75.62-14.6 1.87-28.73-1.79-42.87-1.33 14.21-5.61 29.22-4.46 43.45a21.29 21.29 0 0 1-6.9.37c-.41 0-.85.18-1.21 0a1.61 1.61 0 0 1-.58-.73c-5.65-11-7.48-23.43-9.12-35.65-1.7-12.67-3.24-25.85.67-38a164.93 164.93 0 0 0 27.22.33c6.4-.46 12.87-1.33 19.21-.31Z"/>
    </clipPath>
    <clipPath id="clip-path-10">
      <path class="cls-1" d="M187.63 141.48c2.91 10.3 3 21.09 2.39 31.71l-7 .14c-2.63-12.37-5.31-24.9-11.29-36.22a39.09 39.09 0 0 1-2-4c-1-2.5-5.06-19.79-5-19.76a30.71 30.71 0 0 1 12.83 9 46.33 46.33 0 0 1 5.82 8.56 50.45 50.45 0 0 1 4.25 10.57Z"/>
    </clipPath>
    <clipPath id="clip-path-11">
      <path class="cls-1" d="M178.41 139.05q1.47 5.61 2.85 11.25c1.49 6.12 2.88 12.47 1.83 18.69-4 1.76-8.45 2.2-12.81 2.47a207.92 207.92 0 0 1-36.75-.91 94.53 94.53 0 0 1 2.93-30.26 63.74 63.74 0 0 1 14.47-26.56 34.22 34.22 0 0 0 3.77 1.48 13.53 13.53 0 0 0 4.26.21 13.39 13.39 0 0 0 4.2-1.2c1-.46 2.24-1.75 3.38-1.41s2.17 2.4 2.79 3.32a43.28 43.28 0 0 1 2.38 4 62.74 62.74 0 0 1 3.7 8.74c1.15 3.34 2.09 6.76 3 10.18Z"/>
    </clipPath>
    <style>
      .cls-1{fill:none}.cls-2{fill:#f0e9e6}.cls-3{fill:#7d4e24}.cls-5{fill:#00a97a}.cls-6{fill:#7b6a58}.cls-7{fill:#fff}.cls-8{fill:#936037}.cls-9{fill:#ebbba2}.cls-10{fill:#cca48e}.cls-11{fill:#683c11}.cls-12{fill:#3c3c3b}.cls-13{fill:#ef7875}.cls-15{fill:#ad5956}.cls-15,.cls-18,.cls-26,.cls-27{opacity:.5}.cls-16{fill:#b16fac}.cls-17{fill:#d0a9cd}.cls-18,.cls-22{fill:#b26fac}.cls-19{fill:#a98876}.cls-21,.cls-27{fill:#cdc5c1}.cls-24{fill:#fed770}.cls-26{fill:#f39200}.cls-28{fill:#fbd4c7}.cls-30{fill:#878787}.cls-34{fill:#eabdb7}.cls-35,.cls-40{fill:#e94e1b}.cls-40{opacity:.3}.cls-41{fill:#c6d1ec}.cls-45{fill:#634e42}.cls-48{fill:#c6c6c6}.cls-50{fill:#b2b2b2}
    </style>
  </defs>
  <g id="_04" data-name="4">
    <rect class="cls-2" x="5.69" y="87.46" width="297.08" height="187.27" rx="11.54"/>
    <path class="cls-3" d="M99.35 226.62a41.88 41.88 0 0 1-14.89 10.71c-.74.31-1.66.87-1.58 1.76a1.4 1.4 0 0 0 .31.74c1.07 1.49 3 1.42 4.76 1.22 3.87-.46 7.82-1 11.43-2.93a8.58 8.58 0 0 1 1.86-.84 8.18 8.18 0 0 1 1.56-.16 10.88 10.88 0 0 0 4-1.13 43.22 43.22 0 0 0 .55-7.26 1.91 1.91 0 0 0-.22-1 1.33 1.33 0 0 0-1.09-.45l-4.84-.42c-.14 0-.31-.05-.33-.21s.27-.19.2 0M135.82 237.61c.74.43 1.61 1.37 1.1 2.18a1.46 1.46 0 0 1-1.14.53 35 35 0 0 1-10.62-.42 7.24 7.24 0 0 1-3.5-1.33c-1.64-1-1.17-1.86-3.08-1.72a30.45 30.45 0 0 1-4.25-1.36 1.38 1.38 0 0 1-.33-1 33.09 33.09 0 0 1 .53-7.43c-.19 1 5.54-.19 5.91-.24 1.13-.17 1.28.32 2.17 1.24s1.54 1.52 2.34 2.22a70.45 70.45 0 0 0 10.87 7.33Z"/>
    <path d="M127.94 152.23a218.58 218.58 0 0 1-.08 33.85c-1.13 14.07-3.61 28-6.08 41.89-2.74 1.16-5.22.54-8-.46.29-19.51-1-36.35-.67-55.86-2.55 19.73-4.62 37.09-5.65 56.09-2.06 1.51-5.82.66-8.32.11-.29-.07-2.88-54.87.78-75.6a84.86 84.86 0 0 0 20 .24c.72-.08 1.66-.45 1.53-1.16" fill="#575756"/>
    <path class="cls-5" d="M129 103.17a83.07 83.07 0 0 1 6.35 5.82A91.91 91.91 0 0 0 153 122.16a51.37 51.37 0 0 1-3.71 5.65c-9.36-4.15-17.4-10.88-26.78-15-.14-2-.3-4-.48-5.93s-.8-4.12-.57-5.94c.37-2.94 6.31 1.29 7.54 2.23ZM101.2 102.58a83.07 83.07 0 0 0-6.35 5.82c-1.9 1.81-3.95 3.42-5.9 5.16a24.78 24.78 0 0 1-5.5 4.08 4.41 4.41 0 0 1-1.64.54 4.83 4.83 0 0 1-1.6-.21l-14.86-3.66a42 42 0 0 0-2.64 6.08 41.28 41.28 0 0 0 9.89 2.32c3.23 0 6.76 1 10 1.48 1.57.23 3 .75 4.37 0s2.74-1.59 4.09-2.42c5.46-3.34 10.8-6.94 16.69-9.51q.21-3 .48-5.93c.17-1.84.8-4.12.57-5.94-.42-3.03-6.36 1.25-7.6 2.19Z"/>
    <path class="cls-6" d="M200.64 235.19c.29-.09.24-.48.25-.77a1.67 1.67 0 0 1 1.33-1.41 5 5 0 0 1 2.08 0l1.65.25a1.91 1.91 0 0 1 .67.19 2.31 2.31 0 0 1 .53.55 11.63 11.63 0 0 0 4.63 3.14 88.9 88.9 0 0 0 10.38 3.93c.62.19 1.36.5 1.44 1.13s-.38 1-.83 1.27a10.4 10.4 0 0 1-5.2 1.33 46.89 46.89 0 0 1-19.39-3 1.47 1.47 0 0 1-.63-.36 1.42 1.42 0 0 1-.29-.69 12 12 0 0 1-.21-3.49 3.84 3.84 0 0 1 1-2.53c1.2-.92 1.49.82 2.59.46Z"/>
    <path class="cls-6" d="M183.5 235.89c.29-.06.29-.46.32-.75a1.69 1.69 0 0 1 1.45-1.28 5.09 5.09 0 0 1 2.08.22l1.61.4a1.78 1.78 0 0 1 .65.26 1.81 1.81 0 0 1 .47.59 11.8 11.8 0 0 0 4.34 3.55 89.12 89.12 0 0 0 10 4.86c.6.25 1.31.62 1.33 1.25s-.46.94-.94 1.19a10.56 10.56 0 0 1-5.3.86 47.06 47.06 0 0 1-19-4.71 1.71 1.71 0 0 1-.6-.42 1.45 1.45 0 0 1-.22-.71 12.43 12.43 0 0 1 .11-3.5 3.84 3.84 0 0 1 1.27-2.42c1.17-.89 1.3.87 2.43.61Z"/>
    <path class="cls-7" d="M207.26 234.5c-.06.06-8.5 1.8-11.92 1.05 0-23.13 1.11-47.49-1.77-70.36.06 23.32-1.61 47.43-1.56 70.75-3.21 1.05-9.95.86-14.25.43.62-9.61-.07-19.25-.36-28.88-.69-23.22 1-46.43 2.63-69.57.05-.57 18.77 2.14 20.5 2.21s6-1.16 7 .82c.69 1.32.5 3.93.64 5.45q.3 3.16.57 6.34c1.44 16.56 2.51 33.22 2 49.87-.33 9.39-2.92 31.22-3.48 31.89Z"/>
    <path class="cls-8" d="M213 67.77a8 8 0 0 1 2 2.14 2.83 2.83 0 0 1 .08 2.84 7.72 7.72 0 0 0-.94 1.29 2.55 2.55 0 0 0-.08 1.1c.15 2.06.59 4.08.67 6.14a54.8 54.8 0 0 1-.89 8.91c-.76 6.17-.34 12.42.08 18.62a42.21 42.21 0 0 1-12.58 4.11c-4.4.54-9.09-.18-12.68-2.78a2.68 2.68 0 0 1-.86-.88c-.19-.37-1.72-.85-1.74-1.27-.37-8.23-.83-14.38-1.33-23.28a112.75 112.75 0 0 1-.2-11.77c.2-3.51 1.51-7.14 4.3-9.28a15.44 15.44 0 0 1 6.63-2.52c3-.56 6.95-1 9.69.71a93.14 93.14 0 0 1 7.85 5.92Z"/>
    <path class="cls-9" d="M204.5 99.18a4.64 4.64 0 0 1 .76 1.44 3.18 3.18 0 0 1-.36 1.82c-1.05 2.49-2.44 5-4.8 6.54a3.16 3.16 0 0 1-1.54.59 3.79 3.79 0 0 1-2.55-1.29c-1.72-1.54-3.55-3.28-3.77-5.47-.16-1.6.57-3.13 1.14-4.64a25 25 0 0 0 1.56-7.12c0 .33 3.64 1.21 4.06 1.31 1.06.25 2.69.19 3.62.76s.67 1.38.7 2.29a7.44 7.44 0 0 0 1.18 3.77Z"/>
    <path class="cls-10" d="M203.41 96.55c0-.26-.07-.53-.08-.79 0-.91.24-1.72-.7-2.29s-2.56-.51-3.63-.76c-.41-.1-4.08-1-4.05-1.31a26.16 26.16 0 0 1-.65 4.12 15.57 15.57 0 0 0 9.11 1.03Z"/>
    <path class="cls-9" d="M189.24 85.43c1 2.95 2.51 5.89 5.17 7.9s6.75 2.85 9.92 1.31a10.65 10.65 0 0 0 2.8-2.1c2.32-2.29 3.41-3.72 4.2-6.66.58-2.19.38-6.25.42-8.48.05-3.48.18-7-1.83-9.89a11.43 11.43 0 0 0-8-4.78 19.14 19.14 0 0 0-10.53 1.39c-4.18 1.8-4.57 4.88-4.51 8.43a40.53 40.53 0 0 0 2.36 12.88Z"/>
    <path class="cls-9" d="M187.48 87.64a2.3 2.3 0 0 0 1.29.6c2.91.23 3.17-5.81 2.13-7.6a4.13 4.13 0 0 0-3.15-1.85c-1.94-.1-2.34 2.36-2.36 3.87a6.25 6.25 0 0 0 2.09 4.98Z"/>
    <path class="cls-10" d="M203.9 79.74a16.9 16.9 0 0 0 .8 4.38c.22.6.9 1.24.88 2.28a1.37 1.37 0 0 1-2 1.19c2.19-.41 1-1.65.22-3.07a6.42 6.42 0 0 1 .11-4.78Z"/>
    <path class="cls-11" d="M200.51 76.23a.27.27 0 0 0 .27-.46 2 2 0 0 0-2.2-.8 3.93 3.93 0 0 0-2 1.43c-.28.33-.14.76.33.65a9.61 9.61 0 0 1 3.6-.82Z"/>
    <path class="cls-10" d="M197.89 89.42a13.17 13.17 0 0 0 8 .83c-1.85 1.91-6.59 1.51-8-.83Z"/>
    <ellipse class="cls-12" cx="199.36" cy="79.76" rx="1.32" ry=".86" transform="rotate(-88.46 199.367 79.758)"/>
    <path class="cls-8" d="M209.3 72.81c-.5.83-2.16 1.29-3.12 1.26a10.9 10.9 0 0 1-4.66-1.49c-3.17-2.37-2.73-2.4-6.65-2.91.95 1.76.16 2.24-.42 4.15-.39 1.31-1.61 2.93-2 4.24a12.16 12.16 0 0 0-.17 5c2.5 16.43.4 9 .52 13.53a2.55 2.55 0 0 1-.07.87 2.37 2.37 0 0 1-.68.9l-4.73 4.57c-.55-9.58-3.17-19.1-2.33-28.67a18.37 18.37 0 0 1 1.17-5.45 11.54 11.54 0 0 1 8.61-7 56.93 56.93 0 0 1 5.7-.2 7.3 7.3 0 0 1 2.24.06 15.91 15.91 0 0 1 3.12 1.4c1.81 1.31 2.69 2.27 4.49 3.57a10.53 10.53 0 0 1 2.16 2.16c.71.89 1.73 3.09 1.14 4.26-.9 1.84-4.42-.06-4.32-.25Z"/>
    <path class="cls-13" d="m201 106.47 4-7.23c.07-.14.15-.28.28-.32a.44.44 0 0 1 .35.12l2 1.32a3 3 0 0 1 1.32 1.41A4.42 4.42 0 0 1 209 103c.25 5.42.69 10.83 1.32 16.2a25.6 25.6 0 0 1 .27 4.1 50.46 50.46 0 0 1-1.25 6.46c-1.26 6.75.74 13.82.24 20.72a35.85 35.85 0 0 1-27.58 2.21c-.22-12.1-.74-22.05 1.52-33.81.69-3.57 1.4-9 2.82-12.19 1-2.21 2.8-7 6.42-7.34.41 0 2.11 2.21 2.91 3.16a19.73 19.73 0 0 0 5.33 3.96Z"/>
    <path class="cls-13" d="M225 120.54a5 5 0 0 0 1.17 1.07 4.83 4.83 0 0 0 2 .44q5.94.42 11.9.34a16.23 16.23 0 0 0 .63 3.79q-6.1 1.11-12.19 2.34a27.07 27.07 0 0 0-5.8 1.65c-.79.35-1.72.78-2.46.33a2.63 2.63 0 0 1-.5-.44l-10.85-11.63a3 3 0 0 1-.65-.9 3 3 0 0 1-.16-1q-.19-4.22-.36-8.43c-.05-1.36-2.46-7-.48-7.52 1.54-.38 5.77 5.59 6.61 6.63 1.71 2.13 3.45 4.25 5.2 6.35 1.94 2.35 3.94 4.67 5.94 6.98Z"/>
    <g clip-path="url(#clip-path)">
      <path class="cls-15" d="M194.25 96.4c.3-.52.62-1 1-1.54l-2 1.44a5.31 5.31 0 0 1 1 .1ZM194.48 96.44h-.23l-.08.13ZM177.07 128.34c-.72 9.44 1 19.07 1.08 28.62 4.14.3 6.07-.22 10.15.66-.15-5.92-2.69-8.54-2.49-14.46.26-7.89.25-11.14 1.91-20.7.21-1.2 2.42-7.51 2.44-8.73a63.69 63.69 0 0 1-13.09 14.61Z"/>
      <path class="cls-15" d="m194.17 96.53.08-.13a5.31 5.31 0 0 0-1-.1l-1.26.9Z"/>
    </g>
    <path class="cls-11" d="M206.15 77.1a.3.3 0 0 1-.25-.11.33.33 0 0 1 0-.32 1.53 1.53 0 0 1 1.85-.57 3.7 3.7 0 0 1 1.67 1.43c.23.32.11.69-.29.57a8.18 8.18 0 0 0-2.98-1Z"/>
    <ellipse class="cls-12" cx="206.97" cy="80.51" rx="1.38" ry=".79" transform="matrix(.09 -1 1 .09 107.69 279.16)"/>
    <path class="cls-16" d="M81.31 240.89c.22-2.47.8-5 .54-7.5s-.77-5-.95-7.52a.83.83 0 0 1 .06-.47c.12-.24.43-.3.7-.34a32 32 0 0 1 8.41 0l-.88 8.7a9.06 9.06 0 0 0 0 2.94c.48 2.07 2.82 3.09 4.59 3.86a77.36 77.36 0 0 0 8.82 3.22c.53.16 1.15.41 1.22.93s-.32.8-.7 1a9.22 9.22 0 0 1-4.42 1.1 41.27 41.27 0 0 1-16.47-2.42 1.57 1.57 0 0 1-.54-.3 1.22 1.22 0 0 1-.25-.57 9.53 9.53 0 0 1-.17-2.87 3.07 3.07 0 0 1 .88-2.07c1-.82 1.23.61 2.17.31.24-.07.2-.39.21-.63a1.4 1.4 0 0 1 1.12-1.16 4.45 4.45 0 0 1 1.78 0l1.4.2a1.62 1.62 0 0 1 .57.16 1.71 1.71 0 0 1 .44.45 6.34 6.34 0 0 0 1.06 1M61 239.85a27.92 27.92 0 0 0 .47-3.89c0-.78-.52-9.19-.63-9.15a14.55 14.55 0 0 1 8.42-.25l-.28 4.93a33 33 0 0 0 0 5.26 8.18 8.18 0 0 0 1.91 4.33c2.78 3.6 6.47 6.35 9.81 9.43a1.52 1.52 0 0 1 .62 1 1.08 1.08 0 0 1-.25.63 2.93 2.93 0 0 1-1.76 1 6.75 6.75 0 0 1-1.95.17 11.69 11.69 0 0 1-3.87-1c-1.43-.59-2.81-1.27-4.18-2q-2.56-1.31-5.1-2.67a11.64 11.64 0 0 1-2.21-1.38 4.06 4.06 0 0 1-1.38-2.12 5.22 5.22 0 0 1 0-1.89c.06-.81.2-1.6.38-2.4Z"/>
    <path class="cls-10" d="M94.23 164.44a7.24 7.24 0 0 1 .64 2.4 6 6 0 0 1-2.17 4.34 14.62 14.62 0 0 1-3.58 2.56 25.09 25.09 0 0 1-.79-13.39 5.91 5.91 0 0 1 2-3.72 11.87 11.87 0 0 1 2.3 3.4 32.88 32.88 0 0 0 1.6 4.41Z"/>
    <path class="cls-17" d="M84.61 72.7a8.08 8.08 0 0 1 5.53 4.22 21.46 21.46 0 0 1 2.11 6.86 142.41 142.41 0 0 1 2.25 23 8 8 0 0 1-.2 2.35c-.37 1.31-1.47 6.31-6.7 8.22-2-2.26-5.44-4.18-8.4-3.74-5.15.78-9.57 1.18-14.76 1.56a1.37 1.37 0 0 1-.8-.11 1.39 1.39 0 0 1-.48-1 56.51 56.51 0 0 1-.22-9.65c.18-5.36.36-10.72.83-16.06A42.07 42.07 0 0 1 65 80.61 9.59 9.59 0 0 1 66.74 77c1.44-1.69 3.7-2.42 5.88-2.82a28 28 0 0 1 10.24 0l-.33-.27"/>
    <path class="cls-18" d="M91.08 82.12a119.37 119.37 0 0 1 1 13.5c.13 4.36.16 8.8-1.1 13a21.78 21.78 0 0 1-4.4 8 17.42 17.42 0 0 0-3.73-2.24 39.12 39.12 0 0 0 5.9-14.59A89.48 89.48 0 0 0 90.27 84a.74.74 0 0 0-.14-.55"/>
    <path class="cls-2" d="M92.44 198.08h.22v.44h-.22z"/>
    <path class="cls-10" d="M91 98.59c-.7 3.06-1.83 6.16-4.29 8.43a10.21 10.21 0 0 1-10 2.25 11.33 11.33 0 0 1-3.12-1.83 18.83 18.83 0 0 1-5.84-7.6 28 28 0 0 1-1.58-6.63c-.49-3.49-.78-7.16.91-10.31a12.84 12.84 0 0 1 8.11-5.9 20.15 20.15 0 0 1 10.91.39c4.49 1.4 5.28 4.46 5.66 8a39.79 39.79 0 0 1-.76 13.2Z"/>
    <path class="cls-19" d="M83.72 88.93a17.43 17.43 0 0 0 1.66 4.35c.34.58 1.17 1.1 1.35 2.16a1.42 1.42 0 0 1-1.81 1.61c2.18-.83.72-1.91-.36-3.2a6.89 6.89 0 0 1-.84-4.92Z"/>
    <path class="cls-12" d="M79.56 86a.4.4 0 0 0 .29-.17.36.36 0 0 0-.11-.36 2.06 2.06 0 0 0-2.41-.39 4.11 4.11 0 0 0-1.78 1.86c-.22.39 0 .8.47.6A10.14 10.14 0 0 1 79.56 86ZM84.85 85.75a.36.36 0 0 1-.28-.07.34.34 0 0 1 0-.34 1.59 1.59 0 0 1 1.78-1 3.89 3.89 0 0 1 2 1.15c.3.28.25.69-.18.64a8.29 8.29 0 0 0-3.32-.38Z"/>
    <ellipse class="cls-12" cx="78.69" cy="89.9" rx=".9" ry="1.38" transform="rotate(-10.05 78.682 89.895)"/>
    <ellipse class="cls-12" cx="86.66" cy="89.1" rx="1.44" ry=".83" transform="rotate(-88.72 86.663 89.1)"/>
    <path class="cls-11" d="M108.87 97.78a4.52 4.52 0 0 0-.89 1.35 3.16 3.16 0 0 0 .17 1.84c.8 2.57 1.94 5.19 4.14 7a3.16 3.16 0 0 0 1.47.74 3.82 3.82 0 0 0 2.66-1c1.85-1.36 3.83-2.92 4.27-5.07.31-1.57-.27-3.16-.69-4.71a24.84 24.84 0 0 1-.86-7.22c0 .34-3.74.86-4.16.91-1.07.15-2.69-.07-3.67.41s-.8 1.3-.92 2.21a7.44 7.44 0 0 1-1.52 3.54Z"/>
    <path class="cls-11" d="M125.35 83.69c-1.14 2.91-2.7 5.8-5.41 7.72s-6.81 2.62-9.93 1a10.58 10.58 0 0 1-2.73-2.18 17.9 17.9 0 0 1-4.48-8.15 27.27 27.27 0 0 1-.51-6.68c0-3.47.33-7.1 2.43-10a12.94 12.94 0 0 1 8.68-4.75 19.06 19.06 0 0 1 10.45 1.72c4.11 1.91 4.4 5 4.23 8.54a40.36 40.36 0 0 1-2.73 12.78Z"/>
    <path class="cls-11" d="M127.84 85.36a2.41 2.41 0 0 1-1.31.56c-2.9.14-3-5.9-1.88-7.64a4.11 4.11 0 0 1 3.2-1.75c1.93 0 2.25 2.43 2.22 3.93a6.24 6.24 0 0 1-2.23 4.9Z"/>
    <ellipse class="cls-12" cx="114.62" cy="74.69" rx="1.36" ry=".89" transform="rotate(-84.27 114.625 74.684)"/>
    <ellipse class="cls-12" cx="107.04" cy="74.47" rx="1.43" ry=".82" transform="rotate(-88.3 106.637 74.498)"/>
    <path d="M109.72 74a6.77 6.77 0 0 1-.67 4.89c-1 1.31-2.42 2.41-.25 3.16a1.4 1.4 0 0 1-1.8-1.48c.14-1.06.94-1.61 1.26-2.19a17.29 17.29 0 0 0 1.5-4.34Z" fill="#432918"/>
    <path class="cls-21" d="M113.72 71a.36.36 0 0 1-.29-.16c-.06-.11 0-.25.09-.35a2 2 0 0 1 2.36-.47 4.07 4.07 0 0 1 1.83 1.77c.23.39 0 .8-.45.61a9.78 9.78 0 0 0-3.54-1.4ZM108.49 70.94a.29.29 0 0 0 .27-.08.32.32 0 0 0 0-.33 1.58 1.58 0 0 0-1.8-.88 3.82 3.82 0 0 0-1.92 1.2c-.28.29-.22.69.2.62a8.28 8.28 0 0 1 3.25-.53ZM106.11 83.52c1.07-.1 2.08-.55 3.14-.73a6.57 6.57 0 0 1 3.79.45c1.66.73 3 2.15 4.79 2.52a6 6 0 0 0 5.5-1.9 7.41 7.41 0 0 0 1.35-1.86c.75-1.52 1.35-3.32 1.44-3.32.66 0 .07 3.31 0 3.55a14.72 14.72 0 0 1-5.49 9.54 12.45 12.45 0 0 1-10.44 2.14 5.81 5.81 0 0 1-2-.9 14.14 14.14 0 0 1-3.35-3.42 21.83 21.83 0 0 1-2.27-6.31 7 7 0 0 1-.16-3.36 7.05 7.05 0 0 0 1.34 2.88 2.92 2.92 0 0 0 2.36.72Z"/>
    <path class="cls-11" d="M113.79 86.14a1.75 1.75 0 0 1 .7 1.27 1.67 1.67 0 0 1-.24.71 3.44 3.44 0 0 1-2 1.68 4.27 4.27 0 0 1-3.37-.76 4.05 4.05 0 0 1-1.71-2 2.08 2.08 0 0 1 .32-2.06 3.3 3.3 0 0 1 1.85-.41 6.26 6.26 0 0 1 4.45 1.57Z"/>
    <path class="cls-7" d="M108.91 86.15a14.46 14.46 0 0 0 4.1.11.88.88 0 0 1 .68.11.58.58 0 0 1 .12.67 1.27 1.27 0 0 1-.46.54 5.15 5.15 0 0 1-4.2.77 2.17 2.17 0 0 1-1.74-1.91c-.01-.97 1.04-.36 1.5-.29Z"/>
    <path class="cls-17" d="M89.87 165c1.94 20.21 3.3 40.55 7.55 60.4a2.64 2.64 0 0 1 0 1.5 2.49 2.49 0 0 1-.9 1c-5.78 4.25-13.24 5.7-20.41 5.4s-16.13-.91-20.71-5.4c.17-14.05.16-25.67.09-39.11-.06-10.47-.24-20.79 4.15-30.3-.14.3 8.13 1.86 8.84 2a40.18 40.18 0 0 0 9.16.57c3.11-.16 6-1.14 9-1.53s3 3.03 3.23 5.47Z"/>
    <path class="cls-19" d="M78.87 101.31a13.26 13.26 0 0 0 8-.07c-1.63 2.11-6.38 2.23-8 .07Z"/>
    <path class="cls-2" d="M89.67 156.55a7.23 7.23 0 0 0 1 1.4c-.32-.43-.67-.9-1-1.4Z"/>
    <path class="cls-22" d="M276.42 145.65h3v2.5h-3zM279.42 143.69h-3v-4.91h3Zm0-6.87h-3v-4.9h3ZM279.42 130h-3v-4.91h3Zm0-6.87h-3v-4.9h3ZM20 121h-3v-4.9h3Zm259.38-4.82h-3v-4.9h3ZM20 114.17h-3v-4.9h3Zm259.38-4.81h-3v-4.9h3ZM20 107.31h-3v-4.91h3Zm259.38-4.82h-3v-4.9h3ZM20 100.44h-3v-4.9h3Zm259.38-4.81h-3v-4.91h3ZM20 93.58h-3v-4.91h3Zm259.38-4.82h-3v-4.9h3ZM20 86.71h-3v-4.9h3Zm259.42-4.81h-3V77h3ZM20 79.85h-3v-4.91h3ZM279.42 75h-3v-4.9h3ZM20 73h-3v-4.9h3Zm259.38-4.81h-3v-4.93h3ZM20 66.12h-3v-4.91h3Zm259.42-4.82h-3v-4.9h3ZM20 59.25h-3v-4.9h3Zm259.38-4.82h-3v-4.9h3ZM20 52.38h-3v-4.9h3Zm259.38-4.81h-3v-4.9h3ZM20 45.52h-3v-1.4a26.74 26.74 0 0 1 .26-3.7l3 .42a23.78 23.78 0 0 0-.26 3.28Zm256.33-4.71a19.37 19.37 0 0 0-.83-4.47l2.86-.89a22.62 22.62 0 0 1 1 5.15ZM20.6 39l-2.93-.66a26.38 26.38 0 0 1 1.63-4.93l2.7 1.25A23.06 23.06 0 0 0 20.6 39Zm254.32-4.4a20.58 20.58 0 0 0-2.19-4l2.45-1.72a23.81 23.81 0 0 1 2.52 4.58ZM22.85 33l-2.63-1.43a27 27 0 0 1 2.9-4.3l2.31 1.92A23.4 23.4 0 0 0 22.85 33Zm248.76-3.84a22.71 22.71 0 0 0-3.28-3.16l1.88-2.34a26.62 26.62 0 0 1 3.71 3.64ZM26.66 27.82l-2.15-2.08a27 27 0 0 1 3.94-3.37l1.72 2.46a24.43 24.43 0 0 0-3.51 2.99Zm240.19-3a24.75 24.75 0 0 0-4-2.23l1.2-2.75a27.66 27.66 0 0 1 4.53 2.5Zm-235.13-1-1.53-2.58A27.48 27.48 0 0 1 34.88 19l1 2.82a24.15 24.15 0 0 0-4.16 2.01Zm229.37-1.9a27.38 27.38 0 0 0-4.49-1.15l.49-3a29.61 29.61 0 0 1 5 1.29Zm-223.44-.61-.79-2.9a28.21 28.21 0 0 1 5.1-.89l.24 3a24.09 24.09 0 0 0-4.55.79Zm217.11-.76c-.83-.08-1.69-.12-2.54-.12H250v-3h2.22c.95 0 1.89 0 2.82.13Zm-210.71-.12v-3h4.92v3Zm204 0h-4.91v-3H248Zm-6.87 0h-4.9v-3h4.9Zm-6.86 0h-4.92v-3h4.91Zm-6.87 0h-4.9v-3h4.9Zm-6.86 0h-4.91v-3h4.91Zm-6.87 0h-4.9v-3h4.9Zm-6.86 0h-4.91v-3h4.91Zm-6.87 0h-4.9v-3H200Zm-6.86 0h-4.91v-3h4.91Zm-6.87 0h-4.9v-3h4.9Zm-6.87 0h-4.9v-3h4.9Zm-6.86 0h-4.9v-3h4.9Zm-6.87 0h-4.9v-3h4.9Zm-6.86 0h-4.91v-3h4.91Zm-6.87 0H147v-3h4.9Zm-6.86 0h-4.91v-3h4.91Zm-6.87 0h-4.9v-3h4.9Zm-6.86 0h-4.91v-3h4.91Zm-6.87 0h-4.9v-3h4.9Zm-6.87 0h-4.9v-3h4.9Zm-6.86 0h-4.9v-3h4.9Zm-6.87 0H99v-3h4.9Zm-6.86 0h-4.92v-3H97Zm-6.87 0h-4.9v-3h4.9Zm-6.86 0h-4.92v-3h4.91Zm-6.87 0H71.5v-3h4.9Zm-6.86 0h-4.92v-3h4.91Zm-6.87 0h-4.9v-3h4.9Zm-6.86 0H50.9v-3h4.91ZM17.04 123.05h3v2.5h-3z"/>
    <path class="cls-2" d="M93.47 157.44a1 1 0 0 1 .07-.15 26.41 26.41 0 0 0-2.41-2.65c.78 1.03 1.56 1.95 2.34 2.8Z"/>
    <g clip-path="url(#clip-path-2)">
      <path class="cls-18" d="M67.24 160.38c-.52 2.46-1 4.92-1.46 7.41-1.61 9.77-1.48 19.75-1.27 29.65q.39 18.83 1.18 37.64-7.72-3-15.69-5.34a2.35 2.35 0 0 0 .57-1.66q2.22-28.61 4.45-57.2c.29-3.78.62-7.68 2.33-11.07a7 7 0 0 1 3.17-3.4c1.8-.8 3.81-.33 5.58.32 2.1.77 1.56 1.67 1.14 3.65Z"/>
    </g>
    <path class="cls-24" d="M99.63 139.13a15.33 15.33 0 0 0-1.17-3.78 140.08 140.08 0 0 0-8-16.47 15.38 15.38 0 0 0-4.21-5c-1.69-1.23-3.78-1.06-5.83-1.17a116.6 116.6 0 0 0-16.4.26 101.42 101.42 0 0 0-2.24 15.35Q60.29 144.1 59.19 160a39.43 39.43 0 0 0 29.11.91c.18-.57.36-1.14.55-1.71-.66-9.08 2.14-18.54-.92-27.1 2.33 4.26 4.72 8.8 4.51 13.66a26.85 26.85 0 0 1-1.52 6.87c-.42 1.32-.83 2.64-1.25 4 .34.5.68 1 1 1.42a25.17 25.17 0 0 1 2.4 2.65 78.16 78.16 0 0 0 6.08-16.49 14.11 14.11 0 0 0 .48-5.08Z"/>
    <path class="cls-2" d="M88.85 159.16c-.19.57-.37 1.14-.55 1.71l.68-.24c-.06-.49-.1-.98-.13-1.47Z"/>
    <path class="cls-10" d="M18.18 128.29a.83.83 0 0 0-.31 0 .51.51 0 0 0-.36.6 1.28 1.28 0 0 0 .39.66 6.62 6.62 0 0 0 3.44 2 12.44 12.44 0 0 1-6.27-.81 22.94 22.94 0 0 0-4-1.61 10.48 10.48 0 0 0 .37 3.78 3.87 3.87 0 0 0 .71 1.47 4.62 4.62 0 0 0 1 .8 24.94 24.94 0 0 0 5.4 2.49 6.3 6.3 0 0 0 2.77.4 9.67 9.67 0 0 0 3.16-1.43 4 4 0 0 1 3.33-.55c-.3-.12-.24-2.33-.5-2.79a7.76 7.76 0 0 0-2.58-2 23.89 23.89 0 0 0-6.55-3.01Z"/>
    <path class="cls-17" d="M91 80.86c-.86-4.09-3.36-7.71-7.46-8.53a22.89 22.89 0 0 0-12.74 1.33A12.73 12.73 0 0 0 67.9 76c-1.05 1.16-1.69 4.18-1.47 5.7s2.43 1.18 3.55 1.29a51.57 51.57 0 0 0 13.53-.68c.62-.15 7.49-1.4 7.49-1.45Z"/>
    <g clip-path="url(#clip-path-3)">
      <path class="cls-26" d="M69 168.17a78.77 78.77 0 0 1-9.57-2.52 5.17 5.17 0 0 1-3.11-2 5.24 5.24 0 0 1-.43-2.61 249.41 249.41 0 0 1 5.46-49.1 1.64 1.64 0 0 1 .37-.85c1-.95 3.1-.12 3.36 1.06.36 1.63-.44 4.09-.59 5.76Q64 124 64 130.23a142.84 142.84 0 0 0 2.09 24.6c.39 2.25.83 4.48 1.32 6.71.13.71 1.1 6.53 1.59 6.63Z"/>
      <path class="cls-27" d="m89.65 156.52.39.56v-.11a6.66 6.66 0 0 0-.43-.48Z"/>
      <path class="cls-26" d="M94.68 143.18a23 23 0 0 0-2.55-11.11 68.9 68.9 0 0 0-6.13-9.74c1 4.59 1.79 9.45 3.25 13.91A32.17 32.17 0 0 1 91 149.37a39.21 39.21 0 0 1-1.34 7.12c.15.15.29.31.43.48l.66-1.42c1.83-3.95 3.69-8.02 3.93-12.37Z"/>
      <path class="cls-27" d="M89.64 156.54c.12.21.24.41.37.6v-.06l-.39-.56Z"/>
    </g>
    <path class="cls-24" d="M46.21 133.78a3.71 3.71 0 0 1-1.21 1.13 3.5 3.5 0 0 1-1.54.21c-5.46-.12-10.76-1.73-16.14-2.69a19 19 0 0 0-1 4.21A145.45 145.45 0 0 0 40.2 144a7.41 7.41 0 0 0 4.12 1 7.64 7.64 0 0 0 3-1.38L64.89 132a1.8 1.8 0 0 0 .6-.56 1.67 1.67 0 0 0 .1-.86l-.59-8.69c-.1-1.47.36-6.32-1.65-6.87-1.52-.42-4.47 4-5.43 5q-2.84 3.15-5.6 6.38-3.13 3.67-6.11 7.38Z"/>
    <path class="cls-17" d="M72.48 97.42a21.16 21.16 0 0 0 2.17 5.35 9.42 9.42 0 0 0 4.23 3.82 9.24 9.24 0 0 0 7.09-.32 9.35 9.35 0 0 0 4.45-5.18 44.19 44.19 0 0 1-7.87 18.2c-1.33 1.73-2.93 3.43-5 4a8.62 8.62 0 0 1-5.69-.77 32.09 32.09 0 0 1-7.69-5.5 4.56 4.56 0 0 1-1.32-1.55c-.5-1.18.07-2.52.49-3.74 1.53-4.32 1.31-9 1.26-13.6 0-3.87 0-7.75.26-11.61a29 29 0 0 1 .5-4.37A1.64 1.64 0 0 1 66 81a1.74 1.74 0 0 1 1.29 0l2.8.77a.33.33 0 0 1 .23.19c-.55.62-.07 2.78 0 3.61.12 1.35.27 2.69.47 4a61.75 61.75 0 0 0 1.69 7.85Z"/>
    <path class="cls-28" d="M183.73 171.61a29.73 29.73 0 0 0-2.51 9.47 3 3 0 0 0 .13 1.53 1.31 1.31 0 0 0 1.3.8 10.61 10.61 0 0 0 1.25-1.81 19.81 19.81 0 0 1-.65 7.77 1 1 0 0 0 0 .85c.19.32.66.38 1.06.4 1.46.08 3.07.12 4.18-.74a4.59 4.59 0 0 0 1.4-2.34 21.16 21.16 0 0 0-1.48-16.48"/>
    <path class="cls-13" d="M191.55 99.53a23.48 23.48 0 0 0-8.24 5.3c-4.84 5.26-9.05 11.43-13.9 16.69 1.48 2.62 4.27 8.29 5.76 10.91 2.5-3 15-15.79 14.75-29.83"/>
    <path fill="#dadada" d="M248.77 181.84h2.38v65.68h-2.38z"/>
    <path class="cls-30" d="M257.21 146.06a36.86 36.86 0 0 1 .88 5 4 4 0 0 1-.2 2.13c-.45.92-1.47 1.18-2.33 1.54a8 8 0 0 0-2.69 1.85 3.51 3.51 0 0 0-.81 1.25 4.09 4.09 0 0 0-.08 1.6c.34 4.87.11 9.11.45 14a6.41 6.41 0 0 0 .81 1.88 1.81 1.81 0 0 0 .75.54q3.47 1.64 6.87 3.42c.76.4 1.31.38 1.65 1.25s-.47 3.84-2.88 2.66a59 59 0 0 0-7.26-3.1c0 1 .06 2.59.07 3.6s-2.55 1-3.81.52a.75.75 0 0 1-.39-.25 1.08 1.08 0 0 1-.12-.74 153.9 153.9 0 0 0-.1-19.8 8.34 8.34 0 0 0-.3-2c-.16-.48-.4-.91-.58-1.38a12.45 12.45 0 0 1-.63-3.11l-1.06-9.1c-.06-.53 6.46-2.57 7.12-2.78 1.55-.48 4.05-1.32 4.64 1.02Z"/>
    <path class="cls-28" d="M254.94 155.33a1.05 1.05 0 0 0 .29.66 1 1 0 0 0 .46.17 148.11 148.11 0 0 0 16.62 2.51 4.86 4.86 0 0 0 1.66 0 4 4 0 0 0 1.53-.84c1.31-1 2.39-2.35 3.62-3.49a8 8 0 0 1 4.37-2.34.54.54 0 0 1 .51.11c.19.22 0 .55-.22.77l-3.44 3.63a10 10 0 0 0 5.56-1.12c1.53-.81 4.89-4.36 6.18-1.46a3.79 3.79 0 0 1-.27 3.08c-1.65 3.57-5.58 5.51-9.4 6.41-3.48.83-6-.18-9.4-.62a27.81 27.81 0 0 0-5.08 0 140.05 140.05 0 0 1-17.73-.63 2.62 2.62 0 0 1-1.63-.52 2.56 2.56 0 0 1-.58-1.46q-.87-5.19-1.34-10.44c0-.26 6.08-1.41 6.68-1 1.38.9 1.35 5.09 1.61 6.58ZM221.37 173.43a5.68 5.68 0 0 1 .44 2.06 5.61 5.61 0 0 1-.43 1.69c-1.59 4.3-3.28 8.57-5 12.8a28.07 28.07 0 0 1-1.76-4.71 10 10 0 0 1 .34-7.13 33 33 0 0 1 1.84-4.23 3 3 0 0 0 .39-1 2.9 2.9 0 0 0-.52-1.69 160.93 160.93 0 0 1-8.77-18.66 3.28 3.28 0 0 1-.32-1.43 3.11 3.11 0 0 1 .34-1.07 36.15 36.15 0 0 1 7.58-10.75c1.14 3.65 3.71 7.81 1.57 11.47-.47.81-1.4 1.69-1.54 2.64-.19 1.16.57 2.75.87 3.87q1 3.87 2.23 7.71 1.27 4.23 2.74 8.43ZM210.26 211.77c0 1.51.16 3 .3 4.52l2.9 32.28a40.8 40.8 0 0 1 4.28-.26 154.57 154.57 0 0 1-.1-19.37c.31-3.82.9-7.74.08-11.45-.2-.9-.48-1.77-.61-2.68-.39-2.62.42-5.26 1.22-7.74l-3.75-2c-.84-.44-2.09-1.47-3.06-1-1.68.74-1.26 5.93-1.26 7.7ZM240.72 214.87l-.81 33.71a8.64 8.64 0 0 1-4.65-.1 240.44 240.44 0 0 0-2.58-35.41 3.21 3.21 0 0 1 .06-1.69 2 2 0 0 1 .93-.89c1.5-.85 4.58-2.38 6.24-1.61 1.43.65.84 4.53.81 5.99Z"/>
    <path d="M244.54 184.18q-.6 14.26.12 28.53a3.83 3.83 0 0 1-.17 1.72 3.12 3.12 0 0 1-.82 1.06 14 14 0 0 1-7.34 3.44 26.23 26.23 0 0 1-8.2-.1q-1.32-11.4-2.28-22.83a80.54 80.54 0 0 0-3.52 21.85c-4.5.5-9-.4-13.47-1.29a1 1 0 0 1-.53-.23 1 1 0 0 1-.17-.57c-.3-5.31 1.77-10.42 3.37-15.49 1.11-3.49 2-7.05 3.17-10.52a146.8 146.8 0 0 1 7.12-16.64 15.71 15.71 0 0 0 16.88 1.76c1.57-.83 5.55-3.66 5.88-.45a67.65 67.65 0 0 1-.04 9.76Z" fill="#607395"/>
    <g clip-path="url(#clip-path-4)">
      <path d="M239.33 186.7a158.57 158.57 0 0 0 2.35 34 17.17 17.17 0 0 1 4.88-2.88 1.46 1.46 0 0 0 .87-.6 1.33 1.33 0 0 0 .08-.66c-.26-7.72.86-15.42 1.88-23.09.67-5 1.29-10.06.63-15a12.84 12.84 0 0 0-1.49-4.94 6.12 6.12 0 0 0-4-3 6 6 0 0 0-4.78 1.32c-1 .86-.5 1.87-.36 3 .46 3.84.09 7.89-.06 11.85Z" fill="#4e5e7a"/>
    </g>
    <path class="cls-28" d="M230.58 119.83a4.4 4.4 0 0 0-.85 1.28 3.06 3.06 0 0 0 .17 1.76 13.13 13.13 0 0 0 3.93 6.6 3 3 0 0 0 1.4.7 3.63 3.63 0 0 0 2.52-1c1.76-1.3 3.64-2.78 4.06-4.82a10 10 0 0 0-.65-4.48 23.73 23.73 0 0 1-.83-6.85c0 .31-3.54.81-3.94.86-1 .14-2.56-.06-3.49.39s-.76 1.24-.87 2.09a7.19 7.19 0 0 1-1.45 3.47Z"/>
    <path class="cls-34" d="M231.84 117.45a6.47 6.47 0 0 0 .15-.74c.11-.85-.07-1.64.87-2.09s2.47-.25 3.49-.39c.4 0 3.94-.55 4-.86a23.68 23.68 0 0 0 .23 3.94 14.73 14.73 0 0 1-8.74.14Z"/>
    <path class="cls-28" d="M245 107.29a16.9 16.9 0 0 1-5.69 6.89c-2.62 1.64-6.32 2.1-8.87.43a8.65 8.65 0 0 1-2.16-2.15 15.47 15.47 0 0 1-3-7.77 26 26 0 0 1 .33-6.22c.45-3.21 1.13-6.56 3.33-9.12a12.29 12.29 0 0 1 8.21-4 15.51 15.51 0 0 1 9 2.09c3.4 2 3.3 4.85 2.73 8.12a41.87 41.87 0 0 1-3.88 11.73Z"/>
    <path class="cls-28" d="M246.78 109.77a2.34 2.34 0 0 1-1.35.18c-2.69-.62-1.21-6.16.24-7.47a3.9 3.9 0 0 1 3.37-.79c1.78.46 1.44 2.81 1 4.17a6 6 0 0 1-3.26 3.91Z"/>
    <ellipse class="cls-12" cx="236.9" cy="98.65" rx="1.3" ry=".84" transform="rotate(-79.01 236.902 98.649)"/>
    <ellipse class="cls-12" cx="229.75" cy="97.79" rx="1.35" ry=".78" transform="rotate(-82.77 229.76 97.782)"/>
    <path class="cls-34" d="M232.31 97.61a6.31 6.31 0 0 1-1 4.58c-1.07 1.16-2.5 2-.53 3a1.33 1.33 0 0 1-1.63-1.6c.23-1 1-1.45 1.38-2a16.65 16.65 0 0 0 1.81-4Z"/>
    <path class="cls-7" d="M230.58 108.35a14.36 14.36 0 0 0 3.7.21.8.8 0 0 1 .61.11.51.51 0 0 1 .09.59 1.22 1.22 0 0 1-.44.46 4.74 4.74 0 0 1-3.82.56 1.91 1.91 0 0 1-1.51-1.72c.02-.85.95-.29 1.37-.21Z"/>
    <path class="cls-35" d="M236.36 95.09a.32.32 0 0 1-.25-.17c-.05-.11 0-.24.11-.33a2 2 0 0 1 2.28-.24 3.93 3.93 0 0 1 1.57 1.84c.18.38 0 .75-.47.54a9.5 9.5 0 0 0-3.24-1.64ZM231.43 94.57a.28.28 0 0 0 .26 0 .31.31 0 0 0 0-.31 1.49 1.49 0 0 0-1.62-1 3.6 3.6 0 0 0-1.92 1c-.29.25-.27.63.14.61a7.68 7.68 0 0 1 3.14-.3Z"/>
    <path class="cls-35" d="M249.58 83.84a9.92 9.92 0 0 0-5.16-2.41 29.91 29.91 0 0 0-5.76-.27l-6.13.12a23.34 23.34 0 0 0-6.93.82 3.93 3.93 0 0 0-1.74 1 1.68 1.68 0 0 0-.32 1.87c.29.54 1 .86 1.06 1.47a1.51 1.51 0 0 1-.61 1.25c-.57.55-1.25 1-1.81 1.54a2.82 2.82 0 0 0-1 2.1.53.53 0 0 0 .12.32.56.56 0 0 0 .38.09 10.16 10.16 0 0 0 1.46-.14c-.12.94-.14 2.1.65 2.62a2.56 2.56 0 0 0 2.35-.16 36.33 36.33 0 0 0 5.08-2.7 2.55 2.55 0 0 0 2.36 1.41 5.79 5.79 0 0 0 3.61-1c-.06.22.22.36.45.39 2.58.39 5.35-.28 7.75.75-.64.58-1.33 1.42-1 2.19a3.36 3.36 0 0 1 .34.61c.11.43-.22.82-.45 1.2a4.85 4.85 0 0 0-.37 3.28 21.83 21.83 0 0 1 0 4.2c0 .41.64.69 1.31.2.27-.82 1.19-2.53 2-2.87a2.65 2.65 0 0 1 2.81.73 17.75 17.75 0 0 0 2.69-3.45 6.63 6.63 0 0 0 1.28-4.4 7.83 7.83 0 0 0-1-2.83 10.58 10.58 0 0 1-1.4-2.71 14.42 14.42 0 0 0-.32-2.75 6.58 6.58 0 0 0-1.7-2.47Z"/>
    <g opacity=".4">
      <circle class="cls-35" cx="234.62" cy="101.93" r=".25"/>
      <circle class="cls-35" cx="228.81" cy="100.93" r=".14"/>
      <circle class="cls-35" cx="230.48" cy="100" r=".15"/>
      <circle class="cls-35" cx="234.62" cy="100.22" r=".17"/>
      <circle class="cls-35" cx="236.9" cy="101.76" r=".17"/>
      <circle class="cls-35" cx="237.12" cy="104.15" r=".15"/>
      <circle class="cls-35" cx="232.67" cy="103" r=".14"/>
      <ellipse class="cls-35" cx="234.57" cy="103" rx=".12" ry=".14"/>
      <circle class="cls-35" cx="227.91" cy="102.98" r=".15"/>
      <circle class="cls-35" cx="227.46" cy="101.84" r=".12"/>
      <circle class="cls-35" cx="227.4" cy="100.18" r=".14"/>
    </g>
    <path d="M235.66 123.17a6.76 6.76 0 0 1-5.55-3.48c-2.26 1.12-5.06.87-7.19 2.22a11.14 11.14 0 0 0-3.21 3.73l-8.82 14.06a3.51 3.51 0 0 0-.47 1 3.4 3.4 0 0 0 .1 1.58A25.65 25.65 0 0 0 218 155a17.57 17.57 0 0 0 3.16-3.51 102.28 102.28 0 0 1-.55 23c2.88 1.94 5.88 3.93 9.3 4.45 5 .76 9.86-1.72 14.15-4.38a2.52 2.52 0 0 0 .95-.85 2.58 2.58 0 0 0 .19-1.35c-.43-9.75-1-19-.92-18.95a58.46 58.46 0 0 0 12.54-3.77l-2.06-14.35c-.68-4.77-2.49-9.56-6.29-12.53-2-1.56-4.74-3-7.23-2.74-.12 0-.77 1.45-1.8 2.09a6.7 6.7 0 0 1-3.78 1.06Z" fill="#fdc533"/>
    <g clip-path="url(#clip-path-5)">
      <path class="cls-7" d="M221 151.77a19.12 19.12 0 0 0-1.45 2.67c-4.2-4.72-6.92-10.55-9.55-16.3a1.62 1.62 0 0 1-.18-.64 1.47 1.47 0 0 1 .33-.73c.57-.81 1.47-2.94 2.68-1.88.89.77 1.09 3 1.46 4.11a48.31 48.31 0 0 0 3.87 8.43c.26.45 2.95 4.18 2.84 4.34ZM244 147.15c-.15 0-.31.09-.37.22a.47.47 0 0 0 0 .33l.7 3.75q6.65-2 13.12-4.61a.43.43 0 0 0 .21-.14c.33-.61-.55-3.6-1.16-4.06-1-.77-2.68.73-3.6 1.19a46.42 46.42 0 0 1-8.9 3.32ZM218.12 169.66l-.41 2c2.56 1.25 5.17 2.41 7.82 3.46a20.24 20.24 0 0 0 4.08 1.25 15.48 15.48 0 0 0 8.67-1.51c2.72-1.21 5.21-2.87 7.8-4.32-.06-.57 0-2.44-.55-2.61s-2 .91-2.47 1.09a34.89 34.89 0 0 1-5.92 1.81 35.7 35.7 0 0 1-12.41.42c-.57-.06-6.73-1.2-6.61-1.59Z"/>
    </g>
    <g clip-path="url(#clip-path-6)">
      <path class="cls-40" d="M245.4 125.9a26.71 26.71 0 0 1 2.95 5.37c3.06 7.27 4 15.26 4.27 23.14a17.87 17.87 0 0 1 6.55-1.22c.18-2.44.23-4.88.21-7.33-.07-5.77-.58-11.66-2.91-16.94s-6.76-9.9-12.38-11.2a18.39 18.39 0 0 0-3.14-.43 1.58 1.58 0 0 0-.94.15 1.73 1.73 0 0 0-.47.57c-.67 1.13-1.35 2.31-2 3.41.66-1 3.49.54 4.23 1a20.69 20.69 0 0 1 3.63 3.48ZM245.31 159l2.69 14.13q-3.6 3.41-7.41 6.59c.38-3.34.77-6.68 1.15-10 .19-1.74.39-3.48.46-5.24.06-1.45 0-2.9 0-4.35q0-3.69.23-7.37c.15-2.24 0-5 .72-7.09a16.71 16.71 0 0 0 .45 2.3c.11 1.25.26 2.5.44 3.75.35 2.44.81 4.88 1.27 7.28ZM221.49 140.08a16.35 16.35 0 0 1-2.84 5.82q-2.16 3.21-4.53 6.29a46.36 46.36 0 0 1 2.44 7.15c-.09-.36 1.32-1.89 1.58-2.25.55-.75 1.12-1.48 1.67-2.22a5.81 5.81 0 0 0 1.32-2.89 87.54 87.54 0 0 0 .36-11.9Z"/>
    </g>
    <path class="cls-41" d="M217.46 246c2-.06 2 6.28 2 6.79s-2.28 2-3.63 2.27-2.7.81-4.05 1.09a19.54 19.54 0 0 0-3.39 1.26 19.86 19.86 0 0 1-14 .81.54.54 0 0 1-.29-.17.71.71 0 0 1-.13-.36 5.94 5.94 0 0 1 2.59-5.39 10.86 10.86 0 0 1 5.56-1.64 33.91 33.91 0 0 0 5.79-.56 1.61 1.61 0 0 0 .79-.37 1.94 1.94 0 0 0 .44-.75 24.68 24.68 0 0 0 .91-2.67 1.81 1.81 0 0 1 .26-.62 1.33 1.33 0 0 1 .49-.36c1-.48 2-.08 3.07 0 .92.34.18 1.9.45 2a2.27 2.27 0 0 0 3.14-1.33Z"/>
    <g clip-path="url(#clip-path-7)">
      <path class="cls-7" d="M198.92 250.18a7.07 7.07 0 0 1 5.58 2 8.13 8.13 0 0 1 1.81 5.23 6.17 6.17 0 0 1-.17 1.92 41.83 41.83 0 0 1-10.1.72 4.51 4.51 0 0 1-3-1.1 4 4 0 0 1-.89-2.07 6 6 0 0 1 0-2.19 7 7 0 0 1 1-2.28 18.13 18.13 0 0 1 2-2.61 5.3 5.3 0 0 1 1.64-1.3"/>
      <path class="cls-7" d="M211.51 255.2c1.33-.33 2.73-.39 4-.82a12.69 12.69 0 0 0 4.4-2.87c.17.6.32 1.19.45 1.79a.83.83 0 0 1 0 .44.92.92 0 0 1-.18.3 15.92 15.92 0 0 1-5.18 4.14 23.43 23.43 0 0 1-6.31 2.1 8.6 8.6 0 0 1-3.64.09.41.41 0 0 1-.25-.13.47.47 0 0 1-.08-.31v-2.21c0-.73.17-.77.77-.82a14.5 14.5 0 0 0 3.81-1 21 21 0 0 1 2.21-.7Z"/>
    </g>
    <path class="cls-41" d="M240 247.17c2-.07 2 6.28 2 6.78s-2.28 2-3.63 2.27-2.7.81-4 1.09a20.39 20.39 0 0 0-3.39 1.26 19.87 19.87 0 0 1-14 .82.69.69 0 0 1-.3-.17.77.77 0 0 1-.12-.37 6 6 0 0 1 2.58-5.39 11 11 0 0 1 5.57-1.63 33.91 33.91 0 0 0 5.79-.57 1.68 1.68 0 0 0 .79-.36 2.05 2.05 0 0 0 .44-.76 27.06 27.06 0 0 0 .91-2.67 1.7 1.7 0 0 1 .26-.62 1.42 1.42 0 0 1 .49-.35c1-.48 2-.08 3.07 0 .92.34.17 1.9.45 2a2.27 2.27 0 0 0 3.09-1.33Z"/>
    <g clip-path="url(#clip-path-8)">
      <path class="cls-7" d="M221.48 251.3a7.09 7.09 0 0 1 5.58 2 8.16 8.16 0 0 1 1.81 5.24 6.52 6.52 0 0 1-.17 1.92 42.34 42.34 0 0 1-10.1.72 4.57 4.57 0 0 1-3-1.1 3.86 3.86 0 0 1-.89-2.08 5.76 5.76 0 0 1 0-2.19 7.22 7.22 0 0 1 1-2.28 18 18 0 0 1 2-2.6 5.45 5.45 0 0 1 1.64-1.31"/>
      <path class="cls-7" d="M234.06 256.32c1.34-.33 2.74-.39 4.05-.82a12.81 12.81 0 0 0 4.4-2.86c.16.59.31 1.19.45 1.79a.9.9 0 0 1 0 .43 1 1 0 0 1-.18.31 15.76 15.76 0 0 1-5.18 4.13 23.38 23.38 0 0 1-6.32 2.1 8.56 8.56 0 0 1-3.63.1.58.58 0 0 1-.26-.13.51.51 0 0 1-.07-.32v-2.21c0-.74.18-.77.77-.82a14.77 14.77 0 0 0 3.81-1 20.22 20.22 0 0 1 2.16-.7Z"/>
    </g>
    <path class="cls-30" d="M245.53 158.08a26.66 26.66 0 0 1-1.57-7.91l5.06-2a1.26 1.26 0 0 1 .63-.14c.54.05.79.69.91 1.22a38.14 38.14 0 0 1 .93 8 1.6 1.6 0 0 1-.13.81 1.65 1.65 0 0 1-.63.54 12.83 12.83 0 0 1-4.32 1.49.68.68 0 0 1-.49 0 .75.75 0 0 1-.23-.46l-.58-2.71"/>
    <path d="M251 246.65a1.63 1.63 0 0 1 .49 0 1.22 1.22 0 0 1 .42.29c1.1 1 1.32 2.8 1.33 4.27 0 .49-.83.63-1.36.72a8.46 8.46 0 0 1-4.75-.33.39.39 0 0 1-.17-.11.4.4 0 0 1 0-.22 12.86 12.86 0 0 1 .22-2.23 5.08 5.08 0 0 1 .43-1.37 1.93 1.93 0 0 1 1.18-1.08 14.1 14.1 0 0 1 2.21.06Z" fill="#706f6f"/>
    <path class="cls-30" d="M259.53 179.46a1.76 1.76 0 0 1 1.36-.93 1.78 1.78 0 0 1 1.54.63 2.42 2.42 0 0 1 .46 1.5 3.9 3.9 0 0 1-1.14 2.78 1.68 1.68 0 0 1-3.05-1.14 3.35 3.35 0 0 1 1.82-3.56"/>
    <path class="cls-45" d="M182.2 165.34a137.26 137.26 0 0 1-15.32 71.22c-.31.6-.81 2.22-1.36 2.62a4.54 4.54 0 0 1-1.74.42c-2.26.51-4.3.24-6.56.75.62-14.6 1.87-28.73-1.78-42.88-1.33 14.21-5.61 29.23-4.47 43.46a21.57 21.57 0 0 1-6.9.37c-.41 0-.85.17-1.21 0a1.75 1.75 0 0 1-.58-.73c-5.64-11-7.48-23.43-9.11-35.65-1.7-12.68-3.24-25.85.66-38a163.85 163.85 0 0 0 27.22.32c6.4-.45 12.88-1.32 19.21-.3Z"/>
    <g clip-path="url(#clip-path-9)">
      <path d="M155.41 197.58c6.93 13.89 6.24 30.29 4.07 45.65a94 94 0 0 1-24.77 8.08q-4.65-15.72-8.31-31.7c-4.26-18.55-7.5-37.93-3.43-56.52a3.2 3.2 0 0 1 1.13-2.09 3.07 3.07 0 0 1 1.47-.35 113.09 113.09 0 0 1 14.26-.17c-3.46 12.53-2.65 25.79-1.75 38.75 1 15 2.18 30.22 6.66 44.61a38.91 38.91 0 0 0 8.55-1.57q1.89-19.65 2-39.42" fill="#432918" opacity=".5"/>
    </g>
    <path class="cls-48" d="M187.5 141.59c2.9 10.3 3 21.09 2.38 31.71l-7 .14c-2.63-12.37-5.32-24.89-11.3-36.22-.69-1.32-1.43-2.62-2-4-1-2.51-5.06-19.8-5-19.77a30.73 30.73 0 0 1 12.82 9 46.38 46.38 0 0 1 5.83 8.56 51.57 51.57 0 0 1 4.27 10.58Z"/>
    <g clip-path="url(#clip-path-10)">
      <path class="cls-50" d="M159 113.94a71.1 71.1 0 0 1 20.52 28.5 98.2 98.2 0 0 1 6.48 33.38c-.8-.87-2.26-1-3.54-1l-7.5-.09a49 49 0 0 0-1.12-14 309.08 309.08 0 0 0-7.7-30 70.08 70.08 0 0 0-5.35-14"/>
    </g>
    <path class="cls-48" d="M178.5 139.1q1.49 5.61 2.85 11.24c1.49 6.13 2.89 12.48 1.83 18.69-4 1.76-8.45 2.2-12.81 2.48a208.9 208.9 0 0 1-36.75-.91 94.91 94.91 0 0 1 2.94-30.27A63.66 63.66 0 0 1 151 113.78a33.22 33.22 0 0 0 3.76 1.48 13.25 13.25 0 0 0 4.26.2 13.1 13.1 0 0 0 4.21-1.19c1-.46 2.24-1.75 3.38-1.41s2.16 2.4 2.78 3.32a41.16 41.16 0 0 1 2.38 4 61.08 61.08 0 0 1 3.7 8.74c1.18 3.34 2.13 6.75 3.03 10.18Z"/>
    <path class="cls-28" d="M134 173.44a29.66 29.66 0 0 1 2.51 9.47 2.9 2.9 0 0 1-.14 1.52 1.32 1.32 0 0 1-1.29.81 12.24 12.24 0 0 1-1.26-1.81 19.78 19.78 0 0 0 .66 7.76 1 1 0 0 1 0 .85c-.2.32-.66.38-1.06.41-1.46.08-3.07.12-4.18-.75a4.69 4.69 0 0 1-1.41-2.33 21.11 21.11 0 0 1 1.49-16.48"/>
    <g clip-path="url(#clip-path-11)">
      <path class="cls-50" d="M141.52 178.82c-3.53-.15-7.06-.39-10.58-.69a1.82 1.82 0 0 1-2.09-2.25c.12-12.6-.78-25.36 1.84-37.69a51 51 0 0 1 7-17.33c1.57-2.41 8.4-12.78 11.13-7.61 1.36 2.57-.16 5.54-.95 8q-1.74 5.4-3.05 10.93a146.7 146.7 0 0 0-3.43 21.65 143.84 143.84 0 0 0 .13 24.99Z"/>
    </g>
    <path class="cls-45" d="M155.43 80.75h.16a11.81 11.81 0 0 0 2.33-.5c1-.19 1.85.5 2.88.5a6.25 6.25 0 0 1 3.47 1 6.49 6.49 0 0 0 1.38.83 10.48 10.48 0 0 0 1.11.25 3.3 3.3 0 0 1 1.9 1.35 2.36 2.36 0 0 0 .33.45 2 2 0 0 0 .63.34 5.53 5.53 0 0 1 3.52 4.53 7.51 7.51 0 0 0 .13 1.78c.19.63.69 1.13.94 1.74a2.5 2.5 0 0 1-.09 2.09c-.34.64-1 1.14-1.1 1.85-.18 1 .65 2.06.2 3a5.85 5.85 0 0 1-.53.7 8 8 0 0 0-.77 1.8 1.78 1.78 0 0 1-1.41 1.23c-.09-3.57-.26-7.14-.49-10.71a4 4 0 0 0-.61-2.25 9 9 0 0 0-1.52-1.21c-.47-.39-.83-.9-1.3-1.29a6.13 6.13 0 0 0-2.41-1.08 17.52 17.52 0 0 0-10.33.56c-2.33.87-4.67 2.54-5.08 5-.28 1.67.39 3.35.37 5a12.38 12.38 0 0 1-.67 3.35l-.77 2.58a1.33 1.33 0 0 1-.26.55 1.38 1.38 0 0 1-.73.32c-1.13.23-2.48.4-3.27-.43s-.63-1.85-1-2.77a11.39 11.39 0 0 1-1.1-2.28 10.25 10.25 0 0 1 .26-2.32 8.55 8.55 0 0 0-.13-1.75 14.78 14.78 0 0 1 1.59-8.73 5.57 5.57 0 0 1 2.68-2.79 9.71 9.71 0 0 0 1.85-.67 7.08 7.08 0 0 0 1.18-1.26 4.65 4.65 0 0 1 4.6-1.34 5.79 5.79 0 0 0 2.61.56c1-.15 1.79-.76 2.76-.9 1.16-.16 2.3.45 3.48.46a22.63 22.63 0 0 1 2.47-.2 3.88 3.88 0 0 1 2.4 1.46 9.24 9.24 0 0 0 1.4 1.45c1 .74 2.45.83 3.22 1.8a8.71 8.71 0 0 1 .74 1.5 9.83 9.83 0 0 1 1.18 2.18 6.06 6.06 0 0 1-.22 2.23 2.41 2.41 0 0 0 .38 2.13"/>
    <path class="cls-28" d="M171.42 93.27v.31a41 41 0 0 1-1.65 13.42c-.91 3.09-2.28 6.19-5 8.36a10.53 10.53 0 0 1-10.36 1.66 11.55 11.55 0 0 1-3.08-2.09 19.31 19.31 0 0 1-5.5-8.18 28.26 28.26 0 0 1-1.18-6.91c-.28-3.61-.33-7.4 1.61-10.51a13.11 13.11 0 0 1 8.74-5.46A20.66 20.66 0 0 1 166.16 85a7.47 7.47 0 0 1 4.62 4.4 12.33 12.33 0 0 1 .58 3c.12 1.43.36 2.84.4 4.29a42.59 42.59 0 0 1-.88 10 17.42 17.42 0 0 1-1.2 3.92 12 12 0 0 1-8.21 6.52 12.86 12.86 0 0 1-10.3-2.27 13.83 13.83 0 0 1-5.32-9.15"/>
    <path class="cls-28" d="M144.86 100a1.71 1.71 0 0 0-1-.44 1.74 1.74 0 0 0-1.5 1 5.91 5.91 0 0 0 .1 5.69 5.26 5.26 0 0 0 2.32 2.44 2.23 2.23 0 0 0 1.59.22 1.55 1.55 0 0 0 1-1.11 3.32 3.32 0 0 0 0-1.47c-.37-1.86-.86-4.93-2.51-6.33Z"/>
    <path class="cls-34" d="M163 96.64c.44 1.64.61 3.29 1.4 4.57.32.62 1.13 1.21 1.25 2.31a1.46 1.46 0 0 1-2 1.52c2.3-.69.87-1.92-.15-3.31a7.09 7.09 0 0 1-.55-5.09Z"/>
    <path class="cls-7" d="M163.08 108.47a21.24 21.24 0 0 1-4.9-.33 1.2 1.2 0 0 0-.82 0 .54.54 0 0 0-.17.68 1.57 1.57 0 0 0 .54.61 7.15 7.15 0 0 0 5 1.24c.72-.09 2.09-.58 2.15-1.79.04-.96-1.25-.44-1.8-.41Z"/>
    <path class="cls-12" d="M158.88 93.35a.36.36 0 0 0 .3-.15.37.37 0 0 0-.08-.38 2.14 2.14 0 0 0-2.44-.56 4.24 4.24 0 0 0-2 1.79c-.25.39 0 .83.44.65a10.62 10.62 0 0 1 3.78-1.35ZM164.33 93.44a.31.31 0 0 1-.28-.09.32.32 0 0 1 0-.34 1.64 1.64 0 0 1 1.9-.86 4 4 0 0 1 2 1.3c.29.32.21.73-.23.65a8.58 8.58 0 0 0-3.39-.66Z"/>
    <ellipse class="cls-12" cx="157.73" cy="97.29" rx=".92" ry="1.42" transform="rotate(-6.38 157.818 97.347)"/>
    <ellipse class="cls-12" cx="165.96" cy="97" rx="1.49" ry=".85" transform="rotate(-85.05 165.974 96.994)"/>
    <path class="cls-45" d="M143.08 99c1.4 0 1.86 2.1 3.18 2.57.48-.58.19-1.45.34-2.19a5 5 0 0 1 .58-1.29c.8-1.56.74-3.48.92-5.19a2.36 2.36 0 0 1 .24-.92 3.64 3.64 0 0 1 .66-.64c.94-.87 1.23-2.37 2.35-3a5.76 5.76 0 0 1 2.27-.41 6.55 6.55 0 0 0 1.52-.33c1.22-.42 2.4-1.19 3.68-1s2.39 1.33 3.72 1.48a6.65 6.65 0 0 0 2.24-.36 2.9 2.9 0 0 1 2.15.06c.55.38.85 1 1.49 1.32.36.14.77.13 1.12.3.71.33.91 1.22 1 2A16.25 16.25 0 0 0 171 94c.24.71.61 1.38.83 2.12a8.58 8.58 0 0 1 .29 3.15 12.06 12.06 0 0 0 .32-4.28c-.09-1.56-.25-3.12-.48-4.67a7.63 7.63 0 0 0-.61-2.27 6.47 6.47 0 0 0-2-2.2 19.26 19.26 0 0 0-12.36-3.28 20.15 20.15 0 0 0-6.61 1.37 16.89 16.89 0 0 0-4.1 2.4 9.27 9.27 0 0 0-2.13 2.29c-1.47 2.42-1.1 5.48-.62 8.27"/>
    <path class="cls-48" d="M130.54 142.57c-2.54 10.3-2.61 21.09-2.08 31.71l6.09.14c2.3-12.37 4.65-24.9 9.87-36.22a41.59 41.59 0 0 0 1.73-4c.87-2.5 4.42-19.79 4.37-19.76a27.4 27.4 0 0 0-11.21 9 47.51 47.51 0 0 0-5.09 8.56 55.45 55.45 0 0 0-3.68 10.57Z"/>
    <path class="cls-12" d="M160.44 239.8c.29-.09.25-.48.26-.77a1.67 1.67 0 0 1 1.36-1.4 5.38 5.38 0 0 1 2.15 0l1.69.25a1.77 1.77 0 0 1 .69.19 2.13 2.13 0 0 1 .54.54 12.14 12.14 0 0 0 4.77 3.13 95.3 95.3 0 0 0 10.68 3.91c.64.19 1.4.49 1.48 1.11s-.38 1-.85 1.27a11.16 11.16 0 0 1-5.35 1.33 49.91 49.91 0 0 1-20-2.94 1.54 1.54 0 0 1-.65-.36 1.33 1.33 0 0 1-.29-.68 11.63 11.63 0 0 1-.22-3.48 3.72 3.72 0 0 1 1.07-2.51c1.23-.96 1.53.77 2.67.41ZM148.09 241.1c-.3-.08-.28-.47-.3-.76a1.68 1.68 0 0 0-1.42-1.34 5.41 5.41 0 0 0-2.15.13l-1.68.32a1.42 1.42 0 0 0-1.19.79 12.06 12.06 0 0 1-4.63 3.33 93.72 93.72 0 0 1-10.5 4.38c-.63.22-1.37.55-1.43 1.18s.43 1 .91 1.23a11.19 11.19 0 0 0 5.4 1.09 49.83 49.83 0 0 0 19.81-3.82 1.67 1.67 0 0 0 .64-.39 1.42 1.42 0 0 0 .26-.7 11.28 11.28 0 0 0 .06-3.48 3.71 3.71 0 0 0-1.18-2.46c-1.24-.94-1.45.8-2.6.5Z"/>
    <path class="cls-5" d="M117.77 94.07c.92-.21 2.07-.36 2.65.39a2.92 2.92 0 0 1 .39 1.61 7.6 7.6 0 0 0 1.11 3.37 2.93 2.93 0 0 1 .43.82c.22.87-.5 1.7-1.24 2.22a11.79 11.79 0 0 1-10.18 1.21 7.8 7.8 0 0 1-4.08-2.54 1.69 1.69 0 0 1-.43-1.07c0-.57.5-1 .87-1.42a5.6 5.6 0 0 0 1.15-2c.19-.6.22-1.75.86-2s2 .24 2.62.25a24.69 24.69 0 0 0 5.85-.84Z"/>
    <path class="cls-11" d="M61.15 111.7a3.17 3.17 0 0 0-2 1.29 23.29 23.29 0 0 0-2.81 4 3.48 3.48 0 0 0-.53 1.47 2.75 2.75 0 0 0 .64 1.69 3.71 3.71 0 0 0 3.12 1.6 5 5 0 0 0 3.14-2.09 6.38 6.38 0 0 0 1.23-2c.63-1.84-.11-6.17-2.79-5.96Z"/>
    <path class="cls-5" d="M123.23 101.8a8.08 8.08 0 0 1 3.29 3.16 11.41 11.41 0 0 1 .84 5.45c-.16 14-.67 28.08 1 42a2 2 0 0 1-.05 1.06 2.08 2.08 0 0 1-1.08.91 32.3 32.3 0 0 1-26.91.51 1.71 1.71 0 0 1-.59-.36 1.84 1.84 0 0 1-.26-1.55c1.32-10.37 1.24-20.85 2-31.26a100.7 100.7 0 0 1 2.06-15.08c.67-2.88 1.8-4.82 4.72-5.77 4.75-1.53 10.55-1.6 14.98.93Z"/>
    <circle class="cls-17" cx="65.09" cy="18.54" r="18.54"/>
    <path class="cls-7" d="m65.4 18.19-4.29-5.42 2.55-6.43 6.84-1 4.29 5.42-2.55 6.42Zm-2-5.76L66.25 16l4.55-.67 1.7-4.27-2.85-3.57-4.56.66ZM67.61 31.15l-4.29-5.42 2.55-6.42 6.84-1L77 23.72l-2.55 6.43Zm-2-5.76L68.46 29l4.54-.67 1.69-4.27-2.85-3.61-4.55.67ZM54.89 26.62 50.6 21.2l2.55-6.42 6.84-1 4.29 5.42-2.55 6.42Zm-2-5.75 2.85 3.61 4.56-.67 1.7-4.28-2.85-3.61-4.55.67Z"/>
    <circle class="cls-17" cx="124.37" cy="18.54" r="18.54"/>
    <path class="cls-7" d="M136.85 26a11.43 11.43 0 0 0-1.42-1.59 5.25 5.25 0 0 0-3.76-1.53 8.93 8.93 0 0 0-3 1c-1.51.7-3.06 1.42-4.85 1.08a5.58 5.58 0 0 1-2.78-1.5 7.59 7.59 0 0 1-2.12-7.24 13.47 13.47 0 0 1 .83-2.26 12.23 12.23 0 0 0 .72-1.92 5.75 5.75 0 0 0-2.68-6.15l1-1.75a7.73 7.73 0 0 1 3.65 8.38 13.93 13.93 0 0 1-.83 2.25 12.33 12.33 0 0 0-.72 1.93 5.66 5.66 0 0 0 1.5 5.3 3.78 3.78 0 0 0 1.78 1 6.35 6.35 0 0 0 3.64-.93 10.54 10.54 0 0 1 3.72-1.19 7.19 7.19 0 0 1 5.24 2 12.55 12.55 0 0 1 1.68 1.87Z"/>
    <path class="cls-7" d="M129.12 32.88c-2.65-3.13-2.24-5.45-2-7a7.05 7.05 0 0 0 .1-.73 10.54 10.54 0 0 1 1.19-3.72 6.34 6.34 0 0 0 .93-3.63 3.76 3.76 0 0 0-1-1.79 5.65 5.65 0 0 0-5.31-1.55 12.33 12.33 0 0 0-1.93.72 13.93 13.93 0 0 1-2.25.83 7.71 7.71 0 0 1-8.37-3.65l1.75-1a5.73 5.73 0 0 0 6.14 2.68 12.33 12.33 0 0 0 1.93-.72 13 13 0 0 1 2.25-.83 7.59 7.59 0 0 1 7.24 2.12 5.68 5.68 0 0 1 1.51 2.78c.34 1.79-.39 3.34-1.08 4.85a8.75 8.75 0 0 0-1 3c0 .28-.07.6-.13.94-.23 1.31-.52 2.93 1.52 5.35Z"/>
    <path class="cls-7" transform="rotate(-46.03 117.186 10.568)" d="M112.58 9.57h9.23v2h-9.23z"/>
    <path class="cls-7" transform="rotate(-47.43 123.794 17.284)" d="M119.19 16.29h9.18v2h-9.18z"/>
    <path class="cls-7" transform="rotate(-49.34 126.315 19.829)" d="M121.55 18.83h9.55v2h-9.55z"/>
    <path class="cls-7" transform="rotate(-42.74 131.88 27.026)" d="M126.99 26.04h9.76v2h-9.76z"/>
    <circle class="cls-17" cx="182.32" cy="18.54" r="18.54"/>
    <path class="cls-7" d="M184.62 29.75a1.35 1.35 0 0 1-.71-.21L172 22.85a1.24 1.24 0 0 1-.63-1.27 1.27 1.27 0 0 1 1-1c3.3-.74 6.27-1.44 9.22-2.39.69-.22.8-.4.8-.4a2.36 2.36 0 0 0-.14-.39c-1-2.36-2.07-4.73-3.21-7v-.1a11.84 11.84 0 0 1-1.16-3 1.21 1.21 0 0 1 1.7-1.32l13.42 6.3-.25.82a19.23 19.23 0 0 1-1.75 4.07l-1.74-1a17.2 17.2 0 0 0 1.29-2.83l-10.22-4.8c.13.27.26.54.4.81l.05.1c1.15 2.33 2.25 4.74 3.25 7.14a2.74 2.74 0 0 1 .28 1.42c-.18 1.41-1.68 1.89-2.17 2-2.44.78-4.88 1.4-7.49 2l9.63 5.4 1.05-2.28 1.82.83-1.34 2.9a1.35 1.35 0 0 1-.9.81Zm-4.88-22.89Z"/>
    <circle class="cls-17" cx="236.69" cy="18.54" r="18.54"/>
    <path class="cls-7" d="M238.83 24.68h-1.33c-5.87 0-5.87 0-6-.92a8.72 8.72 0 0 1-.09-1.28 1.81 1.81 0 0 0-.45-1.54 13.87 13.87 0 0 1-3.3-6.48A7.11 7.11 0 0 1 229 8a8.88 8.88 0 0 1 3.89-2.53 11.25 11.25 0 0 1 5.76-.54 9 9 0 0 1 5.16 2.88 8.15 8.15 0 0 1 .71 9.48 14.5 14.5 0 0 1-1.82 2.19c-.32.35-.65.69-1 1.05a5.46 5.46 0 0 0-1.16 2v.25a2.09 2.09 0 0 1-.49 1.46 1.78 1.78 0 0 1-1.22.44Zm-.77-2.05h.55a3.06 3.06 0 0 1 .09-.64 7.24 7.24 0 0 1 1.56-2.77c.32-.4.68-.77 1-1.14a13.53 13.53 0 0 0 1.58-1.89 6.18 6.18 0 0 0-.54-7.11 6.89 6.89 0 0 0-4-2.21 9.25 9.25 0 0 0-4.73.45 7 7 0 0 0-3 1.95 5.11 5.11 0 0 0-1 4.59 11.71 11.71 0 0 0 2.81 5.62 3.72 3.72 0 0 1 1 2.93 1.09 1.09 0 0 0 0 .18h4.11ZM239.42 27.38l-6.82-.08a1 1 0 0 1 0-2l6.82.08a1 1 0 0 1 0 2ZM233.94 30a1 1 0 0 1-1-1 1 1 0 0 1 1-1h4.23a1 1 0 1 1 0 2H234ZM235 32.57a1 1 0 0 1-1-1 1 1 0 0 1 1-1h2.26a1 1 0 0 1 1 1 1 1 0 0 1-1 1h-2.25Z"/>
    <circle class="cls-17" cx="277.92" cy="61.15" r="18.54"/>
    <path class="cls-7" d="M281.27 75.84a1.63 1.63 0 0 1-1-.36l-16.12-13a1.69 1.69 0 0 1 .65-3c9.75-2.39 12.21-3 12.83-3.21.62-.73 3-3.81 4.34-5.69l1.62 1.17s-4.31 5.9-4.9 6.25c-.19.12-.37.22-12.8 3.27l15 12.08c0-13.44.1-13.94.15-14.13.08-.36.28-1.19 3.93-6.27l1.62 1.17c-3.22 4.48-3.57 5.42-3.61 5.56-.06.52-.1 6.2-.09 14.43a1.63 1.63 0 0 1-.92 1.48 1.68 1.68 0 0 1-.7.25Z"/>
    <path class="cls-7" d="M288.41 56a1.05 1.05 0 0 1-.62-.21l-7.3-5.79a1 1 0 1 1 1.24-1.58l7.3 5.77a1 1 0 0 1 .17 1.4 1 1 0 0 1-.79.41Z"/>
    <circle class="cls-17" cx="18.54" cy="61.6" r="18.54"/>
    <path class="cls-7" d="M23 74.91a2.81 2.81 0 0 1-.85-.13 2.53 2.53 0 0 1-1.15-.62c-4.42-2.62-8.76-5.22-13.15-8.2-2.44-1.66-2.42-3.3-2.41-4a10.78 10.78 0 0 1 1.81-5.57c.22-.41.46-.82.68-1.26.52-1 1.1-2 1.66-3 .66-1.13 1.33-2.28 1.9-3.45l.5-1 1 .64c4.94 3.3 10 6.49 15.16 9.46l.89.52-.23.37c.7.49 1.21.78 1.85 1.15.42.24.88.51 1.46.87l.81.49-.45.83A107.29 107.29 0 0 1 26 73a3.68 3.68 0 0 1-3 1.91Zm-.54-2.14a2.08 2.08 0 0 0 .27.1c.21.06.76.23 1.63-1a99.46 99.46 0 0 0 5.89-10l-.6-.35a22.35 22.35 0 0 1-1.92-1.2 213.8 213.8 0 0 0-3.15 5.12 16.27 16.27 0 0 0-2.29 5.31 3.71 3.71 0 0 0 0 1.65 1.86 1.86 0 0 0 .14.35Zm-9.65-22.18c-.47.87-1 1.73-1.45 2.56S10.25 55.07 9.75 56L9 57.35a8.93 8.93 0 0 0-1.56 4.5V62c0 .48 0 1.27 1.53 2.32 3.75 2.54 7.46 4.81 11.22 7.06a8 8 0 0 1 .1-.93 18 18 0 0 1 2.54-6C24 62.6 25.11 60.76 26.24 59c-4.53-2.69-9.04-5.5-13.43-8.41Z"/>
  </g>
</svg>