<svg xmlns="http://www.w3.org/2000/svg" xmlns:xlink="http://www.w3.org/1999/xlink" width="488" height="446" viewBox="0 0 488 446" className="w-full h-auto">
  <defs>
    <path id="a" d="M31.227 12.243 37.711.518c.118-.214.255-.445.458-.504.197-.056.397.065.577.185l3.217 2.134c.85.565 1.757 1.204 2.15 2.3.216.605.247 1.284.277 1.946a366.156 366.156 0 0 0 2.154 26.257c.261 2.201.542 4.42.431 6.64-.181 3.591-1.378 6.967-2.034 10.47-2.053 10.938 1.204 22.378.388 33.565C31.163 90.67 15.131 91.955.345 87.12c-.36-19.594-1.207-35.718 2.49-54.768 1.125-5.793 2.275-14.544 4.6-19.754C9.031 9.01 14.986 1.103 20.898.564c.675-.062 2.708 3.295 4.02 4.834a123.577 123.577 0 0 0 6.308 6.845"/>
    <path id="c" d="M55.614 10.569c3.137 32.664 5.321 65.535 12.18 97.623.172.804.343 1.664.038 2.425-.271.677-.87 1.159-1.458 1.59-9.333 6.864-21.373 9.22-32.943 8.731-11.569-.486-26.048-1.47-33.431-8.726C.268 89.501.253 70.72.136 48.99.046 32.056-.245 15.373 6.845 0 6.617.493 19.96 3.016 21.118 3.225a64.654 64.654 0 0 0 14.776.926c5.034-.263 9.664-1.85 14.575-2.483 4.942-.64 4.767 4.974 5.145 8.9"/>
    <path id="e" d="M50.859 10.265A225.944 225.944 0 0 1 63.98 36.79c.818 1.968 1.615 3.974 1.897 6.082.362 2.692-.13 5.419-.743 8.065C62.369 62.885 57.152 74.139 51.408 85l-3.9-3.175c-.322-.26-.657-.544-.776-.935-.123-.4.005-.827.132-1.225l4.825-15.11c1.154-3.614 2.319-7.28 2.483-11.067.34-7.818-3.563-15.13-7.356-22 5.26 14.541-.102 30.687 1.71 46.025C33.045 83.447 15.19 83.048 0 76.426a2226.234 2226.234 0 0 1 4.138-51.012C4.908 17.112 5.732 8.779 7.776.69 16.661-.063 25.6-.2 34.503.279c3.333.18 6.741-.105 9.498 1.89 3.004 2.174 5.023 4.93 6.858 8.096"/>
    <path id="g" d="M58.667 18.239a499.32 499.32 0 0 0 .194 46.231c.046.94.09 1.919-.276 2.784-.283.67-.793 1.218-1.321 1.72-3.22 3.049-7.48 4.84-11.84 5.578-4.361.74-8.836.48-13.21-.173a1165.66 1165.66 0 0 1-3.665-36.995A130.985 130.985 0 0 0 22.874 72.8c-7.254.807-14.546-.65-21.7-2.098-.311-.064-.645-.14-.856-.378-.216-.241-.251-.593-.269-.917-.493-8.601 2.837-16.885 5.425-25.1 1.784-5.66 3.236-11.422 5.108-17.053C13.664 17.978 17.862 9.123 22.048.3c7.45 6.188 18.65 7.36 27.208 2.844 2.525-1.332 8.933-5.918 9.466-.724.538 5.245.168 10.568-.055 15.82"/>
    <path id="i" d="M40.825 5.618c-3.682-.159-7.211-2.37-8.96-5.618-3.647 1.801-8.16 1.412-11.601 3.577-2.262 1.425-3.757 3.768-5.177 6.034L.855 32.331c-.303.484-.611.977-.755 1.53-.216.832-.044 1.712.155 2.548 1.88 7.89 6.154 15.193 12.109 20.695a28.595 28.595 0 0 0 5.087-5.684 166.415 166.415 0 0 1-.876 37.17c4.638 3.132 9.477 6.347 15.009 7.187C39.63 97 47.489 92.994 54.405 88.694c.59-.366 1.206-.764 1.54-1.375.356-.652.334-1.44.301-2.182-.692-15.746-1.562-30.7-1.49-30.604A94.082 94.082 0 0 0 75 48.433l-3.324-23.187C70.572 17.54 67.65 9.807 61.526 5.01 58.306 2.485 53.88.173 49.855.577c-.189.018-1.248 2.354-2.897 3.381-1.821 1.14-3.982 1.752-6.133 1.66"/>
    <path id="k" d="M40.825 5.618c-3.682-.159-7.211-2.37-8.96-5.618-3.647 1.801-8.158 1.412-11.601 3.577-2.262 1.425-3.757 3.768-5.177 6.034L.855 32.331c-.303.484-.61.977-.755 1.53-.216.832-.044 1.712.155 2.548 1.881 7.89 6.154 15.193 12.109 20.695a28.58 28.58 0 0 0 5.087-5.683 166.403 166.403 0 0 1-.874 37.17c4.636 3.131 9.475 6.346 15.007 7.186C39.63 97 47.49 92.994 54.405 88.694c.592-.366 1.206-.762 1.54-1.375.356-.652.334-1.438.301-2.182-.69-15.746-1.562-30.7-1.49-30.604A94.082 94.082 0 0 0 75 48.433c-1.109-7.73-2.216-15.458-3.322-23.185-1.106-7.709-4.028-15.441-10.152-20.24C58.307 2.486 53.88.174 49.855.578c-.189.018-1.248 2.354-2.895 3.383-1.823 1.137-3.984 1.75-6.135 1.658"/>
    <path id="m" d="M37.774 1.479c3.213-.107 3.28 10.287 3.213 11.12-.082 1.02-3.667 3.206-5.829 3.712-2.162.505-4.346 1.327-6.515 1.79-1.882.404-3.648 1.303-5.441 2.063-7.151 3.033-15.17 3.875-22.47 1.334-.171-.059-.35-.128-.472-.277-.128-.159-.17-.383-.197-.598-.442-3.49 1.512-6.948 4.149-8.829 2.638-1.88 5.834-2.453 8.947-2.68 3.11-.23 6.262-.16 9.305-.926.452-.113.918-.256 1.27-.595.33-.32.525-.784.703-1.235a44.862 44.862 0 0 0 1.464-4.378c.098-.357.2-.727.415-1.012.205-.272.496-.441.786-.588 1.542-.784 3.247-.128 4.936-.028 1.478.555.28 3.106.715 3.312 2.463 1.16 4.351-.534 5.021-2.185"/>
    <path id="o" d="M37.774 1.479c3.213-.108 3.28 10.287 3.213 11.12-.082 1.02-3.667 3.206-5.829 3.712-2.16.505-4.345 1.327-6.514 1.79-1.883.404-3.647 1.303-5.442 2.063C16.05 23.197 8.032 24.04.734 21.498c-.172-.06-.352-.128-.474-.277-.128-.159-.17-.385-.197-.598-.442-3.49 1.513-6.948 4.15-8.829 2.637-1.88 5.835-2.453 8.946-2.68 3.11-.23 6.263-.16 9.307-.926.451-.115.916-.256 1.268-.596.332-.32.527-.783.703-1.234a44.435 44.435 0 0 0 1.464-4.378c.1-.357.2-.727.415-1.012.205-.272.496-.441.786-.588 1.542-.784 3.247-.128 4.937-.028 1.477.555.278 3.106.716 3.312 2.461 1.16 4.351-.534 5.02-2.185"/>
    <path id="q" d="M82.628 0c2.335 39.673-6.371 79.934-24.898 115.147-.512.974-1.322 3.59-2.216 4.235-.799.577-1.875.456-2.84.672-3.667.825-6.992.39-10.66 1.215 1.006-23.606 3.042-46.444-2.903-69.32-2.16 22.977-9.122 47.253-7.255 70.256-3.99.886-7.436.94-11.223.604-.25-.022-.506.012-.76.046-.424.056-.842.113-1.208-.096-.447-.254-.71-.73-.945-1.186-9.18-17.721-12.157-37.88-14.822-57.636C.133 43.445-2.372 22.144 3.979 2.454a269.384 269.384 0 0 0 44.262.521C58.655 2.239 69.18.838 79.488 2.483L82.628 0"/>
    <path id="s" d="M36.685 45.499c4.668 16.648 4.804 34.102 3.832 51.283L29.32 97c-4.22-20-8.534-40.257-18.127-58.578-1.115-2.128-2.301-4.23-3.176-6.454C6.425 27.922-.098-.04.001 0c12.063 4.638 18.334 11.988 20.585 14.617 3.657 4.273 6.76 8.947 9.346 13.847 2.861 5.422 5.177 11.17 6.753 17.035"/>
    <path id="u" d="M72.835 42.691a944.716 944.716 0 0 1 4.61 18.26c2.407 9.95 4.666 20.252 2.958 30.344-6.472 2.86-13.659 3.57-20.716 4.022-19.8 1.268-39.715.77-59.43-1.484-.85-16.503.33-33.21 4.745-49.132 4.413-15.92 12.147-31.055 23.404-43.113-.123.132 5.535 2.283 6.085 2.401 2.26.486 4.598.59 6.893.332a21.233 21.233 0 0 0 6.797-1.937c1.555-.747 3.627-2.84 5.467-2.294 1.823.54 3.503 3.898 4.506 5.388a69.353 69.353 0 0 1 3.844 6.478c2.388 4.55 4.316 9.33 5.982 14.191 1.864 5.438 3.394 10.985 4.855 16.544"/>
    <path id="w" d="M0 0h206v185H0z"/>
  </defs>
  <g fill="none" fill-rule="evenodd">
    <path fill="#E9E0D7" d="M469.317 446H25.681C15.364 446 7 437.641 7 427.331v-265.66C7 151.358 15.364 143 25.681 143h443.636c10.319 0 18.683 8.359 18.683 18.67v265.661c0 10.31-8.364 18.669-18.683 18.669"/>
    <path fill="#66462B" d="M158.892 368.267c-6.975 7.735-15.338 13.753-24.304 17.487-1.208.503-2.705 1.426-2.58 2.878.04.46.252.863.5 1.207 1.747 2.426 4.98 2.317 7.774 1.985 6.326-.75 12.768-1.69 18.659-4.788.992-.522 1.978-1.109 3.033-1.368.842-.21 1.699-.203 2.553-.263 2.24-.16 4.479-.79 6.575-1.85.635-3.923.937-7.9.894-11.85-.005-.606-.033-1.255-.348-1.717-.401-.586-1.128-.684-1.784-.74-2.634-.227-5.27-.452-7.905-.678-.225-.02-.501-.091-.539-.348-.037-.258.444-.305.333-.068m56.239 18.157c1.193.691 2.579 2.2 1.763 3.483-.403.635-1.16.777-1.829.852a56.565 56.565 0 0 1-17-.663c-2.716-.525-3.219-.616-5.609-2.127-2.636-1.666-1.879-2.984-4.935-2.757-.478.035-6.433-1.864-6.818-2.173-.418-.336-.488-1.007-.516-1.604-.17-3.96.113-7.963.846-11.876-.309 1.645 8.868-.303 9.467-.392 1.809-.274 2.041.512 3.468 1.99a56.763 56.763 0 0 0 3.762 3.543c5.38 4.645 11.39 8.243 17.4 11.724"/>
    <path fill="#4D4E4C" d="M205 248.453a351.295 351.295 0 0 1-.14 54.766c-1.838 22.76-5.891 45.28-9.938 67.76-4.476 1.878-8.53.887-13.107-.732.485-31.572-1.573-58.807-1.087-90.38-4.168 31.92-7.546 60.015-9.24 90.74-3.363 2.453-9.51 1.075-13.587.179-.485-.107-4.71-88.766 1.268-122.3 10.143 1.421 22.538 1.523 32.718.4 1.177-.13 2.718-.734 2.499-1.886"/>
    <path fill="#00A87B" d="M206.265 169.275c3.676 2.822 6.895 6.182 10.253 9.377A149.077 149.077 0 0 0 245 199.894a84.793 84.793 0 0 1-5.986 9.106c-15.11-6.685-28.092-17.539-43.236-24.15-.231-3.193-.49-6.382-.777-9.57-.266-2.957-1.288-6.635-.923-9.57.602-4.863 10.198 2.036 12.187 3.565m-44.629-1.966c-3.705 2.84-6.95 6.223-10.333 9.436-3.092 2.938-6.436 5.548-9.61 8.382-2.824 2.518-5.488 4.912-8.942 6.625-.845.42-1.732.806-2.672.878-.879.066-1.751-.145-2.607-.356-8.06-1.978-16.12-3.958-24.18-5.938A67.768 67.768 0 0 0 99 196.21c5.101 2.118 10.63 2.947 16.095 3.759 5.25 0 10.987 1.63 16.188 2.403 2.556.38 4.807 1.216 7.118-.032 2.26-1.22 4.453-2.58 6.645-3.918 8.888-5.42 17.584-11.262 27.16-15.438a561.7 561.7 0 0 1 .783-9.63c.269-2.977 1.3-6.68.933-9.633-.609-4.895-10.28 2.05-12.286 3.588"/>
    <path fill="#675E50" d="M322.873 382.61c.462-.147.394-.766.409-1.228.034-1.075 1.044-1.94 2.139-2.227 1.093-.285 2.255-.12 3.375.047l2.658.396c.377.057.765.115 1.09.307.354.207.593.548.844.864 1.85 2.338 4.703 3.74 7.496 4.975a146.284 146.284 0 0 0 16.78 6.219c1.005.304 2.19.786 2.325 1.779.111.83-.612 1.545-1.342 2.015-2.429 1.56-5.473 1.94-8.4 2.113-10.641.62-21.421-.985-31.351-4.67-.373-.139-.761-.29-1.027-.577-.274-.298-.378-.7-.462-1.088a18.542 18.542 0 0 1-.331-5.531c.122-1.374.543-3.04 1.678-3.997 1.87-1.58 2.334 1.17 4.119.603"/>
    <path fill="#675E50" d="M295.352 383.283c.468-.104.46-.73.516-1.189.134-1.07 1.213-1.844 2.32-2.032 1.107-.187 2.24.081 3.33.35.865.21 1.728.422 2.592.633.367.089.744.184 1.047.403.332.24.538.602.756.94 1.61 2.5 4.3 4.156 6.948 5.639a143.517 143.517 0 0 0 16.006 7.715c.966.393 2.092.98 2.132 1.984.034.84-.746 1.489-1.511 1.894-2.545 1.34-5.588 1.447-8.497 1.355-10.573-.331-21.078-2.9-30.548-7.47-.358-.172-.727-.357-.963-.668-.244-.323-.31-.734-.354-1.13a18.747 18.747 0 0 1 .182-5.554c.25-1.36.819-2.985 2.028-3.84 1.994-1.41 2.2 1.378 4.016.97"/>
    <path fill="#FFFFFE" d="M333.218 381.413c-.088.107-13.645 2.916-19.144 1.696.077-37.42 1.788-76.84-2.849-113.852.095 37.738-2.59 76.75-2.493 114.488-5.165 1.697-15.99 1.4-22.899.697.99-15.544-.117-31.153-.577-46.733-1.105-37.567 1.563-75.128 4.229-112.582.066-.922 30.148 3.46 32.929 3.577.747.03 1.855-.11 3.094-.251 3.078-.348 6.966-.698 8.15 1.582 1.11 2.14.807 6.355 1.032 8.813.311 3.421.617 6.842.912 10.264 2.314 26.796 4.034 53.755 3.172 80.708-.487 15.189-4.645 50.509-5.556 51.593"/>
    <path fill="#7D563B" d="M343.02 111.576c1.245 1.012 2.505 2.077 3.288 3.481.782 1.405 1 3.239.134 4.593-.467.728-1.209 1.277-1.516 2.085-.213.566-.184 1.193-.137 1.796.257 3.322.96 6.603 1.09 9.933.187 4.839-.841 9.631-1.43 14.438-1.227 10-.555 20.126.118 30.178-6.476 3.038-13.203 5.78-20.298 6.65-7.093.871-14.664-.295-20.457-4.498-.54-.392-1.08-.826-1.386-1.42-.311-.608-2.787-1.381-2.816-2.063-.584-13.33-1.342-23.301-2.146-37.714-.32-5.691-.663-13.382-.324-19.074.337-5.691 2.441-11.576 6.953-15.038 3.058-2.349 6.91-3.373 10.695-4.082 4.86-.913 11.211-1.706 15.624 1.156 4.355 2.823 8.572 6.301 12.607 9.579"/>
    <path fill="#E1AE93" d="M328.727 162.176c.475.745 1.044 1.47 1.216 2.319.204.999-.172 2.01-.567 2.953-1.682 4.033-3.918 8.076-7.712 10.585-.736.486-1.563.92-2.471.963-1.598.075-2.95-1.044-4.103-2.087-2.761-2.5-5.693-5.32-6.052-8.866-.264-2.588.91-5.07 1.828-7.516A40.68 40.68 0 0 0 313.372 149c-.037.544 5.851 1.968 6.517 2.123 1.705.402 4.325.311 5.824 1.232 1.507.927 1.078 2.235 1.13 3.714a12.16 12.16 0 0 0 1.884 6.107"/>
    <path fill="#BC937D" d="M327 158.54c-.06-.43-.115-.862-.13-1.297-.053-1.516.387-2.856-1.159-3.805-1.535-.944-4.218-.851-5.967-1.263-.68-.16-6.715-1.617-6.678-2.175a41.45 41.45 0 0 1-1.066 6.837c4.674 2.127 10.311 2.665 15 1.704"/>
    <path fill="#E1AE93" d="M304.767 139.9c1.681 4.746 4.048 9.486 8.32 12.718 4.273 3.232 10.848 4.582 15.951 2.1 1.732-.843 3.195-2.063 4.507-3.365 3.718-3.694 5.485-5.993 6.747-10.731.939-3.527.61-10.055.667-13.65.092-5.6.304-11.188-2.94-15.923-2.917-4.259-7.188-6.733-12.825-7.68-5.638-.949-11.667-.018-16.927 2.238-6.721 2.883-7.358 7.845-7.258 13.556a65.438 65.438 0 0 0 3.758 20.738"/>
    <path fill="#E1AE93" d="M301.44 143.033c.619.485 1.339.899 2.134.957 4.79.358 5.224-9.218 3.508-12.045-.991-1.632-3.231-2.844-5.197-2.94-3.193-.154-3.847 3.753-3.884 6.14-.044 2.935 1.024 5.987 3.44 7.888"/>
    <path fill="#BC937D" d="M327.942 131c.443 2.57.405 5.078 1.459 7.131.392.978 1.631 2.032 1.598 3.728.004 1.818-1.981 2.535-3.643 1.93 3.965-.664 1.798-2.69.39-4.993-1.207-2.542-.81-5.306.196-7.796"/>
    <path fill="#50341D" d="M322.467 125.458c.172.005.369-.035.471-.198.12-.186.046-.454-.052-.657-.648-1.35-2.188-1.857-3.474-1.484-1.287.375-2.34 1.45-3.187 2.642-.438.619-.223 1.4.53 1.21.6-.152 2.85-1.605 5.712-1.513"/>
    <path fill="#BC937D" d="M318 147c3.933 1.67 8.782 1.977 13 1.21-3.02 2.822-10.735 2.224-13-1.21"/>
    <path fill="#343534" d="M319.001 130.964c-.033 1.105.61 2.016 1.438 2.036.827.02 1.525-.86 1.56-1.964.033-1.106-.61-2.018-1.436-2.036-.829-.02-1.527.86-1.562 1.964"/>
    <path fill="#7D563B" d="M336.69 119.2c-.805 1.344-3.498 2.081-5.067 2.044-2.368-.057-6.297-1.486-7.552-2.425-5.134-3.842-4.428-3.889-10.79-4.715 1.537 2.855.27 3.633-.675 6.736-.644 2.118-2.613 4.745-3.236 6.871-.725 2.477-.657 5.533-.27 8.084 4.052 26.62.653 14.669.84 21.923.012.474.037.96-.116 1.41-.196.578-.652 1.027-1.093 1.453L301.044 168c-.894-15.541-5.136-30.956-3.778-46.463.264-3.016.748-6.046 1.901-8.845 2.38-5.775 7.79-10.285 13.965-11.27 3.052-.485 6.17-.15 9.254-.326 1.215-.07 2.456-.218 3.63.1 1.102.298 4.144 1.596 5.069 2.264 2.925 2.116 4.357 3.677 7.282 5.793 1.47 1.063 2.362 2.084 3.501 3.496 1.159 1.436 2.799 5.012 1.847 6.903-1.478 2.937-7.187-.18-7.025-.452"/>
    <path fill="#E5746F" d="m323.227 174.242 6.484-11.723c.12-.216.255-.446.459-.504.197-.058.398.065.575.183 1.074.713 2.145 1.424 3.219 2.135.85.564 1.756 1.204 2.15 2.301.215.604.247 1.283.277 1.946a365.943 365.943 0 0 0 2.153 26.256c.26 2.202.543 4.42.43 6.64-.18 3.591-1.375 6.968-2.033 10.47-2.053 10.938 1.205 22.378.388 33.564-14.165 7.16-30.198 8.446-44.983 3.61-.36-19.595-1.209-35.719 2.49-54.768 1.125-5.794 2.275-14.544 4.597-19.755 1.599-3.587 4.555-11.359 10.468-11.898.673-.062 3.432 3.58 4.745 5.118 2.032 2.38 5.425 4.714 8.581 6.425"/>
    <path fill="#E5746F" d="M361.776 196.474c.56.653 1.136 1.315 1.877 1.741.962.552 2.106.65 3.209.727a230.62 230.62 0 0 0 19.118.554 27.396 27.396 0 0 0 1.02 6.158 952.443 952.443 0 0 0-19.587 3.813c-3.17.653-6.364 1.33-9.313 2.675-1.27.58-2.775 1.276-3.964.542-.305-.187-.552-.456-.796-.72l-17.436-18.923c-.405-.439-.82-.893-1.043-1.452-.201-.508-.23-1.068-.254-1.614-.212-4.574-.406-9.149-.582-13.724-.083-2.206-3.957-11.405-.768-12.222 2.47-.63 9.263 9.087 10.614 10.786a722.89 722.89 0 0 0 8.366 10.328 852.012 852.012 0 0 0 9.54 11.331"/>
    <g transform="translate(292 162)">
      <mask id="b" fill="#fff">
        <use xlink:href="#a"/>
      </mask>
      <path fill="#C08E85" d="M.012 63.26H.01c.069-8.006.476-15.867 1.682-24.164l.02-.021C.495 47.383.081 55.25.011 63.26" mask="url(#b)"/>
      <path fill="#C9988F" d="M0 65.769c0-.84.004-1.672.01-2.508h.002C.004 64.095 0 64.93 0 65.769" mask="url(#b)"/>
      <path fill="#BE615D" d="M9.923 89.378a58.27 58.27 0 0 1-9.578-2.259C.208 79.613 0 72.616 0 65.77c0-.838.004-1.674.012-2.508.07-8.01.484-15.878 1.7-24.186 4.389-4.608 8.363-9.66 11.92-14.987-.03 1.988-3.647 12.207-3.987 14.146C6.93 53.723 6.95 58.985 6.521 71.774c-.249 7.42 2.175 11.635 3.402 17.604" mask="url(#b)"/>
    </g>
    <path fill="#50341D" d="M331.452 126.566c-.147-.007-.316-.047-.402-.165-.1-.137-.034-.318.053-.452.576-.89 1.907-1.143 3.007-.805 1.1.337 1.993 1.144 2.704 2.018.37.454.175.98-.47.803-.513-.143-2.43-1.285-4.892-1.4"/>
    <path fill="#343534" d="M331.02 131.894c-.133 1.102.422 2.045 1.24 2.103.818.06 1.588-.787 1.72-1.891.132-1.104-.423-2.045-1.24-2.103-.818-.06-1.589.787-1.72 1.891"/>
    <path fill="#9C679D" d="M129.663 391.194c.36-4.015 1.291-8.117.875-12.205-.417-4.089-1.233-8.132-1.526-12.232-.018-.259-.032-.533.088-.761.205-.387.698-.493 1.129-.55 4.496-.6 9.069-.595 13.563.017-.472 4.716-.946 9.432-1.42 14.148-.16 1.593-.318 3.22.04 4.78.774 3.371 4.54 5.016 7.394 6.273a124.437 124.437 0 0 0 14.214 5.245c.853.255 1.857.663 1.97 1.5.095.7-.517 1.303-1.136 1.7-2.057 1.316-4.636 1.636-7.115 1.781-9.016.524-18.148-.83-26.56-3.937-.317-.117-.646-.246-.87-.488-.232-.25-.32-.59-.39-.917a15.539 15.539 0 0 1-.282-4.666c.105-1.16.461-2.563 1.422-3.37 1.586-1.332 1.978.986 3.49.507.392-.123.334-.645.346-1.036.03-.905.885-1.636 1.812-1.876.927-.241 1.91-.103 2.86.039.75.11 1.5.223 2.252.333.319.047.648.1.922.259.3.175.503.463.716.73a9.577 9.577 0 0 0 1.702 1.644m-48.432 2.163c.355-2.076.703-4.152.77-6.28.04-1.26-.846-14.833-1.028-14.773a24.157 24.157 0 0 1 13.807-.407l-.462 7.955c-.164 2.826-.328 5.67-.03 8.492.289 2.742 1.414 4.832 3.117 6.998 4.56 5.798 10.62 10.237 16.087 15.214.489.445 1.01.973 1.012 1.63.002.368-.17.72-.393 1.015-.676.893-1.797 1.342-2.897 1.592a11.877 11.877 0 0 1-3.195.274c-2.197-.111-4.314-.834-6.347-1.662-2.334-.953-4.603-2.053-6.857-3.177a365.396 365.396 0 0 1-8.348-4.295c-1.236-.657-2.48-1.329-3.543-2.232-1.064-.904-1.95-2.07-2.269-3.418-.238-.999-.154-2.043-.028-3.063.163-1.296.386-2.58.604-3.863"/>
    <path fill="#BC937D" d="M150.917 267.78c.508 1.27 1.024 2.572 1.078 3.935.107 2.726-1.65 5.2-3.669 7.102a24.625 24.625 0 0 1-6.05 4.183 39.927 39.927 0 0 1-1.335-21.904c.512-2.298 1.348-4.72 3.315-6.096 1.457 1.782 3.147 3.414 3.878 5.574.805 2.383 1.628 4.952 2.783 7.205"/>
    <path fill="#BE99B8" d="M135.057 119c3.827.58 7.012 3.437 8.916 6.814 1.904 3.376 2.714 7.247 3.402 11.063a230.591 230.591 0 0 1 3.617 37.053c.02 1.274.027 2.568-.319 3.794-.6 2.116-2.363 10.19-10.797 13.276-3.165-3.648-8.754-6.758-13.524-6.04-8.287 1.252-15.408 1.907-23.767 2.514-.442.03-.913.047-1.29-.184-.543-.33-.693-1.04-.78-1.67-.71-5.154-.535-10.383-.357-15.58.296-8.649.592-17.3 1.35-25.92.365-4.16.843-8.336 1.974-12.355.593-2.104 1.388-4.206 2.802-5.87 2.316-2.73 5.956-3.921 9.474-4.565a45.183 45.183 0 0 1 16.489.05l-.538-.436 3.348-1.944"/>
    <path fill="#B18AB1" d="M139.547 188a20.296 20.296 0 0 0-2.553-2.126c-1.227-.858-2.578-1.292-3.994-1.523 4.133-6.43 6.758-13.71 8.335-21.123 1.764-8.302 2.256-16.803 2.462-25.272.008-.309 0-.655-.228-.873l1.589-2.083c1.096 7.16 1.505 14.4 1.737 21.632.226 6.992.27 14.118-1.84 20.815A34.41 34.41 0 0 1 139.546 188"/>
    <path fill="#E9E0D7" d="M147.778 323.444h.444v-.888h-.444z"/>
    <path fill="#BC937D" d="M145.395 160.887c-1.122 4.958-2.941 9.976-6.887 13.654-3.946 3.677-10.472 5.674-15.975 3.657-1.87-.685-3.511-1.776-5.01-2.968-4.244-3.375-7.504-7.66-9.38-12.326-1.396-3.474-2.025-7.116-2.534-10.743-.79-5.652-1.246-11.61 1.465-16.707 2.44-4.585 7.351-8.015 12.973-9.514 5.622-1.501 11.875-1.141 17.512.632 7.2 2.266 8.467 7.218 9.077 12.999a65.434 65.434 0 0 1-1.241 21.316"/>
    <path fill="#947564" d="M133.182 146c.857 2.506 1.29 5.04 2.63 6.934.544.92 1.846 1.764 2.14 3.455.35 1.816-1.275 2.86-2.867 2.56 3.452-1.323 1.13-3.039-.57-5.104-1.556-2.338-1.73-5.177-1.333-7.845"/>
    <path fill="#343534" d="M126.517 140.66c.178-.026.373-.095.451-.246.09-.174-.028-.377-.163-.525-.897-.98-2.568-1.114-3.83-.578-1.262.537-2.169 1.603-2.84 2.724-.35.583.005 1.18.748.889.593-.232 2.667-1.821 5.634-2.263m8.988-.379c-.143.022-.31.007-.416-.119-.123-.144-.1-.375-.044-.554.36-1.19 1.571-1.76 2.687-1.575 1.114.188 2.13.984 2.987 1.897.444.474.37 1.148-.28 1.061-.518-.07-2.573-1.063-4.934-.71m-11.452 6.946c.217 1.098 1.043 1.886 1.842 1.759.798-.126 1.27-1.118 1.051-2.215-.217-1.098-1.04-1.886-1.84-1.759s-1.27 1.118-1.053 2.215m12.948-1.76c-.032 1.38.613 2.513 1.441 2.532.828.017 1.524-1.087 1.557-2.469.032-1.38-.613-2.513-1.441-2.53-.828-.018-1.524 1.086-1.557 2.466"/>
    <path fill="#50341D" d="M173.58 160.494c-.552.687-1.194 1.347-1.45 2.164-.304.966-.02 1.997.285 2.963 1.305 4.133 3.167 8.327 6.746 11.16.695.55 1.486 1.057 2.397 1.185 1.603.228 3.076-.742 4.336-1.659 3.025-2.197 6.252-4.689 6.958-8.145.515-2.523-.427-5.08-1.115-7.574a39.348 39.348 0 0 1-1.41-11.588c-.015.54-6.086 1.373-6.771 1.463-1.76.233-4.39-.11-5.99.654-1.607.766-1.3 2.095-1.497 3.546a11.881 11.881 0 0 1-2.49 5.83"/>
    <path fill="#50341D" d="M200.499 137.457c-1.848 4.698-4.382 9.37-8.79 12.47-4.406 3.1-11.075 4.244-16.137 1.597-1.718-.898-3.155-2.166-4.434-3.512-3.63-3.815-6.16-8.397-7.281-13.18-.834-3.561-.898-7.192-.842-10.792.086-5.611.546-11.481 3.964-16.117 3.074-4.173 8.385-6.913 14.097-7.682 5.71-.771 11.756.35 16.983 2.775 6.68 3.098 7.163 8.086 6.882 13.801a65.174 65.174 0 0 1-4.442 20.64"/>
    <path fill="#50341D" d="M205.32 140.1c-.63.469-1.361.861-2.153.896-4.777.214-4.896-9.415-3.096-12.202 1.038-1.607 3.307-2.758 5.265-2.793 3.18-.058 3.703 3.886 3.662 6.284-.05 2.948-1.214 5.979-3.679 7.814"/>
    <path fill="#343534" d="M184.982 123.13c-.126 1.103-.892 1.938-1.71 1.866-.82-.072-1.38-1.023-1.254-2.125.126-1.103.893-1.937 1.711-1.867.82.072 1.38 1.024 1.253 2.127m-11.985-.583c-.05 1.381-.76 2.478-1.587 2.452-.826-.029-1.457-1.17-1.407-2.55.05-1.38.761-2.478 1.587-2.45.827.027 1.457 1.167 1.407 2.548"/>
    <path fill="#2D2118" d="M175.709 122c.525 2.64.444 5.467-1.118 7.845-1.722 2.11-4.112 3.88-.429 5.082-1.674.357-3.432-.625-3.127-2.447.249-1.695 1.596-2.577 2.134-3.508 1.346-1.923 1.717-4.454 2.54-6.972"/>
    <path fill="#BEB5AD" d="M182.492 116.78c-.178-.022-.372-.086-.455-.24-.097-.175.014-.39.143-.548.85-1.04 2.496-1.232 3.764-.718 1.266.511 2.201 1.582 2.906 2.718.366.59.038 1.218-.708.94-.594-.219-2.703-1.79-5.65-2.152m-8.987-.653c.144.017.312-.004.414-.129.12-.144.087-.363.028-.534-.4-1.128-1.632-1.633-2.745-1.414-1.113.22-2.107 1.021-2.94 1.929-.43.47-.334 1.116.315 1.01.516-.086 2.548-1.115 4.928-.862m-4.278 20.68c1.727-.151 3.353-.87 5.06-1.172a10.691 10.691 0 0 1 6.126.732c2.67 1.174 4.856 3.442 7.715 4.03 3.281.677 6.539-.644 8.872-3.036.864-.885 1.63-1.925 2.178-3.031 1.207-2.432 2.17-5.33 2.313-5.33 1.072 0 .127 5.31.067 5.697-.972 6.297-4.14 11.705-8.847 15.288s-11.091 4.885-16.837 3.43c-1.17-.296-2.333-.71-3.299-1.43-1.047-.782-4.152-3.261-5.402-5.483-2.486-4.413-3.327-8.556-3.665-10.128-.337-1.568-.803-3.868-.257-5.375.402 1.666 1.184 3.575 2.155 4.618.929.999 2.512 1.304 3.821 1.19"/>
    <path fill="#50341D" d="M181.868 140.606c.606.58 1.163 1.319 1.13 2.155-.017.424-.185.829-.383 1.205-.683 1.301-1.809 2.432-3.226 2.85-1.85.547-3.85-.194-5.424-1.284-1.205-.836-2.295-1.934-2.754-3.319-.334-1.007-.346-2.693.517-3.493.681-.632 2.096-.666 2.983-.709 2.61-.125 5.275.8 7.157 2.595"/>
    <path fill="#FFFFFE" d="M174.33 141.396c2.1.346 4.243.4 6.354.167.36-.04.77-.075 1.052.162.286.241.327.691.184 1.037-.142.346-.43.604-.725.829-1.76 1.34-4.342 1.705-6.493 1.177-.93-.229-2.682-1.134-2.702-2.934-.017-1.487 1.613-.557 2.33-.438"/>
    <path fill="#BE99B8" d="M143.614 268.569c3.137 32.664 5.321 65.535 12.18 97.623.172.804.343 1.664.038 2.427-.27.675-.87 1.157-1.458 1.589-9.333 6.863-21.373 9.218-32.942 8.73-11.57-.486-26.05-1.468-33.432-8.726.27-22.711.255-41.493.137-63.222-.092-16.932-.382-33.616 6.708-48.99-.226.493 13.117 3.018 14.273 3.225a64.575 64.575 0 0 0 14.776.926c5.034-.262 9.664-1.85 14.577-2.483 4.94-.638 4.767 4.976 5.143 8.9"/>
    <path fill="#947564" d="M126 165.135c4.094 1.568 8.925 1.34 13-.135-2.637 3.861-10.337 4.09-13 .135"/>
    <path fill="#E9E0D7" d="m143.016 255-.016.035c.566.728 1.253 1.37 2 1.965a51.222 51.222 0 0 1-1.984-2"/>
    <path fill="#9D679D" d="M445 241h5v-4h-5zM445 222.917h5V215h-5v7.917ZM445 234h5v-7.917h-5V234ZM79.85 34.852h7.942V30H79.85v4.852Zm11.122 0h7.943V30h-7.943v4.852Zm11.12 0h7.943V30h-7.943v4.852Zm11.12 0h7.943V30h-7.944v4.852Zm11.12 0h7.943V30h-7.942v4.852Zm11.122 0h7.942V30h-7.942v4.852Zm11.12 0h7.943V30h-7.943v4.852Zm11.12 0h7.943V30h-7.943v4.852Zm11.121 0h7.943V30h-7.943v4.852Zm11.121 0h7.942V30h-7.942v4.852Zm11.12 0H199V30h-7.944v4.852Zm11.12 0h7.943V30h-7.943v4.852Zm11.121 0h7.944V30h-7.944v4.852Zm11.12 0h7.943V30h-7.943v4.852Zm11.121 0h7.944V30h-7.944v4.852Zm11.12 0h7.944V30h-7.944v4.852Zm11.12 0h7.943V30h-7.943v4.852Zm11.121 0h7.944V30h-7.944v4.852Zm11.122 0h7.943V30h-7.943v4.852Zm11.12 0h7.943V30h-7.944v4.852Zm11.12 0h7.943V30h-7.944v4.852Zm11.12 0h7.944V30h-7.943v4.852Zm11.122 0h7.942V30h-7.942v4.852Zm11.12 0h7.943V30h-7.943v4.852Zm11.12 0h7.943V30h-7.943v4.852Zm11.12 0h7.944V30h-7.943v4.852Zm11.12 0h7.944V30h-7.943v4.852Zm11.122 0h7.943V30h-7.943v4.852Zm11.12 0h7.943V30h-7.943v4.852Zm-322.473 0L68.708 30h7.966v4.852h-7.922Zm341.304.191a43.885 43.885 0 0 0-4.109-.19h-3.602V30h3.602c1.524 0 3.06.071 4.561.212l-.452 4.831Zm-351.664 1.23-1.29-4.68a44.73 44.73 0 0 1 8.261-1.45l.389 4.837c-2.491.2-4.966.634-7.36 1.292Zm361.91 1.015a42.285 42.285 0 0 0-7.265-1.862l.787-4.789a47.386 47.386 0 0 1 8.1 2.077l-1.623 4.574ZM48.784 40.347l-2.478-4.175a44.394 44.394 0 0 1 7.595-3.566l1.642 4.567a39.298 39.298 0 0 0-6.76 3.174Zm380.851 1.659a40.322 40.322 0 0 0-6.545-3.618l1.95-4.445a45.177 45.177 0 0 1 7.334 4.055l-2.739 4.008Zm-389.047 4.8-3.493-3.372a43.903 43.903 0 0 1 6.384-5.44l2.788 3.973a39.27 39.27 0 0 0-5.68 4.84Zm396.762 2.18a37.06 37.06 0 0 0-5.313-5.202l3.04-3.785a42.175 42.175 0 0 1 6.01 5.882l-3.737 3.104Zm-402.93 6.212-4.272-2.312a43.162 43.162 0 0 1 4.706-6.951l3.743 3.095a38.307 38.307 0 0 0-4.177 6.168Zm408.292 2.615a33.701 33.701 0 0 0-3.557-6.471l3.983-2.782a38.634 38.634 0 0 1 4.065 7.401l-4.491 1.852ZM30.766 64.929l-4.742-1.056A42.414 42.414 0 0 1 28.66 55.9l4.441 1.972a37.526 37.526 0 0 0-2.336 7.058Zm414.299 2.886a31.779 31.779 0 0 0-1.353-7.225l4.64-1.436a36.514 36.514 0 0 1 1.559 8.326l-4.846.335ZM29.859 75.433H25v-2.261a43.28 43.28 0 0 1 .421-5.99l4.812.678a38.093 38.093 0 0 0-.374 5.313v2.26Zm415.282 3.316H450v-7.93h-4.86v7.93ZM25 86.536h4.86v-7.931H25v7.931Zm420.14 3.316H450v-7.93h-4.86v7.93ZM25 97.64h4.86v-7.932H25v7.932Zm420.14 3.317H450v-7.932h-4.86v7.932ZM25 108.743h4.86v-7.93H25v7.93Zm420.14 3.318H450v-7.932h-4.86v7.932ZM25 119.848h4.86v-7.93H25v7.93Zm420.14 3.318H450v-7.93h-4.86v7.93ZM25 130.954h4.86v-7.932H25v7.932Zm420.14 3.315H450v-7.93h-4.86v7.93ZM25 142.057h4.86v-7.932H25v7.932Zm420.14 3.317H450v-7.931h-4.86v7.931ZM25 153.16h4.86v-7.93H25v7.93Zm420.14 3.318H450v-7.932h-4.86v7.932ZM25 164.266h4.86v-7.93H25v7.93Zm420.14 3.317H450v-7.934h-4.86v7.934ZM25 175.37h4.86v-7.932H25v7.932Zm420.14 3.315H450v-7.93h-4.86v7.93ZM25 186.474h4.86v-7.932H25v7.932Zm420.14 3.317H450v-7.931h-4.86v7.931ZM25 197.58h4.86v-7.932H25v7.932Zm420.14 3.316H450v-7.932h-4.86v7.932Zm0 11.105H450v-7.933h-4.86V212ZM25 205h5v-4h-5z"/>
    <path fill="#E9E0D7" d="m148.885 257 .115-.261c-1.14-1.786-2.665-3.16-4-4.739a65.768 65.768 0 0 0 3.885 5"/>
    <g transform="translate(88 258)">
      <mask id="d" fill="#fff">
        <use xlink:href="#c"/>
      </mask>
      <path fill="#BFA1BA" d="M9.262 117.552c-3.621-1.235-6.827-2.946-9.262-5.34l.002-.085c2.433 2.389 5.637 4.096 9.253 5.33l.007.095" mask="url(#d)"/>
      <path fill="#A479A8" d="M16.38 119.35c-2.475-.449-4.876-1.032-7.118-1.798l-.007-.094c2.243.764 4.645 1.348 7.121 1.797 0 .033.002.063.004.096" mask="url(#d)"/>
      <path fill="#B18AB1" d="M16.376 119.255c-2.476-.449-4.878-1.033-7.12-1.797-3.617-1.235-6.821-2.942-9.254-5.331.266-22.671.251-41.435.134-63.137-.088-16.305-.36-32.38 5.95-47.273l-.037.53.032.014-.004.07A61.54 61.54 0 0 0 18.38 6.267c-.604 2.898-1.18 5.802-1.663 8.721-2.61 15.803-2.405 31.922-2.065 47.938.399 18.78.974 37.559 1.724 56.33" mask="url(#d)"/>
    </g>
    <path fill="#F8CF72" d="M158.877 227.037c-.282-2.116-1.078-4.13-1.896-6.104a226.68 226.68 0 0 0-13.124-26.627c-1.834-3.179-3.851-5.947-6.856-8.13-2.757-2-6.165-1.715-9.498-1.895a192.493 192.493 0 0 0-26.727.412c-2.044 8.119-2.867 16.485-3.638 24.82A2233.134 2233.134 0 0 0 93 260.721c14.836 6.491 32.204 7.009 47.426 1.482l.885-2.78c-1.061-14.676 3.493-29.969-1.494-43.814 3.792 6.896 7.696 14.237 7.356 22.085-.167 3.801-1.33 7.482-2.483 11.11l-2.039 6.406a54.16 54.16 0 0 0 1.662 2.293c1.309 1.426 2.8 2.668 3.917 4.283 4.17-8.563 7.772-17.398 9.904-26.653.611-2.655 1.105-5.394.743-8.096"/>
    <path fill="#E9E0D7" d="m141.411 259-1.086 3c.448-.143.904-.27 1.35-.422a48.538 48.538 0 0 1-.264-2.578"/>
    <path fill="#BC937D" d="M27.442 209.069c-.16-.045-.328-.087-.492-.061-.413.066-.649.558-.586.978.064.42.342.77.627 1.08a10.778 10.778 0 0 0 5.535 3.2 19.727 19.727 0 0 1-10.076-1.341c-2.133-.886-4.136-2.155-6.391-2.633a17.474 17.474 0 0 0 .604 6.2c.246.863.57 1.726 1.148 2.406.455.537 1.046.932 1.638 1.305a39.705 39.705 0 0 0 8.675 4.085c1.437.473 2.95.866 4.444.652 1.853-.267 3.44-1.425 5.081-2.342 1.64-.915 3.613-1.617 5.351-.912-.479-.196-.375-3.81-.792-4.555-.782-1.393-2.863-2.462-4.155-3.3a38.069 38.069 0 0 0-10.61-4.762"/>
    <path fill="#BE99B8" d="M145 132.334c-1.396-6.583-5.462-12.395-12.129-13.726-6.666-1.331-14.4-.414-20.69 2.14-1.208.49-3.838 2.73-4.715 3.687-1.71 1.863-2.753 6.724-2.396 9.177.341 2.35 3.944 1.89 5.778 2.076 7.34.746 14.74.064 21.999-1.091 1.013-.163 12.17-2.184 12.153-2.263"/>
    <g transform="translate(93 184)">
      <mask id="f" fill="#fff">
        <use xlink:href="#e"/>
      </mask>
      <path fill="#EBB47B" d="M.047 75.753a2223.135 2223.135 0 0 1 4.091-50.34C4.806 18.21 5.515 10.98 7.027 3.907l.037.039c-1.518 7.087-2.228 14.332-2.898 21.554a2216.947 2216.947 0 0 0-4.08 50.162l-.039.092" mask="url(#f)"/>
      <path fill="#D89D79" d="m7.064 3.945-.037-.039c.23-1.076.479-2.147.75-3.216C8.45.633 9.126.579 9.802.529l.005.087C9.14.664 8.47.717 7.804.775a87.697 87.697 0 0 0-.74 3.17M.037 75.898l.01-.145.04-.092-.01.145-.04.092" mask="url(#f)"/>
      <path fill="#CF9376" d="M.033 76.44C.02 76.437.01 76.432 0 76.427l.037-.528.04-.092-.044.635" mask="url(#f)"/>
      <path fill="#F1AD4D" d="M13.666 80.596A63.066 63.066 0 0 1 .033 76.441l.044-.635.01-.145c1.17-16.735 2.53-33.457 4.079-50.162.67-7.222 1.38-14.467 2.898-21.554.229-1.062.473-2.118.74-3.17C8.47.717 9.14.664 9.808.615c.11 2.539-.886 5.809-1.095 8.138a226.833 226.833 0 0 0-.906 19.879 228.136 228.136 0 0 0 5.563 50.425c.052.228.156.789.296 1.54" mask="url(#f)"/>
      <path fill="#D1C8BF" d="m50.28 71.878-.03-.045.03.045m-.601-.857a.582.582 0 0 1-.036-.052l.01-.04a.078.078 0 0 0 .005-.011.995.995 0 0 0 .04.043l-.019.06m.248.359-.248-.36.248.36" mask="url(#f)"/>
      <path fill="#D9C192" d="m50.28 71.878-.03-.045-.323-.453-.248-.36.02-.059c.228.239.45.485.664.74l-.083.177" mask="url(#f)"/>
      <path fill="#EBB47B" d="M49.699 70.961a.995.995 0 0 1-.041-.043c.676-2.122 1.354-4.241 2.031-6.363 1.154-3.614 2.319-7.28 2.483-11.067.14-3.216-.438-6.346-1.432-9.396 1.01 3.076 1.6 6.235 1.46 9.48-.166 3.787-1.33 7.453-2.483 11.067L49.7 70.961" mask="url(#f)"/>
      <path fill="#F1AD4D" d="M50.363 71.7c-.213-.254-.436-.5-.664-.739l2.018-6.322c1.154-3.614 2.317-7.28 2.483-11.067.14-3.245-.45-6.404-1.46-9.48-1.311-4.029-3.35-7.917-5.41-11.673-1.37-5.457-2.355-11.108-3.614-16.523 3.62 5.048 7.257 10.125 9.973 15.698 2.715 5.575 4.49 11.721 4.15 17.898-.382 7-3.416 13.554-6.399 19.913L50.363 71.7" mask="url(#f)"/>
      <path fill="#D1C8BF" d="M50.044 71.686c-.145-.22-.28-.45-.412-.681l.011-.036a.582.582 0 0 0 .036.052l-.013.04c.122.213.25.419.383.619l-.005.006" mask="url(#f)"/>
      <path fill="#BEA495" d="M50.238 71.97a6.719 6.719 0 0 1-.194-.284l.005-.006c.063.095.127.188.194.28l-.005.01" mask="url(#f)"/>
      <path fill="#D1C8BF" d="M50.243 71.96a10.706 10.706 0 0 1-.577-.899l.013-.04.248.359c.107.153.215.303.322.453l.031.045-.037.082" mask="url(#f)"/>
      <path fill="#D9C192" d="M50.25 71.833c-.108-.15-.216-.3-.323-.453l.322.453" mask="url(#f)"/>
    </g>
    <path fill="#F8CF72" d="M72.37 218.642c-.576.717-1.183 1.46-2.023 1.84-.776.353-1.66.35-2.513.333-8.898-.168-17.499-2.811-26.262-4.371-.683 1.615-1.404 5.108-1.572 6.854a239.026 239.026 0 0 0 22.576 12.01c2.12.987 4.405 1.966 6.718 1.622 1.77-.263 3.327-1.272 4.82-2.255l28.734-18.915c.375-.246.765-.51.97-.908.22-.425.193-.93.16-1.407-.33-4.73-.657-9.46-.985-14.189-.166-2.405.577-10.303-2.696-11.21-2.478-.685-7.289 6.457-8.851 8.189a526.16 526.16 0 0 0-9.134 10.409 517.503 517.503 0 0 0-9.942 11.998"/>
    <path fill="#BE99B8" d="M114.96 159.796c.864 3.003 1.882 5.994 3.52 8.654 1.64 2.66 3.956 4.988 6.845 6.18 3.633 1.495 7.86 1.046 11.464-.519 2.958-1.284 6.342-5.268 7.211-8.374-1.748 10.021-6.548 21.363-12.74 29.434-2.155 2.806-4.743 5.56-8.157 6.487-3.05.826-6.328.056-9.21-1.243-4.667-2.106-8.595-5.523-12.45-8.89-.831-.729-1.69-1.49-2.121-2.506-.817-1.92.099-4.084.791-6.05 2.466-6.99 2.112-14.602 2.028-22.011-.07-6.264.074-12.53.434-18.783.136-2.37.302-4.748.799-7.07.157-.737.406-1.546 1.065-1.91.628-.346 1.403-.163 2.094.026l4.522 1.247c.176.049.3.13.373.295-.891 1.007-.098 4.5.013 5.843a99.198 99.198 0 0 0 3.518 19.19"/>
    <path fill="#F5C8B6" d="M295.18 278.9a48.38 48.38 0 0 0-4.123 15.459c-.079.84-.128 1.713.22 2.493.351.779 1.217 1.43 2.135 1.316a19.085 19.085 0 0 0 2.06-2.957c.494 4.239.127 8.56-1.076 12.677-.135.459-.273.973-.018 1.388.322.524 1.09.62 1.75.658 2.392.136 5.048.196 6.878-1.212 1.235-.951 1.843-2.405 2.308-3.815 2.911-8.824 2.023-18.635-2.437-26.907"/>
    <path fill="#E5746F" d="M308 163c-4.93 2.087-9.761 4.639-13.396 8.544-7.881 8.47-14.722 18.405-22.604 26.876 2.408 4.223 6.948 13.357 9.357 17.58 4.068-4.885 24.467-25.442 23.99-48.046"/>
    <path fill="#CBCCCB" d="M401 402h4V296h-4z"/>
    <path fill="#777776" d="M414.202 237.55a59.028 59.028 0 0 1 1.434 8.164c.122 1.168.194 2.426-.314 3.448-.745 1.495-2.403 1.927-3.817 2.505-1.614.66-3.114 1.69-4.383 3.011-.549.572-1.068 1.221-1.326 2.019-.286.881-.193 1.669-.127 2.608.542 7.898.18 14.782.723 22.68.046.65.977 2.545 1.331 3.055.306.439.778.666 1.229.879a308.128 308.128 0 0 1 11.213 5.555c1.242.648 2.135.61 2.703 2.032.59 1.472-.772 6.232-4.707 4.32-4.074-1.98-7.966-3.78-11.859-5.04.01 1.645.098 4.204.108 5.85.118 1.755-4.167 1.56-6.215.839-.237-.083-.483-.185-.644-.4-.238-.318-.225-.784-.2-1.203a248.059 248.059 0 0 0-.152-32.164c-.076-1.097-.162-2.206-.497-3.235-.255-.78-.645-1.493-.942-2.253-.621-1.58-.83-3.327-1.031-5.045L395 240.401c-.103-.87 10.545-4.183 11.626-4.515 2.534-.774 6.624-2.138 7.575 1.665"/>
    <path fill="#F5C8B6" d="M410.442 252.676c.068.382.156.8.462 1.046.206.167.48.226.742.28a246.053 246.053 0 0 0 26.954 3.993c.897.083 1.813.16 2.686-.056.921-.226 1.73-.757 2.472-1.337 2.137-1.66 3.879-3.75 5.876-5.569 1.999-1.818 4.376-3.411 7.082-3.725.293-.035.637-.035.83.185.31.35-.028.878-.352 1.216a9480.311 9480.311 0 0 0-5.584 5.78c3.092.28 6.265-.345 9.007-1.778 2.479-1.294 7.928-6.944 10.02-2.324.702 1.547.29 3.37-.434 4.908-2.678 5.676-9.046 8.769-15.244 10.206-5.635 1.307-9.718-.288-15.232-1-2.726-.353-5.488-.124-8.234.009-9.583.46-19.177-.277-28.74-1.013-.94-.073-1.963-.18-2.64-.823-.622-.589-.8-1.484-.943-2.32a217.166 217.166 0 0 1-2.17-16.619c0-.415 9.849-2.25 10.832-1.595 2.237 1.494 2.187 8.174 2.61 10.536m-54.16 29.558c.375 1.077.758 2.185.715 3.325-.037.945-.366 1.849-.693 2.735a556.074 556.074 0 0 1-8.12 20.706 45.941 45.941 0 0 1-2.832-7.615c-.442-1.612-.797-3.264-.807-4.934-.011-2.255.604-4.466 1.351-6.591a52.643 52.643 0 0 1 2.964-6.848c.275-.53.563-1.073.633-1.666.11-.967-.377-1.89-.844-2.742a260.846 260.846 0 0 1-14.116-30.167c-.291-.744-.586-1.524-.525-2.321.047-.605.295-1.174.548-1.726A58.732 58.732 0 0 1 346.76 227c1.844 5.899 5.979 12.627 2.538 18.556-.758 1.309-2.254 2.732-2.491 4.26-.29 1.877.918 4.458 1.406 6.265a389.133 389.133 0 0 0 8.067 26.153m-18.208 62.393c.038 2.44.256 4.871.473 7.297 1.548 17.36 3.099 34.717 4.648 52.076a66.06 66.06 0 0 1 6.864-.426c-.49-10.407-.98-20.862-.157-31.239.489-6.168 1.43-12.488.119-18.477-.316-1.442-.761-2.845-.977-4.315-.625-4.226.677-8.484 1.957-12.488l-6.01-3.222c-1.343-.723-3.348-2.37-4.9-1.659-2.682 1.231-2.017 9.656-2.017 12.453m49.691 4.396c-.422 18.18-.847 36.361-1.27 54.54-2.408.631-4.923.578-7.314-.158a399.958 399.958 0 0 0-4.046-57.29c-.132-.918-.256-1.922.096-2.738.301-.699.89-1.098 1.455-1.428 2.366-1.383 7.198-3.848 9.817-2.613 2.243 1.06 1.317 7.338 1.262 9.687"/>
    <path fill="#5B6A84" d="M393.668 300.24c-.65 15.401-.587 30.834.192 46.23.048.94.091 1.918-.274 2.784-.286.672-.795 1.22-1.323 1.72-3.22 3.049-7.478 4.84-11.84 5.578-4.36.74-8.834.48-13.209-.172a1161.535 1161.535 0 0 1-3.664-36.996 130.861 130.861 0 0 0-5.675 35.415c-7.254.807-14.546-.65-21.702-2.099-.309-.063-.643-.139-.855-.375-.216-.244-.25-.594-.27-.92-.49-8.6 2.838-16.884 5.427-25.098 1.784-5.66 3.236-11.423 5.106-17.054 3.083-9.275 7.28-18.128 11.468-26.954 7.449 6.188 18.65 7.36 27.206 2.844 2.525-1.332 8.934-5.918 9.468-.724.538 5.245.166 10.57-.055 15.821"/>
    <g transform="translate(335 282)">
      <mask id="h" fill="#fff">
        <use xlink:href="#g"/>
      </mask>
      <path fill="#465266" d="M50.408 22.279a258.285 258.285 0 0 0 3.79 55.062 27.376 27.376 0 0 1 7.87-4.667c.544-.209 1.146-.447 1.398-.974.156-.325.145-.701.132-1.063-.425-12.52 1.382-24.997 3.026-37.416 1.07-8.092 2.074-16.3 1.021-24.394-.362-2.784-.986-5.587-2.402-8.006-1.418-2.42-3.727-4.424-6.474-4.928-2.527-.465-5.762.4-7.7 2.142-1.554 1.397-.796 3.034-.577 4.865.765 6.409.162 12.957-.084 19.379" mask="url(#h)"/>
    </g>
    <path fill="#F5C8B6" d="M371.503 196.096c-.523.664-1.136 1.302-1.38 2.09-.287.933-.02 1.927.272 2.86 1.242 3.991 3.016 8.04 6.425 10.776.662.53 1.415 1.02 2.282 1.146 1.528.219 2.93-.718 4.131-1.603 2.88-2.122 5.954-4.528 6.626-7.866.49-2.433-.407-4.904-1.06-7.312A38.446 38.446 0 0 1 387.455 185c-.015.519-5.799 1.325-6.451 1.412-1.674.223-4.179-.106-5.703.63-1.533.74-1.24 2.024-1.427 3.424a11.526 11.526 0 0 1-2.372 5.63"/>
    <path fill="#E1AFA4" d="M373 191.987c.093-.414.182-.829.235-1.252.184-1.469-.104-2.815 1.405-3.59 1.502-.773 3.973-.429 5.623-.664.643-.09 6.344-.935 6.357-1.481a42.867 42.867 0 0 0 .38 6.754c-4.506 1.625-9.757 1.615-14 .233"/>
    <path fill="#F5C8B6" d="M394.13 175.481c-2.187 4.26-4.978 8.465-9.235 11.124-4.257 2.658-10.276 3.398-14.427.703-1.41-.914-2.527-2.158-3.495-3.466-2.748-3.707-4.437-8.072-4.858-12.555-.313-3.337.062-6.704.54-10.036.742-5.19 1.844-10.604 5.411-14.733 3.208-3.716 8.22-5.997 13.35-6.435 5.13-.44 10.33.89 14.655 3.386 5.527 3.191 5.36 7.834 4.433 13.11a66.699 66.699 0 0 1-6.373 18.902"/>
    <path fill="#F5C8B6" d="M397.393 179.636c-.658.283-1.385.47-2.075.298-4.165-1.033-1.88-10.26.36-12.455 1.293-1.268 3.53-1.777 5.223-1.306 2.752.768 2.225 4.672 1.594 6.951-.774 2.801-2.527 5.397-5.102 6.512"/>
    <path fill="#343534" d="M382.937 161.25c-.238 1.096-1.073 1.873-1.867 1.734-.792-.137-1.243-1.138-1.007-2.234.238-1.096 1.073-1.873 1.867-1.734s1.243 1.138 1.007 2.234m-11.973-1.105c-.179 1.101-.98 1.93-1.788 1.85-.81-.08-1.32-1.038-1.14-2.14.179-1.101.98-1.93 1.788-1.85.81.08 1.32 1.038 1.14 2.14"/>
    <path fill="#E1AFA4" d="M373.917 160c.258 2.52-.038 5.167-1.561 7.275-1.629 1.843-3.793 3.243-.811 4.696-1.459.221-2.88-.86-2.475-2.553.352-1.585 1.571-2.305 2.094-3.125 1.29-1.678 1.82-4.007 2.753-6.293"/>
    <path fill="#FFFFFE" d="M371.118 177.433c1.881.397 3.81.516 5.72.353.33-.029.699-.051.944.188.25.24.272.68.13 1.01-.14.331-.41.574-.683.782-1.634 1.246-3.975 1.523-5.895.946-.831-.25-2.378-1.178-2.333-2.925.037-1.44 1.474-.49 2.117-.354"/>
    <path fill="#DF5430" d="M380.47 155.479c-.182-.035-.376-.109-.445-.256-.082-.17.053-.357.2-.49.976-.884 2.69-.926 3.943-.353 1.252.57 2.108 1.626 2.721 2.724.319.57-.08 1.118-.82.805-.59-.25-2.603-1.861-5.6-2.43m-7.993-.905.421-.098c.13-.149.116-.397.072-.593a2.382 2.382 0 0 0-2.588-1.869c-1.118.124-2.168.908-3.068 1.827-.467.477-.427 1.204.224 1.157.518-.038 2.611-.965 4.94-.424"/>
    <path fill="#DF5430" d="M401.87 137.328c-2.25-2.134-5.275-3.32-8.34-3.864-3.064-.542-6.2-.486-9.313-.429l-9.927.185c-3.775.07-7.616.15-11.205 1.315-1.037.336-2.08.785-2.807 1.592-.727.805-1.056 2.048-.53 2.995.479.863 1.574 1.384 1.724 2.357.12.767-.416 1.476-.983 2.01-.93.875-2.029 1.565-2.936 2.46-.909.899-1.64 2.097-1.545 3.365.013.186.054.386.193.515.157.142.393.15.606.147a15.357 15.357 0 0 0 2.363-.23c-.189 1.516-.23 3.373 1.06 4.212 1.104.716 2.573.256 3.786-.263a58.836 58.836 0 0 0 8.228-4.323c.508 1.475 2.25 2.156 3.819 2.253a9.45 9.45 0 0 0 5.837-1.6c-.104.346.359.57.718.625 4.174.628 8.653-.45 12.536 1.196-1.027.93-2.15 2.285-1.541 3.524.165.334.445.614.54.974.18.684-.356 1.32-.726 1.927-.941 1.54-.89 3.481-.598 5.261.289 1.78.135 4.926-.013 6.723.051.669 1.041 1.108 2.118.334.435-1.328 1.917-4.059 3.21-4.612 1.293-.551 3.842-.025 4.556 1.179 1.83-1.674 2.857-3.544 4.245-5.595 1.388-2.052 2.29-4.526 2-6.98-.188-1.624-.885-3.12-1.659-4.544-.71-1.312-2.003-2.859-2.266-4.34-.265-1.505.05-2.884-.512-4.405a10.55 10.55 0 0 0-2.638-3.964"/>
    <path fill="#ED9877" d="M378.001 167.507a.507.507 0 1 1-.001-1.015.507.507 0 0 1 .001 1.015M368 165.271l-.27-.27.27-.272.27.272-.27.27M371.001 164.304l-.306-.304.306-.304.304.304-.304.304M378 164.338a.338.338 0 1 1 0-.675.338.338 0 0 1 0 .675m3 2a.338.338 0 1 1 0-.677.338.338 0 0 1 0 .677M381.999 170.305l-.304-.306.304-.304.306.304-.306.306M375.001 168.271l-.272-.272.272-.27.27.27-.27.272M377.999 168.271l-.236-.272.236-.27.238.27-.238.272M367 168.304l-.304-.304.304-.304.304.304-.304.304M366 167.237l-.236-.238.236-.236.236.236-.236.238M366.001 164.271l-.272-.27.272-.272.27.272-.27.27"/>
    <path fill="#F6BD48" d="M379.825 201.618c-3.682-.157-7.211-2.369-8.96-5.618-3.646 1.801-8.158 1.412-11.6 3.579-2.263 1.423-3.758 3.767-5.178 6.034l-14.232 22.72c-.303.482-.61.977-.755 1.53-.216.831-.044 1.71.155 2.547 1.881 7.89 6.154 15.194 12.109 20.693a28.536 28.536 0 0 0 5.087-5.682 166.3 166.3 0 0 1-.874 37.17c4.636 3.132 9.477 6.346 15.007 7.186 8.047 1.223 15.907-2.782 22.821-7.082.592-.368 1.206-.764 1.54-1.374.358-.655.334-1.44.301-2.183-.69-15.748-1.562-30.7-1.49-30.605a93.964 93.964 0 0 0 20.244-6.1c-1.107-7.729-2.216-15.458-3.322-23.185-1.106-7.709-4.028-15.44-10.152-20.24-3.219-2.522-7.645-4.834-11.671-4.431-.189.02-1.248 2.354-2.895 3.383-1.823 1.137-3.984 1.75-6.135 1.658"/>
    <g transform="translate(339 195)">
      <mask id="j" fill="#fff">
        <use xlink:href="#i"/>
      </mask>
      <path fill="#FFFFFE" d="M17.096 51.995a30.148 30.148 0 0 0-2.336 4.328C7.97 48.694 3.594 39.27-.652 29.978c-.15-.326-.303-.67-.289-1.029.018-.44.278-.824.53-1.184.91-1.302 2.37-4.752 4.327-3.04 1.424 1.247 1.75 4.893 2.356 6.65a77.992 77.992 0 0 0 6.237 13.613c.423.728 4.757 6.748 4.587 7.007m37.093-7.453c-.232.06-.494.14-.602.355-.082.163-.05.357-.016.537l1.133 6.054a268.962 268.962 0 0 0 21.177-7.449l.328-.229c.543-.989-.886-5.821-1.858-6.566-1.608-1.231-4.334 1.187-5.822 1.934-4.59 2.299-9.39 4.03-14.34 5.364M12.444 80.905c-.22 1.086-.437 2.172-.656 3.257 4.129 2.033 8.339 3.897 12.617 5.59 2.138.847 4.311 1.655 6.582 2.02 4.739.761 9.607-.465 13.99-2.427 4.382-1.96 8.4-4.638 12.588-6.989-.099-.918.051-3.94-.896-4.21-.747-.214-3.251 1.462-3.982 1.76a56.118 56.118 0 0 1-9.543 2.92 57.68 57.68 0 0 1-20.024.689c-.934-.133-10.802-1.986-10.676-2.61" mask="url(#j)"/>
    </g>
    <g transform="translate(339 195)">
      <mask id="l" fill="#fff">
        <use xlink:href="#k"/>
      </mask>
      <path fill="#E6B497" d="M73.86 40.483a2.96 2.96 0 0 0-.123-.061l-.523-3.655h-.099c-.547-3.827-1.095-7.655-1.644-11.48-1.105-7.709-4.028-15.44-10.151-20.24C58.347 2.72 54.347.57 50.584.57c-.258 0-.513.011-.768.032.016-.016.03-.024.039-.024A9.03 9.03 0 0 1 50.79.53c3.763 0 7.763 2.15 10.735 4.479 6.124 4.798 9.046 12.53 10.152 20.239l2.183 15.235" mask="url(#l)"/>
      <path fill="#957B6B" d="m70.772 50.127-.008-.035a93.165 93.165 0 0 0 4.03-1.62l-.569-3.964.092-.036-.58-4.05.124.061c.379 2.65.758 5.3 1.139 7.95a95.277 95.277 0 0 1-4.228 1.694" mask="url(#l)"/>
      <path fill="#EFA385" d="m67.737 51.2-.002-.03a92.429 92.429 0 0 0 3.03-1.078c0 .01.004.022.007.035a95.196 95.196 0 0 1-3.035 1.073" mask="url(#l)"/>
      <path fill="#EE9C42" d="M67.735 51.17a175.225 175.225 0 0 0-.301-4.103c2.275-.822 4.539-1.675 6.791-2.56.19 1.323.38 2.642.568 3.964a93.165 93.165 0 0 1-7.058 2.698m-1.1-11.275c-1.017-7.263-2.703-14.394-5.543-21.14-1.284-3.05-2.804-6.016-4.755-8.689-1.979-1.979-3.434-4.102-5.884-5.619a21.696 21.696 0 0 0-2.506-1.305C48.95 2.105 49.607.793 49.817.6c.254-.021.509-.032.767-.032 3.763 0 7.763 2.15 10.736 4.478 6.123 4.8 9.046 12.531 10.151 20.24.549 3.825 1.097 7.653 1.644 11.48-1.565.028-3.535 1.682-4.72 2.277-.584.292-1.171.575-1.76.85" mask="url(#l)"/>
      <path fill="#F5C5A8" d="M67.434 47.067a134.81 134.81 0 0 0-.8-7.173 70.344 70.344 0 0 0 1.761-.85c1.185-.595 3.155-2.25 4.72-2.277h.099l.523 3.655.58 4.05-.092.036a268.432 268.432 0 0 1-6.791 2.56" mask="url(#l)"/>
      <path fill="#E6B497" d="m54.99 88.313-.015-.103c.306-.238.578-.51.763-.85.358-.655.334-1.44.302-2.183-.03-.704-.061-1.407-.094-2.107l.078-.045c-.075-1.656-.15-3.298-.226-4.905l-.08.027c-.608-12.84-1.224-23.575-1.17-23.575l.012-.002c.082.51.168 1.016.253 1.524.205 4.217.877 16.373 1.433 29.043.033.744.055 1.53-.301 2.182-.223.41-.572.723-.956.994" mask="url(#l)"/>
      <path fill="#82686B" d="m54.849 88.41-.013-.095c.047-.034.094-.07.139-.105l.014.103a3.649 3.649 0 0 1-.14.097" mask="url(#l)"/>
      <path fill="#6E585B" d="m49.11 91.758.007-.075a85.468 85.468 0 0 0 5.082-2.948c.214-.134.432-.272.637-.42l.013.095a14.67 14.67 0 0 1-.444.284 83.755 83.755 0 0 1-5.296 3.064" mask="url(#l)"/>
      <path fill="#EE9C42" d="M49.117 91.683c.19-1.648.38-3.297.568-4.945 2.106-1.186 4.17-2.453 6.261-3.668.033.7.063 1.403.094 2.107.032.743.056 1.528-.302 2.183-.185.34-.457.612-.763.85a4.464 4.464 0 0 1-.139.105c-.205.148-.423.286-.637.42a85.468 85.468 0 0 1-5.082 2.948m1.267-11.081c.31-2.736.613-5.474.726-8.226.095-2.34.053-4.684.055-7.026.002-3.976.13-7.952.38-11.92.23-3.613.07-8.025 1.153-11.455.037 1.756.63 2.55.73 3.722.172 2.023.416 4.04.703 6.05.134.943.277 1.884.43 2.823l-.012.002c-.055 0 .561 10.734 1.17 23.575-1.054.391-2.614 1.4-3.166 1.624a54.97 54.97 0 0 1-2.169.83" mask="url(#l)"/>
      <path fill="#F5C5A8" d="M49.685 86.738c.225-1.966.449-3.933.672-5.899l.027-.237a54.97 54.97 0 0 0 2.169-.83c.552-.225 2.112-1.234 3.166-1.625l.079-.027c.076 1.607.151 3.249.226 4.905l-.078.045c-2.091 1.215-4.155 2.482-6.26 3.668" mask="url(#l)"/>
      <path fill="#E6B497" d="M12.364 57.104a3.095 3.095 0 0 0-.078-.072 28.625 28.625 0 0 0 4.959-5.572c.005.042.008.082.011.123l-.018.147a28.545 28.545 0 0 1-4.874 5.374" mask="url(#l)"/>
      <path fill="#EE9C42" d="M12.286 57.032a40.985 40.985 0 0 1-5.29-5.986c.63-.836 1.253-1.68 1.87-2.526 1.54 2.397 3.212 4.703 5.066 6.873a28.722 28.722 0 0 0 3.029-3.594c-.186-.693-4.181-6.247-4.586-6.945-.137-.235-.273-.47-.407-.708.405-.585.806-1.171 1.204-1.761 1.965-2.91 3.895-5.963 4.572-9.411.043 6.117.253 12.513-.488 18.609-.003-.04-.006-.08-.011-.123a28.625 28.625 0 0 1-4.959 5.572" mask="url(#l)"/>
      <path fill="#F5C5A8" d="M13.932 55.393c-1.854-2.17-3.526-4.476-5.065-6.873a207.588 207.588 0 0 0 3.101-4.374c.134.238.27.473.407.708.405.698 4.4 6.252 4.586 6.945a28.722 28.722 0 0 1-3.029 3.594" mask="url(#l)"/>
    </g>
    <path fill="#B4C2D9" d="M349.774 399.48c3.213-.108 3.28 10.287 3.213 11.12-.082 1.02-3.667 3.206-5.829 3.71-2.161.506-4.345 1.327-6.514 1.793-1.884.403-3.648 1.302-5.443 2.062-7.15 3.033-15.17 3.873-22.468 1.334-.172-.06-.352-.128-.472-.277-.13-.16-.17-.385-.198-.6-.444-3.488 1.512-6.946 4.149-8.827 2.637-1.881 5.835-2.453 8.946-2.682 3.112-.228 6.264-.157 9.307-.924.452-.115.916-.256 1.268-.597.333-.32.527-.783.704-1.235a44.403 44.403 0 0 0 1.464-4.376c.1-.359.199-.727.414-1.012.206-.274.497-.443.786-.589 1.544-.784 3.25-.127 4.938-.03 1.477.558.278 3.109.715 3.314 2.462 1.161 4.352-.533 5.02-2.184"/>
    <g transform="translate(312 398)">
      <mask id="n" fill="#fff">
        <use xlink:href="#m"/>
      </mask>
      <path fill="#FFFFFE" d="M7.967 8.313c3.284-.163 6.754.866 8.968 3.345 2.039 2.282 2.788 5.492 2.902 8.577.038 1.057.011 2.128-.265 3.147-5.374.864-10.816 1.647-16.236 1.182-1.75-.151-3.63-.503-4.835-1.806-.844-.913-1.23-2.17-1.435-3.405-.196-1.184-.248-2.408-.005-3.584.278-1.342.925-2.574 1.645-3.732a29.369 29.369 0 0 1 3.225-4.27c.768-.844 1.607-1.658 2.636-2.135" mask="url(#n)"/>
      <path fill="#FFFFFE" d="M28.185 16.544c2.146-.544 4.396-.64 6.496-1.347 2.693-.906 4.974-2.757 7.08-4.69.262.97.503 1.946.725 2.927.051.236.103.482.04.714-.05.187-.169.346-.288.497-2.23 2.852-5.137 5.116-8.32 6.781-3.182 1.666-6.638 2.748-10.152 3.434-1.925.377-3.93.634-5.835.156-.154-.038-.316-.089-.416-.213-.111-.14-.116-.336-.114-.516.006-1.208-.003-2.417.02-3.623.017-.988.284-1.253 1.236-1.34 2.152-.197 4.11-.881 6.124-1.643 1.12-.425 2.245-.842 3.404-1.137" mask="url(#n)"/>
    </g>
    <path fill="#B4C2D9" d="M386.775 401.48c3.212-.108 3.278 10.287 3.212 11.12-.082 1.02-3.667 3.206-5.83 3.71-2.161.507-4.345 1.328-6.514 1.793-1.882.403-3.648 1.302-5.44 2.063-7.152 3.032-15.172 3.873-22.47 1.332-.172-.06-.35-.127-.472-.276-.13-.16-.17-.385-.198-.6-.444-3.487 1.512-6.946 4.149-8.827 2.637-1.88 5.834-2.452 8.947-2.682 3.111-.228 6.262-.157 9.305-.925.452-.113.918-.256 1.27-.595.331-.321.525-.783.704-1.235a44.282 44.282 0 0 0 1.462-4.378c.1-.357.2-.728.415-1.013.205-.272.498-.44.787-.586 1.543-.785 3.247-.13 4.936-.03 1.479.557.28 3.108.715 3.313 2.462 1.16 4.352-.532 5.022-2.184"/>
    <g transform="translate(349 400)">
      <mask id="p" fill="#fff">
        <use xlink:href="#o"/>
      </mask>
      <path fill="#FFFFFE" d="M7.967 8.313c3.284-.163 6.753.866 8.968 3.345 2.04 2.282 2.788 5.49 2.902 8.577.04 1.057.011 2.128-.265 3.147-5.374.864-10.815 1.647-16.235 1.18-1.751-.15-3.63-.501-4.835-1.804-.843-.913-1.23-2.17-1.435-3.405-.196-1.186-.247-2.408-.005-3.584.277-1.342.924-2.574 1.644-3.732a29.395 29.395 0 0 1 3.225-4.27c.768-.845 1.607-1.658 2.636-2.135" mask="url(#p)"/>
      <path fill="#FFFFFE" d="M28.186 16.542c2.147-.542 4.397-.639 6.497-1.345 2.691-.906 4.972-2.757 7.08-4.692.262.971.503 1.948.723 2.93.053.235.104.48.042.713-.05.187-.17.346-.288.497-2.232 2.85-5.139 5.115-8.32 6.781-3.184 1.666-6.64 2.748-10.153 3.434-1.926.377-3.93.634-5.836.156-.153-.038-.315-.089-.415-.213-.112-.14-.117-.336-.115-.516.006-1.208-.003-2.417.02-3.623.017-.988.285-1.253 1.236-1.34 2.152-.198 4.11-.881 6.126-1.643 1.12-.425 2.243-.842 3.403-1.139" mask="url(#p)"/>
    </g>
    <path fill="#777776" d="M395.503 257.766A45.712 45.712 0 0 1 393 244.653l8.062-3.412c.319-.134.653-.272.996-.235.863.09 1.259 1.146 1.451 2.028a65.656 65.656 0 0 1 1.49 13.217c.005.46 0 .942-.215 1.344-.217.408-.617.67-1.007.899a19.52 19.52 0 0 1-6.881 2.473c-.263.041-.552.071-.773-.083-.236-.164-.312-.481-.373-.77-.31-1.496-.618-2.994-.927-4.49"/>
    <path fill="#636463" d="M404.453 401.087c.264.003.533.006.782.097.254.092.47.268.67.452 1.733 1.581 2.087 4.53 2.095 6.902.002.78-1.31 1.015-2.148 1.164-2.543.447-5.04.484-7.518-.54l-.26-.17-.074-.362c.013-1.205.131-2.41.351-3.594.141-.762.328-1.523.68-2.21.363-.708 1.038-1.624 1.866-1.75 1.132-.173 2.41.003 3.556.01"/>
    <path fill="#777776" d="M418.417 292.516c.433-.822 1.317-1.406 2.267-1.502.95-.096 1.94.301 2.54 1.018.557.666.767 1.55.776 2.406.016 1.644-.682 3.284-1.891 4.443-.781.747-1.892 1.316-2.959 1.055-1.254-.306-1.955-1.633-2.103-2.873-.272-2.262.622-4.64 3.012-5.705"/>
    <path fill="#4F433B" d="M292.628 269c2.335 39.673-6.371 79.932-24.898 115.147-.512.974-1.322 3.588-2.216 4.235-.799.575-1.875.454-2.84.67-3.667.827-6.992.39-10.66 1.217 1.006-23.606 3.042-46.444-2.903-69.32-2.16 22.976-9.122 47.253-7.255 70.256-3.99.886-7.436.94-11.223.604-.25-.022-.506.012-.76.046-.424.056-.842.111-1.208-.096-.447-.255-.71-.732-.945-1.186-9.18-17.721-12.157-37.88-14.822-57.636-2.765-20.494-5.27-41.794 1.081-61.483a269.384 269.384 0 0 0 44.262.521c10.414-.736 20.939-2.137 31.247-.492l3.14-2.483"/>
    <g transform="translate(210 269)">
      <mask id="r" fill="#fff">
        <use xlink:href="#q"/>
      </mask>
      <path fill="#786558" d="M12.268 108.903c-5.09-14.367-7.323-29.786-9.37-44.966C.133 43.445-2.372 22.144 3.979 2.454c2.525.24 5.054.442 7.586.608l-.07.42a273.673 273.673 0 0 1-7.363-.593C-2.218 22.578.286 43.88 3.05 64.372c2.028 15.027 4.237 30.288 9.218 44.53" mask="url(#r)"/>
      <path fill="#40322A" d="M19.294 122.906a1.24 1.24 0 0 1-.63-.147c-.446-.254-.708-.73-.944-1.186-2.125-4.106-3.919-8.34-5.452-12.67C7.287 94.66 5.078 79.399 3.05 64.372.286 43.878-2.218 22.578 4.132 2.889c2.452.232 4.906.429 7.363.594-2.751 16.93-1.649 34.456-.454 51.665 1.581 22.757 3.311 45.726 9.499 67.655h-.077c-.195 0-.393.026-.59.052-.195.026-.39.051-.579.051" mask="url(#r)"/>
      <path fill="#786558" d="M42.015 121.269c.993-23.328 2.994-45.908-2.698-68.513l.088.176c5.734 22.54 3.787 45.047 2.782 68.298l-.172.039" mask="url(#r)"/>
      <path fill="#40322A" d="M42.187 121.23c1.005-23.25 2.952-45.757-2.782-68.298 10.232 20.669 10.051 44.74 7.196 67.77-1.446.086-2.901.203-4.414.528" mask="url(#r)"/>
    </g>
    <path fill="#B4B5B4" d="M301.685 230.5c4.668 16.649 4.804 34.103 3.832 51.283-3.731.073-7.464.146-11.196.217-4.22-19.998-8.534-40.256-18.127-58.576-1.115-2.129-2.301-4.23-3.176-6.455-1.592-4.046-8.115-32.006-8.017-31.969 12.063 4.64 18.334 11.99 20.585 14.62 3.657 4.272 6.76 8.945 9.346 13.845 2.863 5.422 5.178 11.171 6.753 17.035"/>
    <g transform="translate(265 185)">
      <mask id="t" fill="#fff">
        <use xlink:href="#s"/>
      </mask>
      <path fill="#9E9F9E" d="M-9.325.954C5.807 13.537 16.719 29.76 23.6 47.054c6.885 17.296 9.855 35.665 10.46 53.984-1.284-1.413-3.624-1.554-5.678-1.578l-12.033-.141c.752-7.565-.379-15.172-1.802-22.66-3.107-16.354-7.611-32.474-12.36-48.517-2.285-7.722-4.65-15.483-8.574-22.676" mask="url(#t)"/>
    </g>
    <path fill="#B4B5B4" d="M286.836 226.69a953.773 953.773 0 0 1 4.61 18.262c2.406 9.948 4.665 20.25 2.957 30.343-6.472 2.859-13.659 3.57-20.716 4.021a335.089 335.089 0 0 1-59.43-1.482c-.85-16.505.33-33.211 4.745-49.134 4.413-15.92 12.147-31.055 23.404-43.113-.123.131 5.535 2.283 6.085 2.401 2.26.486 4.598.59 6.893.331a21.233 21.233 0 0 0 6.797-1.936c1.555-.746 3.627-2.84 5.467-2.293 1.823.54 3.505 3.897 4.507 5.387a69.508 69.508 0 0 1 3.843 6.48c2.388 4.549 4.316 9.33 5.982 14.19 1.864 5.437 3.394 10.984 4.856 16.543"/>
    <path fill="#F5C8B6" d="M214.82 281.9a48.343 48.343 0 0 1 4.123 15.46c.078.839.13 1.712-.221 2.491-.35.78-1.216 1.432-2.133 1.316a19.046 19.046 0 0 1-2.061-2.955 32.014 32.014 0 0 0 1.077 12.676c.134.459.272.973.017 1.388-.323.524-1.091.62-1.75.658-2.392.136-5.048.196-6.878-1.213-1.234-.952-1.843-2.403-2.308-3.814-2.911-8.823-2.023-18.636 2.437-26.907"/>
    <g transform="translate(214 184)">
      <mask id="v" fill="#fff">
        <use xlink:href="#u"/>
      </mask>
      <path fill="#9E9F9E" d="M13.186 107.268a421.656 421.656 0 0 1-17.116-1.124c-1.012-.087-2.136-.234-2.788-1.018-.589-.708-.605-1.716-.597-2.638.204-20.463-1.253-41.176 2.978-61.193 2.097-9.925 5.79-19.62 11.322-28.14C9.52 9.25 20.572-7.585 24.987.8c2.196 4.171-.262 9.004-1.54 12.993a236.648 236.648 0 0 0-10.471 52.89 233.947 233.947 0 0 0 .21 40.586" mask="url(#v)"/>
    </g>
    <path fill="#4F433B" d="m249.04 132.6.259.016c1.3.04 2.52-.57 3.799-.802 1.691-.305 3.023.799 4.699.797 2.016 0 3.965.463 5.668 1.556.735.47 1.419 1.046 2.246 1.332.588.204 1.22.25 1.824.401a5.33 5.33 0 0 1 3.097 2.166c.166.25.315.515.535.719.288.266.671.404 1.037.554 3.038 1.244 5.556 4.043 5.745 7.275.056.956-.083 1.941.206 2.856.32 1.017 1.13 1.817 1.544 2.8a3.94 3.94 0 0 1-.156 3.352c-.552 1.03-1.573 1.841-1.79 2.987-.3 1.587 1.061 3.302.325 4.745-.215.422-.583.745-.87 1.123-.642.847-.844 1.93-1.262 2.903-.416.974-1.218 1.941-2.292 1.973-.154-5.74-.42-11.475-.798-17.205-.084-1.266-.205-2.616-.996-3.617-.652-.826-1.662-1.285-2.479-1.952-.767-.627-1.364-1.436-2.132-2.063-1.113-.911-2.527-1.388-3.931-1.739a28.946 28.946 0 0 0-16.866.903c-3.804 1.398-7.621 4.072-8.294 8.013-.457 2.674.635 5.373.6 8.086-.02 1.835-.557 3.621-1.09 5.38l-1.254 4.145c-.094.316-.197.645-.427.885-.3.313-.76.416-1.189.504-1.843.375-4.049.648-5.347-.692-1.113-1.15-1.013-2.963-1.614-4.436-.514-1.265-1.564-2.32-1.79-3.664-.208-1.244.334-2.484.43-3.742.073-.935-.103-1.869-.222-2.797a23.596 23.596 0 0 1 2.592-14.037c1.004-1.877 2.382-3.712 4.389-4.483.997-.382 2.117-.488 3.007-1.072.787-.514 1.296-1.337 1.927-2.027 1.835-2.014 4.866-2.88 7.511-2.145 1.461.404 2.705 1.13 4.264.89 1.58-.243 2.924-1.223 4.506-1.443 1.9-.264 3.762.721 5.68.734 1.35.008 2.687-.466 4.03-.316 1.558.175 2.907 1.177 3.932 2.35.735.84 1.36 1.798 2.265 2.46 1.626 1.188 4.003 1.32 5.25 2.89.562.708.798 1.606 1.211 2.408.614 1.189 1.635 2.201 1.92 3.504.258 1.181-.134 2.39-.356 3.578-.223 1.188-.228 2.558.62 3.43"/>
    <path fill="#F5C8B6" d="M275.412 152.642a65.659 65.659 0 0 1-2.656 22.104c-1.484 4.967-3.692 9.95-8.01 13.43-4.319 3.48-11.191 5.084-16.745 2.67-1.884-.82-3.509-2.04-4.978-3.349-4.165-3.711-7.252-8.284-8.885-13.153-1.213-3.625-1.625-7.371-1.912-11.094-.446-5.8-.526-11.89 2.61-16.895 2.82-4.501 8.12-7.666 14.025-8.822 5.906-1.155 12.344-.379 18.05 1.795 3.411 1.301 6.225 3.578 7.47 7.066.552 1.55.8 3.194.937 4.828.195 2.3.578 4.562.65 6.902a68.1 68.1 0 0 1-1.418 16.08c-.45 2.151-1.012 4.296-1.941 6.29-2.462 5.284-7.556 9.238-13.278 10.49-5.721 1.25-11.944-.176-16.638-3.659-4.695-3.481-7.82-8.933-8.613-14.702"/>
    <path fill="#F5C8B6" d="M248.001 190.76c-1.884-.819-3.509-2.036-4.978-3.344-4.165-3.705-7.252-8.27-8.885-13.132-1.213-3.619-1.625-7.36-1.912-11.076-.446-5.79-.526-11.871 2.61-16.868 2.82-4.494 8.12-7.654 14.025-8.807 5.906-1.154 12.344-.379 18.05 1.791 3.411 1.3 6.225 3.572 7.47 7.055.552 1.548.8 3.189.937 4.82.195 2.297.578 4.555.65 6.89a67.885 67.885 0 0 1-1.418 16.056c-.45 2.147-1.012 4.289-1.941 6.28-1.641 3.516-6.067 7.007-13.278 10.472-3.85 1.515-7.627 1.47-11.33-.138Z"/>
    <path fill="#F5C8B6" d="M231.897 163.713c-.414-.352-.914-.663-1.481-.707-1.042-.082-1.867.743-2.345 1.562-1.608 2.76-1.281 6.198.156 9.076.783 1.565 1.937 3.066 3.623 3.899.759.376 1.678.605 2.487.348.828-.265 1.373-.998 1.562-1.764.19-.766.078-1.567-.064-2.346-.544-2.973-1.358-7.864-3.938-10.068"/>
    <path fill="#E1AFA4" d="M261.384 158c.763 2.725 1.065 5.455 2.435 7.57.548 1.02 1.945 2.005 2.156 3.813.265 1.95-1.622 2.939-3.379 2.523 3.986-1.151 1.506-3.171-.254-5.48-1.579-2.589-1.574-5.615-.958-8.426"/>
    <path fill="#FFFFFE" d="M261.994 177.564a39.153 39.153 0 0 1-8.25-.483c-.468-.078-.997-.156-1.374.054-.38.213-.454.664-.282 1.026.17.363.531.654.905.909 2.228 1.53 5.56 2.164 8.373 1.853 1.218-.135 3.529-.867 3.632-2.678.085-1.497-2.069-.726-3.004-.681"/>
    <path fill="#343534" d="M254.501 152.893c.176-.017.371-.077.458-.232.101-.18-.002-.404-.125-.569-.809-1.096-2.435-1.34-3.707-.852-1.271.49-2.23 1.564-2.963 2.71-.38.597-.076 1.253.671.99.596-.208 2.733-1.764 5.666-2.047m9.066.109c-.168.01-.364-.014-.481-.138-.134-.142-.09-.354-.014-.517.505-1.077 1.966-1.528 3.261-1.28 1.297.245 2.435 1.05 3.378 1.951.491.47.355 1.088-.4.967-.604-.1-2.949-1.156-5.744-.983m-11.545 6.68c.141 1.376.917 2.412 1.733 2.311.816-.1 1.364-1.298 1.223-2.675-.14-1.376-.916-2.412-1.732-2.311-.817.1-1.364 1.297-1.224 2.675m12.995-1.306c-.123 1.379.44 2.552 1.26 2.62.818.07 1.582-.993 1.706-2.372.123-1.379-.44-2.553-1.26-2.62-.818-.07-1.582.993-1.706 2.372"/>
    <path fill="#4F433B" d="M229.03 161.82c2.289.049 3.04 3.41 5.193 4.18.785-.943.317-2.364.56-3.565.153-.754.59-1.414.942-2.098 1.305-2.553 1.207-5.67 1.51-8.463.056-.517.118-1.051.394-1.493.264-.425.698-.711 1.067-1.054 1.53-1.415 2.016-3.846 3.842-4.853 1.106-.61 2.442-.537 3.7-.663a11.134 11.134 0 0 0 2.48-.54c1.989-.68 3.916-1.941 6.001-1.677 2.177.275 3.897 2.17 6.079 2.406 1.23.134 2.444-.28 3.647-.575 1.041-.254 2.55-.555 3.51.098.896.61 1.382 1.714 2.441 2.144.586.236 1.257.216 1.828.485 1.152.543 1.482 1.993 1.673 3.25.207 1.36.23 2.957.67 4.26.394 1.162 1 2.257 1.348 3.458.482 1.66.648 3.411.485 5.131.687-2.236.657-4.626.524-6.964a82.18 82.18 0 0 0-.795-7.615c-.191-1.267-.42-2.55-.992-3.695-.736-1.466-1.988-2.608-3.311-3.579-5.717-4.193-13.083-5.702-20.168-5.348-3.686.184-7.371.847-10.791 2.233a27.091 27.091 0 0 0-6.683 3.91c-1.338 1.064-2.593 2.273-3.482 3.732-2.397 3.935-1.79 8.928-1.013 13.467"/>
    <path fill="#B4B5B4" d="M208.788 232.5c-4.098 16.649-4.217 34.103-3.364 51.283 3.277.073 6.554.146 9.831.217 3.706-19.998 7.493-40.256 15.918-58.576.977-2.129 2.019-4.233 2.787-6.455 1.398-4.046 7.126-32.006 7.039-31.969-10.59 4.638-16.098 11.99-18.075 14.62-3.211 4.272-5.934 8.945-8.206 13.845-2.512 5.422-4.546 11.171-5.93 17.035"/>
    <path fill="#343534" d="M258.01 389.61c.472-.147.403-.767.418-1.227.035-1.076 1.07-1.942 2.189-2.227 1.118-.287 2.306-.121 3.454.046l2.72.396c.385.056.782.116 1.115.306.361.208.607.549.863.866 1.893 2.338 4.812 3.739 7.671 4.974a151.675 151.675 0 0 0 17.17 6.219c1.028.304 2.242.786 2.378 1.78.114.83-.623 1.545-1.372 2.014-2.485 1.56-5.6 1.94-8.596 2.113-10.89.62-21.92-.984-32.08-4.669-.382-.14-.78-.291-1.051-.578-.281-.297-.387-.7-.471-1.088a18.074 18.074 0 0 1-.34-5.532c.126-1.375.555-3.04 1.716-3.997 1.916-1.579 2.39 1.17 4.216.604m-20.302 2.843c-.48-.126-.44-.751-.476-1.213-.083-1.077-1.164-1.9-2.301-2.137-1.14-.238-2.326-.019-3.472.199l-2.719.517c-.385.074-.782.15-1.107.357-.356.223-.587.577-.832.904-1.798 2.43-4.672 3.963-7.491 5.328a153.159 153.159 0 0 1-16.992 6.995c-1.02.35-2.219.887-2.313 1.889-.077.839.7 1.523 1.473 1.96 2.569 1.457 5.72 1.701 8.741 1.741 10.983.144 22.006-1.953 32.06-6.097.38-.156.771-.326 1.032-.624.268-.312.357-.721.425-1.114.317-1.838.348-3.72.094-5.563-.19-1.373-.697-3.024-1.908-3.933-1.997-1.5-2.351 1.28-4.214.79"/>
    <path fill="#00A87B" d="M188.475 154.286c1.505-.348 3.383-.601 4.324.628.558.728.555 1.724.628 2.639a12.375 12.375 0 0 0 1.812 5.5c.267.428.563.851.691 1.34.372 1.428-.807 2.78-2.008 3.632-4.702 3.339-11.058 3.667-16.565 1.977-2.541-.777-5.052-2.026-6.657-4.15-.386-.513-.726-1.113-.698-1.753.042-.93.813-1.628 1.43-2.32a9.026 9.026 0 0 0 1.859-3.288c.308-.982.36-2.86 1.398-3.313.876-.384 3.254.393 4.274.402 3.211.031 6.395-.572 9.512-1.294"/>
    <path fill="#50341D" d="M96.3 183.011c-1.26.1-2.265 1.088-3.1 2.06a37.1 37.1 0 0 0-4.379 6.324c-.4.73-.786 1.507-.819 2.345-.037.976.412 1.908.986 2.689 1.145 1.56 2.974 2.727 4.874 2.554 2.001-.182 3.6-1.745 4.889-3.322.784-.961 1.533-1.985 1.927-3.17.97-2.911-.184-9.81-4.378-9.48"/>
    <g transform="translate(0 72)">
      <mask id="x" fill="#fff">
        <use xlink:href="#w"/>
      </mask>
      <path fill="#00A87B" d="M197.612 94.883c2.17 1.234 4.178 2.895 5.332 5.105 1.39 2.666 1.399 5.81 1.365 8.813-.256 22.639-1.093 45.37 1.624 67.847.07.575.138 1.18-.086 1.712-.3.716-1.044 1.128-1.742 1.469-13.486 6.583-29.895 6.9-43.623.838-.345-.151-.695-.313-.956-.584-.61-.637-.532-1.642-.42-2.516 2.134-16.753 2.002-33.678 3.293-50.496.626-8.144 1.47-16.391 3.331-24.359 1.09-4.662 2.913-7.797 7.657-9.318 7.712-2.472 17.048-2.589 24.225 1.49" mask="url(#x)"/>
      <path fill="#BE99B8" d="M60 29.95c0 16.542-13.453 29.952-30.049 29.952-16.595 0-30.048-13.41-30.048-29.951C-.097 13.409 13.356 0 29.95 0 46.547 0 60 13.41 60 29.95" mask="url(#x)"/>
    </g>
    <path fill="#FFFFFE" d="M20.749 83.72c-.746 1.415-1.543 2.794-2.32 4.14-.876 1.517-1.784 3.09-2.586 4.66a69.935 69.935 0 0 1-1.139 2.117c-1.398 2.533-2.502 4.534-2.492 7.267l-.002.218c-.013.765-.032 2.046 2.45 3.741 6.004 4.1 11.957 7.768 17.994 11.393.02-.472.077-.969.165-1.492.602-3.537 2.34-6.715 4.07-9.667 1.746-2.98 3.588-5.949 5.398-8.844A461.623 461.623 0 0 1 20.749 83.72Zm15.5 35.82c.006 0 .103.06.424.158.337.105 1.224.377 2.613-1.654 3.791-5.54 6.593-10.695 9.453-16.076-.348-.205-.666-.39-.969-.563-1.036-.601-1.91-1.108-3.08-1.932-1.707 2.732-3.419 5.5-5.039 8.265-1.643 2.805-3.16 5.571-3.67 8.573-.188 1.102-.174 1.972.044 2.66.138.436.204.544.223.568Zm.868 3.46c-.502 0-.965-.086-1.376-.212-.816-.251-1.377-.576-1.79-.996-7.09-4.234-14.044-8.44-21.091-13.256-3.915-2.674-3.875-5.33-3.857-6.463-.012-3.733 1.401-6.295 2.898-9.006.359-.65.728-1.32 1.089-2.023.839-1.646 1.767-3.254 2.667-4.808 1.046-1.812 2.127-3.683 3.038-5.571L19.5 79l1.53 1.029a459.522 459.522 0 0 0 24.305 15.276l1.436.842-.37.59c1.12.797 1.934 1.267 2.968 1.866.664.384 1.402.812 2.345 1.393l1.286.798-.712 1.342c-3.023 5.696-6.15 11.587-10.36 17.74-1.662 2.43-3.386 3.124-4.81 3.124Z"/>
    <path fill="#BE99B8" d="M133 32c0 16.569-13.431 30-30 30-16.569 0-30-13.431-30-30 0-16.569 13.431-30 30-30 16.569 0 30 13.431 30 30"/>
    <path fill="#FFFFFE" d="m100.677 21.593 4.591 5.9 7.325-1.093 2.731-6.991-4.593-5.9-7.322 1.092-2.732 6.992ZM103.9 31 97 22.14l4.102-10.499L112.1 10l6.9 8.861-4.102 10.5L103.9 31Zm-.223 11.593 4.593 5.897 7.323-1.091 2.731-6.99-4.59-5.9-7.325 1.092-2.732 6.992ZM106.9 52l-6.9-8.86 4.102-10.499 11-1.641L122 39.861l-4.102 10.5L106.9 52ZM83.676 35.591l4.591 5.9 7.325-1.092 2.732-6.992-4.593-5.9-7.325 1.093-2.73 6.991ZM86.898 45 80 36.139l4.1-10.5L95.1 24l6.9 8.86-4.1 10.499L86.897 45Z"/>
    <path fill="#BE99B8" d="M229 31c0 16.568-13.431 30-30 30-16.569 0-30-13.432-30-30 0-16.568 13.431-30 30-30 16.569 0 30 13.432 30 30"/>
    <path fill="#FFFFFE" d="M219.448 43c-.77-1.028-1.514-1.862-2.27-2.55-1.867-1.692-4.052-2.587-6.004-2.455-1.571.107-3.146.839-4.812 1.614-2.403 1.119-4.885 2.273-7.74 1.73-1.557-.296-3.092-1.13-4.437-2.41-3.075-2.923-4.405-7.476-3.39-11.599.318-1.29.832-2.466 1.33-3.604.462-1.059.898-2.06 1.15-3.081.908-3.681-.97-8.005-4.275-9.844L190.545 8c4.58 2.548 7.086 8.314 5.829 13.415-.318 1.288-.831 2.461-1.328 3.597-.462 1.061-.901 2.062-1.153 3.087-.733 2.977.266 6.395 2.486 8.506.628.597 1.63 1.357 2.84 1.588 1.835.352 3.761-.541 5.8-1.49 1.858-.864 3.778-1.757 5.94-1.903 2.856-.199 5.815.969 8.359 3.275.91.824 1.787 1.806 2.682 3.002L219.448 43"/>
    <path fill="#FFFFFE" d="M207.246 55c-4.3-5.103-3.64-8.886-3.2-11.39.074-.43.146-.825.17-1.188.15-2.208 1.057-4.17 1.935-6.067.961-2.078 1.87-4.041 1.513-5.92-.233-1.235-1.007-2.258-1.614-2.901-2.141-2.267-5.612-3.282-8.64-2.537-1.039.256-2.055.704-3.132 1.176-1.154.509-2.348 1.032-3.654 1.356-5.186 1.287-11.037-1.276-13.624-5.949l2.846-1.58c1.865 3.374 6.257 5.297 9.996 4.366 1.038-.257 2.054-.703 3.129-1.176 1.154-.508 2.35-1.033 3.66-1.357 4.186-1.038 8.813.323 11.779 3.46 1.301 1.376 2.147 2.943 2.45 4.533.552 2.907-.624 5.445-1.759 7.9-.787 1.703-1.53 3.311-1.64 4.916-.03.466-.116.974-.214 1.53-.372 2.133-.836 4.787 2.483 8.726L207.246 55"/>
    <path fill="#FFFFFE" d="M183.383 25 181 22.753 191.617 12 194 14.25 183.383 25M194.299 36 192 33.834 201.701 23 204 25.166 194.299 36M198.549 41 196 38.864 206.451 27 209 29.136 198.549 41M206.228 52 204 49.642 215.772 39 218 41.358 206.228 52"/>
    <path fill="#BE99B8" d="M323 30c0 16.569-13.432 30-30 30-16.568 0-30-13.431-30-30 0-16.569 13.432-30 30-30 16.568 0 30 13.431 30 30"/>
    <path fill="#FFFFFE" d="M296.464 48c-.55 0-.97-.238-1.155-.342L276.031 36.76a2.027 2.027 0 0 1-1.01-2.07 2.012 2.012 0 0 1 1.554-1.69c5.332-1.217 10.135-2.35 14.901-3.894 1.118-.361 1.281-.655 1.288-.666-.005-.096-.159-.47-.227-.63a200.436 200.436 0 0 0-5.176-11.44l-.078-.16c-.748-1.52-1.52-3.091-1.87-4.864a1.954 1.954 0 0 1 .707-1.919 1.931 1.931 0 0 1 2.042-.24L310 19.53l-.397 1.344a32.024 32.024 0 0 1-2.808 6.632l-2.809-1.61a28.773 28.773 0 0 0 2.092-4.624L289.54 13.44c.2.436.416.876.638 1.324l.077.161a202.619 202.619 0 0 1 5.263 11.627c.224.542.565 1.362.444 2.323-.293 2.295-2.704 3.076-3.497 3.333-3.951 1.28-7.89 2.276-12.107 3.261l15.55 8.792 1.701-3.717 2.935 1.363-2.16 4.723c-.324.713-.813 1.157-1.451 1.313-.164.04-.32.057-.469.057Z"/>
    <path fill="#BE99B8" d="M411 30c0 16.569-13.431 30-30 30-16.569 0-30-13.431-30-30 0-16.569 13.431-30 30-30 16.569 0 30 13.431 30 30"/>
    <path fill="#FFFFFE" d="M383.44 35.711c.166.002.385.018.626.037l.273.023.003-.034c.028-.408.072-.784.14-1.028.405-1.462 1.24-2.92 2.546-4.45.536-.629 1.112-1.228 1.685-1.827.972-1.012 1.888-1.967 2.58-3.041 2.2-3.42 1.823-8.326-.875-11.412-1.594-1.823-3.913-3.088-6.533-3.557-2.451-.44-5.116-.186-7.724.728-2.144.752-3.814 1.804-4.961 3.13-1.707 1.972-2.355 4.864-1.649 7.372.844 3 1.717 6.1 4.591 9.036 1.652 1.688 1.653 3.357 1.655 4.699l.002.284c1.268.034 3.51.052 6.719.042l.922-.002ZM384.693 39c-.328 0-.638-.027-.906-.05l-.367-.026-.896.002c-9.57.024-9.573.021-9.849-1.486-.14-.762-.14-1.446-.142-2.05-.002-1.142-.002-1.716-.74-2.473-3.45-3.521-4.523-7.34-5.388-10.407-1-3.56-.116-7.512 2.31-10.314 1.525-1.76 3.66-3.13 6.353-4.073 3.146-1.104 6.397-1.4 9.401-.863 3.351.601 6.342 2.243 8.423 4.624 3.656 4.18 4.144 10.584 1.159 15.224-.86 1.338-1.93 2.453-2.965 3.531-.53.553-1.063 1.106-1.559 1.686-.995 1.17-1.617 2.226-1.896 3.235-.017.087-.023.241-.033.405-.057.76-.126 1.706-.805 2.349-.592.56-1.385.686-2.1.686Zm.72 5h-.021l-10.825-.122c-.876-.01-1.578-.662-1.567-1.456.01-.789.72-1.422 1.588-1.422h.019l10.826.122c.875.01 1.578.662 1.567 1.456-.011.789-.72 1.422-1.588 1.422m-8.806 4c-.88 0-1.6-.65-1.606-1.458-.008-.812.704-1.477 1.592-1.485l6.787-.057h.015c.88 0 1.598.65 1.606 1.458.008.812-.704 1.477-1.592 1.485L376.62 48h-.013m2.04 4c-.897 0-1.63-.642-1.646-1.447-.013-.813.71-1.482 1.619-1.497l3.71-.056h.026c.896 0 1.628.643 1.645 1.447.015.813-.708 1.484-1.617 1.497l-3.71.056h-.028"/>
    <path fill="#BE99B8" d="M479 101c0 16.568-13.431 30-30 30-16.569 0-30-13.432-30-30 0-16.568 13.431-30 30-30 16.569 0 30 13.432 30 30"/>
    <path fill="#FFFFFE" d="M453.455 125c-.586 0-1.162-.2-1.64-.591l-25.802-21.096a2.761 2.761 0 0 1-.948-2.741 2.708 2.708 0 0 1 1.991-2.072c15.604-3.895 19.547-4.948 20.532-5.233.997-1.195 4.8-6.213 6.949-9.267l2.6 1.898c-.065.094-6.907 9.62-7.848 10.19-.304.186-.594.362-20.483 5.33l24.066 19.677c-.02-21.9.167-22.711.237-23.019.136-.583.452-1.948 6.293-10.21L462 89.768c-5.154 7.29-5.715 8.823-5.776 9.057-.1.84-.165 10.102-.149 23.508a2.64 2.64 0 0 1-2.62 2.667"/>
    <path fill="#FFFFFE" d="M465.386 93c-.35 0-.7-.117-.996-.36l-11.777-9.65c-.698-.572-.817-1.626-.268-2.353a1.575 1.575 0 0 1 2.266-.278l11.775 9.65c.7.574.819 1.627.267 2.353-.317.419-.79.638-1.267.638"/>
  </g>
</svg>
