<svg xmlns="http://www.w3.org/2000/svg" xmlns:xlink="http://www.w3.org/1999/xlink" width="488" height="450" viewBox="0 0 488 450" className="w-full h-auto">
  <defs>
    <path id="a" d="M55.877 3.525c-1.67 2.08-2.68 4.602-3.674 7.08-4.924 12.29-5.922 21.07-11.14 33.238-1.957 4.568-6.875 10.968-9.622 15.11-2.283 3.44-6.204 8.163-9.02 11.182A336.18 336.18 0 0 1 0 92.037c2.358 1.844 6.591 8.182 8.898 7.983 1.698-.147 4.699-3.007 6.13-3.975a205.341 205.341 0 0 0 6.444-4.55c8.008-5.874 15.63-12.247 23.244-18.615 3.583-2.996 7.206-6.034 9.965-9.804 2.362-3.224 4.028-6.9 5.61-10.572 4.917-11.429 9.215-23.238 11.008-35.55.387-2.666.655-5.404.108-8.043-1.601-7.723-9.748-12.59-15.53-5.386"/>
  </defs>
  <g fill="none" fill-rule="evenodd">
    <path fill="#2D2118" d="M107.636 61.404c.737.37 1.55.9 1.62 1.722.133 1.609-2.436 1.98-3.118 3.443 3.16 1.819 6.256 3.881 8.533 6.725 2.277 2.844 3.649 6.596 2.939 10.171-.712 3.572-3.863 6.732-7.504 6.75l4.038 8.597c1.032 2.201 2.083 4.457 2.311 6.877.228 2.423-.525 5.082-2.491 6.511-1.966 1.431-5.213 1.058-6.324-1.106-1.085 2.915-2.224 5.923-4.388 8.16-2.161 2.236-5.644 3.513-8.467 2.202-2.304 2.968-6.821 3.945-10.15 2.196-2.951 4.017-7.5 6.829-12.414 7.67-1.486.254-3.049.33-4.47-.173-1.423-.502-2.679-1.677-2.935-3.162-2.567.93-5.367 1.69-7.999.954-2.63-.735-4.862-3.496-4.084-6.114a10.447 10.447 0 0 1-6.883.643c-1.18-.297-2.333-.82-3.194-1.68-2.748-2.731-1.586-7.324-.242-10.957-1.59 2.595-5.942 1.955-7.686-.541-1.745-2.494-1.514-5.861-.78-8.816a31.537 31.537 0 0 1 4.391-9.917c-2.528.745-4.913-1.897-5.351-4.499-.837-4.976 2.588-9.622 6.204-13.141-1.305.33-2.71-.424-3.462-1.542-.751-1.115-.954-2.517-.935-3.863.048-3.78 1.753-7.508 4.579-10.018 2.825-2.51 6.727-3.764 10.486-3.367 1.463.154 2.906.546 4.378.546 3.045-.005 5.799-1.66 8.61-2.826 7.513-3.111 16.365-2.632 23.592 1.047 2.78 1.412 5.004 3.63 8.135 4.187 4.607.823 8.776 1.176 13.06 3.321"/>
    <path fill="#675E50" d="M90.973 126.754c.63.93 1.37 1.826 1.644 2.911.325 1.284-.051 2.63-.452 3.89-1.712 5.389-4.09 10.837-8.465 14.421-.848.696-1.809 1.33-2.899 1.464-1.917.232-3.634-1.107-5.102-2.365-3.52-3.017-7.269-6.43-7.979-11.012-.516-3.342.703-6.672 1.618-9.926a56.903 56.903 0 0 0 2.123-15.202c-.003.71 7.199 2.056 8.01 2.203 2.088.378 5.234.037 7.11 1.106 1.887 1.074 1.472 2.812 1.648 4.732.255 2.768 1.182 5.474 2.744 7.778"/>
    <path fill="#4F433B" d="M88.54 121.35c-.104-.542-.2-1.086-.251-1.637-.178-1.92.24-3.657-1.648-4.731-1.878-1.07-5.024-.728-7.11-1.106-.811-.146-8.015-1.494-8.01-2.204a56.959 56.959 0 0 1-.738 8.763c5.655 2.311 12.32 2.526 17.757.915"/>
    <path fill="#675E50" d="M101.362 89.595c.701 6.421.708 13.163-1.984 19.03-2.694 5.868-8.681 10.614-15.118 10.12-2.187-.168-4.289-.91-6.282-1.823a37.068 37.068 0 0 1-14.31-11.636c-2.744-3.722-4.76-7.924-6.646-12.146-2.936-6.584-5.644-13.658-4.756-20.811.797-6.435 4.579-12.347 9.82-16.166 5.238-3.82 11.829-5.607 18.31-5.457 8.282.193 11.449 5.76 14.249 12.563a97.002 97.002 0 0 1 6.717 26.326"/>
    <path fill="#2D2118" d="M87.717 37.906c1.477-.397 3.337-.4 4.21.855.39.557.498 1.26.551 1.936a15.79 15.79 0 0 1-.988 6.86c3.401-.354 6.904.3 9.949 1.86 2.366 1.213 4.664 3.428 4.408 6.076-.2 2.056-1.95 3.694-3.892 4.395-1.945.7-4.068.645-6.133.58 1.609 1.464.765 4.386-1.097 5.509-1.862 1.122-4.22.92-6.347.477a34.673 34.673 0 0 1-12.046-4.999c.051 2.408-1.193 4.884-3.332 5.99-2.139 1.106-5.093.558-6.45-1.431-.245 4.374-2.158 8.635-5.262 11.726-1.019 1.014-2.254 1.945-3.687 2.056-1.434.108-3.022-.927-3.03-2.365a51.941 51.941 0 0 1-4.495 6.057c-.947 1.1-1.984 2.19-3.32 2.747-1.34.558-3.059.45-4.036-.622-.624-.685-.855-1.634-1.007-2.549-1.086-6.502.79-13.439 5.008-18.507-2.093-.604-2.491-3.436-1.991-5.554 1.654-6.979 8.128-11.109 15.067-11.18 3.014-.03 5.927.525 8.958.087 3.558-.514 6.48-2.274 9.345-4.344 3.012-2.178 5.953-4.672 9.617-5.66"/>
    <path fill="#E5746F" d="M90.713 132.38a31.46 31.46 0 0 1-9.914 14.536c-.399.325-.837.657-1.349.707-.672.072-1.288-.345-1.82-.762a29.27 29.27 0 0 1-9.815-14.121 56.087 56.087 0 0 0-9.922 5.365c-.836.567-1.68 1.182-2.184 2.056-.507.88-.616 1.927-.706 2.938-2.823 31.925 2.347 64.691-5.448 95.777-.165.664-.338 1.362-.172 2.026.166.661.64 1.191 1.117 1.678 4.315 4.386 10.083 7.317 16.17 8.214 6.496.956 13.165-.37 19.282-2.757 6.116-2.387 11.767-5.81 17.38-9.214.946-.574 1.939-1.196 2.435-2.185.398-.793.419-1.715.433-2.602.127-8.765.256-17.532.382-26.297.194-13.242.388-26.515-.834-39.703a186.093 186.093 0 0 0-4.918-28.576c-.647-2.556-1.108-8.062-3.162-10.005-2.696-2.553-6.038.093-6.955 2.925"/>
    <path fill="#FFFFFE" d="M100.072 125.088c.804-.154 1.67-.27 2.415.071.721.33 1.194 1.03 1.616 1.704a66.237 66.237 0 0 1 5.93 12.042c.824 2.224 1.534 4.5 1.91 6.842.366 2.294.412 4.626.468 6.947a710.948 710.948 0 0 0 12.525 116.966c.938 4.893 1.931 9.931.952 14.817-.936 4.665-3.607 8.806-6.67 12.448a58.993 58.993 0 0 1-20.974 15.82 1792.751 1792.751 0 0 1-.735-143.584c.302-8.68.625-17.463-.772-26.073-.7-4.322-2.194-8.145-3.503-12.27-1.433-4.515 2.886-4.974 6.838-5.73m-43.292 9.615c-.703.468-1.412.987-1.818 1.729-.392.714-.454 1.555-.51 2.367-3.661 54.308-2.034 109.65-16.645 162.085 5.397 4.393 11.364 8 17.229 11.743 3.374 2.152 9.361 2.152 9.361 2.152s.645-4.93.76-7.015a2684.721 2684.721 0 0 0 4.038-157.315c-.018-5.066 1.113-12.676-.841-17.424-2.074-5.042-8.59-.308-11.574 1.678"/>
    <path fill="#FFFFFE" d="M100.759 121.264c-.625 3.004-1.079 8.456-4.248 10.019-3.62 1.788-5.349-2.925-6.386-5.649 1.643-.638 10.226-2.406 10.634-4.37m-32.933 7.023-11.338 1.763c.507-.078 3.703 3.291 4.323 3.75 1.258.929 3.344 2.807 4.936 3.007 4.607.581 2.326-5.713 2.08-8.52"/>
    <path fill="#FFFFFE" d="M98.526 124.664c4.212.436 8.427.871 12.64 1.304 11.555 1.192 23.166 2.386 34.767 1.784 14.961-.774 29.593-4.512 44.105-8.232a31.495 31.495 0 0 1 2.3 15.552c-28.058 7.997-56.506 15.54-85.636 17.154a97.304 97.304 0 0 0-3.978-21.547l-4.198-6.015"/>
    <path fill="#4F433B" d="M80.001 81.621c1.9 2.999 3.199 6.151 5.471 8.207.952 1.033 2.913 1.763 3.787 3.923.975 2.293-.892 4.162-3.104 4.178 4.065-2.751.562-4.19-2.25-6.411-2.72-2.62-3.742-6.283-3.904-9.897"/>
    <path fill="#2D2118" d="M69.416 77.938c.242-.03.505-.117.618-.332.134-.248-.016-.55-.189-.772-1.138-1.468-3.365-1.751-5.082-1.04-1.717.71-2.986 2.207-3.947 3.797-.5.825-.063 1.712.947 1.33.804-.307 3.666-2.499 7.653-2.983m14.48-5.084-.601.078c-.233-.106-.31-.394-.325-.636-.097-1.601 1.216-2.924 2.77-3.293 1.55-.369 3.265.04 4.828.666.811.327 1.037 1.168.143 1.41-.712.192-3.886.102-6.815 1.775"/>
    <path fill="#F2F1F0" d="m100.169 81.133-15.522 5.24a2.778 2.778 0 0 1-3.523-1.744l-1.745-5.17a2.781 2.781 0 0 1 1.745-3.524l15.521-5.24a2.781 2.781 0 0 1 3.524 1.744l1.744 5.172a2.779 2.779 0 0 1-1.744 3.522"/>
    <path fill="#AB2430" d="M82.38 76.73a2.566 2.566 0 0 0-1.607 3.248l1.146 3.395a2.564 2.564 0 0 0 3.247 1.606l13.747-4.64a2.566 2.566 0 0 0 1.606-3.247l-1.145-3.394a2.567 2.567 0 0 0-3.248-1.61L82.38 76.732Zm17.272 5.8-13.746 4.64a4.88 4.88 0 0 1-6.177-3.057l-1.145-3.395a4.878 4.878 0 0 1 3.058-6.177L95.387 69.9a4.88 4.88 0 0 1 6.176 3.059l1.145 3.397a4.878 4.878 0 0 1-3.056 6.174Z"/>
    <path fill="#F2F1F0" d="M74.5 89.8 58.98 95.04a2.777 2.777 0 0 1-3.524-1.745l-1.747-5.17a2.781 2.781 0 0 1 1.745-3.524l15.524-5.24c1.454-.492 3.03.29 3.52 1.744l1.748 5.172A2.782 2.782 0 0 1 74.5 89.8"/>
    <path fill="#AB2430" d="M56.711 85.396a2.564 2.564 0 0 0-1.606 3.245l1.145 3.397a2.564 2.564 0 0 0 3.245 1.607l13.75-4.642a2.564 2.564 0 0 0 1.606-3.245l-1.148-3.395a2.563 2.563 0 0 0-3.245-1.608l-13.747 4.641Zm17.27 5.797-13.746 4.641a4.877 4.877 0 0 1-6.174-3.058l-1.145-3.395a4.877 4.877 0 0 1 3.055-6.174l13.747-4.642a4.876 4.876 0 0 1 6.174 3.059l1.148 3.394a4.878 4.878 0 0 1-3.058 6.175Z"/>
    <path fill="#AB2430" d="M77.798 84.546c-.498.168-1.007.311-1.523.43l-.519-2.249a13.432 13.432 0 0 0 3.538-1.357l1.12 2.024c-.834.463-1.71.845-2.616 1.152"/>
    <path fill="#4F433B" d="M93.903 102.103c-2.282 5.598-12.643 7.984-17.29 4.275 5.863.282 12.289-1.08 17.29-4.275"/>
    <path fill="#BE99B8" d="M461.41 394.787H26.59C11.905 394.787 0 382.881 0 368.195V26.592C0 11.906 11.905 0 26.59 0h434.82C476.095 0 488 11.906 488 26.592v341.603c0 14.686-11.905 26.592-26.59 26.592"/>
    <path fill="#636463" d="M295.835 227.765h66.581a2.4 2.4 0 0 1 2.402 2.402v4.936a2.401 2.401 0 0 1-2.402 2.402h-66.581a2.401 2.401 0 0 1-2.402-2.402v-4.936a2.4 2.4 0 0 1 2.402-2.402m-121.989 10.634h-36.004a2.486 2.486 0 0 1-2.487-2.487v-5.566a2.486 2.486 0 0 1 2.487-2.484h36.004a2.485 2.485 0 0 1 2.485 2.484v5.566a2.486 2.486 0 0 1-2.485 2.487"/>
    <path fill="#636463" d="M147.832 206.79c2.593-7.566 7.126-14.405 12.77-20.074-.242-1.365-1.862-2.12-3.227-1.9-1.366.222-2.507 1.14-3.542 2.057-6 5.31-10.963 11.853-14.06 19.242-3.097 7.388-4.282 15.63-2.964 23.533.065.385.16.811.482 1.032 1.228.84 5.877.346 7.174-.516 2.021-1.346 1.286-3.627 1.11-5.683-.51-5.958.303-12.045 2.257-17.691"/>
    <path fill="#B4B5B4" d="M170.92 217.705h-8.67a1.796 1.796 0 0 1-1.796-1.795v-36.834c0-.994.805-1.798 1.796-1.798h8.67c.99 0 1.797.804 1.797 1.798v36.834c0 .99-.807 1.795-1.798 1.795"/>
    <path fill="#636463" d="M173.23 188.007h-13.866a1.973 1.973 0 0 1-1.975-1.976v-.071c0-1.093.883-1.975 1.975-1.975h13.867c1.09 0 1.975.882 1.975 1.975v.071a1.975 1.975 0 0 1-1.975 1.976m.862 22.994h-13.867a1.975 1.975 0 0 1-1.975-1.978v-.071c0-1.09.883-1.975 1.975-1.975h13.867c1.092 0 1.975.885 1.975 1.975v.071a1.975 1.975 0 0 1-1.975 1.978"/>
    <path fill="#B4B5B4" d="M164.093 179.576h5.174v-6.131h-5.174z"/>
    <path fill="#B4B5B4" d="M161.028 173.828h11.687v-3.639h-11.687z"/>
    <path fill="#B4C2D9" d="M348.895 410.858c2.06 2.491 4.78 2.35 8.138 2.468 4.867.17 9.75-.055 14.576-.675 2.526-.327 5.047-.76 7.599-.814 3.318-.066 13.546.56 13.956-.788 1.517-4.978.408-11.973-1.189-16.928-3.793-.02-7.624.318-10.77 2.35-3.233 2.091-6.853 3.536-10.573 4.716-25.631 8.131-21.946 9.417-21.737 9.67"/>
    <path fill="#F5C8B6" d="M332.268 211.996c-1.217.023-2.461.05-3.598.486-1.048.404-1.938 1.13-2.8 1.851a179.326 179.326 0 0 0-10.843 9.867c.558 1.187 2.134 1.387 3.446 1.424l7.218.207c1.887.053 3.883.083 5.526-.848 1.16-.654 2.016-1.717 2.931-2.685 3.973-4.204 8.776-5.93 14.171-7.37-2-5.859-11.472-3.02-16.051-2.932"/>
    <path fill="#FFFFFE" d="M395.324 121.94c-1.671 2.083-2.68 4.605-3.674 7.082-4.925 12.289-5.923 21.07-11.14 33.236-1.96 4.568-6.875 10.97-9.622 15.11-2.284 3.443-6.204 8.163-9.02 11.185a336.194 336.194 0 0 1-22.424 21.9c2.36 1.843 6.594 8.183 8.898 7.983 1.701-.146 4.702-3.006 6.133-3.974a209.313 209.313 0 0 0 6.443-4.552c8.009-5.872 15.63-12.247 23.244-18.612 3.584-2.999 7.205-6.036 9.965-9.805 2.363-3.226 4.029-6.9 5.61-10.574 4.918-11.426 9.216-23.238 11.006-35.55.39-2.666.657-5.404.109-8.043-1.6-7.723-9.746-12.588-15.528-5.386"/>
    <g transform="translate(339.426 118.438)">
      <mask id="b" fill="#fff">
        <use xlink:href="#a"/>
      </mask>
      <path fill="#E4E4E3" d="M59.689 38.028c-2.44 8.212-5.252 16.451-10.094 23.518-2.701 3.943-5.99 7.448-9.357 10.843a257.258 257.258 0 0 1-34.212 28.938 42.6 42.6 0 0 1 8.262 7.61 334.834 334.834 0 0 0 26.918-21.25c9.608-8.42 18.792-17.462 26.053-27.974 7.26-10.511 12.556-22.607 13.756-35.326a54.87 54.87 0 0 0-.673-15.218c-.56-3-1.753-11.667-5.081-12.895-7.893-2.91-9.645 19.023-10.55 22.872a335.838 335.838 0 0 1-5.022 18.882" mask="url(#b)"/>
    </g>
    <path fill="#4F433B" d="M384.107 202.093c-4.63 23.077-8.133 47.159-8.614 70.738-.842 41.24.898 82.541 5.206 123.542l12.553.908c2.818-42.58 10.085-84.83 21.626-125.75 3.872-13.729 8.207-27.46 9.877-41.73.657-5.634 2.487-16.332-.039-21.608-1.795-3.754-14.042-2.429-18.148-2.777-8.235-.696-14.284-2.079-22.46-3.323"/>
    <path fill="#F5C8B6" d="M417.837 105.664c.21.327.43.691.357 1.065-.071.37-.412.64-.733.878-4.76 3.53-11.066 6.637-16.496 9.26-2.31-2.938-2.83-7.575-5.365-11.369-.26-.392 1.086-1.66 1.056-2.111-.03-.461.237-.89.497-1.286 1.664-2.54 8.518-16.16 11.804-14.119 1.872 1.164 2.847 6.516 3.757 8.44a81.987 81.987 0 0 0 5.123 9.242"/>
    <path fill="#E1AFA4" d="M407.777 87.632c-2.977-2.044-9.183 11.576-10.693 14.116-.235.397-.477.825-.451 1.286.027.452-2.06 1.584-1.798 1.952 1.113 1.572 2.484 3.448 3.194 5.239 3.71-6.08 8.066-13.388 11.588-19.224-.5-1.5-1.088-2.853-1.84-3.37"/>
    <path fill="#B4C2D9" d="M370.688 423.704c2.06 2.492 4.78 2.351 8.137 2.471 4.867.17 9.75-.058 14.576-.678 2.526-.325 5.048-.76 7.599-.81 3.318-.07 13.546.557 13.956-.79 1.517-4.98.408-11.972-1.189-16.93-3.793-.02-7.623.32-10.77 2.351-3.233 2.093-6.853 3.536-10.573 4.716-25.631 8.13-21.946 9.417-21.736 9.67"/>
    <path fill="#675E50" d="M384.81 215.91c-2.074 23.482-2.915 47.83-.811 71.31a986.464 986.464 0 0 0 18.7 122.09c4.189-.208 8.379-.416 12.568-.62-1.864-42.638 6.817-81.806 13.798-123.851 2.344-14.11 4.12-31.99 4.215-46.369.04-5.674-4.379-16.487-7.465-21.424-2.196-3.508-14.214-.71-18.333-.558-8.257.307-14.415-.336-22.672-.578"/>
    <path fill="#F5C8B6" d="M363.898 68.09c.019 11.68 6.285 22.55 14.169 31.167 2.16 2.36 4.498 4.632 7.34 6.1 2.841 1.47 6.275 2.054 9.271.936 2.162-.807 3.925-2.413 5.471-4.125a38.106 38.106 0 0 0 8.467-15.5c2.939 1.443 6.75-.276 8.308-3.155 1.558-2.878 1.206-6.487-.12-9.481-1.043-2.363-2.825-4.582-5.302-5.308-2.48-.724-5.617.622-6.124 3.155.563-3.54-.822-7.151-2.887-10.08-4.264-6.044-11.61-9.784-19.006-9.676-7.396.106-14.63 4.059-18.716 10.224l-.285-1.482"/>
    <path fill="#F7C364" d="M367.625 54.396c-.89 1.035-2.353 1.237-5.414 1.961-3.06.724-6.319 1.885-7.932 4.51-.415.676-.705 1.455-.627 2.238.221 2.192 2.927 3.132 5.148 3.584-1.93 1.364-2.076 4.319-.772 6.262 1.305 1.943 4.054 2.323 6.396 2.784-1.362-6.269 2.09-11.226 5.687-16.121.348 4.413 5.126 6.575 9.385 8.16 4.259 1.586 9.089 2.6 13.54 3.577 4.447.975 9.146 2.775 11.365 6.643.17-1.84-.726-3.054.134-4.697.862-1.646 2.544-3.02 4.445-2.999 2.102.023 3.81 1.68 4.868 3.441a14.037 14.037 0 0 1 1.744 4.524c.27 1.372.316 2.847-.297 4.107-.726 1.494-2.29 2.475-3.93 2.923-1.638.444-2.917.355-4.618.336.132 4.303 3.56 8.36 5.075 8.629 4.305-.477 5.83-2.132 8.672-5.306 2.752-3.07 3.611-7.3 4.095-11.341 1.392-11.632.28-24.146-6.64-33.739-2.702-3.747-6.311-6.985-10.683-8.693-3.676-1.436-7.746-1.738-11.689-1.346-12.251 1.217-23.484 9.475-28.005 20.59"/>
    <path fill="#F7C364" d="M425.198 32.69c4.203-1.03 8.81-.293 12.484 1.994 2.576 1.604 4.66 3.906 6.356 6.423 5.856 8.698 7.112 19.853 5.628 30.233-1.487 10.38-5.48 20.212-9.438 29.924-2.678 2.595-5.008-14.943-7.559-24.706-2.175-8.332-3.415-21.727-8.863-28.392-1.026-1.256-2.171-2.459-3.602-3.222-1.816-.968-4.213.032-5.285-1.309-1.186-1.487-.313-3.148.636-4.404 2.381-3.153 5.79-5.596 9.643-6.541"/>
    <path fill="#B4C2D9" d="M397.358 114.214c-.53.259-1.101.549-1.36 1.081-.179.369-.177.798-.17 1.208.085 5.501.168 11 .251 16.502-.03-2.042 6.13-7.523 7.516-9.122 2.714-3.132 5.5-6.218 8.395-9.187 4.056-4.158 8.562-7.17 5.941-13.588-6.883 4.461-13.103 9.463-20.573 13.106"/>
    <path fill="#B4C2D9" d="M397.905 124.546c-2.187 8.615-7.864 15.951-10.648 24.391-1.926 5.838-2.417 12.035-2.892 18.161-1.251 16.057-7.411 33.69-3.196 48.125 12.438 1.394 24.488 1.362 36.91-.187 4.632-29.196 9.276-58.754 6.628-88.196-.542-6.036-1.48-12.285-4.863-17.311-.523-.777-1.15-1.553-2.032-1.865-1.692-.601-3.423.726-4.64 2.045-1.216 1.32-2.597 2.86-4.39 2.802"/>
    <path fill="#F5C8B6" d="M362.013 218.97c-1.756 2.098-5.03 1.648-7.711 1.107-4.229-.853-8.628-1.455-12.832-.487-4.204.97-8.207 3.803-9.488 7.921 9.716 1.047 19.522.468 29.275-.112 1.445-.088 2.957-.194 4.192-.945 1.238-.754 2.074-2.377 1.461-3.686"/>
    <path fill="#FFFFFE" d="M400.963 118.619c-1.491 1.058-3.017 2.175-3.863 3.701-.603 1.09-.818 2.312-1.018 3.515a471.855 471.855 0 0 0-1.938 143.691c17.466-.742 31.632-2.01 48.907-4.422 0-18.274.192-27.016-1.532-43.686-.811-7.85-5.886-26-5.513-33.884a407.678 407.678 0 0 0-1.79-62.1c-.445-4.213-1.042-8.634-3.805-12.07-1.906-2.37-4.056-4.483-5.886-6.884-2.113-2.777-3.137-1.22-6.338.753a316.45 316.45 0 0 0-17.224 11.386"/>
    <path fill="#FFFFFE" d="M410.34 126.955c-1.583 2.205-2.438 4.798-3.28 7.345-4.168 12.632-4.502 21.461-8.99 33.997-1.682 4.704-6.32 11.466-8.867 15.805-2.116 3.607-5.845 8.618-8.553 11.847a342.262 342.262 0 0 1-21.744 23.563c2.623 1.657 7.578 7.65 9.982 7.274 1.77-.277 4.685-3.36 6.107-4.435a215.239 215.239 0 0 0 6.39-5.036c7.924-6.471 15.4-13.413 22.871-20.348 3.515-3.266 7.068-6.573 9.656-10.544 2.217-3.397 3.667-7.188 5.027-10.973 4.233-11.772 7.782-23.879 8.665-36.292.191-2.69.249-5.439-.54-8.03-2.304-7.575-11.241-11.8-16.724-4.173"/>
    <path fill="#E4E4E3" d="M417.116 161.087c-1.894 8.376-4.176 16.806-8.681 24.225-2.515 4.14-5.679 7.89-8.935 11.53a264.589 264.589 0 0 1-33.537 31.492 44.465 44.465 0 0 1 9.28 6.951 345.43 345.43 0 0 0 26.51-23.264c9.396-9.133 18.297-18.857 25.06-29.896 6.765-11.04 11.337-23.508 11.565-36.281a52.368 52.368 0 0 0-1.938-15.121c-.832-2.95-2.786-11.498-6.377-12.466-8.515-2.293-8.573 19.71-9.211 23.618a321.077 321.077 0 0 1-3.736 19.212"/>
    <path fill="#B4C2D9" d="M220.18 234.951a6.08 6.08 0 0 1-6.08-6.08v-41.438h12.82v40.775a6.743 6.743 0 0 1-6.74 6.743m19.262-.097a6.08 6.08 0 0 1-6.08-6.08v-41.438h12.823v40.777a6.743 6.743 0 0 1-6.743 6.741"/>
    <path fill="#4D4E4C" d="M253.375 238.59h3.45v-49.051h-3.45zM204.225 238.496h3.448v-49.051h-3.448z"/>
    <path fill="#4D4E4C" d="M206.244 199.793h49.048v-3.45h-49.048zM206.627 231.789h49.048v-3.45h-49.048z"/>
    <path fill="#CBCCCB" d="M365.617 254.511H115.462a2.14 2.14 0 0 1-2.141-2.139v-12.6c0-1.182.959-2.14 2.14-2.14h250.156a2.14 2.14 0 0 1 2.14 2.14v12.6c0 1.18-.957 2.14-2.14 2.14"/>
    <path fill="#CBCCCB" d="M347.225 420.109H134.097a2.137 2.137 0 0 1-2.139-2.139V250.264c0-1.183.957-2.14 2.139-2.14h213.128c1.182 0 2.138.957 2.138 2.14V417.97a2.137 2.137 0 0 1-2.138 2.139"/>
    <path fill="#636463" d="m274.77 164.498 23.586 62.267a2.402 2.402 0 0 1-1.394 3.097l-.017.007a2.4 2.4 0 0 1-3.097-1.396l-23.587-62.267a2.401 2.401 0 0 1 1.396-3.097l.016-.007a2.402 2.402 0 0 1 3.098 1.396"/>
    <path fill="#675E50" d="M73.505 317.342a1468.298 1468.298 0 0 0-7.55 62.38c-1.784 17.96-.989 38.117-.288 56.23-2.358.013-7.423-2.291-8.72-4.001-.593-.78-.72-1.722-.83-2.628-4.31-35.167-6.01-70.46-5.094-105.601.049-1.842.178-3.845 1.634-5.17 1.296-1.178 3.337-1.528 5.26-1.758 4.28-.514 8.626-.731 12.981-.65l-2.205-1.077 4.812 2.275m33.723-2.595a1468.14 1468.14 0 0 0 .645 62.83c.574 18.042 3.991 37.923 7.045 55.789-2.337.322-7.658-1.303-9.168-2.828-.689-.696-.938-1.616-1.166-2.496-8.856-34.308-15.143-69.077-18.812-104.037-.194-1.832-.325-3.837.945-5.34 1.13-1.337 3.109-1.95 4.987-2.43a94.142 94.142 0 0 1 12.783-2.336c-.774-.258-1.55-.519-2.327-.78l5.068 1.628"/>
    <path fill="#2D2118" d="M107.636 61.404c.737.37 1.55.9 1.62 1.722.133 1.609-2.436 1.98-3.118 3.443 3.16 1.819 6.256 3.881 8.533 6.725 2.277 2.844 3.649 6.596 2.939 10.171-.712 3.572-3.863 6.732-7.504 6.75l4.038 8.597c1.032 2.201 2.083 4.457 2.311 6.877.228 2.423-.525 5.082-2.491 6.511-1.966 1.431-5.213 1.058-6.324-1.106-1.085 2.915-2.224 5.923-4.388 8.16-2.161 2.236-5.644 3.513-8.467 2.202-2.304 2.968-6.821 3.945-10.15 2.196-2.951 4.017-7.5 6.829-12.414 7.67-1.486.254-3.049.33-4.47-.173-1.423-.502-2.679-1.677-2.935-3.162-2.567.93-5.367 1.69-7.999.954-2.63-.735-4.862-3.496-4.084-6.114a10.447 10.447 0 0 1-6.883.643c-1.18-.297-2.333-.82-3.194-1.68-2.748-2.731-1.586-7.324-.242-10.957-1.59 2.595-5.942 1.955-7.686-.541-1.745-2.494-1.514-5.861-.78-8.816a31.537 31.537 0 0 1 4.391-9.917c-2.528.745-4.913-1.897-5.351-4.499-.837-4.976 2.588-9.622 6.204-13.141-1.305.33-2.71-.424-3.462-1.542-.751-1.115-.954-2.517-.935-3.863.048-3.78 1.753-7.508 4.579-10.018 2.825-2.51 6.727-3.764 10.486-3.367 1.463.154 2.906.546 4.378.546 3.045-.005 5.799-1.66 8.61-2.826 7.513-3.111 16.365-2.632 23.592 1.047 2.78 1.412 5.004 3.63 8.135 4.187 4.607.823 8.776 1.176 13.06 3.321"/>
    <path fill="#675E50" d="M90.973 126.754c.63.93 1.37 1.826 1.644 2.911.325 1.284-.051 2.63-.452 3.89-1.712 5.389-4.09 10.837-8.465 14.421-.848.696-1.809 1.33-2.899 1.464-1.917.232-3.634-1.107-5.102-2.365-3.52-3.017-7.269-6.43-7.979-11.012-.516-3.342.703-6.672 1.618-9.926a56.903 56.903 0 0 0 2.123-15.202c-.003.71 7.199 2.056 8.01 2.203 2.088.378 5.234.037 7.11 1.106 1.887 1.074 1.472 2.812 1.648 4.732.255 2.768 1.182 5.474 2.744 7.778"/>
    <path fill="#4F433B" d="M88.54 121.35c-.104-.542-.2-1.086-.251-1.637-.178-1.92.24-3.657-1.648-4.731-1.878-1.07-5.024-.728-7.11-1.106-.811-.146-8.015-1.494-8.01-2.204a56.959 56.959 0 0 1-.738 8.763c5.655 2.311 12.32 2.526 17.757.915"/>
    <path fill="#675E50" d="M101.362 89.595c.701 6.421.708 13.163-1.984 19.03-2.694 5.868-8.681 10.614-15.118 10.12-2.187-.168-4.289-.91-6.282-1.823a37.068 37.068 0 0 1-14.31-11.636c-2.744-3.722-4.76-7.924-6.646-12.146-2.936-6.584-5.644-13.658-4.756-20.811.797-6.435 4.579-12.347 9.82-16.166 5.238-3.82 11.829-5.607 18.31-5.457 8.282.193 11.449 5.76 14.249 12.563a97.002 97.002 0 0 1 6.717 26.326"/>
    <path fill="#63BC9F" d="M104.469 231.927a1009.494 1009.494 0 0 0 8.711 88.967c-20.978 9.322-45.437 10.548-67.243 3.367 3.6-27.532 4.895-55.334 4.68-83.099 13.432 2.157 27.308 4.3 40.506 1.003 4.192-1.049 8.322-2.683 11.631-5.462l1.715-4.776"/>
    <path fill="#2D2118" d="M87.717 37.906c1.477-.397 3.337-.4 4.21.855.39.557.498 1.26.551 1.936a15.79 15.79 0 0 1-.988 6.86c3.401-.354 6.904.3 9.949 1.86 2.366 1.213 4.664 3.428 4.408 6.076-.2 2.056-1.95 3.694-3.892 4.395-1.945.7-4.068.645-6.133.58 1.609 1.464.765 4.386-1.097 5.509-1.862 1.122-4.22.92-6.347.477a34.673 34.673 0 0 1-12.046-4.999c.051 2.408-1.193 4.884-3.332 5.99-2.139 1.106-5.093.558-6.45-1.431-.245 4.374-2.158 8.635-5.262 11.726-1.019 1.014-2.254 1.945-3.687 2.056-1.434.108-3.022-.927-3.03-2.365a51.941 51.941 0 0 1-4.495 6.057c-.947 1.1-1.984 2.19-3.32 2.747-1.34.558-3.059.45-4.036-.622-.624-.685-.855-1.634-1.007-2.549-1.086-6.502.79-13.439 5.008-18.507-2.093-.604-2.491-3.436-1.991-5.554 1.654-6.979 8.128-11.109 15.067-11.18 3.014-.03 5.927.525 8.958.087 3.558-.514 6.48-2.274 9.345-4.344 3.012-2.178 5.953-4.672 9.617-5.66"/>
    <path fill="#E5746F" d="M90.713 132.38a31.46 31.46 0 0 1-9.914 14.536c-.399.325-.837.657-1.349.707-.672.072-1.288-.345-1.82-.762a29.27 29.27 0 0 1-9.815-14.121 56.087 56.087 0 0 0-9.922 5.365c-.836.567-1.68 1.182-2.184 2.056-.507.88-.616 1.927-.706 2.938-2.823 31.925 2.347 64.691-5.448 95.777-.165.664-.338 1.362-.172 2.026.166.661.64 1.191 1.117 1.678 4.315 4.386 10.083 7.317 16.17 8.214 6.496.956 13.165-.37 19.282-2.757 6.116-2.387 11.767-5.81 17.38-9.214.946-.574 1.939-1.196 2.435-2.185.398-.793.419-1.715.433-2.602.127-8.765.256-17.532.382-26.297.194-13.242.388-26.515-.834-39.703a186.093 186.093 0 0 0-4.918-28.576c-.647-2.556-1.108-8.062-3.162-10.005-2.696-2.553-6.038.093-6.955 2.925"/>
    <path fill="#9C8A9B" d="M47.486 311.085a28.616 28.616 0 0 1-1.113-.86c-1.067-.871.666-10.915.786-12.567.32-4.405.689-8.807 1.094-13.204a893.596 893.596 0 0 1 2.194-20.895c-.373 15.875-1.311 31.739-2.961 47.526"/>
    <path fill="#709D8E" d="M65.628 317.01c-6.467 0-12.934-2.09-18.142-5.925 1.65-15.787 2.588-31.65 2.961-47.526.212-1.818.429-3.639.648-5.457.544-4.483 1.11-8.963 1.694-13.441 3.97 3.231 8.815 5.386 13.88 6.133 1.448.212 2.906.313 4.365.313.477 0 .957-.011 1.434-.032-1.346 21.867-2.803 43.725-2.54 65.622a29.206 29.206 0 0 1-4.3.313"/>
    <path fill="#B1756F" d="M71.034 251.107c-1.459 0-2.917-.101-4.365-.313-5.065-.747-9.91-2.902-13.88-6.133 1.675-12.837 3.484-25.658 5.243-38.486 2.369-17.297 4.648-34.613 6.367-51.99.422-4.26.233-9.046 1.192-13.206.4-1.747 1.14-2.676 1.924-2.676.7 0 1.434.74 1.994 2.3 2.793 7.774 2.924 17.774 3.666 25.954 1.768 19.428 1.586 38.98.726 58.452-.383 8.69-.899 17.38-1.433 26.066-.477.02-.957.032-1.434.032"/>
    <path fill="#9C8A9B" d="M111.221 306.432a1008.931 1008.931 0 0 1-6.42-68.614c.394-.334.735-.717.966-1.18.398-.793.419-1.715.433-2.602.127-8.765.256-17.532.382-26.297.194-13.242.388-26.515-.834-39.703a186.093 186.093 0 0 0-4.918-28.576 28.466 28.466 0 0 1-.357-1.712c.062.12.122.24.182.362 2.194 4.443 3.148 9.387 3.856 14.291 1.507 10.443 2 21.003 2.465 31.545a6423.922 6423.922 0 0 1 4.245 122.486"/>
    <path fill="#709D8E" d="M93.769 316.547c-.957-23.633-1.913-47.286-2.372-70.937 4.093-2.035 8.023-4.415 11.936-6.787.505-.304 1.02-.625 1.468-1.005 1.357 22.937 3.5 45.825 6.42 68.614.003.062.003.122.005.184.02.823.035 1.68-.323 2.42-.38.793-1.131 1.337-1.866 1.82-4.582 3.001-9.84 4.963-15.268 5.69"/>
    <path fill="#9C8A9B" d="M92.587 129.555a4.163 4.163 0 0 0-.21-.574l.514.325a5.124 5.124 0 0 0-.304.249"/>
    <path fill="#615C52" d="M91.96 130.186a55.233 55.233 0 0 0-.376-1.71l.793.505c.083.186.154.375.21.574a6.01 6.01 0 0 0-.627.631"/>
    <path fill="#B1756F" d="M91.397 245.61c-.537-27.741-.391-55.476 1.24-83.17.634-10.767 1.478-21.715-.677-32.254a6.01 6.01 0 0 1 .93-.88l2.792 1.772a27.656 27.656 0 0 1 4.79 6.67c.12.645.236 1.23.358 1.712a186.093 186.093 0 0 1 4.918 28.576c1.222 13.188 1.028 26.46.834 39.703-.126 8.765-.255 17.532-.382 26.297-.014.887-.035 1.81-.433 2.602-.23.463-.572.846-.966 1.18-.447.38-.963.7-1.468 1.005-3.913 2.372-7.843 4.752-11.936 6.787"/>
    <path fill="#675E50" d="M201.39 116.56c.639-.26 1.383-.506 1.985-.177.408.226.643.664.841 1.086 1.772 3.802 2.337 8.345 5.33 11.283-4.251 2.045-19.381 5.211-21.94.079-3.237-6.495 9.823-10.657 13.785-12.27"/>
    <path fill="#FFFFFE" d="M100.072 125.088c.804-.154 1.67-.27 2.415.071.721.33 1.194 1.03 1.616 1.704a66.237 66.237 0 0 1 5.93 12.042c.824 2.224 1.534 4.5 1.91 6.842.366 2.294.41 4.626.468 6.947a710.948 710.948 0 0 0 12.525 116.966c.938 4.893 1.931 9.931.952 14.817-.936 4.665-3.607 8.806-6.67 12.448a58.993 58.993 0 0 1-20.974 15.82 1792.751 1792.751 0 0 1-.735-143.584c.302-8.68.625-17.463-.772-26.073-.7-4.322-2.194-8.145-3.503-12.27-1.433-4.515 2.886-4.974 6.838-5.73m-43.292 9.615c-.703.468-1.412.987-1.818 1.729-.392.714-.454 1.555-.51 2.367-3.661 54.308-2.034 109.65-16.645 162.085 5.397 4.393 11.364 8 17.229 11.743 3.374 2.152 9.361 2.152 9.361 2.152s.645-4.93.76-7.015a2684.773 2684.773 0 0 0 4.038-157.315c-.018-5.066 1.113-12.676-.841-17.424-2.074-5.042-8.59-.308-11.574 1.678"/>
    <path fill="#FFFFFE" d="M100.759 121.264c-.625 3.004-1.079 8.456-4.248 10.019-3.62 1.788-5.349-2.925-6.386-5.649 1.643-.638 10.226-2.406 10.634-4.37m-32.933 7.023-11.338 1.763c.507-.078 3.703 3.291 4.323 3.75 1.258.929 3.344 2.807 4.936 3.007 4.607.581 2.326-5.713 2.08-8.52"/>
    <path fill="#FFFFFE" d="M98.526 124.664c4.212.436 8.427.869 12.64 1.304 11.555 1.192 23.166 2.386 34.767 1.784 14.961-.774 29.593-4.512 44.105-8.232a31.495 31.495 0 0 1 2.3 15.552c-28.058 7.997-56.506 15.54-85.636 17.154a97.349 97.349 0 0 0-3.978-21.55"/>
    <path fill="#675E50" d="M47.368 265.647c-.14 1.731-.703 3.402-1.366 5.006a39.241 39.241 0 0 1-3.552 6.675c-.27.405-.562.82-.993 1.044-.615.322-1.371.18-2.023-.065-2.653-.995-4.476-3.395-6.149-5.679-.846-1.157-1.715-2.355-2.037-3.752-.32-1.396.041-3.058 1.24-3.844.447-.293 1.002-.472 1.286-.926.207-.335.219-.75.226-1.143.027-1.826.057-3.651.085-5.474.02-1.307-.417-3.695.576-4.667 1.27-1.245 5.356-1.703 7.045-1.134 1.984.668 2.85 2.636 3.556 4.443 1.166 2.994 2.374 6.253 2.106 9.516"/>
    <path fill="#FFFFFE" d="M26.007 190.14c-1.189 2.462-2.385 4.972-2.823 7.67-.429 2.658-.101 5.37.256 8.037a377.39 377.39 0 0 0 9.128 46.127c.272 1.034.664 2.205 1.655 2.618.583.24 1.245.152 1.867.053a79.494 79.494 0 0 0 7.826-1.655l-4.4-40.653c-.181-1.696-.366-3.422-.03-5.093.342-1.713 1.206-3.268 2.073-4.78a241.727 241.727 0 0 1 13.424-20.858c.912-1.27 1.848-2.553 2.401-4.017.583-1.544.71-3.217.811-4.865.31-5.043 3.536-32.508-4.54-33.15-3.94-.314-7.637 10.52-9.098 13.36a1668.157 1668.157 0 0 0-18.55 37.207"/>
    <path fill="#B4C2D9" d="m231.136 142.68-35.104 15.093c-1.004.431-2.14-.564-1.954-1.733 1.44-9.039 4.731-29.567 4.75-29.41l-8.09-18.459 8.396-3.574 8.087 17.804c.122.27.304.495.542.659 1.4.968 6.616 4.577 9.193 6.478l14.297 10.551c.934.692.867 2.167-.117 2.59"/>
    <path fill="#B4C2D9" d="m200.559 105.505-9.998 4.3a1.315 1.315 0 0 1-1.726-.689l-.463-1.076a1.313 1.313 0 0 1 .69-1.724l9.996-4.298a1.31 1.31 0 0 1 1.724.687l.463 1.076a1.31 1.31 0 0 1-.686 1.724"/>
    <path fill="#675E50" d="M204.105 120.211c.45.747.872 1.733.348 2.43-.592.785-1.825.488-2.712.062-1.088-.519-2.13-1.155-3.176-1.724-.885 1.27-3.346 5.314-5.43 4.25-1.488-.763-.792-3.833-.449-5.01.597-2.036 2.669-5.481 4.69-6.307 2.994-1.219 5.3 3.92 6.73 6.3"/>
    <path fill="#675E50" d="M203.884 114.214c1.272-.968 3.077-1.412 4.496-.67.712.373 1.261 1.007 1.683 1.691.963 1.56 1.343 3.404 1.615 5.218.314 2.111.503 4.239.567 6.37.012.397.014.812-.168 1.162-.304.578-1.01.802-1.648.938a20.927 20.927 0 0 1-6.692.339c-.388-.044-.79-.106-1.097-.346-.335-.265-.487-.691-.613-1.1-1.508-4.807-2.688-10.145 1.857-13.602"/>
    <path fill="#984E4B" d="M107.168 427.097c.56-.175.48-.915.495-1.466.042-1.286 1.265-2.32 2.59-2.662 1.326-.341 2.731-.143 4.089.055 1.074.16 2.145.316 3.22.475.456.067.926.138 1.318.367.43.246.72.654 1.023 1.032 2.24 2.796 5.697 4.469 9.08 5.946a178.31 178.31 0 0 0 20.322 7.433c1.217.364 2.652.94 2.814 2.127.136.994-.738 1.846-1.625 2.409-2.938 1.864-6.628 2.318-10.173 2.523-12.887.745-25.945-1.175-37.97-5.58-.452-.165-.922-.347-1.242-.69-.334-.356-.459-.837-.56-1.3a21.98 21.98 0 0 1-.403-6.613c.15-1.64.659-3.632 2.032-4.775 2.268-1.888 2.828 1.399 4.99.719M60.083 430.3c.564-.15.516-.892.56-1.442.097-1.282 1.366-2.264 2.705-2.545 1.337-.28 2.734-.023 4.082.238l3.194.615c.454.088.92.18 1.302.424.417.267.691.687.977 1.079 2.113 2.89 5.492 4.717 8.806 6.342a178.423 178.423 0 0 0 19.971 8.325c1.201.417 2.612 1.058 2.72 2.25.092.997-.82 1.813-1.73 2.334-3.02 1.733-6.723 2.023-10.275 2.072-12.908.17-25.866-2.326-37.684-7.258-.447-.186-.908-.387-1.212-.744-.318-.371-.422-.857-.503-1.325a21.938 21.938 0 0 1-.108-6.624c.223-1.632.818-3.598 2.242-4.68 2.349-1.785 2.763 1.522 4.953.94"/>
    <path fill="#4F433B" d="M80.001 81.621c1.9 2.999 3.199 6.151 5.471 8.207.952 1.033 2.913 1.763 3.787 3.923.975 2.293-.892 4.162-3.104 4.178 4.065-2.751.562-4.19-2.25-6.411-2.72-2.62-3.742-6.283-3.904-9.897"/>
    <path fill="#343534" d="M383.471 79.02c.583 1.262.39 2.594-.43 2.972-.821.38-1.96-.336-2.543-1.6-.583-1.262-.392-2.594.431-2.972.82-.38 1.959.336 2.542 1.6m-10.246 5.457c.694 1.277.664 2.634-.067 3.03-.73.4-1.887-.313-2.581-1.59-.696-1.274-.666-2.632.064-3.03.733-.4 1.888.313 2.584 1.59"/>
    <path fill="#E1AFA4" d="M375.278 81.942c2.206 2.242 3.826 5.107 3.754 8.391-.36 3.058-1.705 5.884 2.333 5.257-1.346 1.434-3.704 1.399-4.531-.63-.814-1.907-.049-3.565-.104-4.724.15-2.56-.912-5.26-1.452-8.294"/>
    <path fill="#F7C364" d="m376.974 74.198-.601.018c-.205-.127-.226-.415-.194-.652.212-1.579 1.74-2.747 3.319-2.962 1.576-.214 3.164.346 4.563 1.111.726.397.784 1.243-.131 1.392-.729.122-3.794-.27-6.956 1.093m-6.028 3.346.302-.34-.242-.485c-.918-.777-2.266-.548-3.144.254-.88.802-1.364 2.05-1.652 3.305-.15.652.258 1.166.781.719.42-.358 1.712-2.377 3.955-3.453"/>
    <path fill="#E1AFA4" d="M381.208 100.9c4.47-.512 8.015-3.572 10.68-7.02.737 4.881-6.476 10.214-10.68 7.02"/>
    <path fill="#2D2118" d="M69.416 77.938c.242-.03.505-.117.618-.332.134-.248-.016-.55-.189-.772-1.138-1.468-3.365-1.751-5.082-1.04-1.717.71-2.986 2.207-3.947 3.797-.5.825-.063 1.712.947 1.33.804-.307 3.666-2.499 7.653-2.983m14.48-5.084-.601.078c-.233-.106-.31-.394-.325-.636-.097-1.601 1.216-2.924 2.77-3.293 1.55-.369 3.265.04 4.828.666.811.327 1.037 1.168.143 1.41-.712.192-3.886.102-6.815 1.775"/>
    <path fill="#F2F1F0" d="m100.169 81.133-15.522 5.24a2.778 2.778 0 0 1-3.523-1.744l-1.745-5.17a2.781 2.781 0 0 1 1.745-3.524l15.521-5.24a2.781 2.781 0 0 1 3.524 1.744l1.744 5.172a2.779 2.779 0 0 1-1.744 3.522"/>
    <path fill="#AB2430" d="M82.38 76.73a2.566 2.566 0 0 0-1.607 3.248l1.146 3.395a2.564 2.564 0 0 0 3.247 1.606l13.747-4.64a2.566 2.566 0 0 0 1.606-3.247l-1.145-3.394a2.567 2.567 0 0 0-3.248-1.61L82.38 76.732Zm17.272 5.8-13.746 4.64a4.88 4.88 0 0 1-6.177-3.057l-1.145-3.395a4.878 4.878 0 0 1 3.058-6.177L95.387 69.9a4.88 4.88 0 0 1 6.176 3.059l1.145 3.397a4.878 4.878 0 0 1-3.056 6.174Z"/>
    <path fill="#F2F1F0" d="M74.5 89.8 58.98 95.04a2.777 2.777 0 0 1-3.524-1.745l-1.747-5.17a2.781 2.781 0 0 1 1.745-3.524l15.524-5.24c1.454-.492 3.03.29 3.52 1.744l1.748 5.172A2.782 2.782 0 0 1 74.5 89.8"/>
    <path fill="#AB2430" d="M56.711 85.396a2.564 2.564 0 0 0-1.606 3.245l1.145 3.397a2.564 2.564 0 0 0 3.245 1.607l13.75-4.642a2.564 2.564 0 0 0 1.606-3.245l-1.148-3.395a2.563 2.563 0 0 0-3.245-1.608l-13.747 4.641Zm17.27 5.797-13.746 4.641a4.877 4.877 0 0 1-6.174-3.058l-1.145-3.395a4.877 4.877 0 0 1 3.055-6.174l13.747-4.642a4.876 4.876 0 0 1 6.174 3.059l1.148 3.394a4.878 4.878 0 0 1-3.058 6.175Z"/>
    <path fill="#AB2430" d="M77.798 84.546c-.498.168-1.007.311-1.523.43l-.519-2.249a13.432 13.432 0 0 0 3.538-1.357l1.12 2.024c-.834.463-1.71.845-2.616 1.152"/>
    <path fill="#4F433B" d="M93.903 102.103c-2.282 5.598-12.643 7.984-17.29 4.275 5.863.282 12.289-1.08 17.29-4.275"/>
  </g>
</svg>
