<svg xmlns="http://www.w3.org/2000/svg" xmlns:xlink="http://www.w3.org/1999/xlink" width="488" height="429" viewBox="0 0 488 429">
  <defs>
    <path id="a" d="M44.06 6.138c.93-1.973 2.015-3.891 3.508-5.484 1.204-1.287 1.614-.47 2.635.692a20.486 20.486 0 0 1 2.076 2.838c2.538 4.15 3.704 9.029 4.24 13.821.553 4.932.52 9.908.429 14.87a635.191 635.191 0 0 1-1.66 35.576c-.16 2.126-.376 4.38-1.656 6.088-.973 1.296-2.451 2.114-3.942 2.744-4.743 2.01-9.984 2.503-15.132 2.658A127.848 127.848 0 0 1 2.012 76.74c-.473-.108-.982-.243-1.282-.625-.27-.345-.306-.816-.33-1.255L0 67.54c6.158.316 12.22-1.027 18.2-2.317 2.971-.641 16.782-3.975 16.791-4.155.082-1.715.015-3.437-.03-5.152-.09-3.446-.455-7.054-.155-10.47.38-4.343.886-8.675 1.586-12.977 1.393-8.568 3.572-17.048 7.07-25.011a64.3 64.3 0 0 1 .598-1.32"/>
    <path id="c" d="M26.769 4.098c-7.354-.102-19.761 1.383-23.947 7.455-1.72 2.493-2.34 5.58-2.623 8.598a46.446 46.446 0 0 0 3.385 22.165c1.224 2.927 2.805 5.79 5.207 7.853 5.504 4.72 13.63 4.1 20.813 3.212l53.914-6.652c3.93-.485 8.122-1.084 11.088-3.716 3.383-3.003 4.306-7.851 5.03-12.327.871-5.373 1.744-10.82 1.19-16.236-.47-4.597-2.7-13.023-7.807-14.374-1.482-.39-15.306.793-30.384 1.976C48.954 3.127 34.239 4.2 26.769 4.098"/>
  </defs>
  <g fill="none" fill-rule="evenodd">
    <path fill="#E9E0D7" d="M466.643 325H148.355C136.562 325 127 315.408 127 303.578V21.422C127 9.592 136.562 0 148.355 0h318.288C478.438 0 488 9.592 488 21.422v282.156c0 11.83-9.562 21.422-21.357 21.422"/>
    <path fill="#636463" d="M243.047 308.16c-.123 9.34-.002 28.91.335 29.458.293.48 6.351 2.598 9.248.406 2.12-11.016 3.247-19.008 5.37-30.024l-14.953.16M395.532 341c.995 9.187 2.714 28.474 2.439 29.045-.241.502-5.924 3.173-8.94 1.293-3.093-10.646-4.938-18.41-8.031-29.056L395.532 341m-123.486 5.16c-.121 9.34 0 28.91.335 29.459.293.48 6.353 2.597 9.248.406 2.123-11.018 3.25-19.01 5.371-30.025"/>
    <path fill="#63BC9F" d="M358.392 111.968c11.264-4.506 24.055-3.353 35.726-.052 11.607 3.285 23.335 9.274 29.058 19.917 6.95 12.928 3.233 28.869-1.716 42.695-5.286 14.769-11.804 29.1-16.356 44.113-11.999 39.559-9.83 82.146-1.993 122.791.344 1.783-.974 3.448-2.786 3.505l-128.591 4.037c-1.677.054-3.426.091-4.945-.62-1.62-.759-2.745-2.258-3.804-3.702-5.59-7.613-11.177-15.227-16.765-22.84-1.18-1.607-2.385-3.264-2.902-5.19-.56-2.083-.268-4.289.027-6.426l7.658-55.375a678.715 678.715 0 0 0 69.993 2.884 411.966 411.966 0 0 1 .148-72.464c1.695-18.784 5.301-37.705 15.492-53.959 5.251-8.374 12.477-15.601 21.756-19.314"/>
    <path fill="#3EB28C" d="m267.087 348-.064-.022c-1.604-.763-2.721-2.275-3.77-3.726L248 323.132c6.565-13.713 14.098-28.551 18.065-44.132 7.44.524 14.553.808 21.529.856.423.888.888 1.754 1.406 2.579a121.7 121.7 0 0 0-5.408-.14c-5.94 0-11.326.668-15.257 3.364-4.478 23.252-4.892 38.865-1.248 62.341"/>
    <path fill="#917E70" d="M212.04 346c-7.284 7.348-17.388 10.966-27.153 14.298-2.556.871-5.157 1.76-7.342 3.354-.558.406-1.104.882-1.373 1.522-.476 1.136.089 2.507 1.041 3.287.948.78 2.195 1.08 3.406 1.26 3.768.562 7.602.165 11.39-.23 2.954-.31 5.908-.62 8.862-.928 2.243-.235 4.488-.47 6.726-.768.813-.109 1.63-.224 2.448-.18 1.02.055 2.006.359 3.008.542 1.975.361 16.726.542 17.248-1.454 1.456-5.655.387-10.87-.935-16.56-.09-.388-.19-.791-.437-1.104-.272-.345-.687-.538-1.095-.702-4.128-1.656-8.72-1.457-13.164-1.544l-.294-.135.172-.061"/>
    <path fill="#BBAE92" d="M218.04 348c-7.284 7.348-17.388 10.966-27.153 14.298-2.556.871-5.157 1.76-7.342 3.354-.558.406-1.104.882-1.373 1.522-.476 1.136.089 2.507 1.04 3.287.95.78 2.196 1.08 3.407 1.26 3.768.562 7.602.165 11.39-.23 2.954-.31 5.908-.62 8.862-.928 2.243-.235 4.488-.47 6.726-.768.813-.109 1.63-.224 2.448-.18 1.02.055 2.006.359 3.008.542 1.975.361 16.726.542 17.248-1.454 1.456-5.655.387-10.87-.935-16.56-.09-.388-.19-.791-.437-1.104-.272-.345-.687-.538-1.095-.702-4.128-1.656-8.72-1.457-13.164-1.544l-.294-.135.172-.061"/>
    <path fill="#465266" d="M238.37 245.133c-1.32.408-2.612.897-3.865 1.499-2.842 1.366-5.458 3.42-7.247 6.043-2.023 2.962-1.834 5.594-2.314 8.919-1.246 8.638-2.785 17.244-4.175 25.86-2.783 17.239-5.568 34.48-8.35 51.718L211 347.965a38.063 38.063 0 0 0 20.071 1.228 853.03 853.03 0 0 0 15.763-76.392 375.054 375.054 0 0 0 74.126-12.564c6.19-1.702 12.843-3.925 16.393-9.296 3.187-4.821 3.094-11.143 1.817-16.788A46.387 46.387 0 0 0 331.346 217c-7.134 1.461-14.402 3.52-21.586 4.544-6.984.994-12.459 2.136-18.673 5.857-5.722 3.425-11.098 7.532-17.283 10.014-3.054 1.225-6.254 2.035-9.461 2.76a203.287 203.287 0 0 1-14.198 2.685c-3.95.601-7.976 1.102-11.775 2.273"/>
    <path fill="#5B6A84" d="M257.559 249.127c-3.625.964-7.443 2.039-10.04 4.755-2.232 2.33-3.243 5.544-4.185 8.635-8.779 28.817-17.555 57.633-26.334 86.449a37.927 37.927 0 0 0 19.65 3.94c4.297-20.67 22.618-45.762 29.697-73.155 24.95 1.733 46.228.815 71.023-2.47 6.342-.84 13.209-2.13 17.437-6.95 3.797-4.33 4.556-10.582 4.055-16.33A46.287 46.287 0 0 0 353.45 236l-21.313 1.397c-6.525.427-13.34 1.48-19.874.943-4.077-.334-7.722-1.292-11.842-.53-6.726 1.248-13.386 3.472-19.996 5.231-7.62 2.028-15.22 4.165-22.866 6.086"/>
    <path fill="#8A8B8A" d="m297.285 255.267-49.671 2.73a1.823 1.823 0 0 1-1.456-.597l-21.555-23.915c-1.007-1.118-.753-5.269.762-5.353l46.43-.13c.499-.027.988.15 1.35.49l25.288 21.353c1.151 1.078.44 5.334-1.148 5.422"/>
    <path fill="#B4B5B4" d="m297.282 252.265-49.766 2.732a1.832 1.832 0 0 1-1.46-.597l-21.595-23.917c-1.009-1.116-.26-2.885 1.258-2.967l46.022-2.513c.502-.028.99.15 1.355.49l25.336 23.697c1.154 1.077.439 2.99-1.15 3.075"/>
    <path fill="#777776" d="m290.41 250.056-30.215 1.943c-.365.02-2.014-.332-2.26-.645l-15.625-18.266c-.67-.856-.186-2.199.813-2.254L271.568 229c.33-.019 1.614.305 1.857.565l18.311 18.076c.766.827-.277 2.357-1.325 2.414"/>
    <path fill="#8A8B8A" d="m246.792 254.628-21.376-24.47-.659-1.46-16.708-44.92c-.427-1.2 2.05-2.324 3.018-1.49l20.354 19.221c.986 1.055 1.988 3.026 2.055 3.246l15.465 48.452c.39 1.264-1.256 2.405-2.149 1.42"/>
    <path fill="#B4B5B4" d="m246.51 254.634-22.1-24.49-.657-1.459-15.677-45.036c-.426-1.196 1.036-2.173 2.003-1.336l20.327 19.205c.986 1.054 1.986 3.024 2.056 3.244l15.444 48.414c.39 1.262-.504 2.444-1.396 1.458"/>
    <path fill="#50341D" d="M308 128.433c3.98 12.633-.522 26.445 1.372 39.567 2.56-1.696 5.121-3.39 7.68-5.084.408-.271.832-.557 1.07-.988.188-.346.238-.75.286-1.142.378-3.188 23.191-7.31 23.57-10.497.458-3.881-6.16-25.883-7.067-29.682-.49-2.049-5.933 1.463-11.428 4.976-4.695 3-9.427 6-11.144 5.533L308 128.433"/>
    <path fill="#CAAB9C" d="M267.404 224.355a29.107 29.107 0 0 0-4.772-1.179c-1.005-.16-2.038-.267-3.033-.067-1.173.232-2.22.87-3.216 1.528a53.536 53.536 0 0 0-7.658 6.152c-.44.427-.908 1.032-.652 1.586.18.39.643.553 1.061.663 6.138 1.632 12.628.86 18.932.075 2.311-.289 4.623-.576 6.934-.863-.19.024-1.984-5.336-2.5-5.958-1.08-1.303-3.563-1.417-5.096-1.937"/>
    <path fill="#E5746F" d="M317.52 173.74c-.537-4.814-1.7-9.71-4.234-13.881-.61-1.005 1.4-1.246.625-2.132-1.017-1.167-.947-2.486-2.15-1.195-1.49 1.601-2.77.797-6.505 7.743-4.128 7.683-6.442 15.387-7.833 23.991-.699 4.32-1.202 8.671-1.583 13.032-.3 3.433.065 7.054.155 10.516.045 1.722.113 3.454.03 5.176-.008.18-13.799 3.526-16.766 4.17-2.216.483-4.446.97-6.686 1.378-2.366 4.221-3.098 7.813-2.205 11.628 8.325 1.422 16.786 2.035 25.224 1.776 5.142-.156 10.373-.65 15.11-2.668 1.489-.635 2.963-1.456 3.934-2.757 1.278-1.713 1.495-3.977 1.654-6.115a639.782 639.782 0 0 0 1.657-35.728c.093-4.983.124-9.982-.427-14.934"/>
    <g transform="translate(261 156)">
      <mask id="b" fill="#fff">
        <use xlink:href="#a"/>
      </mask>
      <path fill="#805053" d="M30.7 80c-2.823 0-5.646-.094-8.464-.281l-.005-.004a126.896 126.896 0 0 0 12.212.225c2.388-.073 4.794-.217 7.162-.551v.017c-2.33.322-4.698.465-7.047.535-1.286.04-2.572.06-3.857.06" mask="url(#b)"/>
      <path fill="#A26C66" d="M22.236 79.719c-1.276-.085-2.55-.19-3.823-.312l-.008-.005c1.275.122 2.55.228 3.826.313l.005.004" mask="url(#b)"/>
      <path fill="#8F5F5B" d="M18.413 79.407c-3.087-.298-6.16-.708-9.215-1.229-.002 0-.002-.002-.002-.003 3.055.517 6.127.927 9.21 1.227l.007.005" mask="url(#b)"/>
      <path fill="#7E453A" d="m50.07 1.385.094-.084.003.006c-.031.026-.064.052-.098.078" mask="url(#b)"/>
      <path fill="#AF5956" d="M30.671 79.997a126.896 126.896 0 0 1-12.266-.595c-3.082-.3-6.154-.71-9.209-1.227a13.332 13.332 0 0 1-.319-4.168c4.46.45 8.926.766 13.389.766 2.816 0 5.632-.126 8.44-.421 2.34-.247 4.702-.621 6.855-1.57.53-.234 1.069-.525 1.369-1.018.31-.505.313-1.131.307-1.723-.116-12.367-.522-24.766.634-37.08.433-4.61 1.091-9.198 2.054-13.725.871-4.09 1.83-7.329 3.728-11.053 1.07-2.1 2.445-5.045 4.416-6.798.034-.026.067-.052.098-.078.002 0 .004.002.004.003-4.535 4.708-6.54 12.058-7.529 18.734-.92 6.202-1.089 12.487-1.196 18.755a968.906 968.906 0 0 0 .159 40.59c-2.368.334-4.774.478-7.162.55-1.258.04-2.514.058-3.772.058" mask="url(#b)"/>
    </g>
    <path fill="#3EB28C" d="M356.247 237c.223-.076.445-.152.667-.23l-.077-.142a3.7 3.7 0 0 1 .105-.037c-8.818-16.332-11.124-35.472-9.613-53.905.476-5.8 1.305-11.697.066-17.387a21.868 21.868 0 0 0-.141-.606c-.222-2.89 1.408-6.216-.496-8.39a6.22 6.22 0 0 0-.758-.72l1.746-17.847c2.764-3.036 5.606-6.136 9.262-8.053 2.002-1.05 4.316-1.683 6.575-1.683 1.867 0 3.696.433 5.28 1.418 2.309 1.434 3.813 3.826 5.021 6.234 5.532 11.016 6.463 23.715 6.02 35.996a178.36 178.36 0 0 1-9.945 52.537c-1.494 4.255-3.186 8.516-5.77 12.212-2.44.18-5.117.385-7.942.603"/>
    <path fill="#CAAB9C" d="M314.95 140.605c1.966 3.81 1.651 10.875-.807 14.396-.442.635-1.887 2.203-2.064 2.953-.11.458-.083.936-.051 1.405A121.57 121.57 0 0 0 314.701 178a66.82 66.82 0 0 0 15.868-8.81c2.598-1.948 5.173-4.277 6.015-7.381.72-2.656.486-5.587-.541-8.143-2.388-5.943-4.511-13.42-5.148-20.666-4.262 4.99-9.012 7.103-15.639 7.092l-.307.513"/>
    <path fill="#6F513C" d="M316.267 147a17.222 17.222 0 0 0-1.267-6.408l.067-.11c.873 1.731 1.269 4.12 1.2 6.518M332 140.904a69.893 69.893 0 0 1-.51-2.48c.17.733.343 1.525.51 2.48m-6.757-3.32c1.882-1.131 3.606-2.652 5.286-4.584.005.072.013.144.02.215-1.663 1.873-3.404 3.315-5.306 4.37"/>
    <path fill="#AE9185" d="M315.907 151c.206-1.27.298-2.483.291-3.647.069-2.498-.326-4.985-1.198-6.787l.236-.404h.046c3.896 0 7.062-.85 9.875-2.613 1.899-1.098 3.637-2.6 5.296-4.549.214 2.328.568 3.728.94 5.424.155.863.325 1.725.509 2.581.033.199.066.406.098.62-4.543 5.068-9.002 8.102-16.093 9.375"/>
    <path fill="#CAAB9C" d="M301.838 101.789a27.965 27.965 0 0 0-.492 5.685 78.74 78.74 0 0 1-.154 6.353c-.146 2.171-.727 4.307-.987 6.473-.842 7.007.93 14.297 4.89 20.13.529.778 1.124 1.556 1.957 1.992.72.376 1.553.46 2.363.51a36.312 36.312 0 0 0 19.906-4.557c2.146-1.204 4.216-2.677 5.587-4.727.974-1.457 1.552-3.142 1.992-4.838 2.343-9.024.9-18.975-3.91-26.954-3.233-5.367-7.977-10.288-13.606-13.108-1.14-.57-2.633-1.452-3.875-1.7-1.316-.262-3.022.605-4.168 1.183-2.698 1.355-4.983 3.508-6.6 6.053-1.45 2.281-2.39 4.844-2.903 7.505"/>
    <path fill="#E5746F" d="M316.705 173.847c-2.257-6.059-3.04-12.432-2.773-18.896-6.762 4.178-9.416 13.171-10.602 21.186-.916 6.176-1.084 12.434-1.19 18.677a967.19 967.19 0 0 0 .219 42.757c17.22 5.973 36.464 5.902 53.641-.198-8.645-16.304-10.906-35.413-9.425-53.816.466-5.792 1.28-11.68.066-17.359-.652-3.05 1.443-6.792-.597-9.163-2.189-2.544-8.656-4.525-11.422-6.035-1.887 3.421-6.32 8.543-9.043 11.524a95.116 95.116 0 0 0-8.874 11.323"/>
    <path fill="#936E5E" d="M356.895 237c-8.692-16.316-10.965-35.415-9.468-53.81.472-5.806 1.297-11.708.067-17.402a5.856 5.856 0 0 1-.112-.788c.049.202.097.403.14.607 1.23 5.695.407 11.598-.065 17.402-1.5 18.45.79 37.607 9.543 53.954l-.105.037"/>
    <path fill="#AF5956" d="M313.475 240a79.744 79.744 0 0 1-11.24-2.991c-.192-6.996-.196-4.939-.235-11.938.942.142 1.895.21 2.859.21 8.756 0 18.314-5.422 26.569-7.677.24 1.64.124 2.175.333 3.213.015-.132.024-.394-.107-1.29.031-.009.062-.018.092-.03-2.957-20.507 4.554-51.141 6.664-65.497 1.515.747 2.936 1.583 4.235 3.089 1.912 2.218 3.222 4.966 3.921 7.808.02.266.056.529.111.788 1.22 5.69.402 11.588-.066 17.39-1.484 18.383.77 37.47 9.389 53.775-.41.144-.823.287-1.236.424-2.89.229-5.927.47-9.017.712-11.73.915-24.22 1.833-32.272 2.014"/>
    <path fill="#50341D" d="M333.009 113.481c2.29 6.004 3.032 12.485 3.48 18.9 1.159 16.55.457 33.406-4.168 49.326 2.028-.607 3.969-.707 6.056-.78 1.74-.059 3.158-.753 4.77-.955 4.525-.567 11.144 2.606 15.59 3.795.787.212 1.68.408 2.37-.028.438-.278.703-.76.927-1.233 2.355-4.977 2.24-10.776 1.478-16.239-1.722-12.37-6.473-24.303-6.732-36.794-.293-14.094 3.392-30.741-8.027-41.647-3.6-3.44-10.896-5.765-15.746-6.798-4.85-1.032-9.85-1.1-14.805-.989-1.69.039-2.301.29-3.858.952-1.557.662-2.904 1.61-3.059 3.307-1.814-.258-3.784 1.573-4.698 2.867-.913 1.293-.61 4.268-.108 5.841 2.075-2.424 3.386-4.079 7.102-5.527.353-.14 16.61 18.616 19.428 26.002"/>
    <path fill="#95CDB0" d="M375.037 346c-.01-.122-.024-.245-.037-.369l6.409-.19c.037.123.075.244.11.366l-6.482.193m20.786-.62a241.02 241.02 0 0 0-.04-.37l4.513-.133c1.276-.04 2.309-.825 2.704-1.877-.272 1.234-1.392 2.208-2.815 2.249l-4.362.13"/>
    <path fill="#8DC2A3" d="M404 222a170.17 170.17 0 0 1 1.023-3.52c4.539-15.04 11.036-29.397 16.307-44.193A130.88 130.88 0 0 0 424 166c-.822 2.95-1.775 5.855-2.779 8.674-5.27 14.795-11.768 29.153-16.307 44.193-.315 1.042-.62 2.086-.914 3.133"/>
    <path fill="#688F7D" d="M382.107 345.445c-.034-.136-.07-.272-.107-.41l13.962-.48.038.412-13.893.478"/>
    <path fill="#3EB28C" d="M375.056 346c-2.037-21.051-3.357-42.268-2.997-63.356 2.186-.537 4.248-1.374 5.921-2.85 3.416-3.008 4.348-7.867 5.079-12.352.88-5.385 1.761-10.844 1.202-16.27-.418-4.059-2.216-11.1-6.167-13.641a6.046 6.046 0 0 0-1.974-.936 1.262 1.262 0 0 0-.177-.034c4.221-26.19 12.247-51.829 26.012-76.325 6.756-13.468 7.852-32.554.295-45.236 8.65 3.575 16.516 8.973 20.894 17.065 5.582 10.318 4.34 22.552 1.081 34.105a129.883 129.883 0 0 1-2.7 8.29c-5.33 14.799-11.902 29.16-16.493 44.202a168.78 168.78 0 0 0-1.034 3.522c-11.054 38.748-8.78 80.25-1.087 119.906.08.405.073.803-.007 1.178a2.948 2.948 0 0 1-2.69 1.948l-4.487.14-14.297.445-6.374.199"/>
    <path fill="#CAAB9C" d="M302.108 229.985a29.286 29.286 0 0 0-4.67-1.616c-.99-.25-2.013-.448-3.028-.338-1.195.129-2.3.678-3.355 1.254a53.555 53.555 0 0 0-8.214 5.513c-.479.39-1.002.957-.794 1.54.145.41.594.614 1.002.763 5.993 2.192 12.558 1.993 18.934 1.766l7.017-.25c-.195.007-1.507-5.552-1.968-6.225-.961-1.41-3.437-1.748-4.924-2.407"/>
    <path fill="#E5746F" d="M340.189 165.385c1.371-.952 3.073-1.377 4.748-1.385 1.053-.005 2.116.151 3.09.55 1.68.691 2.987 2.061 4.067 3.518 4.331 5.842 4.828 13.77 5.658 20.782a626.356 626.356 0 0 1 3.171 35.281c.13 2.12.22 4.37-.819 6.224-.788 1.409-2.142 2.414-3.534 3.238-4.431 2.619-9.557 3.81-14.64 4.658a128.735 128.735 0 0 1-32.692 1.23c-.482-.044-1.005-.107-1.353-.443-.317-.304-.415-.763-.497-1.193L306 230.687c6.145-.52 11.974-2.661 17.725-4.737 2.86-1.033 16.097-6.178 16.082-6.357-.278-3.123-1.72-10.234-2.087-14.077-.62-6.507-1.049-13.04-.997-19.58.03-3.77.147-7.542.452-11.301.26-3.209-.014-7.048 2.886-9.16l.128-.09"/>
    <path fill="#63BC9F" d="M310.769 240.097c-7.354-.102-19.761 1.384-23.947 7.455-1.719 2.492-2.34 5.58-2.623 8.598a46.457 46.457 0 0 0 3.385 22.167c1.225 2.925 2.805 5.79 5.207 7.851 5.504 4.723 13.63 4.1 20.813 3.214l53.914-6.654c3.93-.485 8.122-1.082 11.088-3.716 3.383-3.003 4.306-7.851 5.03-12.327.871-5.372 1.744-10.82 1.19-16.235-.47-4.598-2.7-13.024-7.807-14.373-1.482-.393-15.306.791-30.384 1.976-13.681 1.073-28.396 2.148-35.866 2.044"/>
    <g transform="translate(284 236)">
      <mask id="d" fill="#fff">
        <use xlink:href="#c"/>
      </mask>
      <path fill="#3EB28C" d="M21.448 54c-4.196 0-8.27-.687-11.574-2.993 3.258 2.167 7.232 2.819 11.319 2.819 2.728 0 5.506-.291 8.156-.617 17.971-2.219 35.942-4.435 53.915-6.654 1.82-.224 3.697-.473 5.484-.938l-.006.24c-1.707.422-3.49.657-5.224.872l-53.914 6.652c-2.65.328-5.428.62-8.156.62" mask="url(#d)"/>
      <path fill="#1EAD84" d="m88.742 45.856.006-.239c2.067-.537 4.012-1.366 5.603-2.778 3.384-3.003 4.307-7.851 5.03-12.327.871-5.372 1.744-10.82 1.19-16.235-.405-3.962-2.116-10.77-5.852-13.44 3.913 2.536 5.694 9.563 6.107 13.613.554 5.415-.319 10.863-1.19 16.236-.724 4.476-1.647 9.324-5.03 12.327-1.657 1.472-3.699 2.308-5.864 2.843" mask="url(#d)"/>
      <path fill="#3EB28C" d="M21.193 53.826c-4.087 0-8.06-.652-11.319-2.82a13.559 13.559 0 0 1-1.083-.837c-2.402-2.063-3.983-4.926-5.207-7.853a29.674 29.674 0 0 1-.257-.624c2.804 1.658 5.977 2.76 9.183 3.375 2.965.57 5.973.761 8.995.761 2.682 0 5.375-.152 8.05-.324 16.287-1.053 32.65-2.9 48.21-7.847 3.25-1.035 6.553-2.256 9.07-4.564 6.691-6.134 6.712-16.716 6.732-25.045.005-1.748-.048-4.717.26-7.69.308.133.606.296.892.48 3.736 2.669 5.447 9.477 5.853 13.44.553 5.413-.32 10.862-1.19 16.234-.724 4.476-1.647 9.324-5.03 12.327-1.592 1.412-3.537 2.24-5.604 2.778-1.787.465-3.664.714-5.484.938-17.973 2.219-35.944 4.435-53.915 6.654-2.65.326-5.428.617-8.156.617" mask="url(#d)"/>
    </g>
    <path fill="#F6BD48" d="M42 71h5v-6h-5zM50 71h8.749v-6H50v6Zm12.25 0H71v-6h-8.75v6ZM74 70.576h8.657V65H74v5.576Zm12.12 0h8.659V65H86.12v5.576Zm12.123 0h8.656V65h-8.656v5.576Zm12.12 0h8.657V65h-8.657v5.576Zm12.12 0h8.657V65h-8.656v5.576Zm12.121 0h8.658V65h-8.658v5.576Zm12.12 0h8.657V65h-8.657v5.576Zm12.12 0h8.657V65h-8.656v5.576Zm12.121 0h8.659V65h-8.659v5.576Zm12.12 0h8.66V65h-8.66v5.576Zm20.27.234a14.923 14.923 0 0 0-2.628-.234h-5.519V65h5.519c1.214 0 2.428.11 3.612.322l-.984 5.488Zm8.636 5.028a14.79 14.79 0 0 0-5.845-4.229l2.05-5.183a20.38 20.38 0 0 1 8.05 5.824l-4.255 3.588Zm3.45 9.402a14.806 14.806 0 0 0-1.804-6.994l4.874-2.682a20.427 20.427 0 0 1 2.489 9.64l-5.56.036Zm0 12.135H221v-8.681h-5.56v8.681Zm0 12.16H221v-8.684h-5.56v8.683Zm0 12.153H221v-8.682h-5.56v8.682Zm0 12.155H221v-8.682h-5.56v8.682Zm0 12.157H221v-8.683h-5.56V146ZM215 154h6v-5h-6z"/>
    <path fill="#F6BD48" d="m209 143 9.5 9.2 9.5-9.2v7.806L218.5 160l-9.5-9.194V143"/>
    <path fill="#9D679D" d="M100.006 27 100 22.01l5.994-.01.006 4.99-5.994.01M100.016 40.589l-.016-9.58 5.96-.009.016 9.58-5.96.009ZM100.04 54l-.016-9.58 5.96-.009.016 9.58-5.96.009Zm-.025 13.623L100 58.009l5.585-.009.015 9.613-5.585.01Zm.02 13.458-.013-9.612 5.586-.009.013 9.612-5.586.009Zm.023 13.46-.015-9.614 5.585-.009.015 9.614-5.585.009Zm.022 13.458-.017-9.613 5.586-.01.016 9.614-5.585.01Zm.02 13.458-.014-9.613 5.585-.008.015 9.612-5.585.01Zm.023 13.46-.017-9.615 5.586-.008.016 9.614-5.585.01Zm.02 13.457-.015-9.612 5.586-.01.015 9.614-5.586.008Zm.023 13.46-.017-9.614 5.585-.01.017 9.614-5.585.01Zm.02 13.458-.015-9.614 5.586-.01.015 9.614-5.586.01Zm.023 13.458-.017-9.612 5.585-.01.017 9.613-5.585.009Zm.02 13.46-.015-9.614 5.586-.009.014 9.614-5.585.009Zm1.592 14.349a20.116 20.116 0 0 1-1.58-7.855l-.006-2.65 5.585-.009.006 2.656c0 1.981.385 3.896 1.145 5.7l-5.15 2.158Zm10.748 10.8a20.406 20.406 0 0 1-8.577-6.913l4.552-3.223a14.82 14.82 0 0 0 6.231 5.021l-2.206 5.116ZM126.983 229h-6.378c-1.266 0-2.532-.117-3.761-.345l1.022-5.474c.895.167 1.817.252 2.74.252h6.377V229Zm3.858 0h9.646v-5.567h-9.646V229Zm13.504 0h9.646v-5.567h-9.646V229Zm13.503 0h9.646v-5.567h-9.646V229Zm13.506 0H181v-5.567h-9.646V229ZM184 229h5v-6h-5z"/>
    <path fill="#9D679D" d="m178 235 9.199-9.5L178 216h7.807l9.193 9.5-9.193 9.5H178"/>
    <path fill="#00A87B" d="M4.968 182 0 181.972.032 176l4.968.028L4.968 182M16.737 181.93 8 181.88l.03-5.88 8.736.049-.029 5.88Zm12.232.07-8.737-.051.031-5.88 8.737.05-.03 5.881Zm12.93.307L33 182.263l.03-5.263 8.9.044-.03 5.263Zm12.463.065-8.902-.046.031-5.263 8.9.046-.03 5.263Zm12.461.061-8.901-.044.03-5.263 8.9.044-.029 5.263Zm12.46.063-8.901-.045.031-5.263 8.9.045-.03 5.263Zm12.46.064-8.9-.046.03-5.263 8.902.045-.032 5.264Zm12.462.063-8.902-.046.03-5.263 8.902.046-.03 5.263Zm12.46.063-8.902-.046.032-5.263 8.902.046-.032 5.263Zm12.462.063-8.9-.045.028-5.264 8.9.046-.028 5.263Zm12.46.062-8.9-.044.028-5.263 8.901.043-.03 5.264Zm12.462.063-8.902-.046.032-5.263 8.9.046-.03 5.263Zm12.46.063-8.9-.044.03-5.263 8.9.044-.03 5.263Zm12.46.063-8.9-.046.03-5.263 8.901.046-.032 5.263ZM186.966 183l-4.966-.026.034-5.974 4.966.026-.034 5.974"/>
    <path fill="#00A87B" d="m176 189.957 9.222-9.427-9.125-9.53 7.786.043 9.117 9.53-9.217 9.427-7.783-.043"/>
    <path fill="#E9E0D7" d="M272.699 428.602h.602v-1.204h-.602z"/>
    <path fill="#343534" d="M321.89 111.862c-.363 1.367-1.503 2.311-2.545 2.111-1.043-.2-1.597-1.47-1.234-2.837.363-1.365 1.502-2.31 2.545-2.11 1.043.201 1.594 1.471 1.233 2.836m-14.943-2.593c-.22 1.65-1.045 2.867-1.844 2.719-.798-.15-1.268-1.609-1.048-3.259.22-1.65 1.046-2.866 1.844-2.717.798.148 1.268 1.607 1.048 3.257"/>
    <path fill="#93786F" d="M310.966 109c.178 3.34-.305 6.816-2.418 9.575-2.241 2.407-5.388 4.373-1.254 6.414-2.005.153-3.79-1.364-3.169-3.535.397-1.789 2.004-2.787 2.962-4.058 1.827-2.257 2.596-5.375 3.88-8.396"/>
    <path fill="#FFFFFE" d="M305.857 130.453c2.495.424 5.07.575 7.63.45.44-.023.936-.04 1.254.201.32.24.325.673.119.996-.206.321-.577.555-.953.755-2.253 1.196-5.397 1.426-7.933.826-1.1-.261-3.117-1.203-2.966-2.918.125-1.416 1.996-.454 2.849-.31"/>
    <path fill="#50341D" d="M318.53 104.09c-.21-.057-.43-.174-.506-.39-.087-.252.077-.52.253-.71 1.166-1.252 3.15-1.25 4.575-.367 1.426.884 2.372 2.458 3.036 4.084.344.844-.139 1.63-.983 1.144-.671-.388-2.935-2.816-6.376-3.76m-9.24-1.346c.186.04.41.04.562-.087.177-.148.17-.408.115-.613-.351-1.359-1.889-2.125-3.382-2.038-1.491.087-2.916.862-4.144 1.782-.637.479-.608 1.236.258 1.21.69-.02 3.51-.904 6.591-.254"/>
  </g>
</svg>