<svg width="302" height="277" viewBox="0 0 302 277" xmlns="http://www.w3.org/2000/svg">
  <g fill-rule="nonzero" fill="none">
    <rect fill="#F0E9E6" x="4.44" y="88.75" width="297.08" height="187.27" rx="11.54"/>
    <path d="M98.1 227.92a41.92 41.92 0 0 1-14.89 10.71c-.74.3-1.65.87-1.58 1.76.04.269.147.523.31.74 1.07 1.48 3 1.41 4.76 1.21 3.88-.46 7.83-1 11.43-2.93a8.81 8.81 0 0 1 1.86-.84 9.19 9.19 0 0 1 1.57-.16 10.6 10.6 0 0 0 4-1.13c.393-2.4.577-4.829.55-7.26a1.93 1.93 0 0 0-.21-1 1.35 1.35 0 0 0-1.09-.45l-4.85-.42c-.13 0-.3-.05-.33-.21-.03-.16.28-.19.21 0M134.57 238.9c.75.43 1.61 1.38 1.1 2.18a1.4 1.4 0 0 1-1.14.53 35.26 35.26 0 0 1-10.61-.41 7.37 7.37 0 0 1-3.5-1.33c-1.65-1-1.17-1.87-3.08-1.73a28.13 28.13 0 0 1-4.26-1.36 1.37 1.37 0 0 1-.32-1 32.56 32.56 0 0 1 .53-7.43c-.2 1 5.53-.18 5.91-.24 1.13-.17 1.27.32 2.16 1.24.89.92 1.54 1.52 2.35 2.22a69.66 69.66 0 0 0 10.86 7.33Z" fill="#7D4E24"/>
    <path d="M126.7 153.52a219.83 219.83 0 0 1-.09 33.85c-1.12 14.07-3.6 28-6.08 41.89-2.74 1.16-5.22.55-8-.45.3-19.52-1-36.35-.66-55.87-2.55 19.73-4.62 37.1-5.66 56.09-2.05 1.52-5.82.66-8.31.11-.3-.07-2.88-54.87.78-75.6a85.39 85.39 0 0 0 20 .25c.72-.08 1.66-.46 1.52-1.17" fill="#575756"/>
    <path d="M127.76 104.47a81.1 81.1 0 0 1 6.35 5.81 92.58 92.58 0 0 0 17.65 13.18 52.64 52.64 0 0 1-3.7 5.64c-9.36-4.14-17.4-10.87-26.79-15-.14-2-.3-3.98-.48-5.94-.16-1.83-.79-4.11-.57-5.93.36-2.99 6.31 1.29 7.54 2.24ZM99.96 103.88a81.1 81.1 0 0 0-6.35 5.81c-1.9 1.81-4 3.42-5.91 5.16a24.76 24.76 0 0 1-5.49 4.09 4.66 4.66 0 0 1-1.64.54 5.22 5.22 0 0 1-1.61-.22l-14.85-3.66a40.92 40.92 0 0 0-2.64 6.08 41.05 41.05 0 0 0 9.89 2.33c3.22 0 6.75 1 10 1.48 1.57.24 3 .75 4.37 0s2.74-1.59 4.08-2.41c5.47-3.34 10.81-6.94 16.7-9.51.14-2 .3-3.98.48-5.94.16-1.83.79-4.11.57-5.93-.42-3.05-6.37 1.23-7.6 2.18Z" fill="#00A97A"/>
    <path d="M199.4 236.49c.28-.1.24-.49.25-.78a1.68 1.68 0 0 1 1.32-1.41c.69-.14 1.4-.14 2.09 0l1.64.25c.503.017.96.298 1.2.74a11.68 11.68 0 0 0 4.64 3.15 90 90 0 0 0 10.38 3.93c.62.19 1.35.49 1.43 1.12a1.45 1.45 0 0 1-.83 1.27 10.48 10.48 0 0 1-5.19 1.34 47.06 47.06 0 0 1-19.39-3 1.57 1.57 0 0 1-.64-.37 1.41 1.41 0 0 1-.28-.68 12.1 12.1 0 0 1-.21-3.5 3.79 3.79 0 0 1 1-2.52c1.2-.92 1.48.82 2.59.46Z" fill="#7B6A58"/>
    <path d="M182.26 237.19c.29-.07.28-.46.32-.75a1.64 1.64 0 0 1 1.44-1.28 5.07 5.07 0 0 1 2.08.22l1.62.39c.23.046.451.134.65.26.191.166.35.366.47.59a11.59 11.59 0 0 0 4.33 3.55 87.56 87.56 0 0 0 10 4.86c.6.25 1.3.62 1.33 1.25.03.63-.47.94-.95 1.2a10.52 10.52 0 0 1-5.29.85 47 47 0 0 1-19-4.71 1.14 1.14 0 0 1-.82-1.13 11.75 11.75 0 0 1 .11-3.5 3.85 3.85 0 0 1 1.26-2.42c1.19-.88 1.31.87 2.45.62Z" fill="#7B6A58"/>
    <path d="M206.01 235.79c-.05.07-8.49 1.8-11.91 1.05 0-23.13 1.11-47.49-1.78-70.36.06 23.32-1.61 47.43-1.55 70.75-3.21 1.05-9.95.87-14.25.43.61-9.6-.08-19.25-.36-28.88-.69-23.21 1-46.42 2.63-69.57 0-.57 18.77 2.14 20.5 2.21 1.73.07 6-1.15 7 .82.7 1.33.51 3.93.65 5.45.19 2.11.38 4.23.56 6.34 1.44 16.56 2.52 33.22 2 49.88-.33 9.38-2.92 31.21-3.49 31.88Z" fill="#FFF"/>
    <path d="M211.76 69.06c.8.58 1.48 1.31 2 2.15a2.79 2.79 0 0 1 .08 2.83c-.35.4-.662.831-.93 1.29a2.45 2.45 0 0 0-.09 1.11c.16 2 .6 4.07.68 6.13a55.82 55.82 0 0 1-.89 8.91c-.76 6.17-.34 12.42.07 18.63a42.38 42.38 0 0 1-12.58 4.1c-4.39.54-9.08-.18-12.67-2.77a2.68 2.68 0 0 1-.86-.88c-.2-.38-1.73-.85-1.75-1.27-.36-8.23-.83-14.39-1.33-23.28a113 113 0 0 1-.2-11.78c.21-3.51 1.51-7.14 4.31-9.28a15.4 15.4 0 0 1 6.63-2.52c3-.56 6.95-1.05 9.68.72a93 93 0 0 1 7.85 5.91Z" fill="#936037"/>
    <path d="M203.25 100.48a4.5 4.5 0 0 1 .76 1.43 3.16 3.16 0 0 1-.35 1.82c-1.05 2.49-2.44 5-4.8 6.54a3.11 3.11 0 0 1-1.54.59 3.82 3.82 0 0 1-2.56-1.28c-1.72-1.55-3.54-3.29-3.76-5.48-.17-1.6.56-3.13 1.13-4.64a24.61 24.61 0 0 0 1.56-7.12c0 .34 3.65 1.22 4.06 1.31 1.06.25 2.69.19 3.63.76.94.57.67 1.38.7 2.3a7.58 7.58 0 0 0 1.17 3.77Z" fill="#EBBBA2"/>
    <path d="M202.17 97.84a6.87 6.87 0 0 1-.08-.78c0-.92.23-1.72-.71-2.3-.94-.58-2.56-.51-3.62-.76-.42-.09-4.08-1-4.06-1.31a23.88 23.88 0 0 1-.65 4.12 15.53 15.53 0 0 0 9.12 1.03Z" fill="#CCA48E"/>
    <path d="M187.99 86.72c1.05 3 2.52 5.9 5.18 7.91 2.66 2.01 6.74 2.84 9.92 1.3a10.73 10.73 0 0 0 2.8-2.09c2.31-2.3 3.41-3.72 4.19-6.67.59-2.19.38-6.24.42-8.48.06-3.48.19-7-1.83-9.89a11.4 11.4 0 0 0-8-4.77 19.14 19.14 0 0 0-10.53 1.39c-4.18 1.79-4.58 4.87-4.52 8.42a40.81 40.81 0 0 0 2.37 12.88Z" fill="#EBBBA2"/>
    <path d="M186.23 88.93a2.45 2.45 0 0 0 1.3.61c2.9.22 3.17-5.82 2.13-7.61a4.17 4.17 0 0 0-3.16-1.85c-1.93-.1-2.33 2.37-2.35 3.88a6.26 6.26 0 0 0 2.08 4.97Z" fill="#EBBBA2"/>
    <path d="M202.65 81.01c.08 1.489.353 2.96.81 4.38.21.6.9 1.25.88 2.29a1.37 1.37 0 0 1-2 1.18c2.19-.41 1-1.65.21-3.06a6.55 6.55 0 0 1 .11-4.79h-.01Z" fill="#CCA48E"/>
    <path d="M199.27 77.53a.33.33 0 0 0 .29-.11c.08-.1 0-.25 0-.36a2 2 0 0 0-2.19-.8 4 4 0 0 0-2 1.43c-.28.34-.14.76.34.66a9.41 9.41 0 0 1 3.56-.82Z" fill="#683C11"/>
    <path d="M196.64 90.72a13.28 13.28 0 0 0 8 .82c-1.85 1.92-6.59 1.51-8-.82Z" fill="#CCA48E"/>
    <ellipse fill="#3C3C3B" transform="rotate(-88.46 198.131 81.07)" cx="198.131" cy="81.07" rx="1.32" ry="1"/>
    <path d="M208.05 74.11c-.49.83-2.15 1.28-3.12 1.26a11.14 11.14 0 0 1-4.66-1.5c-3.16-2.37-2.72-2.4-6.65-2.91.95 1.76.17 2.24-.41 4.16-.4 1.31-1.61 2.93-2 4.24a12.32 12.32 0 0 0-.16 5c2.49 16.42.4 9 .51 13.52a2.29 2.29 0 0 1-.07.87 2.36 2.36 0 0 1-.67.9l-4.74 4.58c-.55-9.59-3.16-19.1-2.33-28.67a18.5 18.5 0 0 1 1.17-5.46 11.54 11.54 0 0 1 8.61-7 57.13 57.13 0 0 1 5.71-.21 6.94 6.94 0 0 1 2.23.07 15.39 15.39 0 0 1 3.13 1.39c1.8 1.31 2.68 2.27 4.49 3.58a10.73 10.73 0 0 1 2.16 2.15c.71.89 1.72 3.1 1.13 4.26-.91 1.86-4.43-.07-4.33-.23Z" fill="#936037"/>
    <path d="m199.76 107.77 4-7.24c.07-.13.16-.28.28-.31a.46.46 0 0 1 .36.11l2 1.32a3 3 0 0 1 1.32 1.42c.113.39.17.794.17 1.2.24 5.42.68 10.823 1.32 16.21a24.3 24.3 0 0 1 .26 4.09 47.66 47.66 0 0 1-1.25 6.47c-1.26 6.75.74 13.81.24 20.71a35.8 35.8 0 0 1-27.7 2.26c-.22-12.09-.74-22.05 1.53-33.8.69-3.58 1.39-9 2.82-12.2 1-2.21 2.79-7 6.42-7.34.41 0 2.1 2.21 2.91 3.16a19.45 19.45 0 0 0 5.32 3.94Z" fill="#EF7875"/>
    <path d="M223.76 121.83a4.54 4.54 0 0 0 1.16 1.07 4.68 4.68 0 0 0 2 .45c3.96.273 7.927.387 11.9.34a16.69 16.69 0 0 0 .63 3.78 594.87 594.87 0 0 0-12.19 2.35 26.8 26.8 0 0 0-5.79 1.64c-.79.35-1.73.78-2.47.33a2.27 2.27 0 0 1-.49-.44l-10.86-11.63a3.14 3.14 0 0 1-.65-.89 3.07 3.07 0 0 1-.15-1c-.14-2.807-.263-5.617-.37-8.43 0-1.36-2.46-7-.47-7.51 1.53-.39 5.76 5.58 6.6 6.63 1.72 2.13 3.45 4.24 5.21 6.34 1.94 2.35 3.94 4.66 5.94 6.97Z" fill="#EF7875"/>
    <g fill="#AD5956" opacity=".5">
      <path d="M193 97.69c.31-.52.63-1 1-1.53l-2 1.44c.335.002.67.033 1 .09ZM193.23 97.73H193s-.05.09-.07.13l.3-.13ZM175.82 129.63c-.72 9.44 1 19.08 1.08 28.63 4.15.3 6.08-.23 10.16.66-.16-5.93-2.69-8.54-2.5-14.47.26-7.89.25-11.14 1.91-20.7.21-1.19 2.42-7.5 2.44-8.73a63.69 63.69 0 0 1-13.09 14.61Z"/>
      <path d="M192.93 97.82s.05-.08.07-.13a6.09 6.09 0 0 0-1-.09l-1.26.9 2.19-.68Z"/>
    </g>
    <path d="M204.9 78.4a.35.35 0 0 1-.25-.12.31.31 0 0 1 0-.32 1.52 1.52 0 0 1 1.85-.57 3.7 3.7 0 0 1 1.67 1.43c.22.32.1.7-.29.57a8 8 0 0 0-2.98-.99Z" fill="#683C11"/>
    <ellipse fill="#3C3C3B" transform="rotate(-84.857 205.557 80.641)" cx="205.557" cy="80.641" rx="1.386" ry="1"/>
    <path d="M80.06 242.19c.22-2.47.8-5 .54-7.51s-.76-5-.94-7.52a.83.83 0 0 1 0-.47.87.87 0 0 1 .7-.33 31.65 31.65 0 0 1 8.42 0l-.89 8.7a9.28 9.28 0 0 0 0 2.93c.48 2.08 2.82 3.09 4.59 3.86a78 78 0 0 0 8.81 3.23c.53.15 1.16.4 1.23.92.07.52-.32.8-.71 1a9.16 9.16 0 0 1-4.41 1.1 41.32 41.32 0 0 1-16.48-2.42 1.3 1.3 0 0 1-.54-.3 1.16 1.16 0 0 1-.24-.57 9.83 9.83 0 0 1-.18-2.86 3.08 3.08 0 0 1 .89-2.08c1-.82 1.22.61 2.16.32.24-.08.21-.4.22-.64a1.39 1.39 0 0 1 1.12-1.16 4.59 4.59 0 0 1 1.77 0l1.4.2c.198.016.392.07.57.16.176.121.329.274.45.45.29.374.626.71 1 1M59.7 241.15a28.11 28.11 0 0 0 .47-3.89c0-.78-.51-9.19-.62-9.16a14.55 14.55 0 0 1 8.42-.25l-.28 4.93a33 33 0 0 0 0 5.26 8.23 8.23 0 0 0 1.9 4.34c2.78 3.59 6.48 6.34 9.81 9.42.332.237.555.597.62 1a1 1 0 0 1-.24.63 3 3 0 0 1-1.77 1 7.46 7.46 0 0 1-2 .17 11.94 11.94 0 0 1-3.87-1c-1.42-.59-2.8-1.28-4.18-2-1.71-.87-3.41-1.75-5.09-2.66a11.83 11.83 0 0 1-2.11-1.38 4.18 4.18 0 0 1-1.39-2.12 5.51 5.51 0 0 1 0-1.9c.06-.8.2-1.6.33-2.39Z" fill="#B16FAC"/>
    <path d="M92.99 165.73c.344.76.56 1.57.64 2.4a6.12 6.12 0 0 1-2.17 4.35 14.64 14.64 0 0 1-3.59 2.55 25.16 25.16 0 0 1-.79-13.38 6 6 0 0 1 2-3.73 11.52 11.52 0 0 1 2.3 3.41 34.79 34.79 0 0 0 1.61 4.4Z" fill="#CCA48E"/>
    <path d="M83.36 74.01a8.1 8.1 0 0 1 5.54 4.22 21.66 21.66 0 0 1 2.11 6.85 142.5 142.5 0 0 1 2.24 23 8 8 0 0 1-.19 2.35c-.38 1.31-1.47 6.32-6.71 8.23-2-2.26-5.43-4.19-8.39-3.74-5.15.77-9.57 1.18-14.76 1.55a1.34 1.34 0 0 1-.8-.11 1.4 1.4 0 0 1-.49-1 56.51 56.51 0 0 1-.22-9.65c.19-5.35.37-10.71.84-16a41.19 41.19 0 0 1 1.23-7.81 9.46 9.46 0 0 1 1.73-3.63c1.44-1.69 3.7-2.43 5.89-2.83 3.38-.63 6.85-.63 10.23 0l-.33-.27" fill="#D0A9CD"/>
    <path d="M89.83 83.42a116.93 116.93 0 0 1 1 13.49c.14 4.36.16 8.8-1.1 13a21.8 21.8 0 0 1-4.39 8 17.33 17.33 0 0 0-3.74-2.24 39.42 39.42 0 0 0 5.91-14.6 89.47 89.47 0 0 0 1.47-15.76.72.72 0 0 0-.14-.54" fill="#B26FAC" opacity=".5"/>
    <path fill="#F0E9E6" d="M91.19 199.37h1v1h-1z"/>
    <path d="M89.76 99.89c-.7 3.06-1.83 6.15-4.29 8.42a10.22 10.22 0 0 1-10 2.26 11.54 11.54 0 0 1-3.12-1.83 18.86 18.86 0 0 1-5.85-7.61 27.82 27.82 0 0 1-1.57-6.63c-.5-3.48-.78-7.16.91-10.3a12.77 12.77 0 0 1 8.08-5.87 20 20 0 0 1 10.91.39c4.48 1.4 5.27 4.45 5.65 8 .489 4.4.246 8.85-.72 13.17Z" fill="#CCA48E"/>
    <path d="M82.47 90.23c.55 1.57.82 3.15 1.67 4.34.34.58 1.16 1.11 1.35 2.17a1.42 1.42 0 0 1-1.81 1.6c2.18-.83.71-1.9-.36-3.2a6.82 6.82 0 0 1-.85-4.91Z" fill="#A98876"/>
    <path d="M78.32 87.29a.35.35 0 0 0 .28-.17c.06-.11 0-.25-.1-.36a2.09 2.09 0 0 0-2.41-.39 4.13 4.13 0 0 0-1.79 1.86c-.22.4 0 .81.47.61a10 10 0 0 1 3.55-1.55ZM83.61 87.01a.31.31 0 0 1-.28-.07.33.33 0 0 1 0-.33 1.58 1.58 0 0 1 1.79-.95 3.85 3.85 0 0 1 2 1.14c.3.29.24.69-.19.64a8.39 8.39 0 0 0-3.32-.43Z" fill="#3C3C3B"/>
    <ellipse fill="#3C3C3B" transform="rotate(-10.05 77.437 91.199)" cx="77.437" cy="91.199" rx="1" ry="1.38"/>
    <ellipse fill="#3C3C3B" transform="rotate(-88.72 85.415 90.39)" cx="85.415" cy="90.39" rx="1.44" ry="1"/>
    <path d="M107.62 99.07a4.52 4.52 0 0 0-.89 1.35 3.16 3.16 0 0 0 .18 1.84c.8 2.58 1.94 5.19 4.14 7a3 3 0 0 0 1.46.74 3.8 3.8 0 0 0 2.66-1c1.86-1.37 3.84-2.92 4.27-5.07.32-1.57-.26-3.17-.68-4.72a24.85 24.85 0 0 1-.87-7.22c0 .34-3.73.86-4.15.92-1.08.14-2.69-.07-3.67.4-.98.47-.8 1.31-.92 2.21a7.41 7.41 0 0 1-1.53 3.55Z" fill="#683C11"/>
    <path d="M124.1 85.01a16.26 16.26 0 0 1-5.4 7.71c-2.72 1.92-6.82 2.63-9.93 1a10.76 10.76 0 0 1-2.73-2.17 17.93 17.93 0 0 1-4.48-8.16 27.73 27.73 0 0 1-.52-6.67c0-3.47.34-7.1 2.44-10a12.92 12.92 0 0 1 8.67-4.71 19.12 19.12 0 0 1 10.45 1.72c4.11 1.92 4.41 5 4.24 8.54a40.71 40.71 0 0 1-2.74 12.74Z" fill="#683C11"/>
    <path d="M126.59 86.65a2.39 2.39 0 0 1-1.31.57c-2.9.13-3-5.9-1.88-7.65a4.11 4.11 0 0 1 3.2-1.75c1.94 0 2.25 2.43 2.23 3.94a6.24 6.24 0 0 1-2.24 4.89Z" fill="#683C11"/>
    <ellipse fill="#3C3C3B" transform="rotate(-84.27 113.381 75.977)" cx="113.381" cy="75.977" rx="1.36" ry="1"/>
    <ellipse fill="#3C3C3B" transform="rotate(-88.03 105.812 75.777)" cx="105.812" cy="75.777" rx="1.43" ry="1"/>
    <path d="M108.47 75.34a6.75 6.75 0 0 1-.66 4.88c-1 1.31-2.43 2.41-.25 3.16a1.4 1.4 0 0 1-1.8-1.52c.15-1.06.94-1.61 1.26-2.18.8-1.2 1-2.78 1.5-4.34h-.05Z" fill="#432918"/>
    <path d="M112.47 72.3a.33.33 0 0 1-.28-.15.35.35 0 0 1 .09-.36 2 2 0 0 1 2.36-.47 4 4 0 0 1 1.82 1.77c.23.39 0 .8-.44.62a9.81 9.81 0 0 0-3.55-1.41ZM107.25 72.23a.3.3 0 0 0 .27-.08.32.32 0 0 0 0-.33 1.55 1.55 0 0 0-1.79-.87 3.81 3.81 0 0 0-1.93 1.19c-.28.29-.21.69.21.63a8.22 8.22 0 0 1 3.24-.54ZM104.86 84.81c1.07-.09 2.08-.54 3.14-.73a6.52 6.52 0 0 1 3.8.46c1.66.73 3 2.14 4.78 2.51a6 6 0 0 0 5.51-1.89 7.91 7.91 0 0 0 1.35-1.9c.75-1.51 1.34-3.32 1.43-3.32.67 0 .08 3.31 0 3.55a14.69 14.69 0 0 1-5.44 9.52 12.38 12.38 0 0 1-10.44 2.14 5.62 5.62 0 0 1-2-.89 14.15 14.15 0 0 1-3.35-3.42 22 22 0 0 1-2.27-6.32 7 7 0 0 1-.16-3.35 7 7 0 0 0 1.33 2.88 3 3 0 0 0 2.32.76Z" fill="#CDC5C1"/>
    <path d="M112.54 87.43c.407.301.663.765.7 1.27a1.54 1.54 0 0 1-.24.71 3.41 3.41 0 0 1-2 1.68 4.2 4.2 0 0 1-3.36-.76 4.15 4.15 0 0 1-1.72-1.95 2.07 2.07 0 0 1 .33-2.06 3.23 3.23 0 0 1 1.85-.42 6.28 6.28 0 0 1 4.44 1.53Z" fill="#683C11"/>
    <path d="M107.67 87.45a15.23 15.23 0 0 0 4.1.11.88.88 0 0 1 .68.1.62.62 0 0 1 .12.68 1.43 1.43 0 0 1-.47.54 5.09 5.09 0 0 1-4.19.76 2.17 2.17 0 0 1-1.74-1.91c-.02-.96 1.04-.36 1.5-.28Z" fill="#FFF"/>
    <path d="M88.63 166.29c1.94 20.2 3.29 40.54 7.54 60.39a2.65 2.65 0 0 1 0 1.5 2.38 2.38 0 0 1-.91 1c-5.78 4.25-13.24 5.71-20.4 5.41-7.16-.3-16.14-.91-20.71-5.4.16-14 .16-25.67.08-39.11 0-10.48-.23-20.8 4.16-30.31-.14.3 8.12 1.87 8.84 2a40.06 40.06 0 0 0 9.15.58c3.12-.17 6-1.15 9-1.54 3-.39 3.01 3.05 3.25 5.48Z" fill="#D0A9CD"/>
    <path d="M77.63 102.6a13.18 13.18 0 0 0 8-.07c-1.63 2.11-6.39 2.24-8 .07Z" fill="#A98876"/>
    <path d="M88.42 157.84a7.9 7.9 0 0 0 1 1.39c-.32-.42-.66-.89-1-1.39Z" fill="#F0E9E6"/>
    <path fill="#B26FAC" d="M275.18 146.94h3v2.5h-3zM278.18 145.01h-3v-4.91h3v4.91Zm0-6.87h-3v-4.9h3v4.9ZM278.18 131.25h-3v-4.91h3v4.91Zm0-6.87h-3v-4.9h3v4.9Zm-259.42-2.05h-3v-4.9h3v4.9Zm259.39-4.81h-3v-4.91h3v4.91Zm-259.39-2.05h-3v-4.91h3v4.91Zm259.39-4.82h-3v-4.9h3v4.9ZM18.76 108.6h-3v-4.9h3v4.9Zm259.39-4.81h-3v-4.91h3v4.91Zm-259.39-2.05h-3v-4.91h3v4.91Zm259.39-4.82h-3v-4.91h3v4.91ZM18.76 94.87h-3v-4.86h3v4.86Zm259.39-4.81h-3v-4.91h3v4.91ZM18.76 88.01h-3V83.1h3v4.91Zm259.39-4.82h-3v-4.9h3v4.9ZM18.76 81.14h-3v-4.9h3v4.9Zm259.39-4.82h-3v-4.9h3v4.9ZM18.76 74.27h-3v-4.9h3v4.9Zm259.39-4.81h-3v-4.9h3v4.9ZM18.76 67.41h-3v-4.9h3v4.9Zm259.39-4.82h-3v-4.9h3v4.9ZM18.76 60.54h-3v-4.9h3v4.9Zm259.39-4.81h-3v-4.91h3v4.91ZM18.76 53.68h-3v-4.91h3v4.91Zm259.39-4.82h-3v-4.85h3v4.85ZM18.76 46.81h-3v-1.4a28.51 28.51 0 0 1 .26-3.7l3 .42a25.6 25.6 0 0 0-.26 3.29v1.39ZM275.1 42.1a20 20 0 0 0-.84-4.46l2.87-.89a22.5 22.5 0 0 1 1 5.15l-3.03.2ZM19.35 40.32l-2.92-.65a25.87 25.87 0 0 1 1.62-4.93l2.71 1.21a23.58 23.58 0 0 0-1.41 4.37Zm254.33-4.4a21.09 21.09 0 0 0-2.2-4l2.46-1.72a24 24 0 0 1 2.51 4.57l-2.77 1.15ZM21.61 34.3l-2.64-1.43a26.33 26.33 0 0 1 2.91-4.29l2.31 1.91a23.84 23.84 0 0 0-2.58 3.81Zm248.76-3.84a23.24 23.24 0 0 0-3.28-3.22l1.87-2.34a25.56 25.56 0 0 1 3.71 3.64l-2.3 1.92ZM25.42 29.11l-2.16-2.1a28.16 28.16 0 0 1 3.94-3.37l1.72 2.46a23.82 23.82 0 0 0-3.5 3.01Zm240.18-3a24.07 24.07 0 0 0-4-2.24l1.16-2.71a28.12 28.12 0 0 1 4.53 2.51l-1.69 2.44Zm-235.12-1-1.53-2.58a27.52 27.52 0 0 1 4.69-2.21l1 2.83a24.41 24.41 0 0 0-4.16 1.97v-.01Zm229.36-1.89a26.54 26.54 0 0 0-4.48-1.15l.48-3a29.1 29.1 0 0 1 5 1.28l-1 2.87ZM36.41 22.6l-.8-2.89a27.52 27.52 0 0 1 5.1-.9l.24 3a25 25 0 0 0-4.54.79Zm217.11-.76c-.84-.08-1.69-.12-2.54-.12h-2.22v-3h2.22c.94 0 1.89.05 2.82.13l-.28 2.99Zm-210.76-.12v-3h4.92v3h-4.92Zm204 0h-4.9v-3h4.9v3Zm-6.86 0h-4.91v-3h4.91v3Zm-6.87 0h-4.9v-3h4.9v3Zm-6.86 0h-4.91v-3h4.91v3Zm-6.87 0h-4.9v-3h4.9v3Zm-6.86 0h-4.88v-3h4.91l-.03 3Zm-6.87 0h-4.9v-3h4.9v3Zm-6.86 0h-4.91v-3h4.96l-.05 3Zm-6.87 0h-4.9v-3h4.9v3Zm-6.86 0h-4.91v-3h4.91v3Zm-6.87 0h-4.9v-3h4.9v3Zm-6.87 0h-4.9v-3h4.9v3Zm-6.86 0h-4.91v-3h4.91v3Zm-6.87 0h-4.9v-3h4.9v3Zm-6.86 0h-4.89v-3h4.91l-.02 3Zm-6.87 0h-4.9v-3h4.9v3Zm-6.86 0h-4.91v-3h4.91v3Zm-6.87 0h-4.9v-3h4.9v3Zm-6.86 0h-4.91v-3h4.91v3Zm-6.87 0h-4.9v-3h4.9v3Zm-6.87 0h-4.9v-3h4.9v3Zm-6.86 0h-4.83v-3h4.9l-.07 3Zm-6.87 0h-4.9v-3h4.94l-.04 3Zm-6.86 0h-4.91v-3h4.91v3Zm-6.87 0h-4.9v-3h4.9v3Zm-6.86 0h-4.88v-3h4.91l-.03 3Zm-6.87 0h-4.9v-3h4.9v3Zm-6.86 0h-4.88v-3h4.91l-.03 3Zm-6.87 0h-4.87v-3h4.9l-.03 3ZM15.79 124.35h3v2.5h-3z"/>
    <path d="M92.22 158.73a1 1 0 0 0 .07-.15 26.1 26.1 0 0 0-2.4-2.64c.78 1.07 1.55 1.94 2.33 2.79Z" fill="#F0E9E6"/>
    <path d="M65.99 161.67c-.52 2.46-1 4.93-1.45 7.41-1.62 9.78-1.49 19.75-1.28 29.66.273 12.553.667 25.1 1.18 37.64a177.234 177.234 0 0 0-15.68-5.37 2.41 2.41 0 0 0 .58-1.66l4.42-57.17c.3-3.79.62-7.69 2.33-11.07a7 7 0 0 1 3.17-3.41c1.81-.8 3.82-.33 5.59.32 2.11.77 1.56 1.67 1.14 3.65Z" fill="#B26FAC" opacity=".5"/>
    <path d="M98.38 140.42a15.44 15.44 0 0 0-1.16-3.78 140 140 0 0 0-8.06-16.46 15.24 15.24 0 0 0-4.2-5c-1.7-1.24-3.79-1.06-5.83-1.17a116.71 116.71 0 0 0-16.41.25 101.59 101.59 0 0 0-2.23 15.35 1403.42 1403.42 0 0 0-2.54 31.67 39.38 39.38 0 0 0 29.11.92l.54-1.72c-.65-9.08 2.15-18.54-.92-27.1 2.33 4.27 4.73 8.81 4.52 13.66a26.78 26.78 0 0 1-1.53 6.87c-.41 1.32-.83 2.64-1.25 4 .34.5.68 1 1 1.42a25.26 25.26 0 0 1 2.41 2.65 78.28 78.28 0 0 0 6.08-16.48 14.42 14.42 0 0 0 .47-5.08Z" fill="#FED770"/>
    <path d="m87.6 160.45-.54 1.72.67-.24c-.05-.49-.09-.99-.13-1.48Z" fill="#F0E9E6"/>
    <path d="M16.93 129.58a.77.77 0 0 0-.3 0 .51.51 0 0 0-.37.59c.06.255.196.485.39.66a6.77 6.77 0 0 0 3.45 2 12.54 12.54 0 0 1-6.27-.82 23.86 23.86 0 0 0-4-1.61 10.34 10.34 0 0 0 .38 3.79 3.86 3.86 0 0 0 .71 1.47c.29.313.628.58 1 .79a24.51 24.51 0 0 0 5.4 2.5 6.23 6.23 0 0 0 2.76.4 9.88 9.88 0 0 0 3.16-1.43 4 4 0 0 1 3.33-.56c-.3-.12-.23-2.33-.49-2.78a7.82 7.82 0 0 0-2.59-2 24.06 24.06 0 0 0-6.56-3Z" fill="#CCA48E"/>
    <path d="M89.76 82.15c-.85-4.09-3.35-7.7-7.45-8.53a22.89 22.89 0 0 0-12.75 1.33 13.31 13.31 0 0 0-2.9 2.29c-1.05 1.16-1.69 4.18-1.47 5.7.22 1.52 2.42 1.18 3.55 1.3a51.94 51.94 0 0 0 13.52-.68c.63-.1 7.5-1.36 7.5-1.41Z" fill="#D0A9CD"/>
    <g opacity=".5">
      <path d="M67.76 169.47a81.36 81.36 0 0 1-9.58-2.53 5.15 5.15 0 0 1-3.1-2 5.24 5.24 0 0 1-.43-2.61 249.31 249.31 0 0 1 5.46-49.09 1.62 1.62 0 0 1 .36-.86c1-.95 3.1-.12 3.36 1.07.37 1.62-.43 4.08-.58 5.75-.327 4.1-.49 8.21-.49 12.33a143.84 143.84 0 0 0 2.09 24.6c.39 2.24.83 4.48 1.33 6.7.12.71 1.08 6.53 1.58 6.64Z" fill="#F39200"/>
      <path fill="#CDC5C1" d="m88.4 157.81.39.56v-.11l-.43-.48z"/>
      <path d="M93.43 144.48a23 23 0 0 0-2.55-11.11 66.7 66.7 0 0 0-6.12-9.75c1.06 4.59 1.8 9.45 3.26 13.91a32.19 32.19 0 0 1 1.74 13.13 38.37 38.37 0 0 1-1.34 7.12l.43.48.66-1.42c1.83-3.95 3.69-8.02 3.92-12.36Z" fill="#F39200"/>
      <path d="M88.4 157.83c.108.21.232.41.37.6v-.06l-.39-.56.02.02Z" fill="#CDC5C1"/>
    </g>
    <path d="M44.96 135.08a2.69 2.69 0 0 1-2.78 1.33c-5.46-.1-10.73-1.73-16.1-2.68a19.41 19.41 0 0 0-1 4.2 148 148 0 0 0 13.85 7.37 7.49 7.49 0 0 0 4.12 1 7.6 7.6 0 0 0 2.95-1.38l17.62-11.6a1.52 1.52 0 0 0 .59-.56 1.57 1.57 0 0 0 .1-.86l-.6-8.7c-.1-1.48.35-6.32-1.66-6.88-1.51-.42-4.46 4-5.42 5-1.9 2.11-3.76 4.24-5.6 6.39a409.73 409.73 0 0 0-6.07 7.37Z" fill="#FED770"/>
    <path d="M71.23 98.71a21.56 21.56 0 0 0 2.18 5.35 8.42 8.42 0 0 0 11.31 3.5 9.38 9.38 0 0 0 4.46-5.17 44.22 44.22 0 0 1-7.88 18.19c-1.33 1.74-2.92 3.44-5 4a8.58 8.58 0 0 1-5.7-.77 32.33 32.33 0 0 1-7.69-5.49 4.64 4.64 0 0 1-1.31-1.55c-.5-1.19.06-2.53.49-3.74 1.52-4.32 1.3-9 1.25-13.61-.04-3.873.05-7.743.27-11.61a29.23 29.23 0 0 1 .49-4.37 1.66 1.66 0 0 1 .66-1.17 1.77 1.77 0 0 1 1.3 0l2.79.77a.31.31 0 0 1 .23.18c-.55.62-.06 2.78 0 3.61.11 1.35.27 2.69.47 4a61.34 61.34 0 0 0 1.68 7.88Z" fill="#D0A9CD"/>
    <path d="M182.48 172.91a29.92 29.92 0 0 0-2.51 9.47 3.12 3.12 0 0 0 .14 1.52c.216.52.738.845 1.3.81a13 13 0 0 0 1.25-1.81 19.59 19.59 0 0 1-.66 7.76 1.09 1.09 0 0 0 0 .85c.2.32.67.38 1.07.41 1.45.08 3.06.12 4.18-.75a4.6 4.6 0 0 0 1.4-2.33 21.15 21.15 0 0 0-1.48-16.48" fill="#FBD4C7"/>
    <path d="M190.31 100.82a23.33 23.33 0 0 0-8.24 5.31c-4.85 5.26-9.06 11.42-13.9 16.68 1.48 2.63 4.27 8.3 5.75 10.92 2.5-3 15.05-15.8 14.75-29.83" fill="#EF7875"/>
    <path fill="#DADADA" d="M247.53 183.14h2.38v65.68h-2.38z"/>
    <path d="M255.96 147.35a37 37 0 0 1 .88 5 4 4 0 0 1-.19 2.12c-.46.92-1.47 1.19-2.34 1.54a7.76 7.76 0 0 0-2.68 1.86 3.15 3.15 0 0 0-.81 1.24 4 4 0 0 0-.08 1.61c.33 4.86.11 9.1.44 14a6.9 6.9 0 0 0 .82 1.89c.198.243.457.43.75.54 2.3 1.087 4.587 2.227 6.86 3.42.76.4 1.31.37 1.66 1.25.35.88-.48 3.84-2.88 2.66a58.24 58.24 0 0 0-7.26-3.11c0 1 .06 2.59.06 3.61s-2.55 1-3.8.51a.79.79 0 0 1-.4-.24 1.16 1.16 0 0 1-.12-.74c.39-6.599.36-13.215-.09-19.81a8.26 8.26 0 0 0-.31-2c-.15-.48-.39-.92-.57-1.39a12.36 12.36 0 0 1-.63-3.11l-1.06-9.09c-.07-.54 6.45-2.58 7.12-2.78 1.55-.48 4.05-1.32 4.63 1.02Z" fill="#878787"/>
    <path d="M253.7 156.62a1 1 0 0 0 .28.66c.14.09.296.152.46.18a150.59 150.59 0 0 0 16.63 2.5c.55.09 1.11.09 1.66 0a4.22 4.22 0 0 0 1.52-.84c1.32-1 2.39-2.36 3.63-3.5a8.1 8.1 0 0 1 4.36-2.34.58.58 0 0 1 .52.12c.19.22 0 .55-.22.76l-3.45 3.63a9.94 9.94 0 0 0 5.56-1.12c1.53-.81 4.89-4.36 6.18-1.46a3.82 3.82 0 0 1-.26 3.09c-1.66 3.56-5.58 5.5-9.41 6.41-3.48.82-6-.18-9.4-.63a28.73 28.73 0 0 0-5.08 0 140.05 140.05 0 0 1-17.73-.63 1.92 1.92 0 0 1-2.21-2c-.58-3.46-1-6.94-1.34-10.43 0-.27 6.08-1.42 6.69-1 1.38.92 1.35 5.12 1.61 6.6ZM220.12 174.72a4.19 4.19 0 0 1 0 3.75c-1.6 4.3-3.267 8.567-5 12.8a28 28 0 0 1-1.75-4.71 11.25 11.25 0 0 1-.5-3.05 12.16 12.16 0 0 1 .83-4.07 34.58 34.58 0 0 1 1.84-4.24 3.16 3.16 0 0 0 .4-1 3 3 0 0 0-.53-1.69 162.39 162.39 0 0 1-8.76-18.65 3.45 3.45 0 0 1-.33-1.44 3.37 3.37 0 0 1 .34-1.06 36.56 36.56 0 0 1 7.58-10.76c1.15 3.65 3.71 7.81 1.58 11.48-.47.8-1.4 1.68-1.55 2.63-.18 1.16.57 2.76.87 3.87.7 2.58 1.45 5.16 2.24 7.71.853 2.82 1.767 5.63 2.74 8.43ZM209.02 213.06c0 1.51.15 3 .29 4.52l2.9 32.29c1.433-.16 2.863-.25 4.29-.27a152.54 152.54 0 0 1-.1-19.36c.31-3.83.89-7.75.07-11.46-.19-.89-.47-1.76-.61-2.67-.39-2.62.43-5.26 1.23-7.74l-3.76-2c-.84-.45-2.09-1.47-3.06-1-1.67.73-1.25 5.95-1.25 7.69ZM239.47 216.16l-.8 33.71a8.68 8.68 0 0 1-4.66-.09 240.56 240.56 0 0 0-2.57-35.42 3 3 0 0 1 .06-1.69 2 2 0 0 1 .92-.88c1.51-.86 4.58-2.38 6.25-1.62 1.43.66.84 4.54.8 5.99Z" fill="#FBD4C7"/>
    <path d="M243.3 185.48c-.4 9.5-.36 19.01.12 28.53a3.78 3.78 0 0 1-.17 1.71 3.29 3.29 0 0 1-.82 1.07 14.13 14.13 0 0 1-7.35 3.44 26.54 26.54 0 0 1-8.2-.11c-.88-7.6-1.637-15.21-2.27-22.83a79.9 79.9 0 0 0-3.52 21.86c-4.51.49-9-.4-13.47-1.3a.89.89 0 0 1-.53-.23.88.88 0 0 1-.17-.57c-.31-5.31 1.76-10.42 3.37-15.49 1.1-3.49 2-7.05 3.17-10.52a147.52 147.52 0 0 1 7.11-16.64 15.71 15.71 0 0 0 16.89 1.76c1.57-.82 5.54-3.65 5.87-.45a66.38 66.38 0 0 1-.03 9.77Z" fill="#607395"/>
    <path d="M238.08 188.01a158.57 158.57 0 0 0 2.35 34 17.22 17.22 0 0 1 4.89-2.88 1.44 1.44 0 0 0 .87-.6 1.42 1.42 0 0 0 .08-.65c-.27-7.73.86-15.43 1.88-23.09.66-5 1.28-10.06.63-15.06a12.84 12.84 0 0 0-1.49-4.94 6.14 6.14 0 0 0-4-3 6.08 6.08 0 0 0-4.78 1.32c-1 .86-.49 1.87-.36 3 .46 3.9.08 7.9-.07 11.9Z" fill="#4E5E7A"/>
    <path d="M229.33 121.13a4.12 4.12 0 0 0-.84 1.28 3 3 0 0 0 .16 1.75 13.16 13.16 0 0 0 3.93 6.6c.394.357.878.599 1.4.7a3.62 3.62 0 0 0 2.53-1c1.76-1.3 3.64-2.77 4.05-4.82.3-1.49-.25-3-.65-4.48a23.72 23.72 0 0 1-.82-6.85c0 .32-3.55.81-3.95.86-1 .14-2.55-.06-3.48.39-.93.45-.76 1.24-.88 2.1a7 7 0 0 1-1.45 3.47Z" fill="#FBD4C7"/>
    <path d="M230.6 118.74a6.26 6.26 0 0 0 .16-.73c.12-.86-.06-1.65.88-2.1.94-.45 2.46-.25 3.49-.39.39-.05 3.93-.54 3.94-.86a22.61 22.61 0 0 0 .24 3.94 14.66 14.66 0 0 1-8.71.14Z" fill="#EABDB7"/>
    <path d="M243.76 108.58a16.74 16.74 0 0 1-5.68 6.89c-2.62 1.65-6.32 2.1-8.88.43a8.41 8.41 0 0 1-2.15-2.14 15.65 15.65 0 0 1-3-7.78 27 27 0 0 1 .33-6.21c.46-3.22 1.14-6.57 3.33-9.13a12.31 12.31 0 0 1 8.22-4 15.53 15.53 0 0 1 9 2.1c3.4 2 3.29 4.85 2.72 8.12a41.18 41.18 0 0 1-3.89 11.72Z" fill="#FBD4C7"/>
    <path d="M245.53 111.06a2.15 2.15 0 0 1-1.34.18c-2.69-.62-1.21-6.15.23-7.47a3.91 3.91 0 0 1 3.34-.76c1.78.46 1.44 2.8 1 4.17a5.9 5.9 0 0 1-3.23 3.88Z" fill="#FBD4C7"/>
    <ellipse fill="#3C3C3B" transform="rotate(-79.01 235.652 99.946)" cx="235.652" cy="99.946" rx="1.3" ry="1"/>
    <ellipse fill="#3C3C3B" transform="rotate(-82.77 228.515 99.09)" cx="228.515" cy="99.09" rx="1.35" ry="1"/>
    <path d="M231.07 98.91a6.33 6.33 0 0 1-1 4.57c-1.08 1.16-2.5 2-.54 3a1.34 1.34 0 0 1-1.63-1.61c.23-1 1-1.45 1.38-2a17.26 17.26 0 0 0 1.82-4l-.03.04Z" fill="#EABDB7"/>
    <path d="M229.33 109.64c1.221.24 2.47.31 3.71.21a.8.8 0 0 1 .61.11.53.53 0 0 1 .08.6 1.29 1.29 0 0 1-.44.46 4.82 4.82 0 0 1-3.82.56 1.93 1.93 0 0 1-1.51-1.73c.03-.84.96-.29 1.37-.21Z" fill="#FFF"/>
    <path d="M235.12 96.39a.38.38 0 0 1-.26-.18.34.34 0 0 1 .12-.33 2 2 0 0 1 2.28-.24 4 4 0 0 1 1.57 1.84c.18.39-.05.76-.48.54a9.46 9.46 0 0 0-3.23-1.63ZM230.18 95.87a.3.3 0 0 0 .26-.06.29.29 0 0 0 0-.31 1.49 1.49 0 0 0-1.62-1 3.65 3.65 0 0 0-1.93 1c-.29.25-.26.63.14.61a7.77 7.77 0 0 1 3.15-.24Z" fill="#E94E1B"/>
    <path d="M248.33 85.13a9.84 9.84 0 0 0-5.15-2.4 29.2 29.2 0 0 0-5.76-.27l-6.14.11a24.06 24.06 0 0 0-6.93.82 3.82 3.82 0 0 0-1.73 1 1.68 1.68 0 0 0-.33 1.86c.3.54 1 .87 1.07 1.47a1.57 1.57 0 0 1-.6 1.29c-.58.54-1.25 1-1.82 1.53a2.811 2.811 0 0 0-.95 2.1.451.451 0 0 0 .12.32.48.48 0 0 0 .37.09c.49-.011.977-.058 1.46-.14-.11.95-.14 2.1.66 2.63a2.54 2.54 0 0 0 2.34-.17 36.38 36.38 0 0 0 5.09-2.69 2.53 2.53 0 0 0 2.36 1.4 5.79 5.79 0 0 0 3.61-1c-.07.22.22.36.44.39 2.58.4 5.35-.28 7.75.75-.63.58-1.33 1.42-.95 2.2.127.19.238.39.33.6.11.43-.22.83-.45 1.21a4.85 4.85 0 0 0-.37 3.28 21.72 21.72 0 0 1 0 4.19c0 .42.64.69 1.31.21.26-.83 1.18-2.53 2-2.88a2.69 2.69 0 0 1 2.82.74 18 18 0 0 0 2.62-3.49 6.58 6.58 0 0 0 1.26-4.38 8 8 0 0 0-1-2.84 10.42 10.42 0 0 1-1.4-2.71 13.64 13.64 0 0 0-.32-2.74 6.54 6.54 0 0 0-1.71-2.48Z" fill="#E94E1B"/>
    <g opacity=".4" transform="translate(226.01 101.14)" fill="#E94E1B">
      <circle cx="7.37" cy="2.08" r="1"/>
      <circle cx="1.55" cy="1.08" r="1"/>
      <circle cx="3.22" cy=".15" r="1"/>
      <circle cx="7.37" cy=".37" r="1"/>
      <circle cx="9.64" cy="1.91" r="1"/>
      <circle cx="9.87" cy="4.3" r="1"/>
      <circle cx="5.42" cy="3.16" r="1"/>
      <circle cx="7.31" cy="3.16" r="1"/>
      <circle cx=".65" cy="3.13" r="1"/>
      <circle cx=".2" cy="1.99" r="1"/>
      <circle cx=".14" cy=".33" r="1"/>
    </g>
    <path d="M234.42 124.46a6.78 6.78 0 0 1-5.56-3.45c-2.26 1.12-5 .88-7.18 2.22a11 11 0 0 0-3.21 3.73l-8.82 14.05a3.45 3.45 0 0 0-.47.94 3.15 3.15 0 0 0 .1 1.58 25.65 25.65 0 0 0 7.5 12.81 17.88 17.88 0 0 0 3.15-3.52 103 103 0 0 1-.54 23c2.87 1.94 5.87 3.92 9.3 4.44 5 .76 9.86-1.72 14.14-4.38a1.89 1.89 0 0 0 1.14-2.2c-.42-9.75-1-19-.92-18.94a58.57 58.57 0 0 0 12.55-3.73l-2.06-14.35c-.69-4.77-2.5-9.56-6.29-12.53-2-1.56-4.74-3-7.24-2.74a8.1 8.1 0 0 1-1.79 2.09 6.64 6.64 0 0 1-3.8.98Z" fill="#FDC533"/>
    <g fill="#FFF">
      <path d="M219.76 153.06a18.24 18.24 0 0 0-1.45 2.68c-4.21-4.72-6.92-10.56-9.55-16.31a1.31 1.31 0 0 1-.18-.64c.036-.27.15-.524.33-.73.56-.8 1.47-2.94 2.68-1.88.88.77 1.08 3 1.46 4.12a48.17 48.17 0 0 0 3.86 8.42c.27.45 2.95 4.18 2.85 4.34ZM242.76 148.45a.5.5 0 0 0-.37.22.53.53 0 0 0 0 .33l.7 3.75c4.44-1.333 8.817-2.87 13.13-4.61a.38.38 0 0 0 .2-.15c.34-.61-.55-3.6-1.15-4.06-1-.76-2.69.73-3.61 1.2a47.53 47.53 0 0 1-8.9 3.32ZM216.87 170.95l-.4 2c2.56 1.26 5.16 2.41 7.82 3.46a20.15 20.15 0 0 0 4.07 1.25 15.59 15.59 0 0 0 8.68-1.5c2.71-1.22 5.2-2.87 7.8-4.33-.07-.57 0-2.44-.56-2.61-.56-.17-2 .91-2.47 1.09a34.78 34.78 0 0 1-5.91 1.81 35.94 35.94 0 0 1-12.41.43c-.58-.06-6.73-1.21-6.62-1.6Z"/>
    </g>
    <g fill="#E94E1B" opacity=".3">
      <path d="M244.16 127.19a26.51 26.51 0 0 1 3 5.38c3.06 7.26 4 15.25 4.27 23.13a17.85 17.85 0 0 1 6.54-1.22c.19-2.43.24-4.88.21-7.32-.06-5.77-.57-11.67-2.9-17s-6.76-9.9-12.38-11.2a18.49 18.49 0 0 0-3.15-.42 1.58 1.58 0 0 0-.94.14 1.73 1.73 0 0 0-.47.57c-.66 1.14-1.35 2.32-2 3.42.67-1 3.5.54 4.23 1a20.75 20.75 0 0 1 3.59 3.52ZM244.06 160.33l2.7 14.09a147.91 147.91 0 0 1-7.42 6.59c.387-3.333.77-6.667 1.15-10 .2-1.74.4-3.48.47-5.23.06-1.45 0-2.9 0-4.35 0-2.46.08-4.92.24-7.38.14-2.24 0-5 .71-7.09a18 18 0 0 0 .45 2.3c.11 1.26.26 2.5.44 3.75.34 2.44.8 4.88 1.26 7.32ZM220.24 141.37a16.32 16.32 0 0 1-2.83 5.82 140.464 140.464 0 0 1-4.53 6.29 47.57 47.57 0 0 1 2.44 7.16c-.1-.37 1.32-1.9 1.58-2.26.54-.75 1.11-1.48 1.66-2.22a5.74 5.74 0 0 0 1.33-2.88 86 86 0 0 0 .35-11.91Z"/>
    </g>
    <path d="M216.22 247.34c2-.07 2 6.28 2 6.78s-2.29 2-3.63 2.27c-1.34.27-2.71.81-4.06 1.09a20 20 0 0 0-3.38 1.26 19.87 19.87 0 0 1-14 .82.69.69 0 0 1-.3-.17.77.77 0 0 1-.09-.38 5.93 5.93 0 0 1 2.58-5.39 11 11 0 0 1 5.57-1.63 34 34 0 0 0 5.79-.57 1.68 1.68 0 0 0 .79-.36c.2-.219.35-.478.44-.76.35-.874.653-1.765.91-2.67a1.7 1.7 0 0 1 .26-.62 1.33 1.33 0 0 1 .49-.35c1-.48 2-.08 3.07 0 .92.34.17 1.89.44 2a2.29 2.29 0 0 0 3.12-1.32Z" fill="#C6D1EC"/>
    <g fill="#FFF">
      <path d="M197.68 251.47a7.09 7.09 0 0 1 5.58 2 8.15 8.15 0 0 1 1.8 5.24 6.19 6.19 0 0 1-.16 1.92 42.34 42.34 0 0 1-10.1.72 4.57 4.57 0 0 1-3-1.1 4 4 0 0 1-.9-2.08 6 6 0 0 1 0-2.19 7.19 7.19 0 0 1 1-2.28 18 18 0 0 1 2-2.6 5.31 5.31 0 0 1 1.64-1.31"/>
      <path d="M210.26 256.49c1.34-.33 2.74-.39 4-.82a12.75 12.75 0 0 0 4.5-2.86c.16.59.31 1.19.45 1.79a1 1 0 0 1 0 .43 1.2 1.2 0 0 1-.18.31 15.76 15.76 0 0 1-5.18 4.13 23.38 23.38 0 0 1-6.32 2.1 8.56 8.56 0 0 1-3.63.1.53.53 0 0 1-.26-.13.51.51 0 0 1-.07-.32v-2.21c0-.74.18-.77.77-.82a14.77 14.77 0 0 0 3.81-1 20.22 20.22 0 0 1 2.11-.7Z"/>
    </g>
    <path d="M238.76 248.46c2-.07 2.05 6.28 2 6.79-.05.51-2.28 1.95-3.62 2.26-1.34.31-2.71.81-4.06 1.1a18.39 18.39 0 0 0-3.38 1.26 19.89 19.89 0 0 1-14 .81.66.66 0 0 1-.29-.17.65.65 0 0 1-.12-.36 5.92 5.92 0 0 1 2.58-5.39 10.86 10.86 0 0 1 5.57-1.64 35.15 35.15 0 0 0 5.79-.56 1.69 1.69 0 0 0 .79-.37 2.13 2.13 0 0 0 .43-.75c.353-.873.66-1.765.92-2.67a1.8 1.8 0 0 1 .25-.62 1.33 1.33 0 0 1 .49-.36c1-.48 2-.08 3.08 0 .91.34.17 1.9.44 2a2.27 2.27 0 0 0 3.13-1.33Z" fill="#C6D1EC"/>
    <g fill="#FFF">
      <path d="M220.23 252.59a7.07 7.07 0 0 1 5.59 2 8.12 8.12 0 0 1 1.8 5.23 6.17 6.17 0 0 1-.16 1.92 41.91 41.91 0 0 1-10.11.72 4.51 4.51 0 0 1-3-1.1 4 4 0 0 1-.89-2.08 5.92 5.92 0 0 1 0-2.18 6.88 6.88 0 0 1 1-2.28 18.13 18.13 0 0 1 2-2.61 5.42 5.42 0 0 1 1.64-1.3"/>
      <path d="M232.82 257.62c1.33-.33 2.73-.39 4-.82a12.93 12.93 0 0 0 4.41-2.87c.16.59.31 1.19.45 1.79a.93.93 0 0 1 0 .44.78.78 0 0 1-.18.3 15.78 15.78 0 0 1-5.17 4.14 23.47 23.47 0 0 1-6.32 2.09 8.56 8.56 0 0 1-3.63.1.41.41 0 0 1-.26-.13.51.51 0 0 1-.07-.32v-2.21c0-.74.18-.76.77-.82a14.38 14.38 0 0 0 3.81-1 20.16 20.16 0 0 1 2.19-.69Z"/>
    </g>
    <path d="M244.29 159.37a26.66 26.66 0 0 1-1.57-7.9l5.04-2.06c.193-.095.405-.143.62-.14.55.05.79.69.91 1.22a38.23 38.23 0 0 1 .94 8 1.58 1.58 0 0 1-.14.81 1.45 1.45 0 0 1-.63.54 12.27 12.27 0 0 1-4.32 1.49.62.62 0 0 1-.48 0 .69.69 0 0 1-.24-.46l-.58-2.71" fill="#878787"/>
    <path d="M249.76 247.94a1.4 1.4 0 0 1 .5.06c.155.068.297.163.42.28 1.09 1 1.32 2.81 1.32 4.28 0 .48-.83.62-1.36.72a8.48 8.48 0 0 1-4.75-.34.34.34 0 0 1-.16-.1.37.37 0 0 1-.05-.23 12.75 12.75 0 0 1 .22-2.22 4.87 4.87 0 0 1 .43-1.37c.23-.44.66-1 1.18-1.09a14.09 14.09 0 0 1 2.25.01Z" fill="#706F6F"/>
    <path d="M258.28 180.76a1.74 1.74 0 0 1 2.9-.3c.321.433.487.961.47 1.5a3.9 3.9 0 0 1-1.14 2.77 2 2 0 0 1-1.79.66 2 2 0 0 1-1.26-1.79 3.34 3.34 0 0 1 1.81-3.57" fill="#878787"/>
    <path d="M180.95 166.64a137.19 137.19 0 0 1-15.31 71.21c-.32.61-.81 2.22-1.36 2.62a4.42 4.42 0 0 1-1.75.42c-2.25.51-4.3.24-6.55.75.61-14.6 1.87-28.72-1.79-42.87-1.33 14.24-5.61 29.24-4.43 43.45a21.3 21.3 0 0 1-6.9.37c-.41 0-.85.18-1.21 0a1.56 1.56 0 0 1-.58-.73c-5.65-11-7.48-23.43-9.12-35.65-1.7-12.67-3.24-25.85.67-38a166 166 0 0 0 27.22.32c6.4-.46 12.87-1.32 19.21-.31l1.9-1.58Z" fill="#634E42"/>
    <path d="M154.16 198.87c6.94 13.89 6.25 30.29 4.08 45.66a94 94 0 0 1-24.78 8.07 524.735 524.735 0 0 1-8.31-31.7c-4.25-18.55-7.5-37.92-3.42-56.52a2.39 2.39 0 0 1 2.59-2.49 115.16 115.16 0 0 1 14.27-.17c-3.46 12.53-2.65 25.79-1.76 38.76 1 15 2.19 30.21 6.66 44.6a38.88 38.88 0 0 0 8.56-1.56 442.208 442.208 0 0 0 2-39.43" fill="#432918" opacity=".5"/>
    <path d="M186.25 142.89c2.91 10.29 3 21.08 2.39 31.71l-7 .13c-2.63-12.36-5.32-24.89-11.29-36.22a40 40 0 0 1-2-4c-1-2.5-5.06-19.79-5-19.77a30.8 30.8 0 0 1 12.83 9 46.33 46.33 0 0 1 5.82 8.56 50.32 50.32 0 0 1 4.25 10.59Z" fill="#C6C6C6"/>
    <path d="M157.76 115.23a71.07 71.07 0 0 1 20.52 28.51 98.09 98.09 0 0 1 6.48 33.38c-.8-.88-2.25-1-3.54-1l-7.49-.08a49.11 49.11 0 0 0-1.13-14 306.22 306.22 0 0 0-7.7-30 70.51 70.51 0 0 0-5.34-14" fill="#B2B2B2"/>
    <path d="M177.26 140.39c.98 3.74 1.93 7.49 2.85 11.25 1.48 6.12 2.88 12.47 1.83 18.69-4 1.76-8.45 2.2-12.81 2.47a207.92 207.92 0 0 1-36.75-.91 94.53 94.53 0 0 1 2.93-30.26 63.74 63.74 0 0 1 14.45-26.56 34.22 34.22 0 0 0 3.77 1.48c1.4.295 2.838.366 4.26.21a13.39 13.39 0 0 0 4.2-1.2c1-.46 2.24-1.75 3.38-1.41 1.14.34 2.17 2.4 2.79 3.32a43.28 43.28 0 0 1 2.38 4 62.69 62.69 0 0 1 3.69 8.74c1.18 3.34 2.12 6.8 3.03 10.18Z" fill="#C6C6C6"/>
    <path d="M132.76 174.73a30 30 0 0 1 2.5 9.47 3.05 3.05 0 0 1-.13 1.53 1.33 1.33 0 0 1-1.3.8 11.89 11.89 0 0 1-1.25-1.81 19.83 19.83 0 0 0 .65 7.77c.12.27.12.58 0 .85-.2.32-.67.38-1.07.4-1.45.08-3.07.12-4.18-.74a4.67 4.67 0 0 1-1.4-2.34 21.16 21.16 0 0 1 1.48-16.48" fill="#FBD4C7"/>
    <path d="M140.28 180.12c-3.527-.16-7.057-.39-10.59-.69a2.47 2.47 0 0 1-1.72-.63 2.52 2.52 0 0 1-.37-1.63c.13-12.6-.77-25.36 1.84-37.69a51.33 51.33 0 0 1 7-17.33c1.57-2.41 8.4-12.77 11.13-7.61 1.36 2.57-.16 5.55-.95 8a130.138 130.138 0 0 0-3 10.94 144.59 144.59 0 0 0-3.3 46.64h-.04Z" fill="#B2B2B2"/>
    <path d="M154.19 82.01h.16a10.79 10.79 0 0 0 2.33-.5c1-.19 1.85.5 2.87.5a6.24 6.24 0 0 1 3.47 1c.428.327.89.606 1.38.83.36.12.75.15 1.12.25a3.25 3.25 0 0 1 1.9 1.34c.09.162.197.313.32.45.191.153.408.272.64.35a5.52 5.52 0 0 1 3.52 4.52 7.51 7.51 0 0 0 .12 1.78c.2.63.7 1.13 1 1.74a2.5 2.5 0 0 1-.1 2.09c-.33.64-1 1.15-1.09 1.86-.19 1 .65 2 .2 3a5.22 5.22 0 0 1-.54.7 8.57 8.57 0 0 0-.77 1.81 1.8 1.8 0 0 1-1.4 1.23c-.1-3.58-.263-7.15-.49-10.71a4 4 0 0 0-.61-2.25 9 9 0 0 0-1.52-1.22c-.47-.39-.84-.89-1.31-1.28a5.82 5.82 0 0 0-2.4-1.08 17.39 17.39 0 0 0-10.34.56c-2.33.87-4.66 2.53-5.08 5-.28 1.67.39 3.35.37 5a12.16 12.16 0 0 1-.67 3.35l-.76 2.58a1.42 1.42 0 0 1-.27.55 1.31 1.31 0 0 1-.72.31c-1.13.23-2.48.4-3.28-.43-.8-.83-.62-1.84-1-2.76a11.88 11.88 0 0 1-1.09-2.28 9.74 9.74 0 0 1 .26-2.33 8.51 8.51 0 0 0-.14-1.74 15 15 0 0 1 1.59-8.74 5.62 5.62 0 0 1 2.69-2.79 9.35 9.35 0 0 0 1.84-.66 7.5 7.5 0 0 0 1.18-1.27 4.62 4.62 0 0 1 4.6-1.33 6 6 0 0 0 2.59.57c1-.15 1.79-.76 2.76-.9 1.17-.16 2.31.45 3.48.46.83 0 1.65-.29 2.47-.2a3.92 3.92 0 0 1 2.41 1.47 9.2 9.2 0 0 0 1.39 1.53c1 .74 2.45.82 3.21 1.8a9 9 0 0 1 .75 1.49 9.85 9.85 0 0 1 1.17 2.19 5.63 5.63 0 0 1-.24 2.16 2.46 2.46 0 0 0 .38 2.14" fill="#634E42"/>
    <path d="M170.17 94.56v.32a41.21 41.21 0 0 1-1.66 13.44c-.92 3.09-2.28 6.2-5 8.36a10.5 10.5 0 0 1-10.36 1.66 11.92 11.92 0 0 1-3.08-2.08 19.41 19.41 0 0 1-5.49-8.19 28.77 28.77 0 0 1-1.19-6.9c-.27-3.61-.32-7.4 1.62-10.52a13.13 13.13 0 0 1 8.75-5.49 20.53 20.53 0 0 1 11.16 1.12 7.45 7.45 0 0 1 4.62 4.39c.326.97.521 1.979.58 3 .12 1.43.36 2.84.41 4.29a42.54 42.54 0 0 1-.88 10 18.33 18.33 0 0 1-1.2 3.92 12 12 0 0 1-8.22 6.53 12.83 12.83 0 0 1-10.29-2.28 13.85 13.85 0 0 1-5.33-9.15" fill="#FBD4C7"/>
    <path d="M143.62 101.32a1.79 1.79 0 0 0-1-.45 1.72 1.72 0 0 0-1.5 1 5.9 5.9 0 0 0 .1 5.69 5.26 5.26 0 0 0 2.32 2.44 2.21 2.21 0 0 0 1.59.22 1.52 1.52 0 0 0 1-1.1 3.47 3.47 0 0 0 0-1.47c-.37-1.89-.86-4.95-2.51-6.33Z" fill="#FBD4C7"/>
    <path d="M161.76 97.93c.44 1.65.62 3.3 1.41 4.57.31.62 1.12 1.22 1.24 2.31a1.45 1.45 0 0 1-1.95 1.53c2.31-.7.87-1.92-.15-3.32a7.08 7.08 0 0 1-.55-5.09Z" fill="#EABDB7"/>
    <path d="M161.83 109.76a20.73 20.73 0 0 1-4.9-.32 1.12 1.12 0 0 0-.81 0 .55.55 0 0 0-.17.69c.123.242.305.448.53.6a7.12 7.12 0 0 0 5 1.24c.73-.09 2.1-.58 2.16-1.79.03-.96-1.25-.45-1.81-.42Z" fill="#FFF"/>
    <path d="M157.64 94.64a.38.38 0 0 0 .3-.15.34.34 0 0 0-.08-.37 2.14 2.14 0 0 0-2.45-.57 4.33 4.33 0 0 0-2 1.79c-.26.4 0 .83.44.66a10.2 10.2 0 0 1 3.79-1.36ZM163.08 94.74a.33.33 0 0 1-.28-.1.34.34 0 0 1 0-.34 1.65 1.65 0 0 1 1.9-.86 4 4 0 0 1 2 1.31c.28.31.21.72-.23.64a8.7 8.7 0 0 0-3.39-.65Z" fill="#3C3C3B"/>
    <ellipse fill="#3C3C3B" transform="rotate(-6.38 156.478 98.61)" cx="156.478" cy="98.611" rx="1" ry="1.42"/>
    <ellipse fill="#3C3C3B" transform="rotate(-85.05 164.73 98.299)" cx="164.729" cy="98.299" rx="1.49" ry="1"/>
    <path d="M141.83 100.3c1.4 0 1.86 2.09 3.18 2.56.48-.58.2-1.45.35-2.19.132-.45.323-.88.57-1.28.8-1.57.74-3.48.93-5.2.009-.318.09-.63.24-.91a3.34 3.34 0 0 1 .65-.65c.94-.87 1.24-2.36 2.36-3a5.94 5.94 0 0 1 2.27-.41 6.58 6.58 0 0 0 1.51-.33c1.22-.42 2.41-1.19 3.68-1 1.27.19 2.39 1.33 3.73 1.48a6.58 6.58 0 0 0 2.23-.35 2.85 2.85 0 0 1 2.15.06c.55.37.85 1 1.5 1.31.36.15.77.13 1.12.3.71.33.91 1.22 1 2 .06.884.197 1.76.41 2.62.24.71.61 1.38.82 2.12a8.4 8.4 0 0 1 .3 3.15 12.24 12.24 0 0 0 .32-4.27c-.09-1.57-.25-3.13-.49-4.68a7.21 7.21 0 0 0-.61-2.27 6.32 6.32 0 0 0-2-2.19 19.29 19.29 0 0 0-12.36-3.29 20.28 20.28 0 0 0-6.62 1.38 16.33 16.33 0 0 0-4.09 2.4 8.76 8.76 0 0 0-2.13 2.29c-1.47 2.41-1.1 5.48-.63 8.26" fill="#634E42"/>
    <path d="M129.3 143.86c-2.54 10.3-2.62 21.09-2.09 31.72l6.1.13c2.3-12.37 4.64-24.89 9.87-36.22.6-1.32 1.25-2.62 1.73-4 .86-2.5 4.42-19.79 4.36-19.77a27.56 27.56 0 0 0-11.21 9 46.88 46.88 0 0 0-5.08 8.56 55.45 55.45 0 0 0-3.68 10.58Z" fill="#C6C6C6"/>
    <path d="M159.19 241.09c.29-.09.25-.48.26-.77a1.7 1.7 0 0 1 1.36-1.4 5.56 5.56 0 0 1 2.15 0l1.69.25c.243.022.48.086.7.19a2 2 0 0 1 .53.55 12 12 0 0 0 4.78 3.12 92 92 0 0 0 10.68 3.98c.64.19 1.39.49 1.48 1.12.09.63-.39 1-.85 1.26a11.19 11.19 0 0 1-5.35 1.33 50.06 50.06 0 0 1-20-2.93 1.71 1.71 0 0 1-.66-.37 1.39 1.39 0 0 1-.29-.68 11.24 11.24 0 0 1-.21-3.47 3.7 3.7 0 0 1 1.07-2.51c1.23-1.04 1.52.69 2.66.33ZM146.84 242.39c-.3-.08-.27-.47-.29-.76a1.71 1.71 0 0 0-1.43-1.34 5.55 5.55 0 0 0-2.14.13l-1.68.32a1.47 1.47 0 0 0-1.2.79 12.19 12.19 0 0 1-4.63 3.34 94 94 0 0 1-10.5 4.37c-.63.22-1.37.56-1.43 1.18-.06.62.44 1 .91 1.23a11.1 11.1 0 0 0 5.4 1.09 50 50 0 0 0 19.81-3.81 1.62 1.62 0 0 0 .64-.4c.15-.2.24-.44.26-.69.2-1.15.22-2.324.06-3.48a3.64 3.64 0 0 0-1.18-2.46c-1.23-.89-1.45.8-2.6.49Z" fill="#3C3C3B"/>
    <path d="M116.52 95.37c.93-.21 2.08-.37 2.66.38a3 3 0 0 1 .38 1.62 7.58 7.58 0 0 0 1.12 3.36c.177.253.318.529.42.82.23.88-.49 1.7-1.23 2.23a11.86 11.86 0 0 1-10.18 1.23 7.93 7.93 0 0 1-4.09-2.54 1.71 1.71 0 0 1-.43-1.08c0-.57.5-1 .88-1.42a5.44 5.44 0 0 0 1.14-2c.19-.6.22-1.75.86-2s2 .24 2.63.25a25 25 0 0 0 5.84-.85Z" fill="#00A97A"/>
    <path d="M59.9 113.01a3.28 3.28 0 0 0-2 1.29 22.93 22.93 0 0 0-2.8 4 3.27 3.27 0 0 0-.53 1.46 2.72 2.72 0 0 0 .63 1.69 3.69 3.69 0 0 0 3.13 1.6 5 5 0 0 0 3.13-2.08 6.65 6.65 0 0 0 1.24-2c.63-1.86-.11-6.18-2.8-5.96Z" fill="#683C11"/>
    <path d="M121.98 103.09a8.08 8.08 0 0 1 3.29 3.16 11.29 11.29 0 0 1 .84 5.45c-.15 14-.67 28.09 1 42a2.1 2.1 0 0 1-.06 1.06 2 2 0 0 1-1.07.91 32.36 32.36 0 0 1-26.92.52 2 2 0 0 1-.58-.36 1.87 1.87 0 0 1-.26-1.56c1.31-10.37 1.23-20.85 2-31.26.286-5.07.955-10.11 2-15.08.68-2.88 1.8-4.82 4.73-5.76 4.81-1.53 10.6-1.61 15.03.92Z" fill="#00A97A"/>
    <circle fill="#D0A9CD" cx="18.54" cy="62.9" r="18.54"/>
    <path d="M23.02 76.21a2.82 2.82 0 0 1-.86-.14 2.53 2.53 0 0 1-1.12-.61c-4.42-2.62-8.75-5.23-13.15-8.21-2.44-1.66-2.42-3.3-2.4-4a10.69 10.69 0 0 1 1.8-5.58c.23-.4.46-.82.68-1.25.53-1 1.1-2 1.67-3 .65-1.12 1.32-2.28 1.89-3.45l.5-1 .95.64c4.94 3.3 10 6.48 15.16 9.46l.9.52-.24.36c.597.422 1.218.81 1.86 1.16.41.24.87.5 1.46.86l.8.49-.45.84a108.28 108.28 0 0 1-6.46 11 3.67 3.67 0 0 1-2.99 1.91Zm-.55-2.15c.088.04.178.073.27.1.21.07.76.23 1.63-1a99.57 99.57 0 0 0 5.89-10l-.6-.35a22.1 22.1 0 0 1-1.9-1.17c-1.07 1.69-2.13 3.4-3.14 5.11a16.06 16.06 0 0 0-2.29 5.31 3.43 3.43 0 0 0 0 1.65c.027.122.07.24.13.35h.01Zm-9.66-22.18c-.47.88-1 1.73-1.45 2.56-.45.83-1.11 1.92-1.6 2.89-.23.46-.47.89-.71 1.31a8.83 8.83 0 0 0-1.55 4.5v.14c0 .47 0 1.26 1.52 2.31 3.75 2.54 7.46 4.81 11.22 7.06a8.34 8.34 0 0 1 .11-.93 18.05 18.05 0 0 1 2.53-6c1.09-1.85 2.24-3.68 3.37-5.48a287.44 287.44 0 0 1-13.44-8.36Z" fill="#FFF"/>
    <circle fill="#D0A9CD" cx="63.85" cy="19.83" r="18.54"/>
    <path d="m64.15 19.48-4.28-5.42 2.55-6.42 6.83-1 4.29 5.37-2.55 6.43-6.84 1.04Zm-2-5.76 2.86 3.61 4.55-.66 1.7-4.28-2.86-3.61-4.55.67-1.7 4.27ZM66.37 32.44l-4.29-5.43 2.55-6.42 6.84-1 4.29 5.42-2.55 6.42-6.84 1.01Zm-2-5.75 2.86 3.61 4.53-.67 1.7-4.28-2.85-3.61-4.56.67-1.68 4.28ZM53.65 27.92l-4.29-5.42 2.55-6.43 6.84-1 4.28 5.42-2.55 6.42-6.83 1.01Zm-2-5.76 2.86 3.61 4.55-.67 1.7-4.28-2.86-3.6-4.55.66-1.7 4.28Z" fill="#FFF"/>
    <circle fill="#D0A9CD" cx="123.13" cy="19.67" r="18.54"/>
    <path d="M135.61 27.1a11.45 11.45 0 0 0-1.43-1.59 5.3 5.3 0 0 0-3.76-1.5 9.14 9.14 0 0 0-3 1c-1.51.7-3.07 1.42-4.85 1.08a5.61 5.61 0 0 1-2.79-1.5 7.63 7.63 0 0 1-2.12-7.25c.213-.772.49-1.525.83-2.25.296-.619.54-1.26.73-1.92a5.76 5.76 0 0 0-2.69-6.16l1-1.75a7.74 7.74 0 0 1 3.66 8.38 13.39 13.39 0 0 1-.84 2.25 12.23 12.23 0 0 0-.72 1.92 5.65 5.65 0 0 0 1.56 5.31 3.69 3.69 0 0 0 1.78 1 6.32 6.32 0 0 0 3.63-.93 10.59 10.59 0 0 1 3.69-1.18 7.11 7.11 0 0 1 5.23 2 13.85 13.85 0 0 1 1.69 1.88l-1.6 1.21Z" fill="#FFF"/>
    <path d="M127.87 34.01c-2.64-3.13-2.24-5.45-2-7 .05-.27.09-.51.11-.73a10.48 10.48 0 0 1 1.19-3.72 6.35 6.35 0 0 0 .93-3.64 3.86 3.86 0 0 0-1-1.78 5.7 5.7 0 0 0-5.32-1.56c-.66.19-1.301.434-1.92.73a14.29 14.29 0 0 1-2.25.83 7.72 7.72 0 0 1-8.38-3.65l1.75-1a5.75 5.75 0 0 0 6.15 2.68 12.23 12.23 0 0 0 1.92-.72 13.39 13.39 0 0 1 2.25-.84 7.64 7.64 0 0 1 7.25 2.13 5.54 5.54 0 0 1 1.5 2.78c.34 1.78-.38 3.34-1.08 4.85a9.14 9.14 0 0 0-1 3 9.15 9.15 0 0 1-.13.94c-.23 1.31-.51 2.94 1.53 5.36l-1.5 1.34Z" fill="#FFF"/>
    <path fill="#FFF" d="m112.026 14.33 6.408-6.644 1.44 1.389-6.41 6.643zM118.704 21.12l6.21-6.76 1.473 1.353-6.21 6.76zM121.193 23.912l6.223-7.245 1.517 1.304-6.223 7.244zM126.363 30.756l7.168-6.624 1.357 1.469-7.168 6.623z"/>
    <circle fill="#D0A9CD" cx="181.07" cy="18.54" r="18.54"/>
    <path d="M183.38 29.76a1.46 1.46 0 0 1-.72-.21l-11.9-6.69a1.25 1.25 0 0 1 .34-2.31c3.3-.75 6.28-1.44 9.23-2.39.69-.22.79-.4.79-.41a1.7 1.7 0 0 0-.14-.39c-1-2.36-2.06-4.72-3.2-7v-.1a12.15 12.15 0 0 1-1.16-3 1.19 1.19 0 0 1 .44-1.18 1.2 1.2 0 0 1 1.26-.15l13.44 6.35-.25.83a19.72 19.72 0 0 1-1.75 4.07l-1.74-1a17.74 17.74 0 0 0 1.3-2.84l-10.24-4.81c.12.27.26.54.39.82l.05.09c1.16 2.34 2.25 4.74 3.26 7.14.223.442.32.937.28 1.43-.18 1.41-1.67 1.89-2.16 2-2.45.79-4.89 1.4-7.5 2l9.63 5.39 1-2.28 1.82.84-1.34 2.9a1.32 1.32 0 0 1-.89.8 1.06 1.06 0 0 1-.24.1Z" fill="#FFF"/>
    <circle fill="#D0A9CD" cx="235.44" cy="18.54" r="18.54"/>
    <path d="M237.58 24.68h-1.33c-5.86 0-5.86 0-6-.93a6.57 6.57 0 0 1-.09-1.28 1.79 1.79 0 0 0-.45-1.53 13.85 13.85 0 0 1-3.31-6.48 7.09 7.09 0 0 1 1.36-6.45 8.9 8.9 0 0 1 3.89-2.54 11.25 11.25 0 0 1 5.76-.53 8.83 8.83 0 0 1 5.16 2.87 8.15 8.15 0 0 1 .71 9.48 14.53 14.53 0 0 1-1.81 2.2c-.333.34-.667.69-1 1.05a5.36 5.36 0 0 0-1.16 2v.25a2.12 2.12 0 0 1-.49 1.46 1.81 1.81 0 0 1-1.24.43Zm-.77-2h.55a4.08 4.08 0 0 1 .09-.64 7.38 7.38 0 0 1 1.56-2.77c.33-.39.68-.76 1-1.14a12.38 12.38 0 0 0 1.58-1.89 6.18 6.18 0 0 0-.53-7.1 6.93 6.93 0 0 0-4-2.22 9.29 9.29 0 0 0-4.74.46 6.88 6.88 0 0 0-3 1.95 5.14 5.14 0 0 0-1 4.58 11.88 11.88 0 0 0 2.81 5.63 3.69 3.69 0 0 1 1 2.92v.18h4.12l.56.04ZM238.18 27.39l-6.82-.09a1 1 0 1 1 0-2l6.82.09a1 1 0 1 1 0 2ZM232.69 30.01a1 1 0 1 1 0-2h4.22a1 1 0 1 1 0 2h-4.23.01ZM233.76 32.57a1 1 0 1 1 0-2h2.25a1 1 0 1 1 0 2h-2.26.01Z" fill="#FFF"/>
    <circle fill="#D0A9CD" cx="277.17" cy="62.44" r="18.54"/>
    <path d="M280.53 77.13a1.64 1.64 0 0 1-1-.36l-16.12-13a1.69 1.69 0 0 1 .65-3c9.75-2.4 12.22-3 12.83-3.22.62-.73 3-3.81 4.34-5.68l1.63 1.16c0 .06-4.32 5.91-4.91 6.26-.19.11-.37.22-12.79 3.27l15 12.08c0-13.45.11-13.94.15-14.13.09-.36.28-1.2 3.93-6.27l1.63 1.17c-3.22 4.47-3.57 5.41-3.61 5.56-.07.51-.11 6.2-.1 14.43a1.61 1.61 0 0 1-.92 1.47 1.63 1.63 0 0 1-.71.26Z" fill="#FFF"/>
    <path d="M287.67 57.3a1 1 0 0 1-.62-.21l-7.29-5.76a1 1 0 0 1 1.24-1.57l7.31 5.76a1 1 0 0 1-.64 1.78Z" fill="#FFF"/>
  </g>
</svg>