<svg xmlns="http://www.w3.org/2000/svg" viewBox="0 0 340 280">
  <defs>
    <clipPath id="clip-path">
      <path class="cls-1" d="m218.92 109.7 4-7.24c.07-.13.15-.27.28-.31a.44.44 0 0 1 .35.12l2 1.31a3 3 0 0 1 1.32 1.42 4.4 4.4 0 0 1 .17 1.2q.36 8.14 1.31 16.21a24.49 24.49 0 0 1 .27 4.1 47.23 47.23 0 0 1-1.25 6.46c-1.25 6.75.74 13.81.24 20.72a35.67 35.67 0 0 1-27.61 2.22c-.22-12.09-.74-22 1.53-33.8.69-3.57 1.39-9 2.81-12.19 1-2.22 4.62-7.1 8.24-7.43.41 0 1.66 2 2.46 3a97.67 97.67 0 0 0 3.88 4.21Z"/>
    </clipPath>
    <clipPath id="clip-path-2">
      <path class="cls-1" d="M107.87 168.34c1.95 20.2 3.3 40.54 7.55 60.39a2.56 2.56 0 0 1 0 1.5 2.42 2.42 0 0 1-.9 1c-5.78 4.25-13.24 5.71-20.41 5.41s-16.13-.91-20.7-5.4c.16-14.05.15-25.67.08-39.11-.06-10.48-.24-20.8 4.16-30.31-.15.3 8.12 1.87 8.84 2a40.06 40.06 0 0 0 9.15.58c3.12-.17 6-1.15 9-1.54s3 3.05 3.23 5.48Z"/>
    </clipPath>
    <clipPath id="clip-path-3">
      <path class="cls-1" d="M108.39 122.11a140.08 140.08 0 0 1 8 16.47 15.77 15.77 0 0 1 1.17 3.78 14.11 14.11 0 0 1-.46 5c-1.7 7.42-4.9 14.41-8.42 21.15l-2.4-2a1 1 0 0 1-.39-1.34l3-9.38a26.85 26.85 0 0 0 1.52-6.87c.21-4.86-2.19-9.4-4.51-13.66 3.22 9-.07 19.05 1 28.57a39.4 39.4 0 0 1-29.79-.67q1.1-15.85 2.54-31.67a101.41 101.41 0 0 1 2.23-15.35 118.27 118.27 0 0 1 16.41-.26c2.05.11 4.14-.06 5.83 1.18a15.46 15.46 0 0 1 4.27 5.05Z"/>
    </clipPath>
    <clipPath id="clip-path-4">
      <path class="cls-1" d="M262.45 187.49q-.61 14.26.12 28.53a4 4 0 0 1-.17 1.72 3.51 3.51 0 0 1-.82 1.06 14.09 14.09 0 0 1-7.35 3.44 26.23 26.23 0 0 1-8.2-.1q-1.32-11.4-2.27-22.84a80.3 80.3 0 0 0-3.53 21.86c-4.5.5-9-.4-13.46-1.3a.88.88 0 0 1-.54-.23.9.9 0 0 1-.16-.56c-.31-5.31 1.76-10.42 3.37-15.49 1.1-3.5 2-7.05 3.16-10.53a149.28 149.28 0 0 1 7.12-16.63 15.71 15.71 0 0 0 16.89 1.75c1.56-.82 5.54-3.65 5.87-.44a66.25 66.25 0 0 1-.03 9.76Z"/>
    </clipPath>
    <clipPath id="clip-path-5">
      <path class="cls-1" d="M253.7 126.34a6.73 6.73 0 0 1-5.55-3.47c-2.26 1.11-5.06.87-7.19 2.21a11.08 11.08 0 0 0-3.21 3.74l-8.82 14.06a2.55 2.55 0 0 0-.37 2.52 25.64 25.64 0 0 0 7.5 12.81 17.35 17.35 0 0 0 3.16-3.52 102.37 102.37 0 0 1-.55 23c2.88 1.94 5.88 3.93 9.3 4.45 5 .75 9.86-1.73 14.15-4.39a2.51 2.51 0 0 0 .95-.85 2.56 2.56 0 0 0 .19-1.35c-.43-9.74-1-19-.93-18.94a57.84 57.84 0 0 0 12.55-3.78l-2.06-14.35c-.68-4.77-2.49-9.55-6.29-12.52-2-1.57-4.74-3-7.23-2.75a8.43 8.43 0 0 1-1.8 2.1 6.71 6.71 0 0 1-3.8 1.03Z"/>
    </clipPath>
    <clipPath id="clip-path-6">
      <path class="cls-1" d="M253.78 126.43a6.78 6.78 0 0 1-5.55-3.48c-2.26 1.12-5 .87-7.19 2.21a11.28 11.28 0 0 0-3.21 3.74L229 143a3.79 3.79 0 0 0-.46.95 3.27 3.27 0 0 0 .09 1.58 25.67 25.67 0 0 0 7.51 12.8 17.83 17.83 0 0 0 3.15-3.51 102.87 102.87 0 0 1-.54 23c2.87 1.94 5.87 3.93 9.3 4.45 5 .76 9.86-1.72 14.14-4.38a2.64 2.64 0 0 0 1-.85 2.57 2.57 0 0 0 .18-1.35c-.43-9.75-1-19-.92-19a58.46 58.46 0 0 0 12.55-3.76l-2.06-14.35c-.68-4.77-2.49-9.56-6.29-12.53-2-1.56-4.73-3-7.23-2.74-.12 0-.77 1.45-1.79 2.09a6.81 6.81 0 0 1-3.85 1.03Z"/>
    </clipPath>
    <clipPath id="clip-path-7">
      <path class="cls-1" d="M235.47 249.29c2-.07 2 6.28 2 6.79s-2.28 1.95-3.63 2.26-2.7.81-4.05 1.1a19.2 19.2 0 0 0-3.39 1.25 19.81 19.81 0 0 1-14 .82.69.69 0 0 1-.3-.17.77.77 0 0 1-.1-.34 5.9 5.9 0 0 1 2.58-5.38 10.86 10.86 0 0 1 5.57-1.64 33.91 33.91 0 0 0 5.79-.57 1.68 1.68 0 0 0 .79-.36 2.09 2.09 0 0 0 .44-.75 27.24 27.24 0 0 0 .91-2.68 1.66 1.66 0 0 1 .26-.61 1.25 1.25 0 0 1 .49-.36c1-.48 2-.08 3.07 0 .92.34.17 1.9.44 2a2.28 2.28 0 0 0 3.13-1.36Z"/>
    </clipPath>
    <clipPath id="clip-path-8">
      <path class="cls-1" d="M258 250.41c2-.06 2 6.28 2 6.79s-2.28 2-3.62 2.27-2.71.81-4.06 1.09a18.39 18.39 0 0 0-3.38 1.26 19.89 19.89 0 0 1-14 .81.51.51 0 0 1-.41-.53 5.93 5.93 0 0 1 2.58-5.39 10.86 10.86 0 0 1 5.57-1.64 34.1 34.1 0 0 0 5.79-.56 1.69 1.69 0 0 0 .79-.37 2.22 2.22 0 0 0 .44-.75c.34-.87.65-1.76.91-2.67a1.8 1.8 0 0 1 .25-.62 1.33 1.33 0 0 1 .49-.36c1-.48 2-.08 3.08 0 .92.34.17 1.9.44 2a2.29 2.29 0 0 0 3.13-1.33Z"/>
    </clipPath>
    <clipPath id="clip-path-9">
      <path class="cls-1" d="M200.1 168.36a137.35 137.35 0 0 1-15.31 71.22c-.32.6-.82 2.22-1.37 2.61a4.37 4.37 0 0 1-1.74.42c-2.26.51-4.3.24-6.56.75.62-14.6 1.87-28.72-1.78-42.87-1.33 14.21-5.61 29.22-4.47 43.45a21.29 21.29 0 0 1-6.9.37c-.41 0-.85.18-1.21 0a1.69 1.69 0 0 1-.58-.73c-5.64-11-7.47-23.43-9.11-35.65-1.7-12.67-3.24-25.85.66-38a165 165 0 0 0 27.22.32c6.4-.46 12.88-1.32 19.22-.31Z"/>
    </clipPath>
    <clipPath id="clip-path-10">
      <path class="cls-1" d="M205.63 144.77c2.91 10.29 3 21.08 2.39 31.71l-7 .13c-2.63-12.36-5.32-24.89-11.3-36.22-.69-1.32-1.43-2.62-2-4-1-2.5-5-19.79-5-19.77a30.88 30.88 0 0 1 12.83 9 46.33 46.33 0 0 1 5.82 8.56 50.87 50.87 0 0 1 4.26 10.59Z"/>
    </clipPath>
    <clipPath id="clip-path-11">
      <path class="cls-1" d="M196.4 142.33q1.48 5.61 2.85 11.25c1.49 6.13 2.89 12.47 1.83 18.69-4 1.76-8.44 2.2-12.81 2.48a207.94 207.94 0 0 1-36.75-.92 94.87 94.87 0 0 1 2.94-30.26A63.65 63.65 0 0 1 168.93 117a33.34 33.34 0 0 0 3.76 1.47 13.27 13.27 0 0 0 4.26.21 13.1 13.1 0 0 0 4.21-1.19c1-.46 2.24-1.75 3.38-1.42s2.16 2.4 2.78 3.32a42.4 42.4 0 0 1 2.38 4 61.56 61.56 0 0 1 3.7 8.74c1.15 3.36 2.1 6.78 3 10.2Z"/>
    </clipPath>
    <style>
      .cls-1{fill:none}.cls-2{fill:#f0e9e6}.cls-3{fill:#7d4e24}.cls-5{fill:#00a97a}.cls-6{fill:#7b6a58}.cls-7{fill:#fff}.cls-8{fill:#936037}.cls-9{fill:#ebbba2}.cls-10{fill:#cca48e}.cls-11{fill:#683c11}.cls-12{fill:#3c3c3b}.cls-13{fill:#ef7875}.cls-15{fill:#ad5956}.cls-15,.cls-18,.cls-26,.cls-27{opacity:.5}.cls-16{fill:#b16fac}.cls-17{fill:#d0a9cd}.cls-18,.cls-22{fill:#b26fac}.cls-19{fill:#a98876}.cls-21,.cls-27{fill:#cdc5c1}.cls-24{fill:#fed770}.cls-26{fill:#f39200}.cls-28{fill:#fbd4c7}.cls-30{fill:#878787}.cls-34{fill:#eabdb7}.cls-35,.cls-40{fill:#e94e1b}.cls-40{opacity:.3}.cls-41{fill:#c6d1ec}.cls-45{fill:#634e42}.cls-48{fill:#c6c6c6}.cls-50{fill:#b2b2b2}
    </style>
  </defs>
  <g id="_04" data-name="4">
    <rect class="cls-2" x="23.68" y="90.74" width="297.08" height="187.27" rx="11.54"/>
    <path class="cls-3" d="M117.34 229.91a41.92 41.92 0 0 1-14.89 10.71c-.74.3-1.65.87-1.58 1.76a1.63 1.63 0 0 0 .31.74c1.07 1.48 3 1.41 4.76 1.21 3.88-.46 7.83-1 11.43-2.93a8.81 8.81 0 0 1 1.86-.84 9.19 9.19 0 0 1 1.57-.16 10.6 10.6 0 0 0 4-1.13 42.12 42.12 0 0 0 .55-7.26 1.93 1.93 0 0 0-.21-1 1.35 1.35 0 0 0-1.09-.45l-4.85-.42c-.13 0-.3-.05-.33-.21s.28-.19.21 0M153.81 240.89c.75.43 1.61 1.38 1.1 2.18a1.4 1.4 0 0 1-1.14.53 35.26 35.26 0 0 1-10.61-.41 7.37 7.37 0 0 1-3.5-1.33c-1.65-1-1.17-1.87-3.08-1.73a28.13 28.13 0 0 1-4.26-1.36 1.37 1.37 0 0 1-.32-1 32.56 32.56 0 0 1 .53-7.43c-.2 1 5.53-.18 5.91-.24 1.13-.17 1.27.32 2.16 1.24s1.54 1.52 2.35 2.22a69.66 69.66 0 0 0 10.86 7.33Z"/>
    <path d="M145.94 155.51a219.83 219.83 0 0 1-.09 33.85c-1.12 14.07-3.6 28-6.08 41.89-2.74 1.16-5.22.55-8-.45.3-19.52-1-36.35-.66-55.87-2.55 19.73-4.62 37.1-5.66 56.09-2.05 1.52-5.82.66-8.31.11-.3-.07-2.88-54.87.78-75.6a85.39 85.39 0 0 0 20 .25c.72-.08 1.66-.46 1.52-1.17" fill="#575756"/>
    <path class="cls-5" d="M147 106.46a81.1 81.1 0 0 1 6.35 5.81A92.58 92.58 0 0 0 171 125.45a52.64 52.64 0 0 1-3.7 5.64c-9.36-4.14-17.4-10.87-26.79-15q-.21-3-.48-5.94c-.16-1.83-.79-4.11-.57-5.93.36-2.99 6.31 1.29 7.54 2.24ZM119.2 105.87a81.1 81.1 0 0 0-6.35 5.81c-1.9 1.81-4 3.42-5.91 5.16a24.76 24.76 0 0 1-5.49 4.09 4.66 4.66 0 0 1-1.64.54 5.22 5.22 0 0 1-1.61-.22l-14.85-3.66a40.92 40.92 0 0 0-2.64 6.08A41.05 41.05 0 0 0 90.6 126c3.22 0 6.75 1 10 1.48 1.57.24 3 .75 4.37 0s2.74-1.59 4.08-2.41c5.47-3.34 10.81-6.94 16.7-9.51q.21-3 .48-5.94c.16-1.83.79-4.11.57-5.93-.42-3.05-6.37 1.23-7.6 2.18Z"/>
    <path class="cls-6" d="M218.64 238.48c.28-.1.24-.49.25-.78a1.68 1.68 0 0 1 1.32-1.41 5.26 5.26 0 0 1 2.09 0l1.64.25a1.42 1.42 0 0 1 1.2.74 11.68 11.68 0 0 0 4.64 3.15 90 90 0 0 0 10.38 3.93c.62.19 1.35.49 1.43 1.12a1.45 1.45 0 0 1-.83 1.27 10.48 10.48 0 0 1-5.19 1.34 47.06 47.06 0 0 1-19.39-3 1.57 1.57 0 0 1-.64-.37 1.41 1.41 0 0 1-.28-.68 12.1 12.1 0 0 1-.21-3.5 3.79 3.79 0 0 1 1-2.52c1.2-.92 1.48.82 2.59.46Z"/>
    <path class="cls-6" d="M201.5 239.18c.29-.07.28-.46.32-.75a1.64 1.64 0 0 1 1.44-1.28 5.07 5.07 0 0 1 2.08.22l1.62.39a1.93 1.93 0 0 1 .65.26 2.08 2.08 0 0 1 .47.59 11.59 11.59 0 0 0 4.33 3.55 87.56 87.56 0 0 0 10 4.86c.6.25 1.3.62 1.33 1.25s-.47.94-.95 1.2a10.52 10.52 0 0 1-5.29.85 47 47 0 0 1-19-4.71 1.14 1.14 0 0 1-.82-1.13 11.75 11.75 0 0 1 .11-3.5 3.85 3.85 0 0 1 1.26-2.42c1.19-.88 1.31.87 2.45.62Z"/>
    <path class="cls-7" d="M225.25 237.78c-.05.07-8.49 1.8-11.91 1.05 0-23.13 1.11-47.49-1.78-70.36.06 23.32-1.61 47.43-1.55 70.75-3.21 1.05-9.95.87-14.25.43.61-9.6-.08-19.25-.36-28.88-.69-23.21 1-46.42 2.63-69.57 0-.57 18.77 2.14 20.5 2.21s6-1.15 7 .82c.7 1.33.51 3.93.65 5.45.19 2.11.38 4.23.56 6.34 1.44 16.56 2.52 33.22 2 49.88-.33 9.38-2.92 31.21-3.49 31.88Z"/>
    <path class="cls-8" d="M231 71.05a7.59 7.59 0 0 1 2 2.15 2.79 2.79 0 0 1 .08 2.83 8.26 8.26 0 0 0-.93 1.29 2.45 2.45 0 0 0-.09 1.11c.16 2 .6 4.07.68 6.13a55.82 55.82 0 0 1-.89 8.91c-.76 6.17-.34 12.42.07 18.63a42.38 42.38 0 0 1-12.58 4.1c-4.39.54-9.08-.18-12.67-2.77a2.68 2.68 0 0 1-.86-.88c-.2-.38-1.73-.85-1.75-1.27-.36-8.23-.83-14.39-1.33-23.28a113 113 0 0 1-.2-11.78c.21-3.51 1.51-7.14 4.31-9.28a15.4 15.4 0 0 1 6.63-2.52c3-.56 6.95-1.05 9.68.72a93 93 0 0 1 7.85 5.91Z"/>
    <path class="cls-9" d="M222.49 102.47a4.5 4.5 0 0 1 .76 1.43 3.16 3.16 0 0 1-.35 1.82c-1.05 2.49-2.44 5-4.8 6.54a3.11 3.11 0 0 1-1.54.59 3.82 3.82 0 0 1-2.56-1.28c-1.72-1.55-3.54-3.29-3.76-5.48-.17-1.6.56-3.13 1.13-4.64a24.61 24.61 0 0 0 1.56-7.12c0 .34 3.65 1.22 4.06 1.31 1.06.25 2.69.19 3.63.76s.67 1.38.7 2.3a7.58 7.58 0 0 0 1.17 3.77Z"/>
    <path class="cls-10" d="M221.41 99.83a6.87 6.87 0 0 1-.08-.78c0-.92.23-1.72-.71-2.3s-2.56-.51-3.62-.76c-.42-.09-4.08-1-4.06-1.31a23.88 23.88 0 0 1-.65 4.12 15.53 15.53 0 0 0 9.12 1.03Z"/>
    <path class="cls-9" d="M207.23 88.71c1.05 3 2.52 5.9 5.18 7.91s6.74 2.84 9.92 1.3a10.73 10.73 0 0 0 2.8-2.09c2.31-2.3 3.41-3.72 4.19-6.67.59-2.19.38-6.24.42-8.48.06-3.48.19-7-1.83-9.89a11.4 11.4 0 0 0-8-4.77 19.14 19.14 0 0 0-10.53 1.39c-4.18 1.79-4.58 4.87-4.52 8.42a40.81 40.81 0 0 0 2.37 12.88Z"/>
    <path class="cls-9" d="M205.47 90.92a2.45 2.45 0 0 0 1.3.61c2.9.22 3.17-5.82 2.13-7.61a4.17 4.17 0 0 0-3.16-1.85c-1.93-.1-2.33 2.37-2.35 3.88a6.26 6.26 0 0 0 2.08 4.97Z"/>
    <path class="cls-10" d="M221.89 83a17.32 17.32 0 0 0 .81 4.38c.21.6.9 1.25.88 2.29a1.37 1.37 0 0 1-2 1.18c2.19-.41 1-1.65.21-3.06a6.55 6.55 0 0 1 .11-4.79Z"/>
    <path class="cls-11" d="M218.51 79.52a.33.33 0 0 0 .29-.11c.08-.1 0-.25 0-.36a2 2 0 0 0-2.19-.8 4 4 0 0 0-2 1.43c-.28.34-.14.76.34.66a9.41 9.41 0 0 1 3.56-.82Z"/>
    <path class="cls-10" d="M215.88 92.71a13.28 13.28 0 0 0 8 .82c-1.85 1.92-6.59 1.51-8-.82Z"/>
    <ellipse class="cls-12" cx="217.35" cy="83.05" rx="1.32" ry=".86" transform="rotate(-88.46 217.366 83.044)"/>
    <path class="cls-8" d="M227.29 76.1c-.49.83-2.15 1.28-3.12 1.26a11.14 11.14 0 0 1-4.66-1.5c-3.16-2.37-2.72-2.4-6.65-2.91.95 1.76.17 2.24-.41 4.16-.4 1.31-1.61 2.93-2 4.24a12.32 12.32 0 0 0-.16 5c2.49 16.42.4 9 .51 13.52a2.29 2.29 0 0 1-.07.87 2.36 2.36 0 0 1-.67.9l-4.74 4.58c-.55-9.59-3.16-19.1-2.33-28.67a18.5 18.5 0 0 1 1.17-5.46 11.54 11.54 0 0 1 8.61-7 57.13 57.13 0 0 1 5.71-.21 6.94 6.94 0 0 1 2.23.07 15.39 15.39 0 0 1 3.13 1.39c1.8 1.31 2.68 2.27 4.49 3.58a10.73 10.73 0 0 1 2.16 2.15c.71.89 1.72 3.1 1.13 4.26-.91 1.86-4.43-.07-4.33-.23Z"/>
    <path class="cls-13" d="m219 109.76 4-7.24c.07-.13.16-.28.28-.31a.46.46 0 0 1 .36.11l2 1.32a3 3 0 0 1 1.32 1.42 4.3 4.3 0 0 1 .17 1.2q.36 8.13 1.32 16.21a24.3 24.3 0 0 1 .26 4.09 47.66 47.66 0 0 1-1.25 6.47c-1.26 6.75.74 13.81.24 20.71A35.8 35.8 0 0 1 200 156c-.22-12.09-.74-22.05 1.53-33.8.69-3.58 1.39-9 2.82-12.2 1-2.21 2.79-7 6.42-7.34.41 0 2.1 2.21 2.91 3.16a19.45 19.45 0 0 0 5.32 3.94Z"/>
    <path class="cls-13" d="M243 123.82a4.54 4.54 0 0 0 1.16 1.07 4.68 4.68 0 0 0 2 .45q5.94.41 11.9.34a16.69 16.69 0 0 0 .63 3.78q-6.1 1.11-12.19 2.35a26.8 26.8 0 0 0-5.79 1.64c-.79.35-1.73.78-2.47.33a2.27 2.27 0 0 1-.49-.44l-10.86-11.63a3.14 3.14 0 0 1-.65-.89 3.07 3.07 0 0 1-.15-1q-.21-4.21-.37-8.43c0-1.36-2.46-7-.47-7.51 1.53-.39 5.76 5.58 6.6 6.63 1.72 2.13 3.45 4.24 5.21 6.34 1.94 2.35 3.94 4.66 5.94 6.97Z"/>
    <g clip-path="url(#clip-path)">
      <path class="cls-15" d="M212.24 99.68c.31-.52.63-1 1-1.53l-2 1.44a6.09 6.09 0 0 1 1 .09ZM212.47 99.72h-.23s-.05.09-.07.13ZM195.06 131.62c-.72 9.44 1 19.08 1.08 28.63 4.15.3 6.08-.23 10.16.66-.16-5.93-2.69-8.54-2.5-14.47.26-7.89.25-11.14 1.91-20.7.21-1.19 2.42-7.5 2.44-8.73a63.69 63.69 0 0 1-13.09 14.61Z"/>
      <path class="cls-15" d="M212.17 99.81s.05-.08.07-.13a6.09 6.09 0 0 0-1-.09l-1.26.9Z"/>
    </g>
    <path class="cls-11" d="M224.14 80.39a.35.35 0 0 1-.25-.12.31.31 0 0 1 0-.32 1.52 1.52 0 0 1 1.85-.57 3.7 3.7 0 0 1 1.67 1.43c.22.32.1.7-.29.57a8 8 0 0 0-2.98-.99Z"/>
    <ellipse class="cls-12" cx="224.97" cy="83.79" rx="1.38" ry=".79" transform="matrix(.09 -1 1 .09 120.76 300.06)"/>
    <path class="cls-16" d="M99.3 244.18c.22-2.47.8-5 .54-7.51s-.76-5-.94-7.52a.83.83 0 0 1 0-.47.87.87 0 0 1 .7-.33 31.65 31.65 0 0 1 8.42 0l-.89 8.7a9.28 9.28 0 0 0 0 2.93c.48 2.08 2.82 3.09 4.59 3.86a78 78 0 0 0 8.81 3.23c.53.15 1.16.4 1.23.92s-.32.8-.71 1a9.16 9.16 0 0 1-4.41 1.1 41.32 41.32 0 0 1-16.48-2.42 1.3 1.3 0 0 1-.54-.3 1.16 1.16 0 0 1-.24-.57 9.83 9.83 0 0 1-.18-2.86 3.08 3.08 0 0 1 .89-2.08c1-.82 1.22.61 2.16.32.24-.08.21-.4.22-.64a1.39 1.39 0 0 1 1.12-1.16 4.59 4.59 0 0 1 1.77 0l1.4.2a1.56 1.56 0 0 1 .57.16 1.75 1.75 0 0 1 .45.45 5.58 5.58 0 0 0 1 1M78.94 243.14a28.11 28.11 0 0 0 .47-3.89c0-.78-.51-9.19-.62-9.16a14.55 14.55 0 0 1 8.42-.25l-.28 4.93a33 33 0 0 0 0 5.26 8.23 8.23 0 0 0 1.9 4.34c2.78 3.59 6.48 6.34 9.81 9.42a1.53 1.53 0 0 1 .62 1 1 1 0 0 1-.24.63 3 3 0 0 1-1.77 1 7.46 7.46 0 0 1-2 .17 11.94 11.94 0 0 1-3.87-1c-1.42-.59-2.8-1.28-4.18-2-1.71-.87-3.41-1.75-5.09-2.66a11.83 11.83 0 0 1-2.11-1.38 4.18 4.18 0 0 1-1.39-2.12 5.51 5.51 0 0 1 0-1.9c.06-.8.2-1.6.33-2.39Z"/>
    <path class="cls-10" d="M112.23 167.72a7.56 7.56 0 0 1 .64 2.4 6.12 6.12 0 0 1-2.17 4.35 14.64 14.64 0 0 1-3.59 2.55 25.16 25.16 0 0 1-.79-13.38 6 6 0 0 1 2-3.73 11.52 11.52 0 0 1 2.3 3.41 34.79 34.79 0 0 0 1.61 4.4Z"/>
    <path class="cls-17" d="M102.6 76a8.1 8.1 0 0 1 5.54 4.22 21.66 21.66 0 0 1 2.11 6.85 142.5 142.5 0 0 1 2.24 23 8 8 0 0 1-.19 2.35c-.38 1.31-1.47 6.32-6.71 8.23-2-2.26-5.43-4.19-8.39-3.74-5.15.77-9.57 1.18-14.76 1.55a1.34 1.34 0 0 1-.8-.11 1.4 1.4 0 0 1-.49-1 56.51 56.51 0 0 1-.22-9.65c.19-5.35.37-10.71.84-16A41.19 41.19 0 0 1 83 83.89a9.46 9.46 0 0 1 1.73-3.63c1.44-1.69 3.7-2.43 5.89-2.83a27.92 27.92 0 0 1 10.23 0l-.33-.27"/>
    <path class="cls-18" d="M109.07 85.41a116.93 116.93 0 0 1 1 13.49c.14 4.36.16 8.8-1.1 13a21.8 21.8 0 0 1-4.39 8 17.33 17.33 0 0 0-3.74-2.24 39.42 39.42 0 0 0 5.91-14.6 89.47 89.47 0 0 0 1.47-15.76.72.72 0 0 0-.14-.54"/>
    <path class="cls-2" d="M110.43 201.36h.22v.44h-.22z"/>
    <path class="cls-10" d="M109 101.88c-.7 3.06-1.83 6.15-4.29 8.42a10.22 10.22 0 0 1-10 2.26 11.54 11.54 0 0 1-3.12-1.83 18.86 18.86 0 0 1-5.85-7.61 27.82 27.82 0 0 1-1.57-6.63c-.5-3.48-.78-7.16.91-10.3a12.77 12.77 0 0 1 8.08-5.87 20 20 0 0 1 10.91.39c4.48 1.4 5.27 4.45 5.65 8a40.08 40.08 0 0 1-.72 13.17Z"/>
    <path class="cls-19" d="M101.71 92.22c.55 1.57.82 3.15 1.67 4.34.34.58 1.16 1.11 1.35 2.17a1.42 1.42 0 0 1-1.81 1.6c2.18-.83.71-1.9-.36-3.2a6.82 6.82 0 0 1-.85-4.91Z"/>
    <path class="cls-12" d="M97.56 89.28a.35.35 0 0 0 .28-.17c.06-.11 0-.25-.1-.36a2.09 2.09 0 0 0-2.41-.39 4.13 4.13 0 0 0-1.79 1.86c-.22.4 0 .81.47.61a10 10 0 0 1 3.55-1.55ZM102.85 89a.31.31 0 0 1-.28-.07.33.33 0 0 1 0-.33 1.58 1.58 0 0 1 1.79-.95 3.85 3.85 0 0 1 2 1.14c.3.29.24.69-.19.64a8.39 8.39 0 0 0-3.32-.43Z"/>
    <ellipse class="cls-12" cx="96.68" cy="93.18" rx=".9" ry="1.38" transform="rotate(-10.05 96.729 93.2)"/>
    <ellipse class="cls-12" cx="104.66" cy="92.38" rx="1.44" ry=".83" transform="rotate(-88.72 104.657 92.382)"/>
    <path class="cls-11" d="M126.86 101.06a4.52 4.52 0 0 0-.89 1.35 3.16 3.16 0 0 0 .18 1.84c.8 2.58 1.94 5.19 4.14 7a3 3 0 0 0 1.46.74 3.8 3.8 0 0 0 2.66-1c1.86-1.37 3.84-2.92 4.27-5.07.32-1.57-.26-3.17-.68-4.72a24.85 24.85 0 0 1-.87-7.22c0 .34-3.73.86-4.15.92-1.08.14-2.69-.07-3.67.4s-.8 1.31-.92 2.21a7.41 7.41 0 0 1-1.53 3.55Z"/>
    <path class="cls-11" d="M143.34 87a16.26 16.26 0 0 1-5.4 7.71c-2.72 1.92-6.82 2.63-9.93 1a10.76 10.76 0 0 1-2.73-2.17 17.93 17.93 0 0 1-4.48-8.16 27.73 27.73 0 0 1-.52-6.67c0-3.47.34-7.1 2.44-10a12.92 12.92 0 0 1 8.67-4.71 19.12 19.12 0 0 1 10.45 1.72c4.11 1.92 4.41 5 4.24 8.54A40.71 40.71 0 0 1 143.34 87Z"/>
    <path class="cls-11" d="M145.83 88.64a2.39 2.39 0 0 1-1.31.57c-2.9.13-3-5.9-1.88-7.65a4.11 4.11 0 0 1 3.2-1.75c1.94 0 2.25 2.43 2.23 3.94a6.24 6.24 0 0 1-2.24 4.89Z"/>
    <ellipse class="cls-12" cx="132.62" cy="77.97" rx="1.36" ry=".89" transform="rotate(-84.27 132.62 77.968)"/>
    <ellipse class="cls-12" cx="125.03" cy="77.76" rx="1.43" ry=".82" transform="rotate(-88.03 125.045 77.752)"/>
    <path d="M127.71 77.33a6.75 6.75 0 0 1-.66 4.88c-1 1.31-2.43 2.41-.25 3.16a1.4 1.4 0 0 1-1.8-1.52c.15-1.06.94-1.61 1.26-2.18.8-1.2 1-2.78 1.5-4.34Z" fill="#432918"/>
    <path class="cls-21" d="M131.71 74.29a.33.33 0 0 1-.28-.15.35.35 0 0 1 .09-.36 2 2 0 0 1 2.36-.47 4 4 0 0 1 1.82 1.77c.23.39 0 .8-.44.62a9.81 9.81 0 0 0-3.55-1.41ZM126.49 74.22a.3.3 0 0 0 .27-.08.32.32 0 0 0 0-.33 1.55 1.55 0 0 0-1.79-.87 3.81 3.81 0 0 0-1.93 1.19c-.28.29-.21.69.21.63a8.22 8.22 0 0 1 3.24-.54ZM124.1 86.8c1.07-.09 2.08-.54 3.14-.73a6.52 6.52 0 0 1 3.8.46c1.66.73 3 2.14 4.78 2.51a6 6 0 0 0 5.51-1.89 7.91 7.91 0 0 0 1.35-1.9c.75-1.51 1.34-3.32 1.43-3.32.67 0 .08 3.31 0 3.55a14.69 14.69 0 0 1-5.44 9.52 12.38 12.38 0 0 1-10.44 2.14 5.62 5.62 0 0 1-2-.89 14.15 14.15 0 0 1-3.35-3.42 22 22 0 0 1-2.27-6.32 7 7 0 0 1-.16-3.35 7 7 0 0 0 1.33 2.88 3 3 0 0 0 2.32.76Z"/>
    <path class="cls-11" d="M131.78 89.42a1.74 1.74 0 0 1 .7 1.27 1.54 1.54 0 0 1-.24.71 3.41 3.41 0 0 1-2 1.68 4.2 4.2 0 0 1-3.36-.76 4.15 4.15 0 0 1-1.72-1.95 2.07 2.07 0 0 1 .33-2.06 3.23 3.23 0 0 1 1.85-.42 6.28 6.28 0 0 1 4.44 1.53Z"/>
    <path class="cls-7" d="M126.91 89.44a15.23 15.23 0 0 0 4.1.11.88.88 0 0 1 .68.1.62.62 0 0 1 .12.68 1.43 1.43 0 0 1-.47.54 5.09 5.09 0 0 1-4.19.76 2.17 2.17 0 0 1-1.74-1.91c-.02-.96 1.04-.36 1.5-.28Z"/>
    <path class="cls-17" d="M107.87 168.28c1.94 20.2 3.29 40.54 7.54 60.39a2.65 2.65 0 0 1 0 1.5 2.38 2.38 0 0 1-.91 1c-5.78 4.25-13.24 5.71-20.4 5.41s-16.14-.91-20.71-5.4c.16-14 .16-25.67.08-39.11 0-10.48-.23-20.8 4.16-30.31-.14.3 8.12 1.87 8.84 2a40.06 40.06 0 0 0 9.15.58c3.12-.17 6-1.15 9-1.54s3.01 3.05 3.25 5.48Z"/>
    <path class="cls-19" d="M96.87 104.59a13.18 13.18 0 0 0 8-.07c-1.63 2.11-6.39 2.24-8 .07Z"/>
    <path class="cls-2" d="M107.66 159.83a7.9 7.9 0 0 0 1 1.39c-.32-.42-.66-.89-1-1.39Z"/>
    <path class="cls-22" d="M294.42 148.93h3v2.5h-3zM297.42 147h-3v-4.91h3Zm0-6.87h-3v-4.9h3ZM297.42 133.24h-3v-4.91h3Zm0-6.87h-3v-4.9h3ZM38 124.32h-3v-4.9h3Zm259.39-4.81h-3v-4.91h3ZM38 117.46h-3v-4.91h3Zm259.39-4.82h-3v-4.9h3ZM38 110.59h-3v-4.9h3Zm259.39-4.81h-3v-4.91h3ZM38 103.73h-3v-4.91h3Zm259.39-4.82h-3V94h3ZM38 96.86h-3V92h3Zm259.39-4.81h-3v-4.91h3ZM38 90h-3v-4.91h3Zm259.39-4.82h-3v-4.9h3ZM38 83.13h-3v-4.9h3Zm259.39-4.82h-3v-4.9h3ZM38 76.26h-3v-4.9h3Zm259.39-4.81h-3v-4.9h3ZM38 69.4h-3v-4.9h3Zm259.39-4.82h-3v-4.9h3ZM38 62.53h-3v-4.9h3Zm259.39-4.81h-3v-4.91h3ZM38 55.67h-3v-4.91h3Zm259.39-4.82h-3V46h3ZM38 48.8h-3v-1.4a28.51 28.51 0 0 1 .26-3.7l3 .42a25.6 25.6 0 0 0-.26 3.29Zm256.34-4.71a20 20 0 0 0-.84-4.46l2.87-.89a22.5 22.5 0 0 1 1 5.15ZM38.59 42.31l-2.92-.65a25.87 25.87 0 0 1 1.62-4.93L40 37.94a23.58 23.58 0 0 0-1.41 4.37Zm254.33-4.4a21.09 21.09 0 0 0-2.2-4l2.46-1.72a24 24 0 0 1 2.51 4.57ZM40.85 36.29l-2.64-1.43a26.33 26.33 0 0 1 2.91-4.29l2.31 1.91a23.84 23.84 0 0 0-2.58 3.81Zm248.76-3.84a23.24 23.24 0 0 0-3.28-3.22l1.87-2.34a25.56 25.56 0 0 1 3.71 3.64ZM44.66 31.1 42.5 29a28.16 28.16 0 0 1 3.94-3.37l1.72 2.46a23.82 23.82 0 0 0-3.5 3.01Zm240.18-3a24.07 24.07 0 0 0-4-2.24l1.16-2.71a28.12 28.12 0 0 1 4.53 2.51Zm-235.12-1-1.53-2.58a27.52 27.52 0 0 1 4.69-2.21l1 2.83a24.41 24.41 0 0 0-4.16 1.97Zm229.36-1.89a26.54 26.54 0 0 0-4.48-1.15l.48-3a29.1 29.1 0 0 1 5 1.28Zm-223.43-.62-.8-2.89a27.52 27.52 0 0 1 5.1-.9l.24 3a25 25 0 0 0-4.54.79Zm217.11-.76c-.84-.08-1.69-.12-2.54-.12H268v-3h2.22c.94 0 1.89.05 2.82.13ZM62 23.71v-3h4.92v3Zm204 0h-4.9v-3h4.9Zm-6.86 0h-4.91v-3h4.91Zm-6.87 0h-4.9v-3h4.9Zm-6.86 0h-4.91v-3h4.91Zm-6.87 0h-4.9v-3h4.9Zm-6.86 0h-4.88v-3h4.91Zm-6.87 0h-4.9v-3h4.9Zm-6.86 0h-4.91v-3H218Zm-6.87 0h-4.9v-3h4.9Zm-6.86 0h-4.91v-3h4.91Zm-6.87 0h-4.9v-3h4.9Zm-6.87 0h-4.9v-3h4.9Zm-6.86 0h-4.91v-3h4.91Zm-6.87 0h-4.9v-3h4.9Zm-6.86 0H165v-3h4.91Zm-6.87 0h-4.9v-3h4.9Zm-6.86 0h-4.91v-3h4.91Zm-6.87 0h-4.9v-3h4.9Zm-6.86 0h-4.91v-3h4.91Zm-6.87 0h-4.9v-3h4.9Zm-6.87 0h-4.9v-3h4.9Zm-6.86 0H117v-3h4.9Zm-6.87 0h-4.9v-3H115Zm-6.86 0h-4.91v-3h4.91Zm-6.87 0h-4.9v-3h4.9Zm-6.86 0h-4.88v-3h4.91Zm-6.87 0h-4.9v-3h4.9Zm-6.86 0h-4.88v-3h4.91Zm-6.87 0H68.9v-3h4.9ZM35.03 126.34h3v2.5h-3z"/>
    <path class="cls-2" d="M111.46 160.72a1 1 0 0 0 .07-.15 26.1 26.1 0 0 0-2.4-2.64c.78 1.07 1.55 1.94 2.33 2.79Z"/>
    <g clip-path="url(#clip-path-2)">
      <path class="cls-18" d="M85.23 163.66c-.52 2.46-1 4.93-1.45 7.41-1.62 9.78-1.49 19.75-1.28 29.66q.41 18.83 1.18 37.64Q76 235.33 68 233a2.41 2.41 0 0 0 .58-1.66L73 174.17c.3-3.79.62-7.69 2.33-11.07a7 7 0 0 1 3.17-3.41c1.81-.8 3.82-.33 5.59.32 2.11.77 1.56 1.67 1.14 3.65Z"/>
    </g>
    <path class="cls-24" d="M117.62 142.41a15.44 15.44 0 0 0-1.16-3.78 140 140 0 0 0-8.06-16.46 15.24 15.24 0 0 0-4.2-5c-1.7-1.24-3.79-1.06-5.83-1.17a116.71 116.71 0 0 0-16.41.25 101.59 101.59 0 0 0-2.23 15.35q-1.45 15.83-2.54 31.67a39.38 39.38 0 0 0 29.11.92l.54-1.72c-.65-9.08 2.15-18.54-.92-27.1 2.33 4.27 4.73 8.81 4.52 13.66a26.78 26.78 0 0 1-1.53 6.87c-.41 1.32-.83 2.64-1.25 4 .34.5.68 1 1 1.42a25.26 25.26 0 0 1 2.41 2.65 78.28 78.28 0 0 0 6.08-16.48 14.42 14.42 0 0 0 .47-5.08Z"/>
    <path class="cls-2" d="m106.84 162.44-.54 1.72.67-.24c-.05-.49-.09-.99-.13-1.48Z"/>
    <path class="cls-10" d="M36.17 131.57a.77.77 0 0 0-.3 0 .51.51 0 0 0-.37.59 1.28 1.28 0 0 0 .39.66 6.77 6.77 0 0 0 3.45 2 12.54 12.54 0 0 1-6.27-.82 23.86 23.86 0 0 0-4-1.61 10.34 10.34 0 0 0 .38 3.79 3.86 3.86 0 0 0 .71 1.47 4.16 4.16 0 0 0 1 .79 24.51 24.51 0 0 0 5.4 2.5 6.23 6.23 0 0 0 2.76.4 9.88 9.88 0 0 0 3.16-1.43 4 4 0 0 1 3.33-.56c-.3-.12-.23-2.33-.49-2.78a7.82 7.82 0 0 0-2.59-2 24.06 24.06 0 0 0-6.56-3Z"/>
    <path class="cls-17" d="M109 84.14c-.85-4.09-3.35-7.7-7.45-8.53a22.89 22.89 0 0 0-12.75 1.33 13.31 13.31 0 0 0-2.9 2.29c-1.05 1.16-1.69 4.18-1.47 5.7s2.42 1.18 3.55 1.3a51.94 51.94 0 0 0 13.52-.68c.63-.1 7.5-1.36 7.5-1.41Z"/>
    <g clip-path="url(#clip-path-3)">
      <path class="cls-26" d="M87 171.46a81.36 81.36 0 0 1-9.58-2.53 5.15 5.15 0 0 1-3.1-2 5.24 5.24 0 0 1-.43-2.61 249.31 249.31 0 0 1 5.46-49.09 1.62 1.62 0 0 1 .36-.86c1-.95 3.1-.12 3.36 1.07.37 1.62-.43 4.08-.58 5.75q-.49 6.15-.49 12.33a143.84 143.84 0 0 0 2.09 24.6c.39 2.24.83 4.48 1.33 6.7.12.71 1.08 6.53 1.58 6.64Z"/>
      <path class="cls-27" d="m107.64 159.8.39.56v-.11l-.43-.48Z"/>
      <path class="cls-26" d="M112.67 146.47a23 23 0 0 0-2.55-11.11 66.7 66.7 0 0 0-6.12-9.75c1.06 4.59 1.8 9.45 3.26 13.91a32.19 32.19 0 0 1 1.74 13.13 38.37 38.37 0 0 1-1.34 7.12l.43.48.66-1.42c1.83-3.95 3.69-8.02 3.92-12.36Z"/>
      <path class="cls-27" d="M107.64 159.82a4.6 4.6 0 0 0 .37.6v-.06l-.39-.56Z"/>
    </g>
    <path class="cls-24" d="M64.2 137.07a2.69 2.69 0 0 1-2.78 1.33c-5.46-.1-10.73-1.73-16.1-2.68a19.41 19.41 0 0 0-1 4.2 148 148 0 0 0 13.85 7.37 7.49 7.49 0 0 0 4.12 1 7.6 7.6 0 0 0 2.95-1.38l17.62-11.6a1.52 1.52 0 0 0 .59-.56 1.57 1.57 0 0 0 .1-.86l-.6-8.7c-.1-1.48.35-6.32-1.66-6.88-1.51-.42-4.46 4-5.42 5-1.9 2.11-3.76 4.24-5.6 6.39q-3.07 3.64-6.07 7.37Z"/>
    <path class="cls-17" d="M90.47 100.7a21.56 21.56 0 0 0 2.18 5.35 8.42 8.42 0 0 0 11.31 3.5 9.38 9.38 0 0 0 4.46-5.17 44.22 44.22 0 0 1-7.88 18.19c-1.33 1.74-2.92 3.44-5 4a8.58 8.58 0 0 1-5.7-.77 32.33 32.33 0 0 1-7.69-5.49 4.64 4.64 0 0 1-1.31-1.55c-.5-1.19.06-2.53.49-3.74 1.52-4.32 1.3-9 1.25-13.61q-.06-5.81.27-11.61a29.23 29.23 0 0 1 .49-4.37 1.66 1.66 0 0 1 .66-1.17 1.77 1.77 0 0 1 1.3 0l2.79.77a.31.31 0 0 1 .23.18c-.55.62-.06 2.78 0 3.61.11 1.35.27 2.69.47 4a61.34 61.34 0 0 0 1.68 7.88Z"/>
    <path class="cls-28" d="M201.72 174.9a29.92 29.92 0 0 0-2.51 9.47 3.12 3.12 0 0 0 .14 1.52 1.32 1.32 0 0 0 1.3.81 13 13 0 0 0 1.25-1.81 19.59 19.59 0 0 1-.66 7.76 1.09 1.09 0 0 0 0 .85c.2.32.67.38 1.07.41 1.45.08 3.06.12 4.18-.75a4.6 4.6 0 0 0 1.4-2.33 21.15 21.15 0 0 0-1.48-16.48"/>
    <path class="cls-13" d="M209.55 102.81a23.33 23.33 0 0 0-8.24 5.31c-4.85 5.26-9.06 11.42-13.9 16.68 1.48 2.63 4.27 8.3 5.75 10.92 2.5-3 15.05-15.8 14.75-29.83"/>
    <path fill="#dadada" d="M266.77 185.13h2.38v65.68h-2.38z"/>
    <path class="cls-30" d="M275.2 149.34a37 37 0 0 1 .88 5 4 4 0 0 1-.19 2.12c-.46.92-1.47 1.19-2.34 1.54a7.76 7.76 0 0 0-2.68 1.86 3.15 3.15 0 0 0-.81 1.24 4 4 0 0 0-.08 1.61c.33 4.86.11 9.1.44 14a6.9 6.9 0 0 0 .82 1.89 1.77 1.77 0 0 0 .75.54q3.45 1.63 6.86 3.42c.76.4 1.31.37 1.66 1.25s-.48 3.84-2.88 2.66a58.24 58.24 0 0 0-7.26-3.11c0 1 .06 2.59.06 3.61s-2.55 1-3.8.51a.79.79 0 0 1-.4-.24 1.16 1.16 0 0 1-.12-.74 155.88 155.88 0 0 0-.09-19.81 8.26 8.26 0 0 0-.31-2c-.15-.48-.39-.92-.57-1.39a12.36 12.36 0 0 1-.63-3.11l-1.06-9.09c-.07-.54 6.45-2.58 7.12-2.78 1.55-.48 4.05-1.32 4.63 1.02Z"/>
    <path class="cls-28" d="M272.94 158.61a1 1 0 0 0 .28.66 1.23 1.23 0 0 0 .46.18 150.59 150.59 0 0 0 16.63 2.5 5.13 5.13 0 0 0 1.66 0 4.22 4.22 0 0 0 1.52-.84c1.32-1 2.39-2.36 3.63-3.5a8.1 8.1 0 0 1 4.36-2.34.58.58 0 0 1 .52.12c.19.22 0 .55-.22.76l-3.45 3.63a9.94 9.94 0 0 0 5.56-1.12c1.53-.81 4.89-4.36 6.18-1.46a3.82 3.82 0 0 1-.26 3.09c-1.66 3.56-5.58 5.5-9.41 6.41-3.48.82-6-.18-9.4-.63a28.73 28.73 0 0 0-5.08 0 140.05 140.05 0 0 1-17.73-.63 1.92 1.92 0 0 1-2.21-2c-.58-3.46-1-6.94-1.34-10.43 0-.27 6.08-1.42 6.69-1 1.38.92 1.35 5.12 1.61 6.6ZM239.36 176.71a4.19 4.19 0 0 1 0 3.75q-2.4 6.45-5 12.8a28 28 0 0 1-1.75-4.71 11.25 11.25 0 0 1-.5-3.05 12.16 12.16 0 0 1 .83-4.07 34.58 34.58 0 0 1 1.84-4.24 3.16 3.16 0 0 0 .4-1 3 3 0 0 0-.53-1.69 162.39 162.39 0 0 1-8.76-18.65 3.45 3.45 0 0 1-.33-1.44 3.37 3.37 0 0 1 .34-1.06 36.56 36.56 0 0 1 7.58-10.76c1.15 3.65 3.71 7.81 1.58 11.48-.47.8-1.4 1.68-1.55 2.63-.18 1.16.57 2.76.87 3.87.7 2.58 1.45 5.16 2.24 7.71q1.28 4.23 2.74 8.43ZM228.26 215.05c0 1.51.15 3 .29 4.52l2.9 32.29q2.15-.24 4.29-.27a152.54 152.54 0 0 1-.1-19.36c.31-3.83.89-7.75.07-11.46-.19-.89-.47-1.76-.61-2.67-.39-2.62.43-5.26 1.23-7.74l-3.76-2c-.84-.45-2.09-1.47-3.06-1-1.67.73-1.25 5.95-1.25 7.69ZM258.71 218.15l-.8 33.71a8.68 8.68 0 0 1-4.66-.09 240.56 240.56 0 0 0-2.57-35.42 3 3 0 0 1 .06-1.69 2 2 0 0 1 .92-.88c1.51-.86 4.58-2.38 6.25-1.62 1.43.66.84 4.54.8 5.99Z"/>
    <path d="M262.54 187.47q-.6 14.25.12 28.53a3.78 3.78 0 0 1-.17 1.71 3.29 3.29 0 0 1-.82 1.07 14.13 14.13 0 0 1-7.35 3.44 26.54 26.54 0 0 1-8.2-.11q-1.32-11.4-2.27-22.83a79.9 79.9 0 0 0-3.52 21.86c-4.51.49-9-.4-13.47-1.3a.89.89 0 0 1-.53-.23.88.88 0 0 1-.17-.57c-.31-5.31 1.76-10.42 3.37-15.49 1.1-3.49 2-7.05 3.17-10.52a147.52 147.52 0 0 1 7.11-16.64 15.71 15.71 0 0 0 16.89 1.76c1.57-.82 5.54-3.65 5.87-.45a66.38 66.38 0 0 1-.03 9.77Z" fill="#607395"/>
    <g clip-path="url(#clip-path-4)">
      <path d="M257.32 190a158.57 158.57 0 0 0 2.35 34 17.22 17.22 0 0 1 4.89-2.88 1.44 1.44 0 0 0 .87-.6 1.42 1.42 0 0 0 .08-.65c-.27-7.73.86-15.43 1.88-23.09.66-5 1.28-10.06.63-15.06a12.84 12.84 0 0 0-1.49-4.94 6.14 6.14 0 0 0-4-3 6.08 6.08 0 0 0-4.78 1.32c-1 .86-.49 1.87-.36 3 .46 3.9.08 7.9-.07 11.9Z" fill="#4e5e7a"/>
    </g>
    <path class="cls-28" d="M248.57 123.12a4.12 4.12 0 0 0-.84 1.28 3 3 0 0 0 .16 1.75 13.16 13.16 0 0 0 3.93 6.6 2.91 2.91 0 0 0 1.4.7 3.62 3.62 0 0 0 2.53-1c1.76-1.3 3.64-2.77 4.05-4.82.3-1.49-.25-3-.65-4.48a23.72 23.72 0 0 1-.82-6.85c0 .32-3.55.81-3.95.86-1 .14-2.55-.06-3.48.39s-.76 1.24-.88 2.1a7 7 0 0 1-1.45 3.47Z"/>
    <path class="cls-34" d="M249.84 120.73a6.26 6.26 0 0 0 .16-.73c.12-.86-.06-1.65.88-2.1s2.46-.25 3.49-.39c.39-.05 3.93-.54 3.94-.86a22.61 22.61 0 0 0 .24 3.94 14.66 14.66 0 0 1-8.71.14Z"/>
    <path class="cls-28" d="M263 110.57a16.74 16.74 0 0 1-5.68 6.89c-2.62 1.65-6.32 2.1-8.88.43a8.41 8.41 0 0 1-2.15-2.14 15.65 15.65 0 0 1-3-7.78 27 27 0 0 1 .33-6.21c.46-3.22 1.14-6.57 3.33-9.13a12.31 12.31 0 0 1 8.22-4 15.53 15.53 0 0 1 9 2.1c3.4 2 3.29 4.85 2.72 8.12a41.18 41.18 0 0 1-3.89 11.72Z"/>
    <path class="cls-28" d="M264.77 113.05a2.15 2.15 0 0 1-1.34.18c-2.69-.62-1.21-6.15.23-7.47A3.91 3.91 0 0 1 267 105c1.78.46 1.44 2.8 1 4.17a5.9 5.9 0 0 1-3.23 3.88Z"/>
    <ellipse class="cls-12" cx="254.89" cy="101.93" rx="1.3" ry=".84" transform="rotate(-79.01 254.895 101.932)"/>
    <ellipse class="cls-12" cx="247.74" cy="101.07" rx="1.35" ry=".78" transform="rotate(-82.77 247.753 101.066)"/>
    <path class="cls-34" d="M250.31 100.9a6.33 6.33 0 0 1-1 4.57c-1.08 1.16-2.5 2-.54 3a1.34 1.34 0 0 1-1.63-1.61c.23-1 1-1.45 1.38-2a17.26 17.26 0 0 0 1.82-4Z"/>
    <path class="cls-7" d="M248.57 111.63a13.58 13.58 0 0 0 3.71.21.8.8 0 0 1 .61.11.53.53 0 0 1 .08.6 1.29 1.29 0 0 1-.44.46 4.82 4.82 0 0 1-3.82.56 1.93 1.93 0 0 1-1.51-1.73c.03-.84.96-.29 1.37-.21Z"/>
    <path class="cls-35" d="M254.36 98.38a.38.38 0 0 1-.26-.18.34.34 0 0 1 .12-.33 2 2 0 0 1 2.28-.24 4 4 0 0 1 1.57 1.84c.18.39-.05.76-.48.54a9.46 9.46 0 0 0-3.23-1.63ZM249.42 97.86a.3.3 0 0 0 .26-.06.29.29 0 0 0 0-.31 1.49 1.49 0 0 0-1.62-1 3.65 3.65 0 0 0-1.93 1c-.29.25-.26.63.14.61a7.77 7.77 0 0 1 3.15-.24Z"/>
    <path class="cls-35" d="M267.57 87.12a9.84 9.84 0 0 0-5.15-2.4 29.2 29.2 0 0 0-5.76-.27l-6.14.11a24.06 24.06 0 0 0-6.93.82 3.82 3.82 0 0 0-1.73 1 1.68 1.68 0 0 0-.33 1.86c.3.54 1 .87 1.07 1.47A1.57 1.57 0 0 1 242 91c-.58.54-1.25 1-1.82 1.53a2.81 2.81 0 0 0-.95 2.1.45.45 0 0 0 .12.32.48.48 0 0 0 .37.09 10.16 10.16 0 0 0 1.46-.14c-.11.95-.14 2.1.66 2.63a2.54 2.54 0 0 0 2.34-.17 36.38 36.38 0 0 0 5.09-2.69 2.53 2.53 0 0 0 2.36 1.4 5.79 5.79 0 0 0 3.61-1c-.07.22.22.36.44.39 2.58.4 5.35-.28 7.75.75-.63.58-1.33 1.42-.95 2.2a3.93 3.93 0 0 1 .33.6c.11.43-.22.83-.45 1.21a4.85 4.85 0 0 0-.37 3.28 21.72 21.72 0 0 1 0 4.19c0 .42.64.69 1.31.21.26-.83 1.18-2.53 2-2.88a2.69 2.69 0 0 1 2.82.74 18 18 0 0 0 2.62-3.49 6.58 6.58 0 0 0 1.26-4.38 8 8 0 0 0-1-2.84 10.42 10.42 0 0 1-1.4-2.71 13.64 13.64 0 0 0-.32-2.74 6.54 6.54 0 0 0-1.71-2.48Z"/>
    <g opacity=".4">
      <circle class="cls-35" cx="252.62" cy="105.21" r=".25"/>
      <circle class="cls-35" cx="246.8" cy="104.21" r=".14"/>
      <circle class="cls-35" cx="248.47" cy="103.28" r=".15"/>
      <circle class="cls-35" cx="252.62" cy="103.5" r=".17"/>
      <circle class="cls-35" cx="254.89" cy="105.04" r=".17"/>
      <circle class="cls-35" cx="255.12" cy="107.43" r=".15"/>
      <circle class="cls-35" cx="250.67" cy="106.29" r=".14"/>
      <ellipse class="cls-35" cx="252.56" cy="106.29" rx=".12" ry=".14"/>
      <circle class="cls-35" cx="245.9" cy="106.26" r=".15"/>
      <circle class="cls-35" cx="245.45" cy="105.12" r=".12"/>
      <circle class="cls-35" cx="245.39" cy="103.46" r=".14"/>
    </g>
    <path d="M253.66 126.45a6.78 6.78 0 0 1-5.56-3.45c-2.26 1.12-5 .88-7.18 2.22a11 11 0 0 0-3.21 3.73L228.89 143a3.45 3.45 0 0 0-.47.94 3.15 3.15 0 0 0 .1 1.58 25.65 25.65 0 0 0 7.5 12.81 17.88 17.88 0 0 0 3.15-3.52 103 103 0 0 1-.54 23c2.87 1.94 5.87 3.92 9.3 4.44 5 .76 9.86-1.72 14.14-4.38a1.89 1.89 0 0 0 1.14-2.2c-.42-9.75-1-19-.92-18.94a58.57 58.57 0 0 0 12.55-3.73l-2.06-14.35c-.69-4.77-2.5-9.56-6.29-12.53-2-1.56-4.74-3-7.24-2.74a8.1 8.1 0 0 1-1.79 2.09 6.64 6.64 0 0 1-3.8.98Z" fill="#fdc533"/>
    <g clip-path="url(#clip-path-5)">
      <path class="cls-7" d="M239 155.05a18.24 18.24 0 0 0-1.45 2.68c-4.21-4.72-6.92-10.56-9.55-16.31a1.31 1.31 0 0 1-.18-.64 1.39 1.39 0 0 1 .33-.73c.56-.8 1.47-2.94 2.68-1.88.88.77 1.08 3 1.46 4.12a48.17 48.17 0 0 0 3.86 8.42c.27.45 2.95 4.18 2.85 4.34ZM262 150.44a.5.5 0 0 0-.37.22.53.53 0 0 0 0 .33l.7 3.75q6.66-2 13.13-4.61a.38.38 0 0 0 .2-.15c.34-.61-.55-3.6-1.15-4.06-1-.76-2.69.73-3.61 1.2a47.53 47.53 0 0 1-8.9 3.32ZM236.11 172.94l-.4 2c2.56 1.26 5.16 2.41 7.82 3.46a20.15 20.15 0 0 0 4.07 1.25 15.59 15.59 0 0 0 8.68-1.5c2.71-1.22 5.2-2.87 7.8-4.33-.07-.57 0-2.44-.56-2.61s-2 .91-2.47 1.09a34.78 34.78 0 0 1-5.91 1.81 35.94 35.94 0 0 1-12.41.43c-.58-.06-6.73-1.21-6.62-1.6Z"/>
    </g>
    <g clip-path="url(#clip-path-6)">
      <path class="cls-40" d="M263.4 129.18a26.51 26.51 0 0 1 3 5.38c3.06 7.26 4 15.25 4.27 23.13a17.85 17.85 0 0 1 6.54-1.22c.19-2.43.24-4.88.21-7.32-.06-5.77-.57-11.67-2.9-17s-6.76-9.9-12.38-11.2a18.49 18.49 0 0 0-3.15-.42 1.58 1.58 0 0 0-.94.14 1.73 1.73 0 0 0-.47.57c-.66 1.14-1.35 2.32-2 3.42.67-1 3.5.54 4.23 1a20.75 20.75 0 0 1 3.59 3.52ZM263.3 162.32l2.7 14.09q-3.6 3.42-7.42 6.59.58-5 1.15-10c.2-1.74.4-3.48.47-5.23.06-1.45 0-2.9 0-4.35q0-3.69.24-7.38c.14-2.24 0-5 .71-7.09a18 18 0 0 0 .45 2.3c.11 1.26.26 2.5.44 3.75.34 2.44.8 4.88 1.26 7.32ZM239.48 143.36a16.32 16.32 0 0 1-2.83 5.82q-2.18 3.21-4.53 6.29a47.57 47.57 0 0 1 2.44 7.16c-.1-.37 1.32-1.9 1.58-2.26.54-.75 1.11-1.48 1.66-2.22a5.74 5.74 0 0 0 1.33-2.88 86 86 0 0 0 .35-11.91Z"/>
    </g>
    <path class="cls-41" d="M235.46 249.33c2-.07 2 6.28 2 6.78s-2.29 2-3.63 2.27-2.71.81-4.06 1.09a20 20 0 0 0-3.38 1.26 19.87 19.87 0 0 1-14 .82.69.69 0 0 1-.3-.17.77.77 0 0 1-.09-.38 5.93 5.93 0 0 1 2.58-5.39 11 11 0 0 1 5.57-1.63 34 34 0 0 0 5.79-.57 1.68 1.68 0 0 0 .79-.36 2.05 2.05 0 0 0 .44-.76 27.06 27.06 0 0 0 .91-2.67 1.7 1.7 0 0 1 .26-.62 1.33 1.33 0 0 1 .49-.35c1-.48 2-.08 3.07 0 .92.34.17 1.89.44 2a2.29 2.29 0 0 0 3.12-1.32Z"/>
    <g clip-path="url(#clip-path-7)">
      <path class="cls-7" d="M216.92 253.46a7.09 7.09 0 0 1 5.58 2 8.15 8.15 0 0 1 1.8 5.24 6.19 6.19 0 0 1-.16 1.92 42.34 42.34 0 0 1-10.1.72 4.57 4.57 0 0 1-3-1.1 4 4 0 0 1-.9-2.08 6 6 0 0 1 0-2.19 7.19 7.19 0 0 1 1-2.28 18 18 0 0 1 2-2.6 5.31 5.31 0 0 1 1.64-1.31"/>
      <path class="cls-7" d="M229.5 258.48c1.34-.33 2.74-.39 4-.82a12.75 12.75 0 0 0 4.5-2.86c.16.59.31 1.19.45 1.79a1 1 0 0 1 0 .43 1.2 1.2 0 0 1-.18.31 15.76 15.76 0 0 1-5.18 4.13 23.38 23.38 0 0 1-6.32 2.1 8.56 8.56 0 0 1-3.63.1.53.53 0 0 1-.26-.13.51.51 0 0 1-.07-.32V261c0-.74.18-.77.77-.82a14.77 14.77 0 0 0 3.81-1 20.22 20.22 0 0 1 2.11-.7Z"/>
    </g>
    <path class="cls-41" d="M258 250.45c2-.07 2.05 6.28 2 6.79s-2.28 1.95-3.62 2.26-2.71.81-4.06 1.1a18.39 18.39 0 0 0-3.38 1.26 19.89 19.89 0 0 1-14 .81.66.66 0 0 1-.29-.17.65.65 0 0 1-.12-.36 5.92 5.92 0 0 1 2.58-5.39 10.86 10.86 0 0 1 5.57-1.64 35.15 35.15 0 0 0 5.79-.56 1.69 1.69 0 0 0 .79-.37 2.13 2.13 0 0 0 .43-.75 27.11 27.11 0 0 0 .92-2.67 1.8 1.8 0 0 1 .25-.62 1.33 1.33 0 0 1 .49-.36c1-.48 2-.08 3.08 0 .91.34.17 1.9.44 2a2.27 2.27 0 0 0 3.13-1.33Z"/>
    <g clip-path="url(#clip-path-8)">
      <path class="cls-7" d="M239.47 254.58a7.07 7.07 0 0 1 5.59 2 8.12 8.12 0 0 1 1.8 5.23 6.17 6.17 0 0 1-.16 1.92 41.91 41.91 0 0 1-10.11.72 4.51 4.51 0 0 1-3-1.1 4 4 0 0 1-.89-2.08 5.92 5.92 0 0 1 0-2.18 6.88 6.88 0 0 1 1-2.28 18.13 18.13 0 0 1 2-2.61 5.42 5.42 0 0 1 1.64-1.3"/>
      <path class="cls-7" d="M252.06 259.61c1.33-.33 2.73-.39 4-.82a12.93 12.93 0 0 0 4.41-2.87c.16.59.31 1.19.45 1.79a.93.93 0 0 1 0 .44.78.78 0 0 1-.18.3 15.78 15.78 0 0 1-5.17 4.14 23.47 23.47 0 0 1-6.32 2.09 8.56 8.56 0 0 1-3.63.1.41.41 0 0 1-.26-.13.51.51 0 0 1-.07-.32v-2.21c0-.74.18-.76.77-.82a14.38 14.38 0 0 0 3.81-1 20.16 20.16 0 0 1 2.19-.69Z"/>
    </g>
    <path class="cls-30" d="M263.53 161.36a26.66 26.66 0 0 1-1.57-7.9l5.04-2.06a1.37 1.37 0 0 1 .62-.14c.55.05.79.69.91 1.22a38.23 38.23 0 0 1 .94 8 1.58 1.58 0 0 1-.14.81 1.45 1.45 0 0 1-.63.54 12.27 12.27 0 0 1-4.32 1.49.62.62 0 0 1-.48 0 .69.69 0 0 1-.24-.46l-.58-2.71"/>
    <path d="M269 249.93a1.4 1.4 0 0 1 .5.06 1.47 1.47 0 0 1 .42.28c1.09 1 1.32 2.81 1.32 4.28 0 .48-.83.62-1.36.72a8.48 8.48 0 0 1-4.75-.34.34.34 0 0 1-.16-.1.37.37 0 0 1-.05-.23 12.75 12.75 0 0 1 .22-2.22 4.87 4.87 0 0 1 .43-1.37c.23-.44.66-1 1.18-1.09a14.09 14.09 0 0 1 2.25.01Z" fill="#706f6f"/>
    <path class="cls-30" d="M277.52 182.75a1.74 1.74 0 0 1 2.9-.3 2.39 2.39 0 0 1 .47 1.5 3.9 3.9 0 0 1-1.14 2.77 2 2 0 0 1-1.79.66 2 2 0 0 1-1.26-1.79 3.34 3.34 0 0 1 1.81-3.57"/>
    <path class="cls-45" d="M200.19 168.63a137.19 137.19 0 0 1-15.31 71.21c-.32.61-.81 2.22-1.36 2.62a4.42 4.42 0 0 1-1.75.42c-2.25.51-4.3.24-6.55.75.61-14.6 1.87-28.72-1.79-42.87C172.1 215 167.82 230 169 244.21a21.3 21.3 0 0 1-6.9.37c-.41 0-.85.18-1.21 0a1.56 1.56 0 0 1-.58-.73c-5.65-11-7.48-23.43-9.12-35.65-1.7-12.67-3.24-25.85.67-38a166 166 0 0 0 27.22.32c6.4-.46 12.87-1.32 19.21-.31Z"/>
    <g clip-path="url(#clip-path-9)">
      <path d="M173.4 200.86c6.94 13.89 6.25 30.29 4.08 45.66a94 94 0 0 1-24.78 8.07q-4.65-15.72-8.31-31.7c-4.25-18.55-7.5-37.92-3.42-56.52a2.39 2.39 0 0 1 2.59-2.49 115.16 115.16 0 0 1 14.27-.17c-3.46 12.53-2.65 25.79-1.76 38.76 1 15 2.19 30.21 6.66 44.6a38.88 38.88 0 0 0 8.56-1.56q1.88-19.66 2-39.43" fill="#432918" opacity=".5"/>
    </g>
    <path class="cls-48" d="M205.49 144.88c2.91 10.29 3 21.08 2.39 31.71l-7 .13c-2.63-12.36-5.32-24.89-11.29-36.22a40 40 0 0 1-2-4c-1-2.5-5.06-19.79-5-19.77a30.8 30.8 0 0 1 12.83 9 46.33 46.33 0 0 1 5.82 8.56 50.32 50.32 0 0 1 4.25 10.59Z"/>
    <g clip-path="url(#clip-path-10)">
      <path class="cls-50" d="M177 117.22a71.07 71.07 0 0 1 20.52 28.51 98.09 98.09 0 0 1 6.48 33.38c-.8-.88-2.25-1-3.54-1l-7.49-.08a49.11 49.11 0 0 0-1.13-14 306.22 306.22 0 0 0-7.7-30 70.51 70.51 0 0 0-5.34-14"/>
    </g>
    <path class="cls-48" d="M196.5 142.38q1.47 5.61 2.85 11.25c1.48 6.12 2.88 12.47 1.83 18.69-4 1.76-8.45 2.2-12.81 2.47a207.92 207.92 0 0 1-36.75-.91 94.53 94.53 0 0 1 2.93-30.26A63.74 63.74 0 0 1 169 117.06a34.22 34.22 0 0 0 3.77 1.48 13.53 13.53 0 0 0 4.26.21 13.39 13.39 0 0 0 4.2-1.2c1-.46 2.24-1.75 3.38-1.41s2.17 2.4 2.79 3.32a43.28 43.28 0 0 1 2.38 4 62.69 62.69 0 0 1 3.69 8.74c1.18 3.34 2.12 6.8 3.03 10.18Z"/>
    <path class="cls-28" d="M152 176.72a30 30 0 0 1 2.5 9.47 3.05 3.05 0 0 1-.13 1.53 1.33 1.33 0 0 1-1.3.8 11.89 11.89 0 0 1-1.25-1.81 19.83 19.83 0 0 0 .65 7.77 1.05 1.05 0 0 1 0 .85c-.2.32-.67.38-1.07.4-1.45.08-3.07.12-4.18-.74a4.67 4.67 0 0 1-1.4-2.34 21.16 21.16 0 0 1 1.48-16.48"/>
    <g clip-path="url(#clip-path-11)">
      <path class="cls-50" d="M159.52 182.11q-5.29-.24-10.59-.69a2.47 2.47 0 0 1-1.72-.63 2.52 2.52 0 0 1-.37-1.63c.13-12.6-.77-25.36 1.84-37.69a51.33 51.33 0 0 1 7-17.33c1.57-2.41 8.4-12.77 11.13-7.61 1.36 2.57-.16 5.55-.95 8q-1.74 5.41-3 10.94a144.59 144.59 0 0 0-3.3 46.64Z"/>
    </g>
    <path class="cls-45" d="M173.43 84h.16a10.79 10.79 0 0 0 2.33-.5c1-.19 1.85.5 2.87.5a6.24 6.24 0 0 1 3.47 1 7.22 7.22 0 0 0 1.38.83c.36.12.75.15 1.12.25a3.25 3.25 0 0 1 1.9 1.34 2.44 2.44 0 0 0 .32.45 2.09 2.09 0 0 0 .64.35 5.52 5.52 0 0 1 3.52 4.52 7.51 7.51 0 0 0 .12 1.78c.2.63.7 1.13 1 1.74a2.5 2.5 0 0 1-.1 2.09c-.33.64-1 1.15-1.09 1.86-.19 1 .65 2 .2 3a5.22 5.22 0 0 1-.54.7 8.57 8.57 0 0 0-.77 1.81 1.8 1.8 0 0 1-1.4 1.23q-.15-5.37-.49-10.71a4 4 0 0 0-.61-2.25 9 9 0 0 0-1.52-1.22c-.47-.39-.84-.89-1.31-1.28a5.82 5.82 0 0 0-2.4-1.08 17.39 17.39 0 0 0-10.34.56c-2.33.87-4.66 2.53-5.08 5-.28 1.67.39 3.35.37 5a12.16 12.16 0 0 1-.67 3.35l-.76 2.58a1.42 1.42 0 0 1-.27.55 1.31 1.31 0 0 1-.72.31c-1.13.23-2.48.4-3.28-.43s-.62-1.84-1-2.76a11.88 11.88 0 0 1-1.09-2.28 9.74 9.74 0 0 1 .26-2.33 8.51 8.51 0 0 0-.14-1.74 15 15 0 0 1 1.59-8.74 5.62 5.62 0 0 1 2.69-2.79 9.35 9.35 0 0 0 1.84-.66 7.5 7.5 0 0 0 1.18-1.27 4.62 4.62 0 0 1 4.6-1.33A6 6 0 0 0 174 84c1-.15 1.79-.76 2.76-.9 1.17-.16 2.31.45 3.48.46.83 0 1.65-.29 2.47-.2a3.92 3.92 0 0 1 2.41 1.47 9.2 9.2 0 0 0 1.39 1.53c1 .74 2.45.82 3.21 1.8a9 9 0 0 1 .75 1.49 9.85 9.85 0 0 1 1.17 2.19 5.63 5.63 0 0 1-.24 2.16 2.46 2.46 0 0 0 .38 2.14"/>
    <path class="cls-28" d="M189.41 96.55v.32a41.21 41.21 0 0 1-1.66 13.44c-.92 3.09-2.28 6.2-5 8.36a10.5 10.5 0 0 1-10.36 1.66 11.92 11.92 0 0 1-3.08-2.08 19.41 19.41 0 0 1-5.49-8.19 28.77 28.77 0 0 1-1.19-6.9c-.27-3.61-.32-7.4 1.62-10.52a13.13 13.13 0 0 1 8.75-5.49 20.53 20.53 0 0 1 11.16 1.12 7.45 7.45 0 0 1 4.62 4.39 11.46 11.46 0 0 1 .58 3c.12 1.43.36 2.84.41 4.29a42.54 42.54 0 0 1-.88 10 18.33 18.33 0 0 1-1.2 3.92 12 12 0 0 1-8.22 6.53 12.83 12.83 0 0 1-10.29-2.28 13.85 13.85 0 0 1-5.33-9.15"/>
    <path class="cls-28" d="M162.86 103.31a1.79 1.79 0 0 0-1-.45 1.72 1.72 0 0 0-1.5 1 5.9 5.9 0 0 0 .1 5.69 5.26 5.26 0 0 0 2.32 2.44 2.21 2.21 0 0 0 1.59.22 1.52 1.52 0 0 0 1-1.1 3.47 3.47 0 0 0 0-1.47c-.37-1.89-.86-4.95-2.51-6.33Z"/>
    <path class="cls-34" d="M181 99.92c.44 1.65.62 3.3 1.41 4.57.31.62 1.12 1.22 1.24 2.31a1.45 1.45 0 0 1-1.95 1.53c2.31-.7.87-1.92-.15-3.32a7.08 7.08 0 0 1-.55-5.09Z"/>
    <path class="cls-7" d="M181.07 111.75a20.73 20.73 0 0 1-4.9-.32 1.12 1.12 0 0 0-.81 0 .55.55 0 0 0-.17.69 1.59 1.59 0 0 0 .53.6 7.12 7.12 0 0 0 5 1.24c.73-.09 2.1-.58 2.16-1.79.03-.96-1.25-.45-1.81-.42Z"/>
    <path class="cls-12" d="M176.88 96.63a.38.38 0 0 0 .3-.15.34.34 0 0 0-.08-.37 2.14 2.14 0 0 0-2.45-.57 4.33 4.33 0 0 0-2 1.79c-.26.4 0 .83.44.66a10.2 10.2 0 0 1 3.79-1.36ZM182.32 96.73a.33.33 0 0 1-.28-.1.34.34 0 0 1 0-.34 1.65 1.65 0 0 1 1.9-.86 4 4 0 0 1 2 1.31c.28.31.21.72-.23.64a8.7 8.7 0 0 0-3.39-.65Z"/>
    <ellipse class="cls-12" cx="175.72" cy="100.58" rx=".92" ry="1.42" transform="rotate(-6.38 175.905 100.605)"/>
    <ellipse class="cls-12" cx="183.96" cy="100.28" rx="1.49" ry=".85" transform="rotate(-85.05 183.97 100.28)"/>
    <path class="cls-45" d="M161.07 102.29c1.4 0 1.86 2.09 3.18 2.56.48-.58.2-1.45.35-2.19a5.22 5.22 0 0 1 .57-1.28c.8-1.57.74-3.48.93-5.2a2.06 2.06 0 0 1 .24-.91 3.34 3.34 0 0 1 .65-.65c.94-.87 1.24-2.36 2.36-3a5.94 5.94 0 0 1 2.27-.41 6.58 6.58 0 0 0 1.51-.33c1.22-.42 2.41-1.19 3.68-1s2.39 1.33 3.73 1.48a6.58 6.58 0 0 0 2.23-.35 2.85 2.85 0 0 1 2.15.06c.55.37.85 1 1.5 1.31.36.15.77.13 1.12.3.71.33.91 1.22 1 2a15.21 15.21 0 0 0 .41 2.62c.24.71.61 1.38.82 2.12a8.4 8.4 0 0 1 .3 3.15 12.24 12.24 0 0 0 .32-4.27c-.09-1.57-.25-3.13-.49-4.68a7.21 7.21 0 0 0-.61-2.27 6.32 6.32 0 0 0-2-2.19 19.29 19.29 0 0 0-12.36-3.29 20.28 20.28 0 0 0-6.62 1.38 16.33 16.33 0 0 0-4.09 2.4 8.76 8.76 0 0 0-2.13 2.29c-1.47 2.41-1.1 5.48-.63 8.26"/>
    <path class="cls-48" d="M148.54 145.85c-2.54 10.3-2.62 21.09-2.09 31.72l6.1.13c2.3-12.37 4.64-24.89 9.87-36.22.6-1.32 1.25-2.62 1.73-4 .86-2.5 4.42-19.79 4.36-19.77a27.56 27.56 0 0 0-11.21 9 46.88 46.88 0 0 0-5.08 8.56 55.45 55.45 0 0 0-3.68 10.58Z"/>
    <path class="cls-12" d="M178.43 243.08c.29-.09.25-.48.26-.77a1.7 1.7 0 0 1 1.36-1.4 5.56 5.56 0 0 1 2.15 0l1.69.25a2.08 2.08 0 0 1 .7.19 2 2 0 0 1 .53.55 12 12 0 0 0 4.78 3.12 92 92 0 0 0 10.68 3.98c.64.19 1.39.49 1.48 1.12s-.39 1-.85 1.26a11.19 11.19 0 0 1-5.35 1.33 50.06 50.06 0 0 1-20-2.93 1.71 1.71 0 0 1-.66-.37 1.39 1.39 0 0 1-.29-.68 11.24 11.24 0 0 1-.21-3.47 3.7 3.7 0 0 1 1.07-2.51c1.23-1.04 1.52.69 2.66.33ZM166.08 244.38c-.3-.08-.27-.47-.29-.76a1.71 1.71 0 0 0-1.43-1.34 5.55 5.55 0 0 0-2.14.13l-1.68.32a1.47 1.47 0 0 0-1.2.79 12.19 12.19 0 0 1-4.63 3.34 94 94 0 0 1-10.5 4.37c-.63.22-1.37.56-1.43 1.18s.44 1 .91 1.23a11.1 11.1 0 0 0 5.4 1.09 50 50 0 0 0 19.81-3.81 1.62 1.62 0 0 0 .64-.4 1.33 1.33 0 0 0 .26-.69 11.29 11.29 0 0 0 .06-3.48 3.64 3.64 0 0 0-1.18-2.46c-1.23-.89-1.45.8-2.6.49Z"/>
    <path class="cls-5" d="M135.76 97.36c.93-.21 2.08-.37 2.66.38a3 3 0 0 1 .38 1.62 7.58 7.58 0 0 0 1.12 3.36 3.35 3.35 0 0 1 .42.82c.23.88-.49 1.7-1.23 2.23a11.86 11.86 0 0 1-10.18 1.23 7.93 7.93 0 0 1-4.09-2.54 1.71 1.71 0 0 1-.43-1.08c0-.57.5-1 .88-1.42a5.44 5.44 0 0 0 1.14-2c.19-.6.22-1.75.86-2s2 .24 2.63.25a25 25 0 0 0 5.84-.85Z"/>
    <path class="cls-11" d="M79.14 115a3.28 3.28 0 0 0-2 1.29 22.93 22.93 0 0 0-2.8 4 3.27 3.27 0 0 0-.53 1.46 2.72 2.72 0 0 0 .63 1.69 3.69 3.69 0 0 0 3.13 1.6 5 5 0 0 0 3.13-2.08 6.65 6.65 0 0 0 1.24-2c.63-1.86-.11-6.18-2.8-5.96Z"/>
    <path class="cls-5" d="M141.22 105.08a8.08 8.08 0 0 1 3.29 3.16 11.29 11.29 0 0 1 .84 5.45c-.15 14-.67 28.09 1 42a2.1 2.1 0 0 1-.06 1.06 2 2 0 0 1-1.07.91 32.36 32.36 0 0 1-26.92.52 2 2 0 0 1-.58-.36 1.87 1.87 0 0 1-.26-1.56c1.31-10.37 1.23-20.85 2-31.26a100.86 100.86 0 0 1 2-15.08c.68-2.88 1.8-4.82 4.73-5.76 4.81-1.53 10.6-1.61 15.03.92Z"/>
    <circle class="cls-17" cx="37.78" cy="64.89" r="18.54"/>
    <path class="cls-7" d="M42.26 78.2a2.82 2.82 0 0 1-.86-.14 2.53 2.53 0 0 1-1.12-.61c-4.42-2.62-8.75-5.23-13.15-8.21-2.44-1.66-2.42-3.3-2.4-4a10.69 10.69 0 0 1 1.8-5.58c.23-.4.46-.82.68-1.25.53-1 1.1-2 1.67-3 .65-1.12 1.32-2.28 1.89-3.45l.5-1 .95.64c4.94 3.3 10 6.48 15.16 9.46l.9.52-.24.36a19.09 19.09 0 0 0 1.86 1.16c.41.24.87.5 1.46.86l.8.49-.45.84a108.28 108.28 0 0 1-6.46 11 3.67 3.67 0 0 1-2.99 1.91Zm-.55-2.15a2.08 2.08 0 0 0 .27.1c.21.07.76.23 1.63-1a99.57 99.57 0 0 0 5.89-10l-.6-.35a22.1 22.1 0 0 1-1.9-1.17c-1.07 1.69-2.13 3.4-3.14 5.11a16.06 16.06 0 0 0-2.29 5.31 3.43 3.43 0 0 0 0 1.65 1.33 1.33 0 0 0 .13.35Zm-9.66-22.18c-.47.88-1 1.73-1.45 2.56s-1.11 1.92-1.6 2.89c-.23.46-.47.89-.71 1.31a8.83 8.83 0 0 0-1.55 4.5v.14c0 .47 0 1.26 1.52 2.31 3.75 2.54 7.46 4.81 11.22 7.06a8.34 8.34 0 0 1 .11-.93 18.05 18.05 0 0 1 2.53-6c1.09-1.85 2.24-3.68 3.37-5.48a287.44 287.44 0 0 1-13.44-8.36Z"/>
    <circle class="cls-17" cx="83.09" cy="21.82" r="18.54"/>
    <path class="cls-7" d="m83.39 21.47-4.28-5.42 2.55-6.42 6.83-1L92.78 14l-2.55 6.43Zm-2-5.76 2.86 3.61 4.55-.66 1.7-4.28-2.86-3.61-4.55.67ZM85.61 34.43 81.32 29l2.55-6.42 6.84-1L95 27l-2.55 6.42Zm-2-5.75 2.86 3.61 4.53-.67 1.7-4.28-2.85-3.61-4.56.67ZM72.89 29.91l-4.29-5.42 2.55-6.43 6.84-1 4.28 5.42-2.55 6.42Zm-2-5.76 2.86 3.61 4.55-.67 1.7-4.28-2.86-3.6-4.55.66Z"/>
    <circle class="cls-17" cx="142.37" cy="21.66" r="18.54"/>
    <path class="cls-7" d="M154.85 29.09a11.45 11.45 0 0 0-1.43-1.59 5.3 5.3 0 0 0-3.76-1.5 9.14 9.14 0 0 0-3 1c-1.51.7-3.07 1.42-4.85 1.08a5.61 5.61 0 0 1-2.79-1.5 7.63 7.63 0 0 1-2.12-7.25 14.29 14.29 0 0 1 .83-2.25 12.31 12.31 0 0 0 .73-1.92A5.76 5.76 0 0 0 135.77 9l1-1.75a7.74 7.74 0 0 1 3.66 8.38 13.39 13.39 0 0 1-.84 2.25 12.23 12.23 0 0 0-.72 1.92 5.65 5.65 0 0 0 1.56 5.31 3.69 3.69 0 0 0 1.78 1 6.32 6.32 0 0 0 3.63-.93 10.59 10.59 0 0 1 3.69-1.18 7.11 7.11 0 0 1 5.23 2 13.85 13.85 0 0 1 1.69 1.88Z"/>
    <path class="cls-7" d="M147.11 36c-2.64-3.13-2.24-5.45-2-7 .05-.27.09-.51.11-.73a10.48 10.48 0 0 1 1.19-3.72 6.35 6.35 0 0 0 .93-3.64 3.86 3.86 0 0 0-1-1.78 5.7 5.7 0 0 0-5.32-1.56 12.31 12.31 0 0 0-1.92.73 14.29 14.29 0 0 1-2.25.83 7.72 7.72 0 0 1-8.38-3.65l1.75-1a5.75 5.75 0 0 0 6.15 2.68 12.23 12.23 0 0 0 1.92-.72 13.39 13.39 0 0 1 2.25-.84 7.64 7.64 0 0 1 7.25 2.13 5.54 5.54 0 0 1 1.5 2.78c.34 1.78-.38 3.34-1.08 4.85a9.14 9.14 0 0 0-1 3 9.15 9.15 0 0 1-.13.94c-.23 1.31-.51 2.94 1.53 5.36Z"/>
    <path class="cls-7" transform="rotate(-46.03 135.189 13.686)" d="M130.57 12.69h9.23v2h-9.23z"/>
    <path class="cls-7" transform="rotate(-47.43 141.79 20.396)" d="M137.19 19.4h9.18v2h-9.18z"/>
    <path class="cls-7" transform="rotate(-49.34 144.3 22.948)" d="M139.54 21.94h9.55v2h-9.55z"/>
    <path class="cls-7" transform="rotate(-42.74 149.885 30.152)" d="M144.98 29.15h9.76v2h-9.76z"/>
    <circle class="cls-17" cx="200.31" cy="20.53" r="18.54"/>
    <path class="cls-7" d="M202.62 31.75a1.46 1.46 0 0 1-.72-.21L190 24.85a1.25 1.25 0 0 1 .34-2.31c3.3-.75 6.28-1.44 9.23-2.39.69-.22.79-.4.79-.41a1.7 1.7 0 0 0-.14-.39c-1-2.36-2.06-4.72-3.2-7v-.1a12.15 12.15 0 0 1-1.16-3 1.19 1.19 0 0 1 .44-1.18 1.2 1.2 0 0 1 1.26-.15L211 14.27l-.25.83a19.72 19.72 0 0 1-1.75 4.07l-1.74-1a17.74 17.74 0 0 0 1.3-2.84l-10.24-4.81c.12.27.26.54.39.82l.05.09c1.16 2.34 2.25 4.74 3.26 7.14a2.69 2.69 0 0 1 .28 1.43c-.18 1.41-1.67 1.89-2.16 2-2.45.79-4.89 1.4-7.5 2l9.63 5.39 1-2.28 1.82.84-1.34 2.9a1.32 1.32 0 0 1-.89.8 1.06 1.06 0 0 1-.24.1Zm-4.89-22.9Z"/>
    <circle class="cls-17" cx="254.68" cy="20.53" r="18.54"/>
    <path class="cls-7" d="M256.82 26.67h-1.33c-5.86 0-5.86 0-6-.93a6.57 6.57 0 0 1-.09-1.28 1.79 1.79 0 0 0-.45-1.53 13.85 13.85 0 0 1-3.31-6.48A7.09 7.09 0 0 1 247 10a8.9 8.9 0 0 1 3.89-2.54 11.25 11.25 0 0 1 5.76-.53 8.83 8.83 0 0 1 5.16 2.87 8.15 8.15 0 0 1 .71 9.48 14.53 14.53 0 0 1-1.81 2.2q-.5.51-1 1.05a5.36 5.36 0 0 0-1.16 2v.25a2.12 2.12 0 0 1-.49 1.46 1.81 1.81 0 0 1-1.24.43Zm-.77-2h.55a4.08 4.08 0 0 1 .09-.64 7.38 7.38 0 0 1 1.56-2.77c.33-.39.68-.76 1-1.14a12.38 12.38 0 0 0 1.58-1.89 6.18 6.18 0 0 0-.53-7.1 6.93 6.93 0 0 0-4-2.22 9.29 9.29 0 0 0-4.74.46 6.88 6.88 0 0 0-3 1.95 5.14 5.14 0 0 0-1 4.58 11.88 11.88 0 0 0 2.81 5.63 3.69 3.69 0 0 1 1 2.92v.18h4.12ZM257.42 29.38l-6.82-.09a1 1 0 0 1 0-2l6.82.09a1 1 0 0 1 0 2ZM251.93 32a1 1 0 1 1 0-2h4.22a1 1 0 0 1 0 2h-4.23ZM253 34.56a1 1 0 0 1-1-1 1 1 0 0 1 1-1h2.25a1 1 0 0 1 0 2h-2.26Z"/>
    <circle class="cls-17" cx="296.41" cy="64.43" r="18.54"/>
    <path class="cls-7" d="M299.77 79.12a1.64 1.64 0 0 1-1-.36l-16.12-13a1.69 1.69 0 0 1 .65-3c9.75-2.4 12.22-3 12.83-3.22.62-.73 3-3.81 4.34-5.68l1.63 1.16c0 .06-4.32 5.91-4.91 6.26-.19.11-.37.22-12.79 3.27l15 12.08c0-13.45.11-13.94.15-14.13.09-.36.28-1.2 3.93-6.27l1.63 1.17c-3.22 4.47-3.57 5.41-3.61 5.56-.07.51-.11 6.2-.1 14.43a1.61 1.61 0 0 1-.92 1.47 1.63 1.63 0 0 1-.71.26Z"/>
    <path class="cls-7" d="M306.91 59.29a1 1 0 0 1-.62-.21L299 53.32a1 1 0 0 1-.16-1.41 1 1 0 0 1 1.4-.16l7.31 5.76a1 1 0 0 1 .16 1.4 1 1 0 0 1-.8.38Z"/>
  </g>
</svg>